<?xml version="1.0" encoding="utf-8"?>
<!-- Generator: Adobe Illustrator 16.0.0, SVG Export Plug-In . SVG Version: 6.00 Build 0)  -->
<!DOCTYPE svg PUBLIC "-//W3C//DTD SVG 1.1//EN" "http://www.w3.org/Graphics/SVG/1.1/DTD/svg11.dtd">
<svg version="1.1" id="Layer_1" xmlns="http://www.w3.org/2000/svg" xmlns:xlink="http://www.w3.org/1999/xlink" x="0px" y="0px"
	 width="582.183px" height="308.964px" viewBox="207.889 155.987 582.183 308.964"
	 enable-background="new 207.889 155.987 582.183 308.964" xml:space="preserve">
<g>
	<path fill="#DFCAB1" d="M456.448,300.014c-1.756-0.014-1.167-4.812-3.645-4.233c-4.584,1.07-9.47,0.496-13.937,2.15
		c-3.309,1.228-3.917-3.246-7.125-4.719c-2.677-1.229-1.361-2.309-1.418-5.025c-0.027-1.377-1.163-2.96-1.018-4.272
		c0.114-1.022,1.37-1.766,1.493-3.003c0.132-1.335-0.822-2.404-0.759-3.631c0.224-1.46,1.807-2.14,1.522-3.876
		c2.67-2.354-1.792-4.139-1.716-6.216c0.105-2.87,8.379-2.646,8.676-0.371c0.242,1.85,2.668,2.591,4.167,2.375
		c10.738-1.541,15.196,4.527,19.344,3.106c3.829-1.313,8.035,1.819,10.418-3.875c0.529-1.265,1.931-1.586,2.251-2.849
		c0.595-2.338-3.216-4.166-4.608-5.363c-2.271-1.95-2.219-3.716-5.373-4.188c-2.383-0.356-3.625-0.297-4.901-2.225
		c-0.816-1.234-2.049-1.471-3.415-1.615c-0.681-3.032-2.991-3.933-5.674-4.335c-2.531-0.38-5.086-1.328-6.744-3.373
		c-1.715-2.115-1.405-3.636-4.431-4.002c-3.467-0.42-7.293,0.415-8.562-3.037c-0.696-1.899-1.971-2.54-2.516-4.299
		c-0.501-1.049-1.339-1.707-2.512-1.975c-2.57-0.84-2.317-0.747-3.017-3.482c-0.635-2.483-1.086-5.042-2.124-7.402
		c-1.223-2.776,0.485-3.952,1.205-6.865c0.543-2.188,0.33-4.455-1.192-6.222c1.29-2.551,2.635-5.027,3.109-7.889
		c0.972-0.671,1.723-1.594,3.013-1.441c3.208,0.368,1.72-3.5,2.629-5.057c1.322-2.271,2.368-4.828,4.462-3.492
		c2.715,1.736,4.005,1.518,5.067,0.026c1.521-2.138,0.339-2.155,2.975-2.812c2.055-0.511,3.617-2.475,5.614-2.844
		c5.24-0.97,8.93,2.139,14.279,1.041c6.504-1.335,8.815,0.318,14.041,4.198c2.286,1.698,4.328,3.721,6.74,5.248
		c2.652,1.678,5.504,7.678,2.785,9.093c-2.155,1.123-4.398-0.112-5.106,2.014c-0.356,1.072-0.21,2.216-0.54,3.281
		c-1.925,0.93-2.694,1.906-3.074,4.089c-1.279-0.926-4.476-2.779-5.928-2.913c-1.787-0.164-2.446-1.833-3.576-3.01
		c-1.681-1.751-2.233-0.601-4.117-0.601c-1.937,0-3.868-2.481-5.655-3.137c-1.938-0.709-4.187-0.419-6.095,0.188
		c-4.812,1.531-9.132,6.067-9.315,11.293c-0.191,5.462,4.198,4.897,6.353,8.531c1.979,3.341,6.047,6.839,9.718,8.882
		c1.91,1.063,9.818,1.437,10.195,2.696c0.786,2.618-0.084,2.841,3.009,4.201c2.727,1.2,5.633,1.073,6.904,3.738
		c1.935,4.048,6.143,7.371,8.526,11.346c1.931,3.219,2.477,6.004,4.704,8.949c2.311,3.058,2.084,4.336,2.084,8.075
		c0,4.627-1.156,3.565-3.715,7.316c-2.423,3.55-2.795,8.275-5.537,11.596c-2.829,3.425-6.855,1.961-10.947,3.102
		c-3.438,0.959-6.999,1.969-10.316,2.947C460.761,296.546,459.115,300.035,456.448,300.014
		C456.263,300.012,456.55,300.014,456.448,300.014"/>
	<path fill="#DFCAB1" d="M417.995,306.242c-2.887,0.725-10.444-3.746-10.533-6.188c-0.203-5.601-0.594-11.46-2.056-16.922
		c-0.522-1.941-1.668-2.227-2.075-4.021c-0.463-2.036-1.292-5.28-2.336-7.012c-2.255-3.746-4.741-7.053-9.587-5.742
		c-3.478,0.941-6.079-3.298-8.704-2.601c-5.089,1.355-5.437,6.059-5.312,10.519c0.041,1.454,0.343,2.455-0.844,3.439
		c-2.644,2.194-1.218,2.77-2.184,5.826c-0.528,1.678-2.915,2.82-2.914,4.611c0.005,3.556,2.123,9.952-1.388,10.555
		c-3.57,0.61-3.523,0.008-6.148,2.044c-2.726,2.112-7.898-1.632-8.766-4.861c-0.515-1.916,2.206-3.073,2.605-5.096
		c0.604-3.059-0.984-6.546-0.061-9.455c0.652-2.05,3.755-2.759,3.824-5.047c0.093-3.062,0.792-6.105,1.292-9.116
		c1.597-9.616-1.662-23.105,6.481-30.62c2.287-2.11,2.513-1.562,2.709-5.032c0.147-2.608,0.844-5.104,1.198-7.683
		c0.389-2.828,0.106-4.247,2.673-6.066c2.778-1.967,2.97-2.459,2.441-6.088c-0.275-1.881-1.302-5.131,0.015-6.782
		c1.152-1.444,5.228-4.448,2.4-6.408c-1.517-1.049,2.35-4.974,3.076-5.539c1.572-1.226-0.687-5.633,1.192-5.686
		c10.168-0.282,8.736-6.941,11.028-1.858c1.174,2.601,1.831,5.535,4.01,7.547c1.142,1.052,2.913,0.877,4.108,1.857
		c1.444,1.186,0.808,3.632,1.253,5.438c1.356,5.52,4.473,8.714,4.613,14.613c0.059,2.468,0.476,5.246-0.396,7.479
		c-0.631,1.619,0.496,3.541,1.258,4.888c1.26,2.221,1.05,4.068,1.28,6.518c0.299,3.163,2.699,5.535,2.617,8.682
		c-0.1,3.854-0.143,6.703,1.521,10.256c2.071,4.414,0.257,6.562-0.156,10.942c-0.347,3.688,2.16,6.813,4.359,9.467
		c1.063,1.282,0.957,7.683,1.681,9.775c0.461,1.339,3.475,6.741,2.179,7.61c-2.74,1.841-5.153,1.929-5.162,5.604
		c-0.004,1.769,0.816,3.579,0.696,5.326C419.781,302.962,419.572,305.848,417.995,306.242
		C417.075,306.473,418.423,306.136,417.995,306.242 M383.553,245.046c2.215,5.02,8.665,1.279,12.369,1.279
		c6.175,0-1.399-12.626-1.641-14.347c-0.318-2.268,0.998-2.985-1.099-4.899c-1.146-1.045-3.128-2.199-4.619-0.834
		c-1.945,1.777-1.698,8.677-3.18,11.451C383.804,240.656,382.086,241.764,383.553,245.046
		C384.48,247.151,383.535,245.011,383.553,245.046"/>
	<path fill="#DFCAB1" d="M337.886,294.039c-3.815-2.228-4.285-6.314-6.593-9.391c-1.199-1.601-0.812-1.603-1.09-3.507
		c-0.304-2.089-2.221-2.613-2.09-4.584c0.304-4.456,0.604-9.967-4.106-12.278c-0.431-2.333-0.595-4.708-1.071-7.032
		c-0.28-1.364-3.07-5.836-2.835-6.585c1.967-6.249-3.651-7.482-4.319-12.607c-0.612-4.693,0.457-9.818-0.5-14.409
		c-0.458-2.193-1.546-2.416-1.54-4.793c0.007-3.021,0.165-5.869-0.363-8.866c-0.46-2.614,0.432-3.856,1.424-6.247
		c1.021-2.451-1.818-5.805,0.239-7.247c3.106-2.177,5.171-0.327,5.4-3.892c0.155-2.431-0.977-4.831,2.048-4.831
		c2.773,0,6.33-2.41,8.34-0.425c1.62,1.599-2.47,3.637-2.589,6.081c-0.195,3.999,1.87,7.567,2.242,11.479
		c0.279,2.941-1.736,8.603,0.599,10.97c1.535,1.559,3.778,1.604,5.176,3.686c1.688,1.996,2.108,5.961,1.137,8.252
		c-1.647,3.877-0.777,8.111,0.255,12.053c0.487,1.861,1.172,7.901,3.854,7.931c2.237,0,3.724-1.594,3.861-3.791
		c0.329-5.231-0.73-10.581-0.36-15.878c0.249-3.538,0.842-7.219,2.572-10.365c1.674-3.038,0.596-6.125,2.035-9.271
		c0.693-1.516,3.062-3.567,2.964-5.386c-0.17-3.241-0.151-6.639,0.77-9.782c1.47-5.014,4.604-4.002,8.546-5.491
		c1.713-0.647,3.057-3.366,4.861-3.366c1.854,0.143,5.655,2.498,5.621,3.689c-0.071,2.609-2.233,5.787-2.723,8.881
		c-0.271,1.719-1.395,2.681-2.118,4.26c-1.452,4.688-0.589,8.826-1.688,13.527c-0.703,3.005-0.887,7.705-3.368,9.911
		c-0.736,0.654-1.036,1.826-0.788,2.769c0.704,2.675,0.957,1.456-1.084,3.658c-2.677,2.889-1.688,5.479-1.506,8.938
		c0.141,2.714-3.406,4.495-3.29,7.169c0.163,3.74,0.214,4.373-1.775,8.098c-1.881,3.525,0.849,7.061-1.229,10.13
		c-1.8,2.654-1.084,6.666-3.018,8.435c-2.368,2.167-2.621,5.294-2.646,8.299c-0.024,2.888-0.632,4.318-2.796,6.229
		C341.35,289.454,340.363,292.455,337.886,294.039C335.755,292.795,338.509,293.641,337.886,294.039"/>
	<path fill="#DFCAB1" d="M263.986,313.652c-4.343,1.039-4.427-7.944-7.369-11.345c-2.025-2.34-2.339-6.785-1.685-10.01
		c0.593-2.915,3.561-4.575,3.764-7.734c0.39-6.001-5.904-10.367-2.324-16.212c2.416-3.944,2.597-10.964,0.66-15.232
		c-2.152-4.737-1.1-12.93-0.233-17.968c0.605-3.511,0.08-5.783-0.888-9.087c-0.803-2.735,2.056-5.603,2.722-8.162
		c0.697-2.678-0.478-5.018,0.986-7.556c1.555-2.703,1.663-5.594,1.77-8.647c0.092-2.642,0.148-5.421,1.998-7.518
		c2.118-2.396-2.654-5.786-1.151-7.562c1.445-1.707,4.476-0.075,6.705-0.243c3.677-0.278,1.734,3.562,3.322,6.194
		c1.337,2.217,3.269,2.727,3.775,5.434c0.551,2.95,1.118,5.768,2.109,8.604c1.188,3.397,3.487,8.337,3.126,11.915
		c-0.536,5.34,3.428,8.754,3.675,13.854c0.157,3.195,2.946,6.774,6.217,4.098c2.321-1.902,0.963-5.184,0.479-7.565
		c-0.569-2.807,0.121-5.796,0.011-8.636c-0.042-1.083-1.545-4.51-1.353-5.176c0.831-2.867,1.69-5.804,1.706-8.815
		c0.02-3.457-2.281-5.421-1.552-8.535c0.829-3.541-2.329-8.564,0.542-10.741c2.159-1.638,5.373,0.257,8.068,0.072
		c2.667-0.182,6.736-1.384,6.765,1.818c0.054,5.64-1.224,11.996-0.68,17.504c0.123,1.237,0.657,2.25,1.688,2.944
		c0.878,2.198,0.814,5.134,0.713,7.447c-0.109,2.492-1.771,3.69-2.35,6.031c-0.538,2.174,0.339,4.726,0.684,6.857
		c0.246,1.512-1.224,2.995-1.767,4.264c-1.285,3.01,0.19,6.705,1.152,9.585c2.247,6.735-0.48,9.338-1.719,15.661
		c-0.51,2.611,1.179,4.931-0.668,6.809c-2.507,2.548-3.358,4.428-3.729,8.011c-0.566,5.446,3.125,15.116-2.422,15.381
		c-3.854,0.185-6.709-5.053-9.324-8.095c-2.09-2.431,0.112-3.148-0.431-6.19c-0.617-3.389-4.209-4.143-5.316-7.073
		c-0.995-2.63-0.228-5.768-0.633-8.504c-0.508-3.429-1.6-6.003-1.692-9.683c-0.174-6.674-6.692-5.448-6.972,0.174
		c-0.286,5.832-2.115,11.608-1.484,17.494c0.294,2.752,1.606,4.9,1.456,7.745c-0.212,3.973-1.289,7.821-2.162,11.68
		c-0.462,2.043,4.296,10.988,0.102,10.988c-2.658,0-3.031,3.841-4.088,5.631C264.139,307.034,267.799,312.74,263.986,313.652
		C263.651,313.732,264.475,313.535,263.986,313.652"/>
	<path fill="#DFCAB1" d="M236.505,326.787c-2.645-0.321-3.963-4.768-5.78-6.606c-3.646-3.691-1.02-2.764-0.93-7.548
		c0.054-2.853-1.911-6.946-1.006-9.655c0.677-2.024-1.437-2.757-2.829-3.26c-2.903-1.046-2.479-2.176-1.965-5.08
		c1.005-5.682,0.863-11.625,3.835-16.782c2.106-3.661,1.716-6.201,0.873-10.172c-0.712-3.346-2.939-4.637-3.365-7.959
		c-0.151-1.172-0.578-2.189-1.124-3.223c-0.539-1.022,0.803-2.227,1.215-3.252c0.981-2.45,1.72-6.854-1.119-8.408
		c-0.364-2.605,0.507-5.693-1.239-7.962c0.925-1.954,0.759-3.998,1.201-6.044c0.379-1.768,2.989-2.419,2.273-4.474
		c-1.025-2.946-0.863-6.032,0.095-8.765c0.517-1.472-0.698-1.9-0.715-3.225c-0.023-1.79,0.478-3.655,0.998-5.351
		c0.873-2.843,1.941-4.81-0.407-7.367c-2.026-2.207-1.952-7.6,0.247-9.769c2.405-2.374,6.016,3.337,9.464,3.74
		c3.769,0.438,7.328-1.259,11.061-1.259c2.718,0,2.389,7.615,2.79,10.312c0.376,2.522,0.938,5.783-0.735,7.996
		c-0.886,1.168-2.566,2.51-0.869,4.031c-0.554,1.135-1.276,2.086-1.433,3.393c-0.494,4.137,0.383,8.271,0.649,12.39
		c0.261,4.039-0.386,7.974-0.854,11.971c-0.266,2.256-0.455,4.551-0.201,6.818c-0.985,0.393-1.673,1.263-1.822,2.3
		c-0.456,3.151,1.295,7.241,1.609,10.426c0.387,3.899-1.387,6.331-1.627,9.848c-0.25,3.692,1.274,7.362,0.762,11.026
		c-0.55,3.92-4.343,6.658-3.738,10.911c0.173,1.198,1.082,2.836,0.538,4.006c-0.563,1.215-1.264,2.398-1.382,3.77
		c0.208-2.393,0.236,2.145,0.299,2.066c-1,1.234-1.82,2.571-1.779,4.222c0.074,2.957-1.627,3.437-2.122,6.245
		C236.737,319.701,240.37,327.256,236.505,326.787C236.114,326.74,237.281,326.881,236.505,326.787"/>
	<path fill="#DFCAB1" d="M248.229,185.703c-2.22,2.06-5.878-1.374-8.95-0.887c-2.562,0.407-5.099-1.196-7.982-1.196
		c-6.561,0-7.232-3.911-7.762-9.351c-0.316-3.247,0.795-4.107,1.216-8.539c0.172-1.814,1.052-3.262,1.708-4.626
		c0.891-1.855,1.353-5.17,3.408-5.117c2.921,0.075,2.788,2.996,5.535,2.996c2.017,0,1.632,1.312,3.355,1.623
		c1.712,0.312,2.895-0.684,4.879-0.138c2.512,0.69,4.266,0.288,4.195,3.226c-0.063,2.529-0.433,5.038-0.517,7.566
		c-0.069,2.116,0.06,4.36,1.081,6.267C249.667,179.897,250.329,183.756,248.229,185.703
		C247.646,186.245,250.123,183.948,248.229,185.703"/>
	<path fill="#DFCAB1" d="M580.545,303.487c-1.571-0.363-4.996-4.035-6.56-4.035c-2.925,0-3.885,2.561-6.93,2.501
		c-1.562-0.028-2.521-1.777-3.649-3.573c-1.057-1.678,1.325-3.763,1.725-5.717c0.648-3.18,1.5-6.693,1.584-9.95
		c0.084-3.244-2.186-5.965-1.629-8.936c0.313-1.67-0.486-3.083-0.635-4.918c-0.111-1.392,2.752-4.123,3.567-5.295
		c0.952-1.376,1.362-2.818,1.373-4.455c0.017-2.503-0.771-3.027-0.241-5.782c0.727-3.795,1.417-7.711,0.659-11.561
		c-0.67-3.397-5.398-9.831-4.358-12.694c0.405-1.118,0.188-2.147-0.39-3.13c-0.472-0.804,0.45-2.935,0.573-3.829
		c0.531-3.872-2.335-6.122-2.986-9.602c-0.658-3.508-0.763-7.979,0.54-11.334c1.479-3.818-2.488-6.792-0.058-9.568
		c2.336-2.667,5.999,3.749,9.493,4.267c4.018,0.594,8.582,2.159,12.419,0.251c2.109-1.047,5.606-0.832,6.837,0.395
		c2.666,2.657,11.081,0.491,12.209,1.334c1.87,1.4,2.098-1.85,4.329-1.015c3.184,1.191,4.057,0.142,6.102,3.024
		c1.12,1.578,2.516,2.943,4.391,3.575c3.396,1.146,3.135,2.521,3.053,6.04c-0.056,2.316-0.14,4.698,0.421,6.967
		c0.806,3.266,2.92,4.092,3.396,7.646c0.562,4.195,3.148,9.169,0.856,13.093c-1.172,2.008-2.622,4.031-4.165,5.77
		c-1.24,1.398-2.094,5.672-3.783,5.674c-1.254,0.001-2.309-0.869-3.161,0.235c-0.958,1.24-3.074,5.309-3.38,6.835
		c-0.612,3.052,3.838,4.259,2.372,5.913c-3.535,3.991-1.227,4.446,4.658,5.426c3.188,0.529,4.693,2.86,7.003,4.75
		c1.92,1.572,1.22,4.157,2.778,6.19c1.535,2.003,1.986,5.101,1.645,7.565c-0.663,4.793,7.823,5.216,5.837,9.556
		c-1.367,2.988-2.494,2.623-5.091,5.718c-1.909,2.275-2.825-2.36-4.276-4.261c-1.82-2.38-4.979-1.976-6.616-4.425
		c-0.824-1.237-2.542-3.854-3.123-5.154c-3.308-7.394-7.988-7.797-8.397-9.671c-0.244-0.913-1.181-1.268-1.585-2.14
		c-0.528-1.14,0.426-2.445-0.202-3.644c-0.941-1.782-2.885-3.328-4.344-4.667c-1.088-1-5.014-1.749-5.302-2.349
		c-1.327-2.765-9.736-5.569-12.564-4.112c-1.68,0.865-1.918,2.808-1.823,4.483c0.165,3.005-1.78,5.632-1.532,8.847
		c0.26,3.302-1.569,5.885-2.139,9.041c-0.656,3.648,1.709,6.168,3.424,9.065c1.669,2.821,5.999,5.827,4.521,7.496
		C585.365,301.616,583.073,304.071,580.545,303.487C580.156,303.396,581.039,303.601,580.545,303.487 M594.024,215.137
		c-3.946,0-11.239,1.164-9.85,6.428c1.36,5.15,1.963,7.072,0.109,12.144c-1.701,4.656-0.876,10.022,4.579,9.391
		c2.688-0.312,2.193-1.389,4.046-2.278c2.521-1.207,5.072,1.148,7.866,0.146c7.19-2.583,7.674-9.533,8.381-16.191
		c0.277-2.616,0.555-11.007-3.879-11.007c-1.407,0-2.879,0.779-4.213,1.155C598.702,215.589,596.419,215.137,594.024,215.137
		C590.503,215.137,594.819,215.137,594.024,215.137"/>
	<path fill="#DFCAB1" d="M646.429,302.147c-4.047-1.416,1.571-7.097-1.653-10.914c-3.158-3.735-2.839-7.318-4.653-11.603
		c-1.198-2.83-1.593-1.348-0.771-4.328c0.572-2.078-0.238-4.001,0.506-6.09c1.591-4.466,1.208-7.517-0.603-11.703
		c-0.766-1.762-1.692-3.464-2.84-5.008c-1.671-2.248-0.11-4.478,0.253-7.229c0.776-5.896,0.342-11.885,0.318-17.81
		c-0.021-6.206-1.756-17.822-2.597-25.523c-0.258-2.375,0.796-5.068,3.059-6.047c2.511-1.087,7.799,0.507,10.165,0.092
		c2.318-0.404,2.762-1.26,4.337,0.542c0.982,1.124,2.203,1.972,3.276,2.998c1.938,1.858,8.042-0.707,10.375-0.53
		c2.856,0.216,4.862,4.18,7.934,2.964c1.412-0.561,1.738-1.795,3.233-1.394c1.729,0.467,3.462,0.924,5.221,1.269
		c3.229,0.629,7.013,1.136,10.229,0.111c2.162-0.688,5.777-2.302,6.336,1.572c0.247,1.71,7.976,3.653,8.543,5.443
		c0.564,1.782-1.335,3.49-2.941,4.573c-1.129,0.763-2.744,0.105-4.001,0.659c-2.63,1.161-3.854,3.626-5.369,5.879
		c-1.342,2-8.333,0.657-10.506-0.195c-2.679-1.051-3.604-3.706-6.834-4.036c-4.403-0.45-16.925-2.029-16.09,4.698
		c0.258,2.071,2.788,6.922,0.709,8.602c-3.112,2.513,2.443,5.86,4.565,6.096c2.989,0.332,6.999,0.648,10,0.648
		c2.922,0,2.879-1.808,5.666-0.55c2.062,0.932,3.807-0.611,5.336-0.108c2.133,0.701,4.125,3.629,6.307,3.629
		c3.179,0,5.788-0.13,8.782,1.287c1.306,0.619,2.793,1.05,3.957,1.935c-0.11,1.053,0.331,2.045,1.268,2.568
		c-0.412,0.34-1.709,2.487-2.125,2.487c-1.557,0-2.982,0.495-4.246,1.387c-0.879,0.623-1.702,1.585-2.812,1.796
		c-2.352,0.444-0.68,4.707-2.295,5.437c-4.541,2.047-10.879-5.579-15.881-5.579c-2.604,0-2.662,2.347-5.31,2.532
		c-2.808,0.196-5.622,0.39-8.423-0.025c-1.703-0.254-5.271-2.119-6.199,0.493c-1.065,3.002-1.149,6.305-1.221,9.455
		c-0.09,3.978-3.363,17.456,2.229,17.453c2.03,0,3.567-1.815,5.41-1.815c2.228,0,3.623,0.419,5.359-1.266
		c3.064,0.809,6.76,7.898,10.332,4.24c1.893-1.936,3.225-1.533,6.124-1.665c2.116-0.097,5.848-1.89,7.261-0.969
		c2.122,1.387,4.453-0.263,6.646-0.263c2.711,0.034,6.73-2.116,8.124,0.216c1.646,2.758-4.6,7.001-7.415,8.147
		c-3.177,1.29-5.344,6.12-8.196,6.601c-1.497,0.251-2.069,0.736-3.184,1.676c-2.036-0.062-3.611-1.939-5.062-3.129
		c-3.44-2.816-5.643-1.812-9.798-0.725c-1.927,0.503-3.846,1.128-5.595,2.095c-2.694,1.492-2.12,0.062-4.923-0.445
		c-3.259-0.587-6.545,0.381-9.809-0.018c-1.771-0.211-4.958,3.569-5.968,4.84c-0.97,1.22-0.894,2.83-2.126,3.688
		C648.098,301.812,647.314,302.458,646.429,302.147C645.727,301.901,646.882,302.307,646.429,302.147"/>
	<path fill="#DFCAB1" d="M737.395,302.079c-1.921,0.929-4.229-0.021-6.33-0.324c-2.196-0.32-2.402-4.4-4.172-6.297
		c-3.461-3.709-8.839,3.333-11.874,3.767c-4.574,0.652-2.608-3.699-4.206-6.961c-1.381-2.821,2.254-4.793,3.916-7.212
		c2.225-3.237-0.652-7.723,0.451-11.858c0.574-2.151,7.896-4.112,9.875-3.143c2.283,1.12,2.711,13.018,6.288,12.757
		c2.392-0.168,8.332,2.669,10.335,2.669c1.67,0,6.599-4.535,8.269-4.535c4.368,0,0.072-4.538,0.417-8.596
		c0.185-2.143,0.854-6.318-0.159-8.266c-0.774-1.491-4.509-1.873-5.747-2.893c-1.524-1.255-1.447-3.567-4.022-3.567
		c-2.273,0-4.024-2.501-6.278-3.429c-1.166-0.468-2.347-0.888-3.548-1.26c-0.684-1.673-1.849-2.861-3.403-3.736
		c-2.054-1.154-5.558-1.798-6.057-4.243c-0.933-4.571-6.782-7.593-5.117-11.924c0.539-1.406-6.08-9.171-4.018-9.415
		c3.494-0.414,6.23-5.441,6.848-8.742c0.381-2.027-1.382-7.229,1.756-5.567c2.167,1.148,4.851,0.804,6.961-0.295
		c1.316-0.688,3.502-3.682,4.829-3.682c1.252,0,3.475,0.404,4.565-0.454c4.514-3.553,3.943,1.237,8.83,1.923
		c2.343,0.332,6.581-0.71,8.361-2.166c1.428,1.396,3.777,0.782,5.525,0.782c2.977,0,2.169,3.895,3.237,5.62
		c1.133,1.834,4.534,2.215,6.286,1.501c13.012,22.345-0.276,20.027-1.24,18.571c-1.11-1.676-3.5-1.022-4.815-0.092
		c-2.901-1.12-4.52-3.96-6.286-6.321c-0.844-1.128-4.375-3.383-4.207-4.844c0.456-3.948-5.927-2.119-7.623-1.559
		c-4.37,1.443-7.123-1.03-11.049,2.644c-4.048,3.79-0.893,7.426,0.023,11.649c1.449,6.669,3.768,8.384,9.079,12.126
		c1.194,0.842,1.714,2.743,3.523,2.275c2.616-0.67,3.834,1.713,5.501,3.237c2.127,1.949,6.911,1.854,8.771,4.279
		c3.011,3.934,2.523,3.25,5.818,4.531c3.799,1.477,2.27,8.162,2.597,12.077c0.184,2.184,1.99,10.727,1.718,11.7
		c-0.554,1.963-5.734,4.795-6.138,6.937c-0.586,3.125-3.157,2.026-3.654,4.855c-0.699,3.962-3.289,3.414-6.76,3.66
		c-4.279,0.305-7.717,3.245-11.386,4.709C740.756,303.9,740.209,300.718,737.395,302.079
		C736.459,302.531,738.653,301.471,737.395,302.079"/>
	<path fill="#DFCAB1" d="M520.554,294.391c-1.939-1.023-3.972-5.611-5.741-5.348c-1.188,0.18-2.655,1.273-3.816,1.273
		c-1.146,0-1.8-4.68-1.979-5.5c-1.053-4.827-2.278-6.917-6.08-9.852c-1.423-1.099-0.602-5.014-0.602-6.604
		c0-1.727,0.314-3.71-1.063-5.051c-0.618-0.603-1.599-0.485-2.228-1.085c-1.034-0.988-0.68-2.771-1.206-4.102
		c-0.943-2.394-2.284-4.595-3.796-6.667c-3.289-4.512-2.136-8.571-1.539-13.993c0.284-2.598,0.517-5.256,0.162-7.861
		c-0.286-2.084-1.414-3.682-0.853-5.814c0.37-1.407,2.201-2.637,2.318-3.998c0.227-2.589,0.304-5.194,0.619-7.774
		c0.482-3.948,3.352-5.491,4.335-9.096c0.261-0.95,0.595-1.805,0.746-2.784c0.428-2.737,2.823-2.335,5.016-3.533
		c3.84-2.098,5.018-5.782,7.787-8.563c3.228-0.252,4.069,3.877,6.962,3.877c4.158,0,6.376-6.506,9.557-4.495
		c1.462,0.924,2.775,2.104,3.341,3.797c0.681,2.034,3.85,1.572,5.468,1.969c3.803,0.933,8.172,2.233,11.296,4.714
		c4.311,3.424,2.548,10.844,5.153,15.274c1.331,2.263,1.864,4.88,2.775,7.318c1.204,3.23-0.444,6.35-0.209,9.692
		c0.359,5.097,3.424,9.309,2.331,14.036c-0.753,3.264-1.297,4.786-3.122,7.293c-0.775,1.058-1.78,0.248-2.146,1.912
		c-0.43,1.961-0.562,3.957-0.539,5.959c0.071,7.285-2.996,10.94-5.38,17.522c-0.5,1.353,0.248,3.323-0.904,4.189
		c-0.727,0.545-1.701,0.226-2.504,0.621c-2.044,1.008-2.481,3.093-4.533,4.094c-1.823,0.891-1.414,2.773-2.535,3.673
		c-2.435,1.949-2.614-1.381-5.177-1.381c-1.872,0-3.858,0.459-5.253,1.763c-0.979,0.913-1.714,2.5-2.818,3.226
		C523.259,293.839,521.76,293.488,520.554,294.391C518.483,293.299,521.518,293.67,520.554,294.391 M529.054,272.927
		c2.071-3.374,6.258-4.801,8.58-8.021c1.112-1.542,1.87-8.508,0.777-10.513c-1.941-3.57,1.306-8.144,1.182-12.095
		c-0.062-1.963-0.658-4.035-0.023-5.896c0.312-0.917,1.604-1.195,2.189-2.025c2.146-3.04-0.399-3.894-1.353-6.312
		c-1.054-2.68,0.814-6.51-0.309-8.684c-1.389-2.686-4.329-3.802-5.067-6.893c-0.764-3.193-0.711-7.004-3.95-8.868
		c-4.77-2.746-13.539,0.67-16.199,5.387c-1.795,3.179-0.022,6.502-1.663,9.393c-1.583,2.788-2.245,6.078-2.409,9.251
		c-0.141,2.708,1.719,4.461,0.911,6.913c-0.545,1.651,1.089,2.926,1.134,4.581c0.052,1.877-1.668,3.313-1.808,5.168
		c-0.167,2.18,1.762,8.781,0.096,9.407c-2.914,1.093-1.771,4.648-0.574,6.625c1.058,1.746,1.443,6.83,3.08,7.436
		c3.107,1.149,2.394,3.926,5.57,3.233c1.376-0.299,2.379,0.014,3.754-0.285C525.116,270.261,527.619,275.264,529.054,272.927"/>
	<path fill="#DFCAB1" d="M507.602,342.91c-2.744,0-7.971-0.356-6.518-3.898c1.702-4.138,4.661-7.871,3.788-12.481
		c-1.644-8.672-4.405-15.519-2.919-25.892c0.84-5.874,6.841,3.887,10.306,4.086c1.77,0.105,8.597-1.734,9.491,0.141
		c1.936,4.047,7.288-1.197,9.677,0.007c3.527,1.776,9.122-1.116,9.925,2.936c0.359,1.818-4.008,2.27-5.784,2.27
		c-3.374-0.404-6.705,1.793-10.028,2.248c-3.531,0.482-7.613-2.058-10.371,0.646c-9.989,9.799,13.265,4.184,13.902,8.678
		c0.122,0.857-0.776,1.595-1.438,2.129c-1.802,1.453-4.653,0.254-6.91,0.777c-3.229,0.749-8.653,5.182-5.812,8.831
		c3.209,4.122,8.396,1.111,12.533,0.991c2.688,0,7.979-1.943,9.033,0.681c2.32,5.772-3.778,3.797-9.472,4.815
		c-3.206,0.58-6.165,3.837-9.479,1.176C515.819,339.682,509.796,342.91,507.602,342.91
		C507.067,342.91,511.478,342.91,507.602,342.91"/>
	<path fill="#DFCAB1" d="M468.538,348.175c-2.161-1.044-3.175-0.593-4.762-2.399c-2.453-2.789-5.683,0.573-6.921-2.377
		c-1.615-3.848,4.651-1.668,4.696-6.552c0.028-2.988,2.719-5.882,2.503-8.64c-0.274-3.507-0.563-6.513-1.641-9.79
		c-1.394-4.244,0.852-4.583,0.644-8.733c-0.22-4.354-0.476-8.708-1.089-13.03c3.072-1.176,5.731-0.7,9.253-0.421
		c3.517,0.281,7.122,0.539,10.565,1.356c2.361,0.56,4.505,2.159,6.814,2.54c7.648,1.26,5.274,10.083,7.786,15.845
		c1.496,3.43,3.226,4.694,2.381,9.063c-0.375,1.942-1.458,8.678-3.198,9.451c-2.252,1.003-3.818,4.536-5.809,4.536
		c-1.36,0-2.257,0.811-2.665,2.044c-1.985,0.816-4.085,1.323-6.132,1.953C476.381,344.435,473.555,348.314,468.538,348.175
		C468.43,348.123,468.55,348.175,468.538,348.175 M474.36,318.727c-1.857,3.821-0.646,8.124-0.922,12.163
		c-0.16,2.329-2.488,6.503,1.565,6.503c2.647,0,4.097-1.822,5.579-3.705c3.064,0.336,1.898-3.715,4.599-3.088
		c3.135,0.718,3.599-4.492,3.309-6.458c-0.614-4.19-0.955-8.002-4.419-10.248c-3.266-2.118-5.572-4.266-9.799-3.845
		C470.031,310.471,473.378,316.91,474.36,318.727C473.109,321.297,474.227,318.479,474.36,318.727"/>
	<path fill="#DFCAB1" d="M330.326,458.146c-4.057,1.495-10.183-3.11-11.323-6.941c-0.482-1.617,4.135-1.739,3.477-3.974
		c-0.961-3.281-2.149-3.412-1.668-6.319c0.365-2.188-0.741-4.627-0.579-6.948c0.189-2.688,0.397-6.569-2.342-8.157
		c0.392-2.362-1.085-4.399-2.924-5.76c0.17-2.757,0.2-5.522,0.432-8.275c0.216-2.532-0.207-5.498,2.541-6.465
		c3.053-1.073-0.075-5.222-0.077-7.211c-0.004-1.06,1.236-2.226,1.449-3.315c0.582-2.968,0.103-6.385-0.805-9.241
		c-0.229-0.756-0.688-1.322-1.377-1.699c0.254-1.63-0.341-2.777-1.309-4.105c-2.398-3.293-2.521-2.455-1.297-6.072
		c0.518-1.534,0.783-3.765,0.239-5.32c-0.881-2.505-4.484-4.709-2.961-7.305c1.181-2.019,1.578-0.016,3.201-1.06
		c2.733,0,0.983-5.13,2.693-5.925c1.97-0.915,3.25,4.021,5.788,3.671c4.191-0.573,11.199-4.01,15.066-0.943
		c3.323,2.639,7.516,1.707,11.739,1.707c-0.234,1.568,4.061,3.905,4.475,2.317c0.669-2.559,2.129-2.392,2.209-5.039
		c0.061-1.938-0.073-3.911-0.594-5.788c1.081-0.363,2.188-0.621,3.238-1.078c2.637-1.148,3.018-3.328,5.487-4.375
		c2.48-1.049,4.124-3.873,7.13-3.083c1.443,0.379,0.584-1.04,2.398-2.988c2.665-2.863,7.913-4.821,11.158-2.559
		c2.452,1.71-2.79,1.539-3.116,4.823c-0.221,2.21,0.752,3.955-0.792,6.096c-1.356,1.883-4.201,0.997-5.18,3.064
		c-1.218,2.571-2.498,1.335-4.34,3.412c-1.214,1.37-3.636,3.279-3.913,5.033c-0.298,1.881,3.696,3.941,5.244,3.941
		c3.431,0,2.799-1.38,6.161-0.175c1.011,0.36,0.925,0.76,1.845,1.322c1.515,0.927,3.198-0.574,4.852,0.062
		c1.377,0.53,2.567,1.406,3.972,1.889c2.395,0.823,1.402,0.515,1.343,2.884c-0.081,3.428,5.811,5.493,5.217,9.377
		c-4.541-0.5-8.967,0.553-13.196,0.417c-3.201-0.104-10.558,1.538-13.035-0.837c-1.558-1.494-4.528-1.337-5.822-2.837
		c-1.485-1.719-4.855,0.155-6.657-0.487c-3.304-1.18-6.908-0.129-10.253,0.26c-2.264,0.262-5.969-1.737-7.724-1.135
		c-2.038,0.697-2.785,2.444-2.427,4.457c0.542,3.067-1.678,3.479-1.969,6.262c-0.356,3.371-0.382,9.789,3.184,11.48
		c3.406,1.614,8.029,4.021,11.805,2.391c3.062-1.32,1.19-1.243,4.36-1.243c2.601,0,3.381-3.888,5.524-3.62
		c3.552,0.446,1.176,6.378,5.675,7.833c0.925,0.299,2.312,0.482,2.227,1.875c-0.143,2.289,5.47,2.535,4.399,4.52
		c-1.558,2.887-5.153,1.562-8.485,1.562c-3.345,0-5.688,2.837-9.061,2.216c-3.573-0.658-6.793-2.354-10.509-2.354
		c-4.579,0-4.394,3.169-7.903,5.223c-2.031,1.19-1.785,2.665-2.562,4.555c-1.15,2.804,3.261,5.482,1.734,7.728
		c-1.456,2.137-1.826,5.672,1.241,6.678c1.622,0.532,3.085-0.331,4.675-0.331c2.01,0.235,3.729,1.542,5.792,1.542
		c2.953,0,2.629-2.071,4.291-3.511c1.639-1.424,4.649,1.617,6.126,1.937c3.451,0.746,15.006,2.207,12.312-4.558
		c-0.884-2.224,6.562-2.053,7.621-1.355c0.283,1.028,0.524,2.04,1.198,2.908c1.475,1.902,2.595-0.224,4.09,0.693
		c3.611,2.21,9.522-0.424,10.539,3.589c0.68,2.68-4.594,2.383-5.918,5.067c-1.241,2.515-2.097,4.319-4.372,6.133
		c-4.721,0.407-6.994,4.354-12.137,4.354c-4.521-0.063-9.932-2.138-14.317-0.597c-3.919,1.377-6.236,0.547-10.439,0.45
		c-4.599-0.105-7.288,0.162-11.412-1.81C328.514,443.649,334.569,456.583,330.326,458.146
		C330.095,458.231,331.086,457.867,330.326,458.146"/>
	<path fill="#DFCAB1" d="M266.925,453.376c-2.759,0-5.738-3.183-9.008-3.389c-4.048-0.256-8.068,0.465-12.11,0.465
		c-3.776,0-2.835-1.271-5.662-2.913c0.912-3.174-3.751-4.272-6.024-5.1c-2.898-3.238-8.076-3.467-9.787-7.377
		c-0.647-1.481-1.581-1.331-1.987-2.944c-0.435-1.724-0.782-3.11-1.913-4.53c-1.346-1.691-4.002-2.447-3.919-4.625
		c0.079-2.118,1.495-3.002-0.602-4.779c-2.518-2.132,0.312-7.083-1.097-9.864c-1.47-2.91-3.219-6.347-2.416-9.825
		c3.131-1.7-0.057-5.488-2.058-6.411c0.423-1.863-0.599-3.261-2.005-4.298c-1.345-0.993,0.717-5.005,1.261-6.398
		c1.528-3.922,3.68-7.623,6.62-10.658c0.91-0.938,2.633-1.876,3.141-3.129c0.621-1.533,0.154-3.704,0.612-5.393
		c0.549-1.86,5.092-1.241,5.491-4.856c0.586-5.317-8.817,0.25-9.974-1.387c-3.152-4.473,6.696-8.151,10.552-11.699
		c2.422-2.229,2.499-2.463,5.661-2.768c2.177-0.21,4.341-0.93,6.539-0.893c3.375,0.037,9.521,2.931,12.349-0.104
		c1.489-1.599,3.377-1.046,5.359-2.333c3.124-2.025,4.975,0.202,8.393,0.202c2.465,0,2.802-1.658,5.02-0.246
		c2.187,1.392,4.086,3.186,6.308,4.529c2.493,1.51,5.274,2.347,8.192,2.431c0.419,2.335,0.224,4.01,2.809,5.207
		c1.787,0.827,2.276,2.948,4.019,4.232c2.192,1.618,3.026,2.077,3.938,4.565c0.941,2.562,3.543,3.081,4.974,5.233
		c1.795,2.696,4.537,7.094,2.259,9.312c-3.508,3.417-1.376,3.9-6.519,6.125c-1.269,0.549-2.017-1.188-3.438-1.664
		c-2.944-0.983-3.567-3.721-6.578-4.845c-3.785-1.413-7.619-2.902-9.77-6.366c-1.272-2.046-3.1-5.32-5.907-5.32
		c-2.766,0-2.784-1.579-5.194-2.649c-2.628-1.164-5.884,1.152-7.99-1.288c-4.673-5.413-4.92,0.462-9.48,2.484
		c-1.388,0.615-3.014-0.545-3.912,1.3c-0.606,1.248-3.986,8.009-5.295,8.009c-4.212,0-3.502,7.84-8.104,8.723
		c-2.791,0.535-2.291,14.119-2.455,16.846c-0.145,2.338,1.189,3.99,3.271,4.831c1.327,0.535,0.489,5.414,1.103,7.263
		c0.819,2.464,2.538,4.449,4.485,6.108c-0.272,2.269-2.208,3.098-0.748,5.508c2.252,3.723,8.33,4.546,10.848,8.088
		c2.157,3.037,8.059,6.074,11.327,3.476c1.017-0.808,5.371,2.852,7.583,2.676c2.45-0.193,4.861-0.503,6.568-2.431
		c1.793-2.021,7.841-0.634,10.332-0.805c4.233-0.29,5.576-2.172,9.658,0.053c1.938,1.056,4.937-1.062,6.256-2.292
		c2.345-2.192,5.254-1.456,8.472-1.286c-0.761-0.041,2.974,5.617,4.25,6.245c-0.881,0.482-1.376,1.219-1.486,2.207
		c-1.073,0.176-2.146,0.356-3.216,0.545c-3.349,0.752-5.506,3.802-8.588,5.104c-1.874,0.792-3.276,0.478-4.761,2.188
		c-1.658,1.909-1.476,3.324-4.35,3.324c-1.922-0.071-3.934-0.331-5.817,0.192c-3.188,0.886-5.001,3.82-7.995,4.937
		c-1.086,0.404-1.628,0.201-2.629,0.201C269.781,451.132,268.471,453.376,266.925,453.376
		C266.281,453.376,266.965,453.376,266.925,453.376"/>
	<path fill="#DFCAB1" d="M758.193,453.978c0-4.632-15.147-0.263-17.753-2.466c-1.038-0.878-2.79-3.371-4.476-3.371
		c-2.314,0-5.793,2.829-6.964,0.727c-1.72-3.084,1.656-4.671,0.789-8.177c-0.696-2.82,4.298-4.113,4.55-6.616
		c0.36-3.545-2.763-5.378-2.975-8.55c-0.218-3.273,0.439-11.689,3.602-11.054c3.374,0.677-2.701,22.33,25.589,16.895
		c5.96-1.145,12.312-14.254,5.624-18.577c-2.449-1.584-3.208-3.953-6.133-3.953c-1.938,0-4.493-4.055-4.132-5.849
		c1.283-6.336-16.631,0.513-18.477-2.854c-1.11-2.05-1.616-1.456-3.143-2.574c-3.482-3.36-1.155-3.99-0.703-8.173
		c0.479-4.407-0.996-7.623,0.358-12.129c1.483-4.936,0.903-8.222-0.821-12.969c-0.956-2.626-1.532-5.352-2.504-7.955
		c-0.093-2.635,0.438-10.331,3.188-10.704c5.07-0.688,4.061,2.889,7.912,0.847c3.88-2.057,8.125-3.338,11.92-5.569
		c3.487-2.051,4.268,3.38,7.782,4.418c3.184,0.943,3.7-2.855,5.991-2.531c2.888,0.405,3.938-2.209,6.016-0.237
		c1.023,0.972,2.097,1.865,3.481,2.276c0.053,2.368,1.178,4.079,2.049,6.173c1.416,3.406,4.075,3.682,7.094,5.78
		c0.296,4.382,5.795,8.756,3.421,12.384c-0.781,1.194-1.615,2.504-2.957,2.543c-2.696,0.078-2.271-2.238-4.416-2.238
		c-1.285,0-2.64-2.489-4.283-2.826c-0.669-0.137-1.771-3.235-2.711-3.847c-2.238-1.455-3.864-0.501-5.896-2.437
		c-2.14-2.041-4.937,0.052-6.955-1.743c-1.163-1.032-3.144-4.357-4.69-4.357c-6.833,0-7.389,6.685-12.383,9.244
		c-2.96,1.518-3.829,2.24-2.741,6.007c0.914,3.153-1.205,5.945,0.209,9.09c0.979,2.182,3.008,3.516,4.109,5.584
		c1.04,1.959,4.969,0.953,6.646,1.056c2.9,0.175,5.771,0.677,8.674,0.793c0.258,2.088,0.633,5.346,2.763,6.251
		c1.047,0.382,2.128,0.55,3.243,0.504c1.689,0,2.147,1.42,3.548,2.325c3.118,2.016,7.021,2.495,10.642,2.743
		c-0.964,2.736-0.753,4.625,0.689,7.205c1.527,2.729,0.273,4.268,1.312,6.993c1.326,3.479,1.983,3.887-0.031,7.481
		c-2.031,3.622-4.439,7.066-4.866,11.304c-0.305,3.015-0.631,5.896-1.146,8.883c-0.327,1.883-2.486,5.258-4.009,6.17
		c-3.071,1.84-5.497,3.913-8.854,4.564c-3.249,0.631-4.327,6.368-7.182,5.166C757.688,455.414,758.193,454.528,758.193,453.978
		C758.193,452.877,758.193,453.978,758.193,453.978"/>
	<path fill="#DFCAB1" d="M619.627,460.551c-1.963,1.069-2.802-3.359-4.869-4.399c-2.018-1.016-4.885-1.354-5.047-3.979
		c-0.151-2.452,0.552-4.553-0.389-6.955c-0.887-2.257,3.28-5.278,2.888-8.11c-0.257-1.854-1.77-2.339-2.223-4.141
		c-0.184-0.784-0.568-1.445-1.159-1.985c-1.403-1.23-0.24-2.72,0.358-4.421c0.982-2.794,2.121-5.579,0.839-8.474
		c1.438-2.373,1.653-3.247,0.819-5.935c-1.498-2.799-2.988-5.617-3.952-8.655c-0.942-2.979,1.479-3.775,3.261-5.958
		c1.936-2.368,1.208-5.387-0.753-7.601c1.055-3.465,2.682-3.531,0.677-7.461c-2.697-5.287,0.394-12.568,0.593-18.581
		c0.073-2.27-2.479-3.537-4.358-3.786c-2.979-0.395-3.555-1.714-5.945-3.314c1.699-3.74,9.386-1.598,4.853-7.553
		c-1.989-2.613-0.478-2.868,1.816-4.15c3.062-1.711,2.881-1.335,6.072,0.435c4.724,2.622,7.46,3.353,11.621-0.16
		c1.04-0.876,3.402-3.383,5.034-2.634c2.379,1.094,2.986,2.458,5.704,0.612c2.026-1.377,10.501,1.652,13.102,3.086
		c1.402,0.775,2.354,1.97,2.608,3.572c0.312,1.96,3.398,1.884,4.693,2.885c0.748,0.579,4.22,1.98,4.22,2.342
		c0,1.46,0.995,2.892,2.668,2.438c1.41,2.196,1.436,2.181,0.961,5.156c-0.449,2.819-0.889,5.644-1.026,8.499
		c-0.221,4.563,1.811,9.614-0.279,13.573c-2.042,3.87-6.304,9.145-9.986,9.667c-3.909,0.556-5.913,4.729-2.201,7.304
		c3.845,2.667,7.526,4.489,9.268,8.925c1.513,3.853,2.071,5.062,1.548,9.312c-0.276,2.261-0.978,4.248-1.466,6.464
		c-0.676,3.063,1.132,4.848,1.63,7.7c1.448,8.261,17.073,19.745,6.017,22.731c-1.085,0.293-0.604-2.002-1.77-2.639
		c-1.012-0.555-1.829,0.01-2.875,0.01c-4.809,0-7.882-4.518-6.742-8.723c1.339-4.92-4.254-3.402-5.61-6.1
		c-1.483-2.946-3.242-0.144-5.057-2.571c-1.32-1.769,1.292-4.275,1.172-6.528c-0.062-1.199-1.146-1.952-1.271-3.146
		c-0.134-1.247,1.109-2.237,1.478-3.437c1.444-4.709,1.301-11.185-3.32-14.136c-2.082-1.332-5.659-1.238-8.013-1.743
		c-1.023-0.288-2.195,0.112-3.164,0.398c-3.812,1.12-4.715-3.457-7.842-3.457c-4.531,0-2.642,4.75-2.849,7.147
		c-0.535,6.269-1.68,12.537-1.303,18.851c0.18,3.017,1.461,5.387,0.159,8.1c-1.334,2.78-2.369,6.454-1.604,9.532
		C619.633,452.664,623.392,458.495,619.627,460.551C619.019,460.883,620.021,460.336,619.627,460.551 M627.93,360.969
		c-4.279,0-1.874,7.502-1.06,9.501c2.19,5.376-1.448,8.562-1.147,14.054c0.144,2.609-1.631,9.4,4.07,7.08
		c3.146-1.278,7.267-0.802,9.937-3.072c2.927-2.49,5.515-4.43,8.005-7.295c2.914-1.794,0.579-9.596-0.255-12.141
		c-0.974-2.964-4.329-6.689-7.682-6.689c-2.473,0-3.52,0.706-6.145,0.311C631.802,362.438,629.687,360.969,627.93,360.969
		C627.696,360.969,628.33,360.969,627.93,360.969"/>
	<path fill="#DFCAB1" d="M695.256,459.398c-2.127,0-3.979-4.043-5.508-5.437c-1.289-1.177-1.826-4.331-3.703-4.331
		c-2.265,0-3.942,0.381-6.125-0.521c-1.574-0.648-3.037-1.51-4.664-2.036c-0.234-2.134,0.96-5.36-0.154-7.305
		c2.354-3.895-4.61-6.208-4.12-8.898c0.208-1.158,0.169-2.479-0.885-3.254c-1.528-1.126-1.261-3.419-1.315-5.339
		c-0.109-3.953,2.776-6.502,0.298-10.584c-2.007-3.306-3.286-3.835-3.161-7.726c0.084-2.639-2.188-2.857-1.896-4.955
		c0.178-1.287,0.501-4.344,1.844-4.892c-0.503,0.248-0.052-1.67,1.208-1.04c0.539-1.077-0.306-3.403,0.284-4.088
		c1.903-2.19,1.443-4.51,1.378-7.196c-0.052-2.181,0.08-1.143,0.814-3.405c0.854-2.628,0.266-5.266,0.022-7.927
		c-0.339-3.713,2.604-13.196,4.979-15.647c2.002-2.064,3.256-4.692,4.479-7.257c1.026-2.146,5.271-1.098,7.735-2.416
		c4.38-2.34,7.615-5.818,12.032-1.735c1.757,1.627,3.65,3.113,6.102,3.458c2.258,0.315,4.406-0.609,6.063,1.409
		c1.216,1.483,2.742,2.843,4.785,2.843c2.348,0,2.253,1.405,4.626,1.752c0.349,0.052,1.679,4.227,2.537,4.812
		c-0.638,3.114,1.003,5.077,2.179,7.738c1.836,4.15,2.111,6.546,1.129,11.116c-1.079,5.027,0.521,10.456-1.175,15.27
		c-0.778,2.207-1.536,5.099-0.006,7.204c1.471,2.021,1.028,4.595,2.484,6.861c1.447,2.255,3.115,2.614,1.411,4.981
		c-1.843,2.559-1.972,4.807-2.244,7.832c-0.193,2.174-1.983,3.657-2.47,5.755c-0.694,2.979-0.244,6.012-0.523,9.023
		c-0.258,2.792-3.351,10.634-5.632,11.712c-4.295,2.03-6.71,7.555-11.431,7.555C701.619,452.733,699.797,459.398,695.256,459.398
		C695.039,459.398,696.832,459.398,695.256,459.398 M685.086,426.287c3.304,3.618,7.85,6.301,8.552,11.577
		c0.441,3.326,8.252,1.089,10.289,1.089c1.581,0,2.371-1.489,1.989-2.822c1.963-1.497,4.395-2.173,3.914-5.206
		c3.208-0.755,3.647-8.543,4.234-11.234c1.378-6.29-0.314-10.137-1.09-16.126c-0.566-4.357-7.119-2.529-2.989-6.155
		c1.199-1.055,0.652-1.497,1.313-2.256c0.844-3.754,2.109-2.22,5.405-2.396c5.747-0.308-1.516-9.075-0.536-10.71
		c0.996-1.661-1.862-1.259-2.526-3.072c-0.031-0.084-1.488-4.044-1.833-4.392c-0.988-0.992-0.678-2.174-0.586-3.572
		c0.291-4.302-0.277-4.216-3.449-6.365c-2.105-1.428-3.736-3.468-6.275-4.202c-2.865-0.829-6.046,0.377-8.84,0.956
		c-5.825,1.208-4.062,7.367-8.011,10.652c-2.873,2.393-1.681,4.148-2.126,7.447c-0.426,3.161-1.948,5.946-3.161,8.846
		c-1.024,2.452-1.788,5.15-1.158,7.813c0.675,2.844,3.273,5.142,3.501,8.064c0.171,2.173-0.672,3.818-1.19,5.86
		c-0.865,3.404,1.961,6.119,0.602,9.226C679.28,423.495,680.225,426.928,685.086,426.287
		C686.012,427.301,685.086,426.287,685.086,426.287"/>
	<path fill="#DFCAB1" d="M557.413,457.624c-1.874,0.985-5.315-4.04-7.519-3.45c-2.442,0.657-5.155,1.141-4.557-2.274
		c0.898-5.125-6.241-2.988-7.36-7.243c-1.264-4.806,4.429-5.154,3.545-10.191c-0.646-3.688,0.221-7.902,0.591-11.568
		c0.229-2.284,1.318-3.773,0.17-6.044c-1.238-2.454-2.266-3.77-1.908-6.73c0.225-1.865,2.477-5.354,1.472-7.112
		c-1.059-1.848-1.642-4.002-1.828-6.114c-0.331-3.736,2.782-7.421,0.351-10.82c-1.735-2.43-0.459-2,0.841-4.425
		c0.997-1.859,1.268-3.992,1.197-6.074c-0.053-1.59,0.055-4.063-1.455-5.084c-1.955-1.325-2.082,0.282-2.972-2.221
		c-0.521-1.465-0.857-2.506-1.097-4.028c-0.401-2.562-4.674-3.042-3.819-4.885c0.926-1.998,3.109,0.342,4.711-0.262
		c1.854-0.698,1.947-3.597,3.805-3.89c2.027-0.32,4.123,3.689,6.34,2.161c3.061-2.113-0.581-6.611,2.138-7.777
		c4.243-1.819,5.798-3.122,9.16,0.491c9.133,9.811,11.833,4.154,15.434,7.304c3.051,2.669,6.671,4.146,10.752,4.146
		c1.068,0,3.571,2.605,4.85,3.156c2.204,0.952,4.58,1.451,6.761,2.458c2.245,1.039,1.019,1.885,0.625,3.833
		c-0.495,2.438,0.611,4.165,1.989,6.112c1.093,1.543,2.1,3.093,2.021,5.069c-0.086,2.12-1.77,2.564-1.9,4.63
		c-0.14,2.207,1.451,2.895-0.113,4.657c-1.437,1.62-3.394,2.664-4.925,4.184c-3.235,3.206-2.34,4.167,3.003,7.196
		c3.044,1.726,2.64,6.04,4.887,8.594c-0.212,2.251,0.451,4.386,0.766,6.587c0.319,2.242-0.971,3.661-1.354,5.797
		c-0.379,2.121,0.275,4.143,0.113,6.232c-0.978,1.276-2.129,2.437-3.214,3.62c-1.317,1.438-4.986,7.385-6.76,7.434
		c-4.183,0.106-5.173,4.338-7.883,6.665c-1.512,0.229-2.954,0.235-3.856,1.716c-1.044,1.707-0.433,0.821-2.892,0.821
		c-1.966,0-3.147,1.187-4.923,1.586c-2.456,0.096-4.861-0.424-7.29-0.686C560.903,450.718,561.38,455.539,557.413,457.624
		C556.118,458.306,559.774,456.383,557.413,457.624 M559.592,415.352c-2.187,5.366,2.707,9.845,0.771,14.886
		c-0.73,1.908-2.268,6.405,0.279,7.73c1.458,0.762,5.032-0.197,6.638-0.315c3.429-0.252,5.871-3.899,9.382-4.243
		c2.973-0.293,2.984-1.8,4.282-3.962c2.452-1.871,3.577-0.777,4.699-4.36c1.43-4.565,5.199-8.879,0.173-12.809
		c-2.39-1.868-5.575-5.055-8.438-5.476c-3.169-0.467-6.444,0.155-9.363,1.412c-2.278,0.98-3.883-0.21-6.227-0.21
		c-2.778,0-4.595,2.345-3.864,5.036C557.989,413.274,559.562,415.441,559.592,415.352
		C558.112,418.986,559.594,415.35,559.592,415.352 M574.155,393.438c1.533-0.774,5.873-1.656,7.209-2.487
		c2.995-1.867-1.464-6.35,0.517-8.85c1.528-1.936,4.021-5.306,3.282-7.841c-1.201-4.117-4.514-2.598-9.043-2.185
		c-3.892,0.355-5.671-0.601-8.048-3.484c-1.883-2.286-6.178-3.855-10.15-0.833c-6.669,5.069-0.589,7.245-0.678,9.786
		c-0.058,1.696-0.73,5.561,1.579,6.199C561.213,384.404,551.711,404.763,574.155,393.438"/>
	<path fill="#DFCAB1" d="M418.911,464.854c-2.3,0.654-8.354-2.082-7.989-4.823c0.264-1.957-1.542-7.069-2.305-9.047
		c-1.015-2.631-2.931-7.462-5.108-9.021c-1.675-1.203,1.201-4.136,2.117-5.274c1.723-2.138,1.725-2.554,0.976-5.048
		c-1.224-4.076,1.779-5.676,2.011-9.692c0.235-4.041-1.584-8.584-5.004-10.901c-2.445-1.656-3.539,0.024-5.887-0.06
		c-3.465-2.035-2.131,0.015-5.95-1.258c-5.217-1.737-4.896-7.164-1.165-7.164c2.793,0,9.169-0.478,10.529-3.632
		c0.71-1.646-2.238-5.313-1.171-6.29c1.178-1.071,1.656-2.645,1.145-4.192c-0.617-1.856-0.091-1.725,1.006-3.539
		c3.111-5.161-0.674-12.026-1.538-17.059c-0.645-3.758-1.061-6.339-2.728-9.809c-0.531-1.104-0.196-2.334-1.605-2.891
		c-1.163-0.458-4.887-1.053-3.973-2.336c1.506-2.113,5.587-0.076,7.958,0.958c3.18,1.391,5.671,0.812,8.98,0.328
		c5.41-0.79,8.46,4.409,13.764,2.929c2.747-0.77,5.868-1.819,8.75-1.208c2.121,0.448,3.892,3.187,6.155,1.308
		c2.733-2.269,0.253-3.419,4.211-1.203c2.49,1.395,5.804-1.795,7.387,0.447c3.261,4.615,4.001,10.441,7.958,11.456
		c2.543,0.651,2.944,2.047,3.893,4.271c0.306,0.713,1.017,10.381,1.566,12.639c0.378,1.545-1.344,4.688-1.974,6.48
		c-1.562,4.444-5.479,9.979-10.317,9.979c-6.502,0,1.87,10.214,2.381,11.873c0.337,1.098,3.793,5.043,3.756,5.285
		c-0.253,1.717,0.109,2.57,1.354,3.588c0.585,0.484-0.128,4.186,0.198,5.143c1.834,5.393,5.966,8.241,7.329,13.769
		c1.395,5.653,3.26,10.098,6.285,14.979c1.823,2.933,4.084,4.166,1.71,6.925c-1.811,2.106-4.058,1.605-6.27,0.547
		c-4.328-2.073-10.665-6.74-14.856-9.271c-3.167-1.911-2.008-7.179-2.998-10.695c-0.519-1.843-1.191-3.681-2.287-5.267
		c-1.878-2.714,0.004-1.367-0.462-4.472c-0.423-4.515-7.642-5.311-8.072-9.793c-0.231-2.379,0.168-9.197-3.712-9.197
		c-2.53,0-4.729-0.455-7.188-1.012c-2.79-0.63-6.018-0.842-5.229,3.229c0.242,1.264,0.863,2.322,1.59,3.357
		c0.293,0.421-1.518,4.083-1.707,4.802c-0.851,3.213-1.098,7.178,1.016,9.988c-1.452,3.28-3.149,5.015-1.409,8.454
		c1.813,3.58,4.01,6.345,0.923,9.779C419.845,456.672,423.403,463.576,418.911,464.854
		C418.529,464.963,420.812,464.314,418.911,464.854 M421.323,391.034c-3.933,1.876-3.681,7.161,1.252,7.161
		c2.167,0,3.97-0.911,5.985-1.517c1.704-0.513,3.351,1.377,4.852-0.009c1.355-1.254,1.479-3.234,3.12-4.392
		c1.816-1.279,3.806-1.009,5.88-1.009c1.685,0,5.597-10.496,5.632-12.383c2.374-5.012-6.361-1.194-6.509-3.282
		c-0.177-2.656-3.864-2.026-5.517-1.952c-3.076,0.142-5.799-0.384-8.606-1.698c-1.36-0.639-3.329-2.431-4.959-1.962
		c-3.3,0.949-2.146,6.5-1.271,8.637c0.977,2.385,2.262,3.551,0.915,5.823C421.669,385.176,420.927,391.282,421.323,391.034
		C420.352,391.498,421.325,391.032,421.323,391.034"/>
	<path fill="#DFCAB1" d="M499.276,454.847c-2.582-2.475-6.582-5.74-9.414-1.721c-0.352,0.497-9.481,1.593-10.341,0.59
		c-6.639-7.752-15.547-17.575-11.805-27.113c1.675-4.268,6.202-8.548,3.388-12.113c-2.246-2.845-7.814-3.928-10.718-6.195
		c-5.367-4.197,0.841-4.727,4.242-5.674c2.696,5.462,7.357,2.371,7.414-2.575c0-1.638-0.72-2.886-1.905-3.979
		c-1.354-1.242,0.54-5.652,1.079-7.104c1.005-2.703,1.735-5.378,0.897-8.249c0.461-1.999,2.385-2.584,2.205-5.115
		c-0.322-4.919-5.55-3.941-7.322-7.363c-1.411-2.727-3.569-6.146-5.072-10.067c-1.638-4.278,7.832,5.227,12.519,2.479
		c3.604-0.457,7.301-0.351,10.845-0.995c2.709-0.493,3.313,1.071,5.553,1.071c1.807,0,3.87-3.343,5.465-3.742
		c2.74-0.687,8.439,3.5,13.507,2.744c3.295-0.491,5.014,0.845,8.877,0.195c5.594-0.94,15.789,5.038,12.761,9.973
		c-2.163,3.525-7.215,3.057-11.772,5.267c-1.639,0.794-2.8-1.984-4.706-2.248c-1.739-0.243-3.318,0.536-5.012,0.739
		c-5.179,0.623-8.545-0.036-12.769,3.369c-3.225,2.601-6.221-2.373-8.979-1.857c-3.778,0.713-3.139,8.724-2.721,11.356
		c0.259,1.623,0.604,3.233,0.756,4.871c0.188,2.03-0.964,4.71-0.413,6.566c1.038,3.501,7.557,2.451,10.585,3.308
		c4.772,1.348,7.295-1.835,11.531-1.835c3.879,0,7.401-1.32,12.318-1.592c5.996-0.334,9.38,0.288,13.468,3.472
		c-1.616,2.234-3.862,6.086-6.376,6.341c-3.419,0.348-6.858,0.435-10.285,0.673c-5.906,0.411-12.536,1.15-17.143,5.278
		c-3.504-0.997-14.615-5.941-16.183-0.982c-0.889,2.812,1.382,5.566,1.26,8.417c-0.169,3.963-1.199,7.827-1.449,11.781
		c-0.161,2.54,2.345,6.591,5.374,6.112c2.49-0.396,3.985-2,5.872-3.455c3.472,1.2,7.198,1.124,10.759,0.409
		c4.827-0.97,8.045,5.365,12.303-0.392c1.212-1.638,1.824-1.055,3.179-0.165c2.926,1.928,8.52-1.93,11.062,0.043
		c3.303,2.565-3.853,3.989-4.576,6.931c-0.461,1.87-0.643,4.652-2.487,5.107c-1.158,0.287-2.542-1.081-3.719-0.595
		c-4.278,1.766-8.966,2.276-13.235,4.077C504.436,452.431,503.262,454.847,499.276,454.847
		C498.596,454.194,499.276,454.847,499.276,454.847"/>
</g>
<rect x="938.84" y="12.56" fill="#CBB8AE" width="152" height="143.427"/>
</svg>
