<?xml version="1.0" encoding="utf-8"?>
<!-- Generator: Adobe Illustrator 25.2.3, SVG Export Plug-In . SVG Version: 6.00 Build 0)  -->
<svg version="1.1" id="Layer_1" xmlns="http://www.w3.org/2000/svg" xmlns:xlink="http://www.w3.org/1999/xlink" x="0px" y="0px"
	 viewBox="0 0 582.2 309" style="enable-background:new 0 0 582.2 309;" xml:space="preserve">
<style type="text/css">
	.st0{fill:#19171A;}
	.st1{fill:#CBB8AE;}
</style>
<g>
	<path class="st0" d="M248.6,144c-1.8,0-1.2-4.8-3.6-4.2c-4.6,1.1-9.5,0.5-13.9,2.1c-3.3,1.2-3.9-3.2-7.1-4.7
		c-2.7-1.2-1.4-2.3-1.4-5c0-1.4-1.2-3-1-4.3c0.1-1,1.4-1.8,1.5-3c0.1-1.3-0.8-2.4-0.8-3.6c0.2-1.5,1.8-2.1,1.5-3.9
		c2.7-2.4-1.8-4.1-1.7-6.2c0.1-2.9,8.4-2.6,8.7-0.4c0.2,1.9,2.7,2.6,4.2,2.4c10.7-1.5,15.2,4.5,19.3,3.1c3.8-1.3,8,1.8,10.4-3.9
		c0.5-1.3,1.9-1.6,2.3-2.8c0.6-2.3-3.2-4.2-4.6-5.4c-2.3-2-2.2-3.7-5.4-4.2c-2.4-0.4-3.6-0.3-4.9-2.2c-0.8-1.2-2-1.5-3.4-1.6
		c-0.7-3-3-3.9-5.7-4.3c-2.5-0.4-5.1-1.3-6.7-3.4c-1.7-2.1-1.4-3.6-4.4-4c-3.5-0.4-7.3,0.4-8.6-3c-0.7-1.9-2-2.5-2.5-4.3
		c-0.5-1-1.3-1.7-2.5-2c-2.6-0.8-2.3-0.7-3-3.5c-0.6-2.5-1.1-5-2.1-7.4c-1.2-2.8,0.5-4,1.2-6.9c0.5-2.2,0.3-4.5-1.2-6.2
		c1.3-2.6,2.6-5,3.1-7.9c1-0.7,1.7-1.6,3-1.4c3.2,0.4,1.7-3.5,2.6-5.1c1.3-2.3,2.4-4.8,4.5-3.5c2.7,1.7,4,1.5,5.1,0
		c1.5-2.1,0.3-2.2,3-2.8c2.1-0.5,3.6-2.5,5.6-2.8c5.2-1,8.9,2.1,14.3,1c6.5-1.3,8.8,0.3,14,4.2c2.3,1.7,4.3,3.7,6.7,5.2
		c2.7,1.7,5.5,7.7,2.8,9.1c-2.2,1.1-4.4-0.1-5.1,2c-0.4,1.1-0.2,2.2-0.5,3.3c-1.9,0.9-2.7,1.9-3.1,4.1c-1.3-0.9-4.5-2.8-5.9-2.9
		c-1.8-0.2-2.4-1.8-3.6-3c-1.7-1.8-2.2-0.6-4.1-0.6c-1.9,0-3.9-2.5-5.7-3.1c-1.9-0.7-4.2-0.4-6.1,0.2c-4.8,1.5-9.1,6.1-9.3,11.3
		c-0.2,5.5,4.2,4.9,6.4,8.5c2,3.3,6,6.8,9.7,8.9c1.9,1.1,9.8,1.4,10.2,2.7c0.8,2.6-0.1,2.8,3,4.2c2.7,1.2,5.6,1.1,6.9,3.7
		c1.9,4,6.1,7.4,8.5,11.3c1.9,3.2,2.5,6,4.7,8.9c2.3,3.1,2.1,4.3,2.1,8.1c0,4.6-1.2,3.6-3.7,7.3c-2.4,3.5-2.8,8.3-5.5,11.6
		c-2.8,3.4-6.9,2-10.9,3.1c-3.4,1-7,2-10.3,2.9C252.9,140.6,251.2,144,248.6,144C248.4,144,248.7,144,248.6,144"/>
	<path class="st0" d="M210.1,150.3c-2.9,0.7-10.4-3.7-10.5-6.2c-0.2-5.6-0.6-11.5-2.1-16.9c-0.5-1.9-1.7-2.2-2.1-4
		c-0.5-2-1.3-5.3-2.3-7c-2.3-3.7-4.7-7.1-9.6-5.7c-3.5,0.9-6.1-3.3-8.7-2.6c-5.1,1.4-5.4,6.1-5.3,10.5c0,1.5,0.3,2.5-0.8,3.4
		c-2.6,2.2-1.2,2.8-2.2,5.8c-0.5,1.7-2.9,2.8-2.9,4.6c0,3.6,2.1,10-1.4,10.6c-3.6,0.6-3.5,0-6.1,2c-2.7,2.1-7.9-1.6-8.8-4.9
		c-0.5-1.9,2.2-3.1,2.6-5.1c0.6-3.1-1-6.5-0.1-9.5c0.7-2,3.8-2.8,3.8-5c0.1-3.1,0.8-6.1,1.3-9.1c1.6-9.6-1.7-23.1,6.5-30.6
		c2.3-2.1,2.5-1.6,2.7-5c0.1-2.6,0.8-5.1,1.2-7.7c0.4-2.8,0.1-4.2,2.7-6.1c2.8-2,3-2.5,2.4-6.1c-0.3-1.9-1.3-5.1,0-6.8
		c1.2-1.4,5.2-4.4,2.4-6.4c-1.5-1,2.4-5,3.1-5.5c1.6-1.2-0.7-5.6,1.2-5.7c10.2-0.3,8.7-6.9,11-1.9c1.2,2.6,1.8,5.5,4,7.5
		c1.1,1.1,2.9,0.9,4.1,1.9c1.4,1.2,0.8,3.6,1.3,5.4c1.4,5.5,4.5,8.7,4.6,14.6c0.1,2.5,0.5,5.2-0.4,7.5c-0.6,1.6,0.5,3.5,1.3,4.9
		c1.3,2.2,1,4.1,1.3,6.5c0.3,3.2,2.7,5.5,2.6,8.7c-0.1,3.9-0.1,6.7,1.5,10.3c2.1,4.4,0.3,6.6-0.2,10.9c-0.3,3.7,2.2,6.8,4.4,9.5
		c1.1,1.3,1,7.7,1.7,9.8c0.5,1.3,3.5,6.7,2.2,7.6c-2.7,1.8-5.2,1.9-5.2,5.6c0,1.8,0.8,3.6,0.7,5.3
		C211.9,147,211.7,149.9,210.1,150.3C209.2,150.5,210.5,150.1,210.1,150.3 M175.7,89.1c2.2,5,8.7,1.3,12.4,1.3
		c6.2,0-1.4-12.6-1.6-14.3c-0.3-2.3,1-3-1.1-4.9c-1.1-1-3.1-2.2-4.6-0.8c-1.9,1.8-1.7,8.7-3.2,11.5
		C175.9,84.7,174.2,85.8,175.7,89.1C176.6,91.2,175.6,89,175.7,89.1"/>
	<path class="st0" d="M130,138.1c-3.8-2.2-4.3-6.3-6.6-9.4c-1.2-1.6-0.8-1.6-1.1-3.5c-0.3-2.1-2.2-2.6-2.1-4.6
		c0.3-4.5,0.6-10-4.1-12.3c-0.4-2.3-0.6-4.7-1.1-7c-0.3-1.4-3.1-5.8-2.8-6.6c2-6.2-3.7-7.5-4.3-12.6c-0.6-4.7,0.5-9.8-0.5-14.4
		c-0.5-2.2-1.5-2.4-1.5-4.8c0-3,0.2-5.9-0.4-8.9c-0.5-2.6,0.4-3.9,1.4-6.2c1-2.5-1.8-5.8,0.2-7.2c3.1-2.2,5.2-0.3,5.4-3.9
		c0.2-2.4-1-4.8,2-4.8c2.8,0,6.3-2.4,8.3-0.4c1.6,1.6-2.5,3.6-2.6,6.1c-0.2,4,1.9,7.6,2.2,11.5c0.3,2.9-1.7,8.6,0.6,11
		c1.5,1.6,3.8,1.6,5.2,3.7c1.7,2,2.1,6,1.1,8.3c-1.6,3.9-0.8,8.1,0.3,12.1c0.5,1.9,1.2,7.9,3.9,7.9c2.2,0,3.7-1.6,3.9-3.8
		c0.3-5.2-0.7-10.6-0.4-15.9c0.2-3.5,0.8-7.2,2.6-10.4c1.7-3,0.6-6.1,2-9.3c0.7-1.5,3.1-3.6,3-5.4c-0.2-3.2-0.2-6.6,0.8-9.8
		c1.5-5,4.6-4,8.5-5.5c1.7-0.6,3.1-3.4,4.9-3.4c1.9,0.1,5.7,2.5,5.6,3.7c-0.1,2.6-2.2,5.8-2.7,8.9c-0.3,1.7-1.4,2.7-2.1,4.3
		c-1.5,4.7-0.6,8.8-1.7,13.5c-0.7,3-0.9,7.7-3.4,9.9c-0.7,0.7-1,1.8-0.8,2.8c0.7,2.7,1,1.5-1.1,3.7c-2.7,2.9-1.7,5.5-1.5,8.9
		c0.1,2.7-3.4,4.5-3.3,7.2c0.2,3.7,0.2,4.4-1.8,8.1c-1.9,3.5,0.8,7.1-1.2,10.1c-1.8,2.7-1.1,6.7-3,8.4c-2.4,2.2-2.6,5.3-2.6,8.3
		c0,2.9-0.6,4.3-2.8,6.2C133.5,133.5,132.5,136.5,130,138.1C127.9,136.8,130.6,137.7,130,138.1"/>
	<path class="st0" d="M56.1,157.7c-4.3,1-4.4-7.9-7.4-11.3c-2-2.3-2.3-6.8-1.7-10c0.6-2.9,3.6-4.6,3.8-7.7c0.4-6-5.9-10.4-2.3-16.2
		c2.4-3.9,2.6-11,0.7-15.2c-2.2-4.7-1.1-12.9-0.2-18c0.6-3.5,0.1-5.8-0.9-9.1c-0.8-2.7,2.1-5.6,2.7-8.2c0.7-2.7-0.5-5,1-7.6
		c1.6-2.7,1.7-5.6,1.8-8.6c0.1-2.6,0.1-5.4,2-7.5c2.1-2.4-2.7-5.8-1.2-7.6c1.4-1.7,4.5-0.1,6.7-0.2c3.7-0.3,1.7,3.6,3.3,6.2
		c1.3,2.2,3.3,2.7,3.8,5.4c0.6,2.9,1.1,5.8,2.1,8.6c1.2,3.4,3.5,8.3,3.1,11.9c-0.5,5.3,3.4,8.8,3.7,13.9c0.2,3.2,2.9,6.8,6.2,4.1
		c2.3-1.9,1-5.2,0.5-7.6c-0.6-2.8,0.1-5.8,0-8.6c0-1.1-1.5-4.5-1.4-5.2c0.8-2.9,1.7-5.8,1.7-8.8c0-3.5-2.3-5.4-1.6-8.5
		c0.8-3.5-2.3-8.6,0.5-10.7c2.2-1.6,5.4,0.3,8.1,0.1c2.7-0.2,6.7-1.4,6.8,1.8c0.1,5.6-1.2,12-0.7,17.5c0.1,1.2,0.7,2.2,1.7,2.9
		c0.9,2.2,0.8,5.1,0.7,7.4c-0.1,2.5-1.8,3.7-2.4,6c-0.5,2.2,0.3,4.7,0.7,6.9c0.2,1.5-1.2,3-1.8,4.3c-1.3,3,0.2,6.7,1.2,9.6
		c2.2,6.7-0.5,9.3-1.7,15.7c-0.5,2.6,1.2,4.9-0.7,6.8c-2.5,2.5-3.4,4.4-3.7,8c-0.6,5.4,3.1,15.1-2.4,15.4c-3.9,0.2-6.7-5.1-9.3-8.1
		c-2.1-2.4,0.1-3.1-0.4-6.2c-0.6-3.4-4.2-4.1-5.3-7.1c-1-2.6-0.2-5.8-0.6-8.5c-0.5-3.4-1.6-6-1.7-9.7c-0.2-6.7-6.7-5.4-7,0.2
		c-0.3,5.8-2.1,11.6-1.5,17.5c0.3,2.8,1.6,4.9,1.5,7.7c-0.2,4-1.3,7.8-2.2,11.7c-0.5,2,4.3,11,0.1,11c-2.7,0-3,3.8-4.1,5.6
		C56.2,151,59.9,156.8,56.1,157.7C55.8,157.7,56.6,157.5,56.1,157.7"/>
	<path class="st0" d="M28.6,170.8c-2.6-0.3-4-4.8-5.8-6.6c-3.6-3.7-1-2.8-0.9-7.5c0.1-2.9-1.9-6.9-1-9.7c0.7-2-1.4-2.8-2.8-3.3
		c-2.9-1-2.5-2.2-2-5.1c1-5.7,0.9-11.6,3.8-16.8c2.1-3.7,1.7-6.2,0.9-10.2c-0.7-3.3-2.9-4.6-3.4-8c-0.2-1.2-0.6-2.2-1.1-3.2
		c-0.5-1,0.8-2.2,1.2-3.3c1-2.4,1.7-6.9-1.1-8.4c-0.4-2.6,0.5-5.7-1.2-8c0.9-2,0.8-4,1.2-6c0.4-1.8,3-2.4,2.3-4.5
		c-1-2.9-0.9-6,0.1-8.8c0.5-1.5-0.7-1.9-0.7-3.2c0-1.8,0.5-3.7,1-5.4c0.9-2.8,1.9-4.8-0.4-7.4c-2-2.2-2-7.6,0.2-9.8
		c2.4-2.4,6,3.3,9.5,3.7c3.8,0.4,7.3-1.3,11.1-1.3c2.7,0,2.4,7.6,2.8,10.3c0.4,2.5,0.9,5.8-0.7,8c-0.9,1.2-2.6,2.5-0.9,4
		c-0.6,1.1-1.3,2.1-1.4,3.4c-0.5,4.1,0.4,8.3,0.6,12.4c0.3,4-0.4,8-0.9,12c-0.3,2.3-0.5,4.6-0.2,6.8c-1,0.4-1.7,1.3-1.8,2.3
		c-0.5,3.2,1.3,7.2,1.6,10.4c0.4,3.9-1.4,6.3-1.6,9.8c-0.2,3.7,1.3,7.4,0.8,11c-0.6,3.9-4.3,6.7-3.7,10.9c0.2,1.2,1.1,2.8,0.5,4
		c-0.6,1.2-1.3,2.4-1.4,3.8c0.2-2.4,0.2,2.1,0.3,2.1c-1,1.2-1.8,2.6-1.8,4.2c0.1,3-1.6,3.4-2.1,6.2
		C28.8,163.7,32.5,171.3,28.6,170.8C28.2,170.8,29.4,170.9,28.6,170.8"/>
	<path class="st0" d="M40.3,29.7c-2.2,2.1-5.9-1.4-8.9-0.9c-2.6,0.4-5.1-1.2-8-1.2c-6.6,0-7.2-3.9-7.8-9.4c-0.3-3.2,0.8-4.1,1.2-8.5
		c0.2-1.8,1.1-3.3,1.7-4.6C19.5,3.3,19.9-0.1,22,0c2.9,0.1,2.8,3,5.5,3c2,0,1.6,1.3,3.4,1.6c1.7,0.3,2.9-0.7,4.9-0.1
		c2.5,0.7,4.3,0.3,4.2,3.2c-0.1,2.5-0.4,5-0.5,7.6c-0.1,2.1,0.1,4.4,1.1,6.3C41.8,23.9,42.4,27.8,40.3,29.7
		C39.8,30.3,42.2,28,40.3,29.7"/>
	<path class="st0" d="M372.7,147.5c-1.6-0.4-5-4-6.6-4c-2.9,0-3.9,2.6-6.9,2.5c-1.6,0-2.5-1.8-3.6-3.6c-1.1-1.7,1.3-3.8,1.7-5.7
		c0.6-3.2,1.5-6.7,1.6-10c0.1-3.2-2.2-6-1.6-8.9c0.3-1.7-0.5-3.1-0.6-4.9c-0.1-1.4,2.8-4.1,3.6-5.3c1-1.4,1.4-2.8,1.4-4.5
		c0-2.5-0.8-3-0.2-5.8c0.7-3.8,1.4-7.7,0.7-11.6c-0.7-3.4-5.4-9.8-4.4-12.7c0.4-1.1,0.2-2.1-0.4-3.1c-0.5-0.8,0.5-2.9,0.6-3.8
		c0.5-3.9-2.3-6.1-3-9.6c-0.7-3.5-0.8-8,0.5-11.3c1.5-3.8-2.5-6.8-0.1-9.6c2.3-2.7,6,3.7,9.5,4.3c4,0.6,8.6,2.2,12.4,0.3
		c2.1-1,5.6-0.8,6.8,0.4c2.7,2.7,11.1,0.5,12.2,1.3c1.9,1.4,2.1-1.9,4.3-1c3.2,1.2,4.1,0.1,6.1,3c1.1,1.6,2.5,2.9,4.4,3.6
		c3.4,1.1,3.1,2.5,3.1,6c-0.1,2.3-0.1,4.7,0.4,7c0.8,3.3,2.9,4.1,3.4,7.6c0.6,4.2,3.1,9.2,0.9,13.1c-1.2,2-2.6,4-4.2,5.8
		c-1.2,1.4-2.1,5.7-3.8,5.7c-1.3,0-2.3-0.9-3.2,0.2c-1,1.2-3.1,5.3-3.4,6.8c-0.6,3.1,3.8,4.3,2.4,5.9c-3.5,4-1.2,4.4,4.7,5.4
		c3.2,0.5,4.7,2.9,7,4.8c1.9,1.6,1.2,4.2,2.8,6.2c1.5,2,2,5.1,1.6,7.6c-0.7,4.8,7.8,5.2,5.8,9.6c-1.4,3-2.5,2.6-5.1,5.7
		c-1.9,2.3-2.8-2.4-4.3-4.3c-1.8-2.4-5-2-6.6-4.4c-0.8-1.2-2.5-3.9-3.1-5.2c-3.3-7.4-8-7.8-8.4-9.7c-0.2-0.9-1.2-1.3-1.6-2.1
		c-0.5-1.1,0.4-2.4-0.2-3.6c-0.9-1.8-2.9-3.3-4.3-4.7c-1.1-1-5-1.7-5.3-2.3c-1.3-2.8-9.7-5.6-12.6-4.1c-1.7,0.9-1.9,2.8-1.8,4.5
		c0.2,3-1.8,5.6-1.5,8.8c0.3,3.3-1.6,5.9-2.1,9c-0.7,3.6,1.7,6.2,3.4,9.1c1.7,2.8,6,5.8,4.5,7.5
		C377.5,145.6,375.2,148.1,372.7,147.5C372.3,147.4,373.1,147.6,372.7,147.5 M386.1,59.1c-3.9,0-11.2,1.2-9.8,6.4
		c1.4,5.1,2,7.1,0.1,12.1c-1.7,4.7-0.9,10,4.6,9.4c2.7-0.3,2.2-1.4,4-2.3c2.5-1.2,5.1,1.1,7.9,0.1c7.2-2.6,7.7-9.5,8.4-16.2
		c0.3-2.6,0.6-11-3.9-11c-1.4,0-2.9,0.8-4.2,1.2C390.8,59.6,388.5,59.1,386.1,59.1C382.6,59.1,386.9,59.1,386.1,59.1"/>
	<path class="st0" d="M438.5,146.2c-4-1.4,1.6-7.1-1.7-10.9c-3.2-3.7-2.8-7.3-4.7-11.6c-1.2-2.8-1.6-1.3-0.8-4.3
		c0.6-2.1-0.2-4,0.5-6.1c1.6-4.5,1.2-7.5-0.6-11.7c-0.8-1.8-1.7-3.5-2.8-5c-1.7-2.2-0.1-4.5,0.3-7.2c0.8-5.9,0.3-11.9,0.3-17.8
		c0-6.2-1.8-17.8-2.6-25.5c-0.3-2.4,0.8-5.1,3.1-6c2.5-1.1,7.8,0.5,10.2,0.1c2.3-0.4,2.8-1.3,4.3,0.5c1,1.1,2.2,2,3.3,3
		c1.9,1.9,8-0.7,10.4-0.5c2.9,0.2,4.9,4.2,7.9,3c1.4-0.6,1.7-1.8,3.2-1.4c1.7,0.5,3.5,0.9,5.2,1.3c3.2,0.6,7,1.1,10.2,0.1
		c2.2-0.7,5.8-2.3,6.3,1.6c0.2,1.7,8,3.7,8.5,5.4c0.6,1.8-1.3,3.5-2.9,4.6c-1.1,0.8-2.7,0.1-4,0.7c-2.6,1.2-3.9,3.6-5.4,5.9
		c-1.3,2-8.3,0.7-10.5-0.2c-2.7-1.1-3.6-3.7-6.8-4c-4.4-0.4-16.9-2-16.1,4.7c0.3,2.1,2.8,6.9,0.7,8.6c-3.1,2.5,2.4,5.9,4.6,6.1
		c3,0.3,7,0.6,10,0.6c2.9,0,2.9-1.8,5.7-0.6c2.1,0.9,3.8-0.6,5.3-0.1c2.1,0.7,4.1,3.6,6.3,3.6c3.2,0,5.8-0.1,8.8,1.3
		c1.3,0.6,2.8,1.1,4,1.9c-0.1,1.1,0.3,2,1.3,2.6c-0.4,0.3-1.7,2.5-2.1,2.5c-1.6,0-3,0.5-4.2,1.4c-0.9,0.6-1.7,1.6-2.8,1.8
		c-2.4,0.4-0.7,4.7-2.3,5.4c-4.5,2-10.9-5.6-15.9-5.6c-2.6,0-2.7,2.3-5.3,2.5c-2.8,0.2-5.6,0.4-8.4,0c-1.7-0.3-5.3-2.1-6.2,0.5
		c-1.1,3-1.1,6.3-1.2,9.5c-0.1,4-3.4,17.5,2.2,17.5c2,0,3.6-1.8,5.4-1.8c2.2,0,3.6,0.4,5.4-1.3c3.1,0.8,6.8,7.9,10.3,4.2
		c1.9-1.9,3.2-1.5,6.1-1.7c2.1-0.1,5.8-1.9,7.3-1c2.1,1.4,4.5-0.3,6.6-0.3c2.7,0,6.7-2.1,8.1,0.2c1.6,2.8-4.6,7-7.4,8.1
		c-3.2,1.3-5.3,6.1-8.2,6.6c-1.5,0.3-2.1,0.7-3.2,1.7c-2-0.1-3.6-1.9-5.1-3.1c-3.4-2.8-5.6-1.8-9.8-0.7c-1.9,0.5-3.8,1.1-5.6,2.1
		c-2.7,1.5-2.1,0.1-4.9-0.4c-3.3-0.6-6.5,0.4-9.8,0c-1.8-0.2-5,3.6-6,4.8c-1,1.2-0.9,2.8-2.1,3.7
		C440.2,145.8,439.4,146.5,438.5,146.2C437.8,145.9,439,146.3,438.5,146.2"/>
	<path class="st0" d="M529.5,146.1c-1.9,0.9-4.2,0-6.3-0.3c-2.2-0.3-2.4-4.4-4.2-6.3c-3.5-3.7-8.8,3.3-11.9,3.8
		c-4.6,0.7-2.6-3.7-4.2-7c-1.4-2.8,2.3-4.8,3.9-7.2c2.2-3.2-0.7-7.7,0.5-11.9c0.6-2.2,7.9-4.1,9.9-3.1c2.3,1.1,2.7,13,6.3,12.8
		c2.4-0.2,8.3,2.7,10.3,2.7c1.7,0,6.6-4.5,8.3-4.5c4.4,0,0.1-4.5,0.4-8.6c0.2-2.1,0.9-6.3-0.2-8.3c-0.8-1.5-4.5-1.9-5.7-2.9
		c-1.5-1.3-1.4-3.6-4-3.6c-2.3,0-4-2.5-6.3-3.4c-1.2-0.5-2.3-0.9-3.5-1.3c-0.7-1.7-1.8-2.9-3.4-3.7c-2.1-1.2-5.6-1.8-6.1-4.2
		c-0.9-4.6-6.8-7.6-5.1-11.9c0.5-1.4-6.1-9.2-4-9.4c3.5-0.4,6.2-5.4,6.8-8.7c0.4-2-1.4-7.2,1.8-5.6c2.2,1.1,4.9,0.8,7-0.3
		c1.3-0.7,3.5-3.7,4.8-3.7c1.3,0,3.5,0.4,4.6-0.5c4.5-3.6,3.9,1.2,8.8,1.9c2.3,0.3,6.6-0.7,8.4-2.2c1.4,1.4,3.8,0.8,5.5,0.8
		c3,0,2.2,3.9,3.2,5.6c1.1,1.8,4.5,2.2,6.3,1.5c13,22.3-0.3,20-1.2,18.6c-1.1-1.7-3.5-1-4.8-0.1c-2.9-1.1-4.5-4-6.3-6.3
		c-0.8-1.1-4.4-3.4-4.2-4.8c0.5-3.9-5.9-2.1-7.6-1.6c-4.4,1.4-7.1-1-11,2.6c-4,3.8-0.9,7.4,0,11.6c1.4,6.7,3.8,8.4,9.1,12.1
		c1.2,0.8,1.7,2.7,3.5,2.3c2.6-0.7,3.8,1.7,5.5,3.2c2.1,1.9,6.9,1.9,8.8,4.3c3,3.9,2.5,3.3,5.8,4.5c3.8,1.5,2.3,8.2,2.6,12.1
		c0.2,2.2,2,10.7,1.7,11.7c-0.6,2-5.7,4.8-6.1,6.9c-0.6,3.1-3.2,2-3.7,4.9c-0.7,4-3.3,3.4-6.8,3.7c-4.3,0.3-7.7,3.2-11.4,4.7
		C532.9,147.9,532.3,144.7,529.5,146.1C528.6,146.5,530.8,145.5,529.5,146.1"/>
	<path class="st0" d="M312.7,138.4c-1.9-1-4-5.6-5.7-5.3c-1.2,0.2-2.7,1.3-3.8,1.3c-1.1,0-1.8-4.7-2-5.5c-1.1-4.8-2.3-6.9-6.1-9.9
		c-1.4-1.1-0.6-5-0.6-6.6c0-1.7,0.3-3.7-1.1-5.1c-0.6-0.6-1.6-0.5-2.2-1.1c-1-1-0.7-2.8-1.2-4.1c-0.9-2.4-2.3-4.6-3.8-6.7
		c-3.3-4.5-2.1-8.6-1.5-14c0.3-2.6,0.5-5.3,0.2-7.9c-0.3-2.1-1.4-3.7-0.9-5.8c0.4-1.4,2.2-2.6,2.3-4c0.2-2.6,0.3-5.2,0.6-7.8
		c0.5-3.9,3.4-5.5,4.3-9.1c0.3-0.9,0.6-1.8,0.7-2.8c0.4-2.7,2.8-2.3,5-3.5c3.8-2.1,5-5.8,7.8-8.6c3.2-0.3,4.1,3.9,7,3.9
		c4.2,0,6.4-6.5,9.6-4.5c1.5,0.9,2.8,2.1,3.3,3.8c0.7,2,3.8,1.6,5.5,2c3.8,0.9,8.2,2.2,11.3,4.7c4.3,3.4,2.5,10.8,5.2,15.3
		c1.3,2.3,1.9,4.9,2.8,7.3c1.2,3.2-0.4,6.4-0.2,9.7c0.4,5.1,3.4,9.3,2.3,14c-0.8,3.3-1.3,4.8-3.1,7.3c-0.8,1.1-1.8,0.2-2.1,1.9
		c-0.4,2-0.6,4-0.5,6c0.1,7.3-3,10.9-5.4,17.5c-0.5,1.4,0.2,3.3-0.9,4.2c-0.7,0.5-1.7,0.2-2.5,0.6c-2,1-2.5,3.1-4.5,4.1
		c-1.8,0.9-1.4,2.8-2.5,3.7c-2.4,1.9-2.6-1.4-5.2-1.4c-1.9,0-3.9,0.5-5.3,1.8c-1,0.9-1.7,2.5-2.8,3.2
		C315.4,137.9,313.9,137.5,312.7,138.4C310.6,137.3,313.6,137.7,312.7,138.4 M321.2,116.9c2.1-3.4,6.3-4.8,8.6-8
		c1.1-1.5,1.9-8.5,0.8-10.5c-1.9-3.6,1.3-8.1,1.2-12.1c-0.1-2-0.7-4,0-5.9c0.3-0.9,1.6-1.2,2.2-2c2.1-3-0.4-3.9-1.4-6.3
		c-1.1-2.7,0.8-6.5-0.3-8.7c-1.4-2.7-4.3-3.8-5.1-6.9c-0.8-3.2-0.7-7-4-8.9c-4.8-2.7-13.5,0.7-16.2,5.4c-1.8,3.2,0,6.5-1.7,9.4
		c-1.6,2.8-2.2,6.1-2.4,9.3c-0.1,2.7,1.7,4.5,0.9,6.9c-0.5,1.7,1.1,2.9,1.1,4.6c0.1,1.9-1.7,3.3-1.8,5.2c-0.2,2.2,1.8,8.8,0.1,9.4
		c-2.9,1.1-1.8,4.6-0.6,6.6c1.1,1.7,1.4,6.8,3.1,7.4c3.1,1.1,2.4,3.9,5.6,3.2c1.4-0.3,2.4,0,3.8-0.3
		C317.2,114.3,319.7,119.3,321.2,116.9"/>
	<path class="st0" d="M299.7,186.9c-2.7,0-8-0.4-6.5-3.9c1.7-4.1,4.7-7.9,3.8-12.5c-1.6-8.7-4.4-15.5-2.9-25.9
		c0.8-5.9,6.8,3.9,10.3,4.1c1.8,0.1,8.6-1.7,9.5,0.1c1.9,4,7.3-1.2,9.7,0c3.5,1.8,9.1-1.1,9.9,2.9c0.4,1.8-4,2.3-5.8,2.3
		c-3.4-0.4-6.7,1.8-10,2.2c-3.5,0.5-7.6-2.1-10.4,0.6c-10,9.8,13.3,4.2,13.9,8.7c0.1,0.9-0.8,1.6-1.4,2.1c-1.8,1.5-4.7,0.3-6.9,0.8
		c-3.2,0.7-8.7,5.2-5.8,8.8c3.2,4.1,8.4,1.1,12.5,1c2.7,0,8-1.9,9,0.7c2.3,5.8-3.8,3.8-9.5,4.8c-3.2,0.6-6.2,3.8-9.5,1.2
		C307.9,183.7,301.9,186.9,299.7,186.9C299.2,186.9,303.6,186.9,299.7,186.9"/>
	<path class="st0" d="M260.6,192.2c-2.2-1-3.2-0.6-4.8-2.4c-2.5-2.8-5.7,0.6-6.9-2.4c-1.6-3.8,4.7-1.7,4.7-6.6c0-3,2.7-5.9,2.5-8.6
		c-0.3-3.5-0.6-6.5-1.6-9.8c-1.4-4.2,0.9-4.6,0.6-8.7c-0.2-4.4-0.5-8.7-1.1-13c3.1-1.2,5.7-0.7,9.3-0.4c3.5,0.3,7.1,0.5,10.6,1.4
		c2.4,0.6,4.5,2.2,6.8,2.5c7.6,1.3,5.3,10.1,7.8,15.8c1.5,3.4,3.2,4.7,2.4,9.1c-0.4,1.9-1.5,8.7-3.2,9.5c-2.3,1-3.8,4.5-5.8,4.5
		c-1.4,0-2.3,0.8-2.7,2c-2,0.8-4.1,1.3-6.1,2C268.5,188.4,265.7,192.3,260.6,192.2C260.5,192.1,260.7,192.2,260.6,192.2
		 M266.5,162.7c-1.9,3.8-0.6,8.1-0.9,12.2c-0.2,2.3-2.5,6.5,1.6,6.5c2.6,0,4.1-1.8,5.6-3.7c3.1,0.3,1.9-3.7,4.6-3.1
		c3.1,0.7,3.6-4.5,3.3-6.5c-0.6-4.2-1-8-4.4-10.2c-3.3-2.1-5.6-4.3-9.8-3.8C262.1,154.5,265.5,160.9,266.5,162.7
		C265.2,165.3,266.3,162.5,266.5,162.7"/>
	<path class="st0" d="M122.4,302.2c-4.1,1.5-10.2-3.1-11.3-6.9c-0.5-1.6,4.1-1.7,3.5-4c-1-3.3-2.1-3.4-1.7-6.3
		c0.4-2.2-0.7-4.6-0.6-6.9c0.2-2.7,0.4-6.6-2.3-8.2c0.4-2.4-1.1-4.4-2.9-5.8c0.2-2.8,0.2-5.5,0.4-8.3c0.2-2.5-0.2-5.5,2.5-6.5
		c3.1-1.1-0.1-5.2-0.1-7.2c0-1.1,1.2-2.2,1.4-3.3c0.6-3,0.1-6.4-0.8-9.2c-0.2-0.8-0.7-1.3-1.4-1.7c0.3-1.6-0.3-2.8-1.3-4.1
		c-2.4-3.3-2.5-2.5-1.3-6.1c0.5-1.5,0.8-3.8,0.2-5.3c-0.9-2.5-4.5-4.7-3-7.3c1.2-2,1.6,0,3.2-1.1c2.7,0,1-5.1,2.7-5.9
		c2-0.9,3.2,4,5.8,3.7c4.2-0.6,11.2-4,15.1-0.9c3.3,2.6,7.5,1.7,11.7,1.7c-0.2,1.6,4.1,3.9,4.5,2.3c0.7-2.6,2.1-2.4,2.2-5
		c0.1-1.9-0.1-3.9-0.6-5.8c1.1-0.4,2.2-0.6,3.2-1.1c2.6-1.1,3-3.3,5.5-4.4c2.5-1,4.1-3.9,7.1-3.1c1.4,0.4,0.6-1,2.4-3
		c2.7-2.9,7.9-4.8,11.2-2.6c2.5,1.7-2.8,1.5-3.1,4.8c-0.2,2.2,0.8,4-0.8,6.1c-1.4,1.9-4.2,1-5.2,3.1c-1.2,2.6-2.5,1.3-4.3,3.4
		c-1.2,1.4-3.6,3.3-3.9,5c-0.3,1.9,3.7,3.9,5.2,3.9c3.4,0,2.8-1.4,6.2-0.2c1,0.4,0.9,0.8,1.8,1.3c1.5,0.9,3.2-0.6,4.9,0.1
		c1.4,0.5,2.6,1.4,4,1.9c2.4,0.8,1.4,0.5,1.3,2.9c-0.1,3.4,5.8,5.5,5.2,9.4c-4.5-0.5-9,0.6-13.2,0.4c-3.2-0.1-10.6,1.5-13-0.8
		c-1.6-1.5-4.5-1.3-5.8-2.8c-1.5-1.7-4.9,0.2-6.7-0.5c-3.3-1.2-6.9-0.1-10.3,0.3c-2.3,0.3-6-1.7-7.7-1.1c-2,0.7-2.8,2.4-2.4,4.5
		c0.5,3.1-1.7,3.5-2,6.3c-0.4,3.4-0.4,9.8,3.2,11.5c3.4,1.6,8,4,11.8,2.4c3.1-1.3,1.2-1.2,4.4-1.2c2.6,0,3.4-3.9,5.5-3.6
		c3.6,0.4,1.2,6.4,5.7,7.8c0.9,0.3,2.3,0.5,2.2,1.9c-0.1,2.3,5.5,2.5,4.4,4.5c-1.6,2.9-5.2,1.6-8.5,1.6c-3.3,0-5.7,2.8-9.1,2.2
		c-3.6-0.7-6.8-2.4-10.5-2.4c-4.6,0-4.4,3.2-7.9,5.2c-2,1.2-1.8,2.7-2.6,4.6c-1.1,2.8,3.3,5.5,1.7,7.7c-1.5,2.1-1.8,5.7,1.2,6.7
		c1.6,0.5,3.1-0.3,4.7-0.3c2,0.2,3.7,1.5,5.8,1.5c3,0,2.6-2.1,4.3-3.5c1.6-1.4,4.6,1.6,6.1,1.9c3.5,0.7,15,2.2,12.3-4.6
		c-0.9-2.2,6.6-2.1,7.6-1.4c0.3,1,0.5,2,1.2,2.9c1.5,1.9,2.6-0.2,4.1,0.7c3.6,2.2,9.5-0.4,10.5,3.6c0.7,2.7-4.6,2.4-5.9,5.1
		c-1.2,2.5-2.1,4.3-4.4,6.1c-4.7,0.4-7,4.4-12.1,4.4c-4.5-0.1-9.9-2.1-14.3-0.6c-3.9,1.4-6.2,0.5-10.4,0.5
		c-4.6-0.1-7.3,0.2-11.4-1.8C120.6,287.7,126.7,300.6,122.4,302.2C122.2,302.2,123.2,301.9,122.4,302.2"/>
	<path class="st0" d="M59,297.4c-2.8,0-5.7-3.2-9-3.4c-4-0.3-8.1,0.5-12.1,0.5c-3.8,0-2.8-1.3-5.7-2.9c0.9-3.2-3.8-4.3-6-5.1
		c-2.9-3.2-8.1-3.5-9.8-7.4c-0.6-1.5-1.6-1.3-2-2.9c-0.4-1.7-0.8-3.1-1.9-4.5c-1.3-1.7-4-2.4-3.9-4.6c0.1-2.1,1.5-3-0.6-4.8
		c-2.5-2.1,0.3-7.1-1.1-9.9c-1.5-2.9-3.2-6.3-2.4-9.8c3.1-1.7-0.1-5.5-2.1-6.4c0.4-1.9-0.6-3.3-2-4.3c-1.3-1,0.7-5,1.3-6.4
		c1.5-3.9,3.7-7.6,6.6-10.7c0.9-0.9,2.6-1.9,3.1-3.1c0.6-1.5,0.2-3.7,0.6-5.4c0.5-1.9,5.1-1.2,5.5-4.9c0.6-5.3-8.8,0.2-10-1.4
		c-3.2-4.5,6.7-8.2,10.6-11.7c2.4-2.2,2.5-2.5,5.7-2.8c2.2-0.2,4.3-0.9,6.5-0.9c3.4,0,9.5,2.9,12.3-0.1c1.5-1.6,3.4-1,5.4-2.3
		c3.1-2,5,0.2,8.4,0.2c2.5,0,2.8-1.7,5-0.2c2.2,1.4,4.1,3.2,6.3,4.5c2.5,1.5,5.3,2.3,8.2,2.4c0.4,2.3,0.2,4,2.8,5.2
		c1.8,0.8,2.3,2.9,4,4.2c2.2,1.6,3,2.1,3.9,4.6c0.9,2.6,3.5,3.1,5,5.2c1.8,2.7,4.5,7.1,2.3,9.3c-3.5,3.4-1.4,3.9-6.5,6.1
		c-1.3,0.5-2-1.2-3.4-1.7c-2.9-1-3.6-3.7-6.6-4.8c-3.8-1.4-7.6-2.9-9.8-6.4c-1.3-2-3.1-5.3-5.9-5.3c-2.8,0-2.8-1.6-5.2-2.6
		c-2.6-1.2-5.9,1.2-8-1.3c-4.7-5.4-4.9,0.5-9.5,2.5c-1.4,0.6-3-0.5-3.9,1.3c-0.6,1.2-4,8-5.3,8c-4.2,0-3.5,7.8-8.1,8.7
		c-2.8,0.5-2.3,14.1-2.5,16.8c-0.1,2.3,1.2,4,3.3,4.8c1.3,0.5,0.5,5.4,1.1,7.3c0.8,2.5,2.5,4.4,4.5,6.1c-0.3,2.3-2.2,3.1-0.7,5.5
		c2.3,3.7,8.3,4.5,10.8,8.1c2.2,3,8.1,6.1,11.3,3.5c1-0.8,5.4,2.9,7.6,2.7c2.5-0.2,4.9-0.5,6.6-2.4c1.8-2,7.8-0.6,10.3-0.8
		c4.2-0.3,5.6-2.2,9.7,0.1c1.9,1.1,4.9-1.1,6.3-2.3c2.3-2.2,5.3-1.5,8.5-1.3c-0.8,0,3,5.6,4.2,6.2c-0.9,0.5-1.4,1.2-1.5,2.2
		c-1.1,0.2-2.1,0.4-3.2,0.5c-3.3,0.8-5.5,3.8-8.6,5.1c-1.9,0.8-3.3,0.5-4.8,2.2c-1.7,1.9-1.5,3.3-4.4,3.3c-1.9-0.1-3.9-0.3-5.8,0.2
		c-3.2,0.9-5,3.8-8,4.9c-1.1,0.4-1.6,0.2-2.6,0.2C61.9,295.1,60.6,297.4,59,297.4C58.4,297.4,59.1,297.4,59,297.4"/>
	<path class="st0" d="M550.3,298c0-4.6-15.1-0.3-17.8-2.5c-1-0.9-2.8-3.4-4.5-3.4c-2.3,0-5.8,2.8-7,0.7c-1.7-3.1,1.7-4.7,0.8-8.2
		c-0.7-2.8,4.3-4.1,4.5-6.6c0.4-3.5-2.8-5.4-3-8.5c-0.2-3.3,0.4-11.7,3.6-11.1c3.4,0.7-2.7,22.3,25.6,16.9c6-1.1,12.3-14.3,5.6-18.6
		c-2.4-1.6-3.2-4-6.1-4c-1.9,0-4.5-4.1-4.1-5.8c1.3-6.3-16.6,0.5-18.5-2.9c-1.1-2-1.6-1.5-3.1-2.6c-3.5-3.4-1.2-4-0.7-8.2
		c0.5-4.4-1-7.6,0.4-12.1c1.5-4.9,0.9-8.2-0.8-13c-1-2.6-1.5-5.4-2.5-8c-0.1-2.6,0.4-10.3,3.2-10.7c5.1-0.7,4.1,2.9,7.9,0.8
		c3.9-2.1,8.1-3.3,11.9-5.6c3.5-2.1,4.3,3.4,7.8,4.4c3.2,0.9,3.7-2.9,6-2.5c2.9,0.4,3.9-2.2,6-0.2c1,1,2.1,1.9,3.5,2.3
		c0.1,2.4,1.2,4.1,2,6.2c1.4,3.4,4.1,3.7,7.1,5.8c0.3,4.4,5.8,8.8,3.4,12.4c-0.8,1.2-1.6,2.5-3,2.5c-2.7,0.1-2.3-2.2-4.4-2.2
		c-1.3,0-2.6-2.5-4.3-2.8c-0.7-0.1-1.8-3.2-2.7-3.8c-2.2-1.5-3.9-0.5-5.9-2.4c-2.1-2-4.9,0.1-7-1.7c-1.2-1-3.1-4.4-4.7-4.4
		c-6.8,0-7.4,6.7-12.4,9.2c-3,1.5-3.8,2.2-2.7,6c0.9,3.2-1.2,5.9,0.2,9.1c1,2.2,3,3.5,4.1,5.6c1,2,5,1,6.6,1.1
		c2.9,0.2,5.8,0.7,8.7,0.8c0.3,2.1,0.6,5.3,2.8,6.3c1,0.4,2.1,0.5,3.2,0.5c1.7,0,2.1,1.4,3.5,2.3c3.1,2,7,2.5,10.6,2.7
		c-1,2.7-0.8,4.6,0.7,7.2c1.5,2.7,0.3,4.3,1.3,7c1.3,3.5,2,3.9,0,7.5c-2,3.6-4.4,7.1-4.9,11.3c-0.3,3-0.6,5.9-1.1,8.9
		c-0.3,1.9-2.5,5.3-4,6.2c-3.1,1.8-5.5,3.9-8.9,4.6c-3.2,0.6-4.3,6.4-7.2,5.2C549.8,299.4,550.3,298.5,550.3,298
		C550.3,296.9,550.3,298,550.3,298"/>
	<path class="st0" d="M411.7,304.6c-2,1.1-2.8-3.4-4.9-4.4c-2-1-4.9-1.4-5-4c-0.2-2.5,0.6-4.6-0.4-7c-0.9-2.3,3.3-5.3,2.9-8.1
		c-0.3-1.9-1.8-2.3-2.2-4.1c-0.2-0.8-0.6-1.4-1.2-2c-1.4-1.2-0.2-2.7,0.4-4.4c1-2.8,2.1-5.6,0.8-8.5c1.4-2.4,1.7-3.2,0.8-5.9
		c-1.5-2.8-3-5.6-4-8.7c-0.9-3,1.5-3.8,3.3-6c1.9-2.4,1.2-5.4-0.8-7.6c1.1-3.5,2.7-3.5,0.7-7.5c-2.7-5.3,0.4-12.6,0.6-18.6
		c0.1-2.3-2.5-3.5-4.4-3.8c-3-0.4-3.6-1.7-5.9-3.3c1.7-3.7,9.4-1.6,4.9-7.6c-2-2.6-0.5-2.9,1.8-4.1c3.1-1.7,2.9-1.3,6.1,0.4
		c4.7,2.6,7.5,3.4,11.6-0.2c1-0.9,3.4-3.4,5-2.6c2.4,1.1,3,2.5,5.7,0.6c2-1.4,10.5,1.7,13.1,3.1c1.4,0.8,2.4,2,2.6,3.6
		c0.3,2,3.4,1.9,4.7,2.9c0.7,0.6,4.2,2,4.2,2.3c0,1.5,1,2.9,2.7,2.4c1.4,2.2,1.4,2.2,1,5.2c-0.4,2.8-0.9,5.6-1,8.5
		c-0.2,4.6,1.8,9.6-0.3,13.6c-2,3.9-6.3,9.1-10,9.7c-3.9,0.6-5.9,4.7-2.2,7.3c3.8,2.7,7.5,4.5,9.3,8.9c1.5,3.9,2.1,5.1,1.5,9.3
		c-0.3,2.3-1,4.2-1.5,6.5c-0.7,3.1,1.1,4.8,1.6,7.7c1.4,8.3,17.1,19.7,6,22.7c-1.1,0.3-0.6-2-1.8-2.6c-1-0.6-1.8,0-2.9,0
		c-4.8,0-7.9-4.5-6.7-8.7c1.3-4.9-4.3-3.4-5.6-6.1c-1.5-2.9-3.2-0.1-5.1-2.6c-1.3-1.8,1.3-4.3,1.2-6.5c-0.1-1.2-1.1-2-1.3-3.1
		c-0.1-1.2,1.1-2.2,1.5-3.4c1.4-4.7,1.3-11.2-3.3-14.1c-2.1-1.3-5.7-1.2-8-1.7c-1-0.3-2.2,0.1-3.2,0.4c-3.8,1.1-4.7-3.5-7.8-3.5
		c-4.5,0-2.6,4.8-2.8,7.1c-0.5,6.3-1.7,12.5-1.3,18.9c0.2,3,1.5,5.4,0.2,8.1c-1.3,2.8-2.4,6.5-1.6,9.5
		C411.7,296.7,415.5,302.5,411.7,304.6C411.1,304.9,412.1,304.3,411.7,304.6 M420,205c-4.3,0-1.9,7.5-1.1,9.5
		c2.2,5.4-1.4,8.6-1.1,14.1c0.1,2.6-1.6,9.4,4.1,7.1c3.1-1.3,7.3-0.8,9.9-3.1c2.9-2.5,5.5-4.4,8-7.3c2.9-1.8,0.6-9.6-0.3-12.1
		c-1-3-4.3-6.7-7.7-6.7c-2.5,0-3.5,0.7-6.1,0.3C423.9,206.5,421.8,205,420,205C419.8,205,420.4,205,420,205"/>
	<path class="st0" d="M487.4,303.4c-2.1,0-4-4-5.5-5.4c-1.3-1.2-1.8-4.3-3.7-4.3c-2.3,0-3.9,0.4-6.1-0.5c-1.6-0.6-3-1.5-4.7-2
		c-0.2-2.1,1-5.4-0.2-7.3c2.4-3.9-4.6-6.2-4.1-8.9c0.2-1.2,0.2-2.5-0.9-3.3c-1.5-1.1-1.3-3.4-1.3-5.3c-0.1-4,2.8-6.5,0.3-10.6
		c-2-3.3-3.3-3.8-3.2-7.7c0.1-2.6-2.2-2.9-1.9-5c0.2-1.3,0.5-4.3,1.8-4.9c-0.5,0.2-0.1-1.7,1.2-1c0.5-1.1-0.3-3.4,0.3-4.1
		c1.9-2.2,1.4-4.5,1.4-7.2c-0.1-2.2,0.1-1.1,0.8-3.4c0.9-2.6,0.3-5.3,0-7.9c-0.3-3.7,2.6-13.2,5-15.6c2-2.1,3.3-4.7,4.5-7.3
		c1-2.1,5.3-1.1,7.7-2.4c4.4-2.3,7.6-5.8,12-1.7c1.8,1.6,3.7,3.1,6.1,3.5c2.3,0.3,4.4-0.6,6.1,1.4c1.2,1.5,2.7,2.8,4.8,2.8
		c2.3,0,2.3,1.4,4.6,1.8c0.3,0.1,1.7,4.2,2.5,4.8c-0.6,3.1,1,5.1,2.2,7.7c1.8,4.1,2.1,6.5,1.1,11.1c-1.1,5,0.5,10.5-1.2,15.3
		c-0.8,2.2-1.5,5.1,0,7.2c1.5,2,1,4.6,2.5,6.9c1.4,2.3,3.1,2.6,1.4,5c-1.8,2.6-2,4.8-2.2,7.8c-0.2,2.2-2,3.7-2.5,5.8
		c-0.7,3-0.2,6-0.5,9c-0.3,2.8-3.4,10.6-5.6,11.7c-4.3,2-6.7,7.6-11.4,7.6C493.7,296.7,491.9,303.4,487.4,303.4
		C487.1,303.4,488.9,303.4,487.4,303.4 M477.2,270.3c3.3,3.6,7.8,6.3,8.6,11.6c0.4,3.3,8.3,1.1,10.3,1.1c1.6,0,2.4-1.5,2-2.8
		c2-1.5,4.4-2.2,3.9-5.2c3.2-0.8,3.6-8.5,4.2-11.2c1.4-6.3-0.3-10.1-1.1-16.1c-0.6-4.4-7.1-2.5-3-6.2c1.2-1.1,0.7-1.5,1.3-2.3
		c0.8-3.8,2.1-2.2,5.4-2.4c5.7-0.3-1.5-9.1-0.5-10.7c1-1.7-1.9-1.3-2.5-3.1c0-0.1-1.5-4-1.8-4.4c-1-1-0.7-2.2-0.6-3.6
		c0.3-4.3-0.3-4.2-3.4-6.4c-2.1-1.4-3.7-3.5-6.3-4.2c-2.9-0.8-6,0.4-8.8,1c-5.8,1.2-4.1,7.4-8,10.7c-2.9,2.4-1.7,4.1-2.1,7.4
		c-0.4,3.2-1.9,5.9-3.2,8.8c-1,2.5-1.8,5.1-1.2,7.8c0.7,2.8,3.3,5.1,3.5,8.1c0.2,2.2-0.7,3.8-1.2,5.9c-0.9,3.4,2,6.1,0.6,9.2
		C471.4,267.5,472.3,270.9,477.2,270.3C478.1,271.3,477.2,270.3,477.2,270.3"/>
	<path class="st0" d="M349.5,301.6c-1.9,1-5.3-4-7.5-3.5c-2.4,0.7-5.2,1.1-4.6-2.3c0.9-5.1-6.2-3-7.4-7.2c-1.3-4.8,4.4-5.2,3.5-10.2
		c-0.6-3.7,0.2-7.9,0.6-11.6c0.2-2.3,1.3-3.8,0.2-6c-1.2-2.5-2.3-3.8-1.9-6.7c0.2-1.9,2.5-5.4,1.5-7.1c-1.1-1.8-1.6-4-1.8-6.1
		c-0.3-3.7,2.8-7.4,0.4-10.8c-1.7-2.4-0.5-2,0.8-4.4c1-1.9,1.3-4,1.2-6.1c-0.1-1.6,0.1-4.1-1.5-5.1c-2-1.3-2.1,0.3-3-2.2
		c-0.5-1.5-0.9-2.5-1.1-4c-0.4-2.6-4.7-3-3.8-4.9c0.9-2,3.1,0.3,4.7-0.3c1.9-0.7,1.9-3.6,3.8-3.9c2-0.3,4.1,3.7,6.3,2.2
		c3.1-2.1-0.6-6.6,2.1-7.8c4.2-1.8,5.8-3.1,9.2,0.5c9.1,9.8,11.8,4.2,15.4,7.3c3.1,2.7,6.7,4.1,10.8,4.1c1.1,0,3.6,2.6,4.8,3.2
		c2.2,1,4.6,1.5,6.8,2.5c2.2,1,1,1.9,0.6,3.8c-0.5,2.4,0.6,4.2,2,6.1c1.1,1.5,2.1,3.1,2,5.1c-0.1,2.1-1.8,2.6-1.9,4.6
		c-0.1,2.2,1.5,2.9-0.1,4.7c-1.4,1.6-3.4,2.7-4.9,4.2c-3.2,3.2-2.3,4.2,3,7.2c3,1.7,2.6,6,4.9,8.6c-0.2,2.3,0.5,4.4,0.8,6.6
		c0.3,2.2-1,3.7-1.4,5.8c-0.4,2.1,0.3,4.1,0.1,6.2c-1,1.3-2.1,2.4-3.2,3.6c-1.3,1.4-5,7.4-6.8,7.4c-4.2,0.1-5.2,4.3-7.9,6.7
		c-1.5,0.2-3,0.2-3.9,1.7c-1,1.7-0.4,0.8-2.9,0.8c-2,0-3.1,1.2-4.9,1.6c-2.5,0.1-4.9-0.4-7.3-0.7C353,294.7,353.5,299.6,349.5,301.6
		C348.2,302.3,351.9,300.4,349.5,301.6 M351.7,259.4c-2.2,5.4,2.7,9.8,0.8,14.9c-0.7,1.9-2.3,6.4,0.3,7.7c1.5,0.8,5-0.2,6.6-0.3
		c3.4-0.3,5.9-3.9,9.4-4.2c3-0.3,3-1.8,4.3-4c2.5-1.9,3.6-0.8,4.7-4.4c1.4-4.6,5.2-8.9,0.2-12.8c-2.4-1.9-5.6-5.1-8.4-5.5
		c-3.2-0.5-6.4,0.2-9.4,1.4c-2.3,1-3.9-0.2-6.2-0.2c-2.8,0-4.6,2.3-3.9,5C350.1,257.3,351.7,259.5,351.7,259.4
		C350.2,263,351.7,259.4,351.7,259.4 M366.3,237.5c1.5-0.8,5.9-1.7,7.2-2.5c3-1.9-1.5-6.4,0.5-8.9c1.5-1.9,4-5.3,3.3-7.8
		c-1.2-4.1-4.5-2.6-9-2.2c-3.9,0.4-5.7-0.6-8-3.5c-1.9-2.3-6.2-3.9-10.2-0.8c-6.7,5.1-0.6,7.2-0.7,9.8c-0.1,1.7-0.7,5.6,1.6,6.2
		C353.3,228.4,343.8,248.8,366.3,237.5"/>
	<path class="st0" d="M211,308.9c-2.3,0.7-8.4-2.1-8-4.8c0.3-2-1.5-7.1-2.3-9c-1-2.6-2.9-7.5-5.1-9c-1.7-1.2,1.2-4.1,2.1-5.3
		c1.7-2.1,1.7-2.6,1-5c-1.2-4.1,1.8-5.7,2-9.7c0.2-4-1.6-8.6-5-10.9c-2.4-1.7-3.5,0-5.9-0.1c-3.5-2-2.1,0-6-1.3
		c-5.2-1.7-4.9-7.2-1.2-7.2c2.8,0,9.2-0.5,10.5-3.6c0.7-1.6-2.2-5.3-1.2-6.3c1.2-1.1,1.7-2.6,1.1-4.2c-0.6-1.9-0.1-1.7,1-3.5
		c3.1-5.2-0.7-12-1.5-17.1c-0.6-3.8-1.1-6.3-2.7-9.8c-0.5-1.1-0.2-2.3-1.6-2.9c-1.2-0.5-4.9-1.1-4-2.3c1.5-2.1,5.6-0.1,8,1
		c3.2,1.4,5.7,0.8,9,0.3c5.4-0.8,8.5,4.4,13.8,2.9c2.7-0.8,5.9-1.8,8.8-1.2c2.1,0.4,3.9,3.2,6.2,1.3c2.7-2.3,0.3-3.4,4.2-1.2
		c2.5,1.4,5.8-1.8,7.4,0.4c3.3,4.6,4,10.4,8,11.5c2.5,0.7,2.9,2,3.9,4.3c0.3,0.7,1,10.4,1.6,12.6c0.4,1.5-1.3,4.7-2,6.5
		c-1.6,4.4-5.5,10-10.3,10c-6.5,0,1.9,10.2,2.4,11.9c0.3,1.1,3.8,5,3.8,5.3c-0.3,1.7,0.1,2.6,1.4,3.6c0.6,0.5-0.1,4.2,0.2,5.1
		c1.8,5.4,6,8.2,7.3,13.8c1.4,5.7,3.3,10.1,6.3,15c1.8,2.9,4.1,4.2,1.7,6.9c-1.8,2.1-4.1,1.6-6.3,0.5c-4.3-2.1-10.7-6.7-14.9-9.3
		c-3.2-1.9-2-7.2-3-10.7c-0.5-1.8-1.2-3.7-2.3-5.3c-1.9-2.7,0-1.4-0.5-4.5c-0.4-4.5-7.6-5.3-8.1-9.8c-0.2-2.4,0.2-9.2-3.7-9.2
		c-2.5,0-4.7-0.5-7.2-1c-2.8-0.6-6-0.8-5.2,3.2c0.2,1.3,0.9,2.3,1.6,3.4c0.3,0.4-1.5,4.1-1.7,4.8c-0.9,3.2-1.1,7.2,1,10
		c-1.5,3.3-3.1,5-1.4,8.5c1.8,3.6,4,6.3,0.9,9.8C212,300.7,215.5,307.6,211,308.9C210.6,309,212.9,308.3,211,308.9 M213.4,235
		c-3.9,1.9-3.7,7.2,1.3,7.2c2.2,0,4-0.9,6-1.5c1.7-0.5,3.4,1.4,4.9,0c1.4-1.3,1.5-3.2,3.1-4.4c1.8-1.3,3.8-1,5.9-1
		c1.7,0,5.6-10.5,5.6-12.4c2.4-5-6.4-1.2-6.5-3.3c-0.2-2.7-3.9-2-5.5-2c-3.1,0.1-5.8-0.4-8.6-1.7c-1.4-0.6-3.3-2.4-5-2
		c-3.3,0.9-2.1,6.5-1.3,8.6c1,2.4,2.3,3.6,0.9,5.8C213.8,229.2,213,235.3,213.4,235C212.5,235.5,213.4,235,213.4,235"/>
	<path class="st0" d="M291.4,298.9c-2.6-2.5-6.6-5.7-9.4-1.7c-0.4,0.5-9.5,1.6-10.3,0.6c-6.6-7.8-15.5-17.6-11.8-27.1
		c1.7-4.3,6.2-8.5,3.4-12.1c-2.2-2.8-7.8-3.9-10.7-6.2c-5.4-4.2,0.8-4.7,4.2-5.7c2.7,5.5,7.4,2.4,7.4-2.6c0-1.6-0.7-2.9-1.9-4
		c-1.4-1.2,0.5-5.7,1.1-7.1c1-2.7,1.7-5.4,0.9-8.2c0.5-2,2.4-2.6,2.2-5.1c-0.3-4.9-5.5-3.9-7.3-7.4c-1.4-2.7-3.6-6.1-5.1-10.1
		c-1.6-4.3,7.8,5.2,12.5,2.5c3.6-0.5,7.3-0.4,10.8-1c2.7-0.5,3.3,1.1,5.6,1.1c1.8,0,3.9-3.3,5.5-3.7c2.7-0.7,8.4,3.5,13.5,2.7
		c3.3-0.5,5,0.8,8.9,0.2c5.6-0.9,15.8,5,12.8,10c-2.2,3.5-7.2,3.1-11.8,5.3c-1.6,0.8-2.8-2-4.7-2.2c-1.7-0.2-3.3,0.5-5,0.7
		c-5.2,0.6-8.5,0-12.8,3.4c-3.2,2.6-6.2-2.4-9-1.9c-3.8,0.7-3.1,8.7-2.7,11.4c0.3,1.6,0.6,3.2,0.8,4.9c0.2,2-1,4.7-0.4,6.6
		c1,3.5,7.6,2.5,10.6,3.3c4.8,1.3,7.3-1.8,11.5-1.8c3.9,0,7.4-1.3,12.3-1.6c6-0.3,9.4,0.3,13.5,3.5c-1.6,2.2-3.9,6.1-6.4,6.3
		c-3.4,0.3-6.9,0.4-10.3,0.7c-5.9,0.4-12.5,1.1-17.1,5.3c-3.5-1-14.6-5.9-16.2-1c-0.9,2.8,1.4,5.6,1.3,8.4c-0.2,4-1.2,7.8-1.4,11.8
		c-0.2,2.5,2.3,6.6,5.4,6.1c2.5-0.4,4-2,5.9-3.5c3.5,1.2,7.2,1.1,10.8,0.4c4.8-1,8,5.4,12.3-0.4c1.2-1.6,1.8-1.1,3.2-0.2
		c2.9,1.9,8.5-1.9,11.1,0c3.3,2.6-3.9,4-4.6,6.9c-0.5,1.9-0.6,4.7-2.5,5.1c-1.2,0.3-2.5-1.1-3.7-0.6c-4.3,1.8-9,2.3-13.2,4.1
		C296.5,296.4,295.4,298.9,291.4,298.9C290.7,298.2,291.4,298.9,291.4,298.9"/>
</g>
<rect x="731" y="-143.4" class="st1" width="152" height="143.4"/>
</svg>
