<?xml version="1.0" encoding="utf-8"?>
<!-- Generator: Adobe Illustrator 25.2.3, SVG Export Plug-In . SVG Version: 6.00 Build 0)  -->
<svg version="1.1" id="Layer_1" xmlns="http://www.w3.org/2000/svg" xmlns:xlink="http://www.w3.org/1999/xlink" x="0px" y="0px"
	 viewBox="0 0 764.9 764.9" style="enable-background:new 0 0 764.9 764.9;" xml:space="preserve">
<style type="text/css">
	.st0{fill:#FB5B26;}
</style>
<path class="st0" d="M656,194.6c-0.3-1.3-0.7-2.6-1-4l-0.1-0.4c-0.8-3.4-1.7-6.8-2.7-10.4c-6.3-21.3-17.6-38.4-33.7-50.7
	c-16-12.3-35.7-19.2-58.7-20.6c-3.6-0.2-7.1-0.2-9.7-0.2c-24.7,0-49.3,0-74,0H466c-33.3,0-66.7,0-100,0c-55.5,0-100.9,0-142.9,0.1
	c-41.3,0.1-75.3,13.5-101,40c-17.7,18.2-26.7,40.1-26.7,65.1c0,19.6,0,39.3,0,58.9c-0.1,88.5-0.2,180.1,0.1,270.4
	c0.1,37.1,16.5,69.1,50,97.7c15.6,13.3,34.6,22.4,59.9,28.7l1.7,0.4h201.3l-0.5-14.6c-0.1-1.4-0.1-2.7-0.2-4.1
	c-0.1-2.8-0.3-5.4-0.3-7.9c0-41.5,0-83.1,0-124.6c0,0,0-63.9,0-89.3c0-7.9,0-14.7-5.5-20.3c-5.6-5.7-12.4-5.7-20.2-5.7
	c-2.3,0-4.7,0-7.1,0c-2.9,0-5.9,0-8.8,0c-0.8,0-1.5,0-2.2,0c0.1-5.9,0.1-11.8,0-17.7c1.4,0,2.9,0,4.3,0h0.2c2.2,0,4.4-0.1,6.6-0.1
	c3.3,0,6,0.1,8.5,0.2c0.7,0,1.3,0.1,1.9,0.1c13.8,0,22.2-8.6,22.4-23.1c0-3.1,0.1-6.2,0.1-9.3c0.1-12.3,0.1-24.9,2-36.6
	c4.8-30.1,18.9-53,41.7-68.2c12.5-8.3,27.2-12.8,43.7-13.2c1.4,0,2.8-0.1,4.3-0.1c9.4,0,19.3,0.9,28.8,1.7c1.6,0.1,3.2,0.3,4.8,0.4
	c-1.5,8.4-2.8,16.7-4.1,24.9v0.3c-1.7-0.1-3.5-0.1-5.1-0.1c-43.6,0-70.8,26.8-72.7,71.7c-0.2,5.8-0.2,11.5-0.1,16.9v0.1
	c0,4.2,0.1,8.6,0,12.8c-0.2,6.5,1.7,11.8,5.5,15.7s9.1,5.9,15.7,5.9h0.4c3,0,6.1-0.1,9.9-0.1c2.9,0,5.8,0,8.7,0h0.9c3,0,6.1,0,9.1,0
	c2.4,0,4.5,0,6.5,0c0,5.4,0.2,10.7,0.3,15.9c0,0.6,0,1.2,0,1.7c-2.9-0.1-6-0.1-9.4-0.1c-4.9,0-9.8,0.1-14.6,0.1h-4.8
	c-0.5,0-1,0-1.5,0c-1,0-2,0-2.8,0h-0.2c-0.9,0-1.6,0-2.4,0c-3.7,0-10.7,0-16,5.4c-5.5,5.6-5.5,12-5.5,21v2.6c0,48.5,0,97,0,145.5
	v38.7c0,8,0,15.9,0,23.9v29.4h115l1.7-0.4c27.9-6.9,49.7-21.7,64.8-44c10.4-15.4,17.7-32.7,21.6-51.5c0.5-2.5,1.1-5,1.6-7.5l1.2-5.3
	V196.3L656,194.6z M530.7,625.7c-3.4,0-6.8,0-10.2,0h-1.2c-3.8,0-7.7,0-11.5,0c-4.7,0-8.8,0-12.6,0c0.1-65.6,0.1-124,0-178.2
	c1.9,0,4,0,6.3,0c2.7,0,5.5,0,8.2,0h0.2c2.8,0,5.5,0,8.3,0c4.2,0,7.7,0,10.9,0.1c0.4,0,0.8,0,1.2,0c2.5,0,10.2,0,16-5.9
	c5.9-6,5.8-14,5.8-16.6c-0.3-20.7,0-41.8,0.4-61.7c0-2.6,0.2-10.6-5.8-16.7c-3.9-4-9.2-6-15.8-6c-0.3,0-0.5,0-0.8,0
	c-3.6,0.1-7.5,0.1-12.2,0.1c-3.1,0-6.2,0-9.3,0h-0.3c-3,0-6,0-9.1,0c-1.4,0-2.8,0-4.1,0c0.2-9.3,1-17.5,5.1-24.5
	c5-8.5,9.4-9.6,12.6-9.6c7.2,0,14.6,1.1,22.6,2.2c2.7,0.4,5.4,0.8,8.2,1.1c0.4,0.1,1.2,0.4,1.8,0.6c0.9,0.4,2.1,0.8,3.5,1.2
	l15.5,5.1l4.1-24.6c1-5.6,1.9-11,2.7-16.4c0.9-5.5,1.8-11,2.7-16.5l0.1-0.4c2-12.1,4-24.7,6.1-37c1.9-11.3-3.2-20-13.7-23.1
	c-21.3-6.4-41-9.5-60-9.5c-24.5,0-47.8,5.4-69.2,16.1c-37.3,18.6-61,52.1-70.7,99.6c-2.4,12-2.8,23.9-3.2,35.5c-1.2,0-2.6,0-4,0
	c-2.5,0-5,0-7.5,0c-2.4,0-4.8,0-7.2,0c-1.5,0-3,0-4.5,0h-0.5c-6.3,0-11.4,1.9-15.2,5.7c-3.8,3.8-5.6,8.9-5.6,15.2
	c0.1,19.1,0.1,39.8-0.1,64.9c-0.1,6.3,1.8,11.4,5.6,15.2c3.7,3.7,8.7,5.6,14.8,5.6h0.3c1.5,0,3,0,4.5,0c2.6,0,5.2,0,7.8,0
	c2.7,0,5.4,0,8.1,0c1.2,0,2.3,0,3.3,0c-0.2,64.7-0.1,128.5,0,178.1c-1.6,0-3.1,0-4.7,0c-12.8,0-25.7,0.1-38.3,0.1
	c-12.5,0.1-25.4,0.1-38.1,0.1c-23.9,0-43.3-0.2-61-0.7c-28.7-0.8-51.8-15.9-70.9-46.1c-7.2-11.5-10.9-24.8-10.8-39.7
	c0-19.6,0.1-59.1,0.1-59.1c0.1-85.9,0.2-174.8-0.1-262.2c-0.1-28.9,17.5-50.3,49.6-60.1c11.4-3.5,23.8-5.4,35.9-5.4
	c61-0.3,121.6-0.3,172.9-0.3c17.9,0,35.8,0,53.7,0h4.2c19.3,0,38.6,0,57.9,0c11.3,0,22.6,0,33.9,0c11.4,0,26.1,0.9,38.6,8.1
	c17.5,10.1,25.7,26.2,26.6,52c0,1.3,0,2.7,0,4.3v91.5c0,75.5,0,153.6,0,230.9c0,24.1-5.5,43.9-17,60.7
	c-11.8,17.3-26.3,25.5-45.5,25.7C544.5,625.7,538.3,625.7,530.7,625.7z"/>
</svg>
