<?xml version="1.0" encoding="utf-8"?>
<!-- Generator: Adobe Illustrator 25.2.3, SVG Export Plug-In . SVG Version: 6.00 Build 0)  -->
<svg version="1.1" id="Layer_1" xmlns="http://www.w3.org/2000/svg" xmlns:xlink="http://www.w3.org/1999/xlink" x="0px" y="0px"
	 viewBox="0 0 714.8 715.7" style="enable-background:new 0 0 714.8 715.7;" xml:space="preserve">
<style type="text/css">
	.st0{fill:#FB5B26;}
</style>
<g>
	<path class="st0" d="M632.6,358.8c0,34.4,0.3,68.9-0.1,103.3c-0.3,30.1-4.6,59.5-17.8,87c-15.9,33-41,56.3-75,69.8
		c-21.6,8.6-44.1,13-67.5,13.2c-65.7,0.5-131.4,1.6-197.1,1.4c-23,0-46.2-0.7-68.9-5.6c-42.8-9.1-77.2-30.4-99.7-68.6
		c-11-18.6-17.4-39-20.1-60.4c-5.2-40.7-4-81.7-4.1-122.5c-0.1-33.3-0.5-66.6,0.3-99.9c0.7-27.5,0.9-55.1,8.5-82
		c13.4-47.2,42.1-80.5,88.1-98.2c19.3-7.4,39.4-10.9,60.2-12c66.4-3.4,132.8-1.7,199.1-1.5c27.2,0.1,54.5,0.6,81.1,7.9
		c57.6,15.9,92.9,53.1,107,110.9c4.2,17.2,5.6,34.8,5.8,52.3C633,289,632.6,323.9,632.6,358.8z M132.3,358.8c-0.5,0-1.1,0-1.6,0
		c1.5,43.7,2.5,87.4,4.7,131c0.8,15.2,6,29.8,13.5,43.3c14.7,26.2,38.2,39.6,66.6,45.8c20.1,4.4,40.6,4.7,61,4.8
		c62.6,0.1,125.1-0.5,187.7-0.9c15-0.1,29.7-1.9,44.2-5.9c35.9-9.9,58.5-32.7,68.4-68.6c6.1-22.1,6.6-44.7,6.7-67.2
		c0.2-63.4-0.4-126.8-0.9-190.2c-0.1-14.8-2-29.4-6-43.7c-9.3-33.1-29.7-55.4-62.7-66.3c-21.5-7.1-43.7-8.2-65.9-8.3
		c-63.6-0.3-127.1,0.4-190.7,0.6c-16.8,0.1-33.4,1.5-49.7,5.9c-33.2,9.1-55.6,29.3-66.7,62.2c-7.3,21.6-8,44-8.5,66.4
		C131.8,298.2,132.3,328.5,132.3,358.8z"/>
	<path class="st0" d="M358.2,499.9c-78.6-0.5-142.8-62.9-141.8-143.7c0.9-76.8,62.5-140.1,142.7-139.6c77.9,0.5,141,63.1,140.3,143
		C498.8,437.2,436.6,499.1,358.2,499.9z M449.8,358.1c0-50.6-41.2-91.8-91.9-91.8c-50.4,0-91.9,41.2-91.9,91.3
		c-0.1,51.4,41,92.7,92.1,92.6C408.7,450.1,449.9,408.8,449.8,358.1z"/>
	<path class="st0" d="M538.2,211.8c-0.1,17.4-15.3,32.5-32.6,32.4c-18.7-0.1-33.6-15-33.6-33.6c0-18,15.3-32.9,33.7-32.6
		C524.3,178.2,538.3,192.9,538.2,211.8z"/>
</g>
</svg>
