<?xml version="1.0" encoding="utf-8"?>
<!-- Generator: Adobe Illustrator 25.2.3, SVG Export Plug-In . SVG Version: 6.00 Build 0)  -->
<svg version="1.1" id="Layer_1" xmlns="http://www.w3.org/2000/svg" xmlns:xlink="http://www.w3.org/1999/xlink" x="0px" y="0px"
	 viewBox="0 0 52.8 15.1" style="enable-background:new 0 0 52.8 15.1;" xml:space="preserve">
<style type="text/css">
	.st0{fill:#FB5B26;}
</style>
<path class="st0" d="M29.8,3.7c-0.3,0-0.3,0.8-0.6,0.8c-0.3,0-0.3-0.8-0.6-0.8c-0.3,0-0.3,0.4-0.6,0.4c-0.3,0-0.3-0.4-0.6-0.4
	C27,3.6,27,3,26.7,3s-0.3,0.3-0.6,0.3c-0.3,0-0.3,0.6-0.6,0.6c-0.3,0-0.3,0.4-0.6,0.4c-0.3,0-0.3-1.2-0.6-1.2
	c-0.3,0-0.3,0.7-0.6,0.7c-0.3,0-0.3,0.1-0.6,0.1c-0.3,0-0.3-0.8-0.6-0.8c-0.3,0-0.3,0.8-0.6,0.8c-0.3,0-0.3-0.9-0.6-0.9
	c-0.5,0-0.5,0-0.8,0s-0.3,0.8-0.6,0.8c-0.3,0-0.3,0.3-0.6,0.3c-0.3-0.1-0.3-1-0.6-1s-0.3,0-0.6,0c-0.3,0-0.3,0.3-0.6,0.3
	c-0.3,0-0.3,0.3-0.6,0.3c-0.3,0-0.3,0-0.6,0c-0.3,0-0.3-0.6-0.6-0.6c-0.2,0-0.2,0.3-0.4,0.3c-0.1-0.1-0.4-0.2-0.4-0.3
	c0-0.3,0.7-0.3,0.7-0.7c0-0.3-0.7-0.3-0.7-0.7c0-0.3-0.4-0.3-0.4-0.7s0.8-0.3,0.8-0.7c0-0.2-0.8,0.3-1.1,0.2C14,0.4,14.2-0.1,14,0
	c-0.3,0.1-0.2,0.3-0.5,0.4S13.4,0.9,13.1,1c-0.3,0.1-0.4-0.1-0.7,0.1c-0.3,0.1-0.3,0.2-0.5,0.3c-0.3,0.1-0.8-0.8-1-0.6
	c-0.3,0.1-0.1,0.4-0.4,0.5c-0.3,0.1-0.1,0.5-0.4,0.6C9.9,2.3,9.8,2.1,9.5,2.3C9.2,2.4,9.4,2.8,9.1,2.9C8.9,3.1,8.8,3,8.5,3.1
	C8.3,3.2,7.9,2.6,7.6,2.7c-0.3,0.1,0.1,0.8-0.2,1C7.2,3.8,7.2,3.8,6.9,4C6.6,4.1,6.4,3.8,6.2,4C5.9,4.1,6.4,5,6.1,5.1
	c-0.3,0.1-0.4-0.2-0.7,0C5.1,5.2,5,5,4.7,5.2c-0.3,0.1-0.3,0-0.6,0.2C3.8,5.5,3.6,5.1,3.3,5.2C3,5.3,3.4,6.1,3.2,6.2
	C2.9,6.4,2.7,6,2.4,6.1C2.1,6.3,2.2,6.5,2,6.6C1.7,6.8,1.6,6.7,1.4,6.9C1.1,7,0.8,6.5,0.6,6.7C0.3,6.8,0,7.3,0,7.5s0.3,0.9,0.5,1
	c0.3,0.1,0.7-0.6,1-0.5c0.3,0.1-0.2,1.1,0.1,1.2c0.3,0.1,0.7-0.8,1-0.7c0.2,0.2,0.4-0.2,0.7,0c0.3,0.1-0.1,0.9,0.2,1
	C3.7,9.6,4,9,4.3,9.1s0.2,0.4,0.4,0.5C5,9.7,5,9.8,5.3,9.9C5.6,10,5.7,9.8,5.9,10c0.3,0.1,0.1,0.5,0.4,0.6s0,0.6,0.3,0.7
	c0.3,0.1,0.7-0.8,1-0.7s0.2,0.3,0.5,0.5c0.3,0.1,0.3,0.1,0.5,0.3C8.9,11.5,8.7,11.9,9,12s0.1,0.5,0.4,0.7c0.3,0.1,0.7-0.7,1-0.6
	c0.3,0.1,0.1,0.5,0.4,0.6c0.3,0.1,0.2,0.4,0.4,0.5c0.3,0.1,0.5-0.4,0.8-0.3c0.3,0.1-0.1,1,0.1,1.1c0.3,0.1,0.2,0.2,0.5,0.4
	c0.3,0.1,0.6-0.5,0.9-0.4c0.3,0.1,0.3,0,0.6,0.1c0.2,0.1,0.3,0.3,0.5,0.2s1.2-0.2,1.2-0.4c0-0.3-1.2-0.3-1.2-0.7
	c0-0.3,0.7-0.3,0.7-0.7c0-0.3-0.4-0.3-0.4-0.7c0-0.2,0.4,0,0.5-0.1s0.1-0.1,0.2-0.1c0.3,0,0.3-1,0.6-1s0.3,0,0.6,0
	c0.3,0,0.3,0.4,0.6,0.4c0.3,0,0.3,0,0.6,0c0.3,0,0.3,0.2,0.6,0.2c0.3,0,0.3,0.5,0.6,0.5c0.3,0,0.3,0.2,0.6,0.2c0.3,0,0.3,0,0.6,0
	c0.3,0,0.3-1.1,0.6-1.1c0.3,0,0.3,0.5,0.6,0.5c0.3,0,0.3-0.4,0.6-0.4c0.3,0,0.3-0.4,0.6-0.4c0.3,0,0.3,0.5,0.6,0.5
	c0.3,0,0.3-0.5,0.6-0.5c0.3,0,0.3,0.2,0.6,0.2c0.3,0,0.3,0.4,0.6,0.4c0.3,0,0.3-0.5,0.6-0.5c0.3,0,0.3,0.4,0.6,0.4
	c0.3,0,0.3,0.1,0.6,0.1c0.3,0,0.3-0.2,0.6-0.2c0.3,0,0.3-0.1,0.6-0.1c0.3,0,0.3-0.4,0.6-0.4c0.3,0,0.3,1.1,0.6,1.1
	c0.2,0,0.5-0.4,0.6-0.5s0.2-0.4,0.2-0.6c0-0.3,0.4-0.3,0.4-0.6s-0.4-0.3-0.4-0.6s0.3-0.3,0.3-0.6S30.3,8.3,30.3,8
	c0-0.3-0.9-0.3-0.9-0.6c0-0.3,0.7-0.3,0.7-0.6c0-0.3-0.2-0.3-0.2-0.6C30.2,6.3,30,6.3,30,6s1.1-0.3,1.1-0.6c0-0.3-0.6-0.3-0.6-0.6
	s-0.3-0.3-0.3-0.6c0-0.2-0.3,0.2-0.4,0.1C29.7,4.2,29.9,3.7,29.8,3.7z"/>
<path class="st0" d="M44,13.2c-1.2,0.4-2.3,0.7-3.6,0.3c0,0-0.1-0.1-0.3-0.2c-0.2-0.1-0.4-0.2-0.6-0.2c-0.5,0.1-1,0-1.5,0
	c-0.3,0-0.7,0.1-1,0c-0.1,0-0.3,0-0.4,0c-0.6,0.1-1.2,0-1.8-0.3c-0.2-0.1-0.5-0.2-0.8-0.2c-0.5,0-0.8-0.1-1.2-0.3
	c-0.5-0.3-1.1-0.4-1.7-0.4c-0.1-0.2-0.3-0.4-0.4-0.6c-0.8,0.4-0.8,0.4-1.3,0.4c-0.3-0.2-0.6-0.5-0.9-0.7c0-0.4-0.4-0.9-0.1-1.5
	c0-0.1,0-0.1,0-0.2c-0.3-0.7-0.1-1.4-0.1-2.1c0-0.3-0.1-0.6-0.1-0.9c-0.1-0.3,0-0.6,0.2-0.8c0.5-0.6,0.5-0.6,0.6-1.2
	c0.5-0.3,1.1-0.4,1.5-0.9c-0.2-0.3-0.5-0.5-0.7-0.8c-0.2-0.2-0.3-0.4-0.1-0.6c0.2-0.3,0.5-0.6,0.8-0.8c0.3-0.3,0.6-0.2,1,0.1
	c-0.1,0.1-0.3,0.3-0.4,0.5c0,0.3,0.3,0.5,0.6,0.7C32.1,2.7,32.5,3,33,2.9c0.3-0.7,0.9-1.1,1.5-1.6c0,0.5,0,0.5,0.2,0.8
	c0.5-0.1,1.1-0.3,1.7-0.4c0.3,0.2,0.7,0.4,1,0.6c0.2,0.2,0.5,0.3,0.7,0.1C38.6,2,39.3,2,39.9,1.9c0.5-0.1,0.9-0.3,1.2-0.6
	c0.2-0.2,0.4-0.3,0.5-0.5c1,0.2,1,0.2,0.6,0.8c-0.1,0.1-0.1,0.3-0.1,0.6c0.2-0.1,0.3-0.1,0.4-0.2c0.5-0.3,1-0.3,1.5-0.1
	C44.3,2,44.7,2,44.9,2c0.4-0.1,0.9-0.1,1.3-0.4C47.1,1.5,48,1.1,49,1.3c0.1,0.5,0.6,0.7,1.1,0.8c0,0.2,0,0.4,0,0.6
	c-0.4,0.1-0.8,0.3-1.3,0.4c-0.1-0.1-0.3-0.2-0.4-0.2c-0.1-0.1-0.3-0.2-0.4-0.2c-0.6,0-1.2,0-1.9,0c0.4,0.3,0.4,0.3,1,0.4
	c0,0.3-0.2,0.4-0.5,0.4c-0.4,0-0.6,0.2-0.9,0.4c-0.2,0.1-0.4,0.2-0.6,0.3C45,4.6,45,4.8,44.9,5.1c0,0.3,0.2,0.5,0.6,0.7
	c0.3,0.2,0.6,0.3,0.9,0.6c0.3,0.2,0.6,0.3,0.9,0.4c0.7,0.1,1,0.4,1.1,0.9c0.1,0.4,0.2,0.7-0.1,1.1C48.1,9,47.7,9,47.4,9.1
	c-0.7,0.2-1.3,0.3-2,0.2c-0.1,0-0.2,0-0.3,0c-0.8,0.3-1.6,0.2-2.3,0.2c-0.3,0-0.6,0-0.8,0c-0.5,0.1-0.9,0.3-1.4,0.1
	C40.3,9.5,40,9.7,39.8,10c0.4,0.3,0.9,0.4,1.4,0.3c0.2,0,0.4-0.1,0.6-0.1c0.5,0,0.9,0,1.3-0.3c0.3,0.1,0.6,0.2,0.9,0.3
	c0.3-0.1,0.7-0.3,1.1-0.5c0.4,0,0.7,0.1,0.9,0.1c0.8-0.1,1.6,0,2.3,0.1c0.4,0,0.8-0.1,1.2-0.2c0.3-0.1,0.7-0.2,1-0.3
	c0.4,0.3,1,0.6,0.8,1.2c-0.6,0.4-0.7,0.5-1.4,0.1c-0.5-0.3-0.9-0.5-1.6-0.3c-0.1,0.2-0.2,0.4-0.4,0.6c-0.2,0.2-0.4,0.3-0.6,0.4
	c-0.6-0.4-1.3-0.4-2.1,0c-0.4,0.2-0.7,0.3-1.2,0.2c-0.4-0.1-0.8,0-1.1,0.3c-0.7,0.2-1.4,0.1-2,0.1c-0.2,0-0.5,0-0.7,0.3
	c0.1,0.1,0.1,0.2,0.2,0.2c0.5,0.2,1.1,0.5,1.7,0.5c0.3,0,0.5-0.1,0.8-0.1C43.6,12.5,43.6,12.5,44,13.2z M35,5.7
	C35.4,6,35.9,6,36.1,6.3c0.1,0.1,0.4,0.1,0.7,0.2c0.4,0,0.8,0.1,1.2,0.1c0.4-0.2,0.8-0.3,1.2-0.5c0.5-0.2,0.5-0.3,0.3-0.9
	c-0.3-0.1-0.6-0.1-0.8-0.3c-0.3-0.2-0.4-0.4-0.7-0.6C36.9,4.6,35.9,4.9,35,5.7z M32,10.1c0,0.4,0.1,0.6,0.4,0.7
	c0.5,0.2,1.1,0.4,1.6,0.6c0.1,0,0.2,0,0.3,0.1c0.4,0.4,1,0.5,1.5,0.6c0.7,0.1,1.3,0.2,2,0.3c0.1,0,0.2-0.1,0.4-0.1
	c-0.6-0.3-1.1-0.4-1.5-0.8c-0.1-0.1-0.3-0.1-0.5-0.1c-0.1,0-0.3,0-0.5,0.1c0.1-0.1,0.1-0.2,0.2-0.2c0.2-0.4,0.1-0.5-0.4-0.6
	c-0.1,0-0.2,0-0.3,0c-0.5,0.2-1,0.1-1.5,0.1C33.1,10.3,33.1,10.3,32,10.1z M34.4,3.9c-0.5-0.3-0.9-0.3-1.4,0c-0.6,0.3-1.2,0.6-1.7,1
	s-0.7,0.7-0.7,1.3c0.3,0.1,0.6,0.1,0.9,0c0.4-0.2,0.9-0.3,1.1-0.6c0.2-0.5,0.9-0.3,1.1-0.7c0-0.1,0.1-0.1,0.2-0.1
	C34,4.4,34.2,4.2,34.4,3.9z M36.9,7.9c-0.6-0.1-1.2-0.2-1.7-0.5c-0.1-0.1-0.3,0-0.4-0.1c-0.5-0.1-0.9-0.1-1.5-0.2
	c-0.2,0.1-0.5,0.2-0.7,0.3c-0.3,0.2-0.7,0-0.9,0.4c0.5,0.5,0.9,0.1,1.5,0c0.6,0.4,1.3,0.5,2,0.4c0.1,0,0.3,0,0.4,0.1
	c0.4,0.1,0.8,0,1.2-0.1C36.8,8.2,36.9,8,36.9,7.9z M40.5,8.1C40.8,8,41,8,41.2,8c0.3,0.1,0.6,0,0.8,0c0.7-0.2,1.4-0.5,2.2-0.4
	c0.3,0,0.6,0,0.8-0.2C44.7,7.1,44.4,7,44,7c-0.5,0-0.9,0.2-1.4,0c-0.1,0-0.1,0-0.2,0c-0.7,0.2-1.4,0.4-2.1,0.6
	C40.4,7.7,40.4,7.9,40.5,8.1z M38.7,9.9c-0.7,0-1.3-0.1-2-0.1c0.6,0.4,1,0.7,1.4,1C38.6,10.6,38.7,10.3,38.7,9.9z M40.4,3.6
	c0.4,0.5,1,0.4,1.5,0.4c0.2,0,0.3-0.1,0.3-0.3c-0.4-0.1-0.7-0.2-1.1-0.3C40.8,3.3,40.5,3.3,40.4,3.6z M44,8.7
	c0.6,0.1,0.6,0.1,0.7-0.3c-0.2,0-0.4,0-0.7,0C44,8.5,44,8.6,44,8.7z M40.3,2.3c0,0.1,0,0.1,0,0.2c0.2,0,0.4,0.1,0.5-0.2
	C40.6,2.3,40.4,2.3,40.3,2.3z"/>
<path class="st0" d="M25.9,11.9c-0.3,0.5-0.5,0.9-1.3,1c-0.3-0.5-0.4-1-0.4-1.5c-0.1-0.9-0.1-1.8-0.2-2.6c0-0.9-0.2-1.9-0.2-2.8
	c0-0.2-0.1-0.3-0.1-0.5c-0.1-0.6,0.2-0.8,0.8-0.8c0.1,0,0.3,0,0.4,0c0.3,0.3,0.5,0.6,0.3,1c0,0.1-0.1,0.1,0,0.2
	c0.3,1,0.1,2.1,0.1,3.1c0,0.9,0.1,1.7,0.5,2.6C25.8,11.7,25.8,11.8,25.9,11.9z"/>
<path class="st0" d="M44.3,5.2c-0.1-0.7,0-0.7,0.6-1.3C45.1,4,45.3,4,45.6,4.1c0.2,0.1,0.4,0.2,0.6,0.2c0.3,0,0.6,0.1,0.7,0.3
	c0.1,0.3,0.2,0.6-0.2,0.9c-0.6-0.1-1.1-0.2-1.7-0.1C44.8,5.4,44.5,5.3,44.3,5.2z"/>
<path class="st0" d="M28.4,14.3c-0.1-0.7,0-0.7,0.6-1.3c0.2,0.1,0.4,0.1,0.7,0.2c0.2,0.1,0.4,0.2,0.6,0.2c0.3,0,0.6,0.1,0.7,0.3
	c0.1,0.3,0.2,0.6-0.2,0.9c-0.6-0.1-1.1-0.2-1.7-0.1C28.8,14.5,28.6,14.4,28.4,14.3z"/>
<path class="st0" d="M52.5,3.1c-0.2,0-0.3,0-0.5,0c-0.2,0.3-0.2,0.5-0.2,0.8c0,0.4,0.2,0.4,0.7,0.3C52.4,3.8,52.4,3.5,52.5,3.1z"/>
<path class="st0" d="M49.2,6.7c-0.4-0.7-0.4-0.7-0.3-1c0.3,0.2,0.7,0.4,1.1,0.6c-0.1,0.2-0.2,0.3-0.2,0.5
	C49.6,6.8,49.4,6.7,49.2,6.7z"/>
<path class="st0" d="M51.9,6.2c-0.1,0.2-0.2,0.3-0.3,0.4c-0.1-0.1-0.3-0.1-0.3-0.1c-0.2-0.2-0.1-0.3,0.1-0.5C51.6,6,51.7,6,51.9,6.2
	z"/>
<path class="st0" d="M18.8,13.8c0,0.8,0,0.8-0.2,1c-0.2-0.3-0.3-0.6-0.5-1c0.1-0.1,0.3-0.2,0.4-0.3C18.6,13.5,18.7,13.6,18.8,13.8z"
	/>
<path class="st0" d="M52.8,9.4c0,0.8,0,0.8-0.2,1c-0.2-0.3-0.3-0.6-0.5-1c0.1-0.1,0.3-0.2,0.4-0.3C52.6,9.2,52.7,9.3,52.8,9.4z"/>
<path class="st0" d="M16.5,13c0.2-0.1,0.3-0.1,0.4-0.2c0.1,0.1,0.2,0.2,0.2,0.2c0.1,0.3-0.1,0.3-0.3,0.4
	C16.7,13.3,16.7,13.2,16.5,13z"/>
<path class="st0" d="M18.4,2.1c-0.1-0.7,0-0.7,0.6-1.3c0.2,0.1,0.4,0.1,0.7,0.2c0.2,0.1,0.4,0.2,0.6,0.2c0.3,0,0.6,0.1,0.7,0.3
	c0.1,0.3,0.2,0.6-0.2,0.9c-0.6-0.1-1.1-0.2-1.7-0.1C18.8,2.3,18.6,2.2,18.4,2.1z"/>
<path class="st0" d="M24.3,2.7c-0.8,0.1-0.8,0.1-1,0c0.3-0.2,0.5-0.5,0.8-0.8c0.1,0.1,0.3,0.2,0.4,0.3C24.5,2.4,24.4,2.6,24.3,2.7z"
	/>
<path class="st0" d="M27.2,0.6c0.1,0.1,0.2,0.2,0.3,0.3c-0.1,0.1-0.1,0.2-0.2,0.2c-0.2,0.1-0.3,0-0.4-0.2C27,0.9,27,0.8,27.2,0.6z"
	/>
</svg>
