<?xml version="1.0" encoding="utf-8"?>
<!-- Generator: Adobe Illustrator 27.7.0, SVG Export Plug-In . SVG Version: 6.00 Build 0)  -->
<svg version="1.1" id="Layer_1" xmlns="http://www.w3.org/2000/svg" xmlns:xlink="http://www.w3.org/1999/xlink" x="0px" y="0px"
	 viewBox="0 0 52.8 15.1" style="enable-background:new 0 0 52.8 15.1;" xml:space="preserve">
<style type="text/css">
	.st0{fill:#FB5B26;}
</style>
<path class="st0" d="M23,11.1c0.3,0,0.3-0.8,0.6-0.8c0.3,0,0.3,0.8,0.6,0.8c0.3,0,0.3-0.4,0.6-0.4c0.3,0,0.3,0.4,0.6,0.4
	c0.4,0.1,0.4,0.7,0.7,0.7s0.3-0.3,0.6-0.3c0.3,0,0.3-0.6,0.6-0.6c0.3,0,0.3-0.4,0.6-0.4c0.3,0,0.3,1.2,0.6,1.2
	c0.3,0,0.3-0.7,0.6-0.7c0.3,0,0.3-0.1,0.6-0.1c0.3,0,0.3,0.8,0.6,0.8c0.3,0,0.3-0.8,0.6-0.8c0.3,0,0.3,0.9,0.6,0.9
	c0.5,0,0.5,0,0.8,0c0.3,0,0.3-0.8,0.6-0.8c0.3,0,0.3-0.3,0.6-0.3c0.3,0.1,0.3,1,0.6,1s0.3,0,0.6,0c0.3,0,0.3-0.3,0.6-0.3
	c0.3,0,0.3-0.3,0.6-0.3c0.3,0,0.3,0,0.6,0s0.3,0.6,0.6,0.6c0.2,0,0.2-0.3,0.4-0.3c0.1,0.1,0.4,0.2,0.4,0.3c0,0.3-0.7,0.3-0.7,0.7
	c0,0.3,0.7,0.3,0.7,0.7c0,0.3,0.4,0.3,0.4,0.7c0,0.4-0.8,0.3-0.8,0.7c0,0.2,0.8-0.3,1.1-0.2c0.2,0.1,0,0.6,0.2,0.5
	c0.3-0.1,0.2-0.3,0.5-0.4c0.3-0.1,0.1-0.5,0.4-0.6c0.3-0.1,0.4,0.1,0.7-0.1c0.3-0.1,0.3-0.2,0.5-0.3c0.3-0.1,0.8,0.8,1,0.6
	c0.3-0.1,0.1-0.4,0.4-0.5c0.3-0.1,0.1-0.5,0.4-0.6c0.2-0.4,0.3-0.2,0.6-0.4c0.3-0.1,0.1-0.5,0.4-0.6c0.2-0.2,0.3-0.1,0.6-0.2
	c0.2-0.1,0.6,0.5,0.9,0.4c0.3-0.1-0.1-0.8,0.2-1c0.2-0.1,0.2-0.1,0.5-0.3c0.3-0.1,0.5,0.2,0.7,0c0.3-0.1-0.2-1,0.1-1.1
	c0.3-0.1,0.4,0.2,0.7,0c0.3-0.1,0.4,0.1,0.7-0.1c0.3-0.1,0.3,0,0.6-0.2c0.3-0.1,0.5,0.3,0.8,0.2s-0.1-0.9,0.1-1
	c0.3-0.2,0.5,0.2,0.8,0.1c0.3-0.2,0.2-0.4,0.4-0.5c0.3-0.2,0.4-0.1,0.6-0.3c0.3-0.1,0.6,0.4,0.8,0.2c0.3-0.1,0.6-0.6,0.6-0.8
	s-0.3-0.9-0.5-1c-0.3-0.1-0.7,0.6-1,0.5c-0.3-0.1,0.2-1.1-0.1-1.2c-0.3-0.1-0.7,0.8-1,0.7c-0.2-0.2-0.4,0.2-0.7,0
	c-0.3-0.1,0.1-0.9-0.2-1c-0.2-0.1-0.5,0.5-0.8,0.4c-0.3-0.1-0.2-0.4-0.4-0.5c-0.3-0.1-0.3-0.2-0.6-0.3c-0.3-0.1-0.4,0.1-0.6-0.1
	c-0.3-0.1-0.1-0.5-0.4-0.6c-0.3-0.1,0-0.6-0.3-0.7c-0.3-0.1-0.7,0.8-1,0.7c-0.3-0.1-0.2-0.3-0.5-0.5c-0.3-0.1-0.3-0.1-0.5-0.3
	c-0.3-0.1-0.1-0.5-0.4-0.6s-0.1-0.5-0.4-0.7c-0.3-0.1-0.7,0.7-1,0.6c-0.3-0.1-0.1-0.5-0.4-0.6s-0.2-0.4-0.4-0.5
	c-0.3-0.1-0.5,0.4-0.8,0.3c-0.3-0.1,0.1-1-0.1-1.1c-0.3-0.1-0.2-0.2-0.5-0.4c-0.3-0.1-0.6,0.5-0.9,0.4s-0.3,0-0.6-0.1
	c-0.2-0.1-0.3-0.3-0.5-0.2S37,0.7,37,0.9c0,0.3,1.2,0.3,1.2,0.7c0,0.3-0.7,0.3-0.7,0.7c0,0.3,0.4,0.3,0.4,0.7c0,0.2-0.4,0-0.5,0.1
	c-0.1,0.1-0.1,0.1-0.2,0.1c-0.3,0-0.3,1-0.6,1c-0.3,0-0.3,0-0.6,0c-0.3,0-0.3-0.4-0.6-0.4c-0.3,0-0.3,0-0.6,0s-0.3-0.2-0.6-0.2
	c-0.3,0-0.3-0.5-0.6-0.5c-0.3,0-0.3-0.2-0.6-0.2c-0.3,0-0.3,0-0.6,0S32.1,4,31.8,4c-0.3,0-0.3-0.5-0.6-0.5c-0.3,0-0.3,0.4-0.6,0.4
	c-0.3,0-0.3,0.4-0.6,0.4c-0.3,0-0.3-0.5-0.6-0.5c-0.3,0-0.3,0.5-0.6,0.5c-0.3,0-0.3-0.2-0.6-0.2c-0.3,0-0.3-0.4-0.6-0.4
	c-0.3,0-0.3,0.5-0.6,0.5c-0.3,0-0.3-0.4-0.6-0.4c-0.3,0-0.3-0.1-0.6-0.1c-0.3,0-0.3,0.2-0.6,0.2c-0.3,0-0.3,0.1-0.6,0.1
	c-0.3,0-0.3,0.4-0.6,0.4c-0.3,0-0.3-1.1-0.6-1.1c-0.2,0-0.5,0.4-0.6,0.5s-0.2,0.4-0.2,0.6c0,0.3-0.4,0.3-0.4,0.6s0.4,0.3,0.4,0.6
	s-0.3,0.3-0.3,0.6s0.2,0.3,0.2,0.6s0.9,0.3,0.9,0.6c0,0.3-0.7,0.3-0.7,0.6s0.2,0.3,0.2,0.6c-0.3-0.1-0.1-0.1-0.1,0.2
	s-1.1,0.3-1.1,0.6s0.6,0.3,0.6,0.6c0,0.3,0.3,0.3,0.3,0.6c0,0.2,0.3-0.2,0.4-0.1C23.1,10.6,22.9,11.1,23,11.1z"/>
<path class="st0" d="M8.8,1.6c1.2-0.4,2.3-0.7,3.6-0.3c0,0,0.1,0.1,0.3,0.2c0.2,0.1,0.4,0.2,0.6,0.2c0.5-0.1,1,0,1.5,0
	c0.3,0,0.7-0.1,1,0c0.1,0,0.3,0,0.4,0c0.6-0.1,1.2,0,1.8,0.3c0.2,0.1,0.5,0.2,0.8,0.2c0.5,0,0.8,0.1,1.2,0.3
	c0.5,0.3,1.1,0.4,1.7,0.4c0.1,0.2,0.3,0.4,0.4,0.6c0.8-0.4,0.8-0.4,1.3-0.4c0.3,0.2,0.6,0.5,0.9,0.7c0,0.4,0.4,0.9,0.1,1.5
	c0,0.1,0,0.1,0,0.2c0.3,0.7,0.1,1.4,0.1,2.1c0,0.3,0.1,0.6,0.1,0.9c0.1,0.3,0,0.6-0.2,0.8c-0.5,0.6-0.5,0.6-0.6,1.2
	c-0.5,0.3-1.1,0.4-1.5,0.9c0.2,0.3,0.5,0.5,0.7,0.8c0.2,0.2,0.3,0.4,0.1,0.6c-0.2,0.3-0.5,0.6-0.8,0.8c-0.3,0.3-0.6,0.2-1-0.1
	c0.1-0.1,0.3-0.3,0.4-0.5c0-0.3-0.3-0.5-0.6-0.7c-0.4-0.2-0.8-0.5-1.3-0.4c-0.3,0.7-0.9,1.1-1.5,1.6c0-0.5,0-0.5-0.2-0.8
	c-0.5,0.1-1.1,0.3-1.7,0.4c-0.3-0.2-0.7-0.4-1-0.6c-0.2-0.2-0.5-0.3-0.7-0.1c-0.5,0.4-1.2,0.4-1.8,0.5c-0.5,0.1-0.9,0.3-1.2,0.6
	c-0.2,0.2-0.4,0.3-0.5,0.5c-1-0.2-1-0.2-0.6-0.8c0.1-0.1,0.1-0.3,0.1-0.6c-0.2,0.1-0.3,0.1-0.4,0.2c-0.5,0.3-1,0.3-1.5,0.1
	c-0.3-0.1-0.7-0.1-0.9-0.1c-0.4,0.1-0.9,0.1-1.3,0.4c-0.9,0.1-1.8,0.5-2.8,0.3c-0.1-0.5-0.6-0.7-1.1-0.8c0-0.2,0-0.4,0-0.6
	C3.1,12,3.5,11.8,4,11.7c0.1,0.1,0.3,0.2,0.4,0.2c0.1,0.1,0.3,0.2,0.4,0.2c0.6,0,1.2,0,1.9,0c-0.4-0.3-0.4-0.3-1-0.4
	c0-0.3,0.2-0.4,0.5-0.4c0.4,0,0.6-0.2,0.9-0.4c0.2-0.1,0.4-0.2,0.6-0.3c0.1-0.4,0.1-0.6,0.2-0.9c0-0.3-0.2-0.5-0.6-0.7
	C7,8.8,6.7,8.7,6.4,8.4C6.1,8.2,5.8,8.1,5.5,8c-0.7-0.1-1-0.4-1.1-0.9C4.3,6.7,4.2,6.4,4.5,6c0.2-0.2,0.6-0.2,0.9-0.3
	c0.7-0.2,1.3-0.3,2-0.2c0.1,0,0.2,0,0.3,0C8.5,5.2,9.3,5.3,10,5.3c0.3,0,0.6,0,0.8,0c0.5-0.1,0.9-0.3,1.4-0.1
	c0.3,0.1,0.6-0.1,0.8-0.4c-0.4-0.3-0.9-0.4-1.4-0.3c-0.2,0-0.4,0.1-0.6,0.1c-0.5,0-0.9,0-1.3,0.3C9.4,4.8,9.1,4.7,8.8,4.6
	C8.5,4.7,8.1,4.9,7.7,5.1C7.3,5.1,7,5,6.8,5C6,5.1,5.2,5,4.5,4.9C4.1,4.9,3.7,5,3.3,5.1C3,5.2,2.6,5.3,2.3,5.4
	c-0.4-0.3-1-0.6-0.8-1.2c0.6-0.4,0.7-0.5,1.4-0.1c0.5,0.3,0.9,0.5,1.6,0.3C4.6,4.2,4.7,4,4.9,3.8c0.2-0.2,0.4-0.3,0.6-0.4
	c0.6,0.4,1.3,0.4,2.1,0C8,3.2,8.3,3.1,8.8,3.2c0.4,0.1,0.8,0,1.1-0.3c0.7-0.2,1.4-0.1,2-0.1c0.2,0,0.5,0,0.7-0.3
	c-0.1-0.1-0.1-0.2-0.2-0.2c-0.5-0.2-1.1-0.5-1.7-0.5c-0.3,0-0.5,0.1-0.8,0.1C9.2,2.3,9.2,2.3,8.8,1.6z M17.8,9.1
	c-0.4-0.3-0.9-0.3-1.1-0.6c-0.1-0.1-0.4-0.1-0.7-0.2c-0.4,0-0.8-0.1-1.2-0.1c-0.4,0.2-0.8,0.3-1.2,0.5c-0.5,0.2-0.5,0.3-0.3,0.9
	c0.3,0.1,0.6,0.1,0.8,0.3c0.3,0.2,0.4,0.4,0.7,0.6C15.9,10.2,16.9,9.9,17.8,9.1z M20.8,4.7c0-0.4-0.1-0.6-0.4-0.7
	c-0.5-0.2-1.1-0.4-1.6-0.6c-0.1,0-0.2,0-0.3-0.1c-0.4-0.4-1-0.5-1.5-0.6c-0.7-0.1-1.3-0.2-2-0.3c-0.1,0-0.2,0.1-0.4,0.1
	c0.6,0.3,1.1,0.4,1.5,0.8c0.1,0.1,0.3,0.1,0.5,0.1c0.1,0,0.3,0,0.5-0.1C17,3.4,17,3.5,16.9,3.5c-0.2,0.4-0.1,0.5,0.4,0.6
	c0.1,0,0.2,0,0.3,0c0.5-0.2,1-0.1,1.5-0.1C19.7,4.5,19.7,4.5,20.8,4.7z M18.4,10.9c0.5,0.3,0.9,0.3,1.4,0c0.6-0.3,1.2-0.6,1.7-1
	c0.5-0.4,0.7-0.7,0.7-1.3c-0.3-0.1-0.6-0.1-0.9,0c-0.4,0.2-0.9,0.3-1.1,0.6c-0.2,0.5-0.9,0.3-1.1,0.7c0,0.1-0.1,0.1-0.2,0.1
	C18.8,10.4,18.6,10.6,18.4,10.9z M15.9,6.9c0.6,0.1,1.2,0.2,1.7,0.5c0.1,0.1,0.3,0,0.4,0.1c0.5,0.1,0.9,0.1,1.5,0.2
	c0.2-0.1,0.5-0.2,0.7-0.3c0.3-0.2,0.7,0,0.9-0.4c-0.5-0.5-0.9-0.1-1.5,0c-0.6-0.4-1.3-0.5-2-0.4c-0.1,0-0.3,0-0.4-0.1
	c-0.4-0.1-0.8,0-1.2,0.1C16,6.6,15.9,6.8,15.9,6.9z M12.3,6.7c-0.3,0.1-0.5,0.1-0.7,0.1c-0.3-0.1-0.6,0-0.8,0
	C10.1,7,9.4,7.3,8.6,7.2c-0.3,0-0.6,0-0.8,0.2c0.3,0.3,0.6,0.4,1,0.4c0.5,0,0.9-0.2,1.4,0c0.1,0,0.1,0,0.2,0
	c0.7-0.2,1.4-0.4,2.1-0.6C12.4,7.1,12.4,6.9,12.3,6.7z M14.1,4.9c0.7,0,1.3,0.1,2,0.1c-0.6-0.4-1-0.7-1.4-1
	C14.2,4.2,14.1,4.5,14.1,4.9z M12.4,11.2c-0.4-0.5-1-0.4-1.5-0.4c-0.2,0-0.3,0.1-0.3,0.3c0.4,0.1,0.7,0.2,1.1,0.3
	C12,11.5,12.3,11.5,12.4,11.2z M8.8,6.1C8.2,6,8.2,6,8.1,6.4c0.2,0,0.4,0,0.7,0C8.8,6.3,8.8,6.2,8.8,6.1z M12.5,12.5
	c0-0.1,0-0.1,0-0.2c-0.2,0-0.4-0.1-0.5,0.2C12.2,12.5,12.4,12.5,12.5,12.5z"/>
<path class="st0" d="M26.9,2.9c0.3-0.5,0.5-0.9,1.3-1c0.3,0.5,0.4,1,0.4,1.5c0.1,0.9,0.1,1.8,0.2,2.6c0,0.9,0.2,1.9,0.2,2.8
	c0,0.2,0.1,0.3,0.1,0.5c0.1,0.6-0.2,0.8-0.8,0.8c-0.1,0-0.3,0-0.4,0c-0.3-0.3-0.5-0.6-0.3-1c0-0.1,0.1-0.1,0-0.2
	c-0.3-1-0.1-2.1-0.1-3.1c0-0.9-0.1-1.7-0.5-2.6C27,3.1,27,3,26.9,2.9z"/>
<path class="st0" d="M8.5,9.6c0.1,0.7,0,0.7-0.6,1.3c-0.2-0.1-0.4-0.1-0.7-0.2c-0.2-0.1-0.4-0.2-0.6-0.2c-0.3,0-0.6-0.1-0.7-0.3
	C5.8,9.9,5.7,9.6,6.1,9.3c0.6,0.1,1.1,0.2,1.7,0.1C8,9.4,8.3,9.5,8.5,9.6z"/>
<path class="st0" d="M24.4,0.5c0.1,0.7,0,0.7-0.6,1.3c-0.2-0.1-0.4-0.1-0.7-0.2c-0.2-0.1-0.4-0.2-0.6-0.2c-0.3,0-0.6-0.1-0.7-0.3
	c-0.1-0.3-0.2-0.6,0.2-0.9c0.6,0.1,1.1,0.2,1.7,0.1C24,0.3,24.2,0.4,24.4,0.5z"/>
<path class="st0" d="M0.3,11.7c0.2,0,0.3,0,0.5,0C1,11.4,1,11.2,1,10.9c0-0.4-0.2-0.4-0.7-0.3C0.4,11,0.4,11.3,0.3,11.7z"/>
<path class="st0" d="M3.6,8.1C4,8.8,4,8.8,3.9,9.1C3.6,8.9,3.2,8.7,2.8,8.5C2.9,8.3,3,8.2,3,8C3.2,8,3.4,8.1,3.6,8.1z"/>
<path class="st0" d="M0.9,8.6C1,8.4,1.1,8.3,1.2,8.2c0.1,0.1,0.3,0.1,0.3,0.1c0.2,0.2,0.1,0.3-0.1,0.5C1.2,8.8,1.1,8.8,0.9,8.6z"/>
<path class="st0" d="M34,1c0-0.8,0-0.8,0.2-1c0.2,0.3,0.3,0.6,0.5,1c-0.1,0.1-0.3,0.2-0.4,0.3C34.2,1.3,34.1,1.2,34,1z"/>
<path class="st0" d="M0,5.4c0-0.8,0-0.8,0.2-1c0.2,0.3,0.3,0.6,0.5,1C0.6,5.5,0.4,5.6,0.3,5.7C0.2,5.6,0.1,5.5,0,5.4z"/>
<path class="st0" d="M36.3,1.8C36.1,1.9,36,1.9,35.9,2c-0.1-0.1-0.2-0.2-0.2-0.2c-0.1-0.3,0.1-0.3,0.3-0.4
	C36.1,1.5,36.1,1.6,36.3,1.8z"/>
<path class="st0" d="M34.4,12.7c0.1,0.7,0,0.7-0.6,1.3c-0.2-0.1-0.4-0.1-0.7-0.2c-0.2-0.1-0.4-0.2-0.6-0.2c-0.3,0-0.6-0.1-0.7-0.3
	c-0.1-0.3-0.2-0.6,0.2-0.9c0.6,0.1,1.1,0.2,1.7,0.1C34,12.5,34.2,12.6,34.4,12.7z"/>
<path class="st0" d="M28.5,12.1c0.8-0.1,0.8-0.1,1,0c-0.3,0.2-0.5,0.5-0.8,0.8c-0.1-0.1-0.3-0.2-0.4-0.3
	C28.3,12.4,28.4,12.2,28.5,12.1z"/>
<path class="st0" d="M25.6,14.2c-0.1-0.1-0.2-0.2-0.3-0.3c0.1-0.1,0.1-0.2,0.2-0.2c0.2-0.1,0.3,0,0.4,0.2
	C25.8,13.9,25.8,14,25.6,14.2z"/>
</svg>
