<?xml version="1.0" encoding="utf-8"?>
<!-- Generator: Adobe Illustrator 25.2.3, SVG Export Plug-In . SVG Version: 6.00 Build 0)  -->
<svg version="1.1" id="Layer_1" xmlns="http://www.w3.org/2000/svg" xmlns:xlink="http://www.w3.org/1999/xlink" x="0px" y="0px"
	 viewBox="0 0 735.8 735.6" style="enable-background:new 0 0 735.8 735.6;" xml:space="preserve">
<style type="text/css">
	.st0{fill:#FB5B26;}
</style>
<g>
	<path class="st0" d="M642.8,367.9c0.1,151.4-122.7,275.2-275.1,274.8c-75.6-0.2-140.8-27.3-194.2-80.7
		C120,508.5,93.9,443,92.9,367.4c1.4-75.4,27.6-140.6,81.2-194c53.4-53.2,118.4-79.1,193.5-80.5c75.7,1.1,141,27.6,194.8,80.9
		C614.1,225.2,642.8,294.3,642.8,367.9z M326.9,238.6c-5.2,0.2-11.4,0.5-17.5,0.6c-9.8,0.1-19.5,0.7-29.2,1.7
		c-7.6,0.7-15.2,1.4-22.7,2.4c-12.1,1.6-24.1,3.5-36,6.3c-8.9,2.1-17.7,4.6-26.5,7.1c-4,1.1-7.5,3.6-10.1,6.8
		c-6.2,7.4-7.9,15.9-5.1,25.2c3.4,11.1,16,19,27.4,16.9c4.5-0.8,8.8-2.3,13.3-3.4c20-5.1,40.3-8.6,60.9-10.3
		c9.5-0.8,19.1-1.8,28.7-2c16.9-0.3,33.9-0.6,50.8,0.9c8.4,0.7,16.8,1.2,25.1,2.2c11.9,1.5,23.8,3.1,35.6,5.2
		c15.1,2.6,30,6.3,44.7,10.8c22.3,6.8,43.7,15.5,63.9,27.3c5.2,3,10.7,4.3,16.7,3.6c11.8-1.4,21.8-11.2,22.1-24.6
		c0.2-9.7-4-17.4-12.4-22.4c-10-6.1-20.5-11.5-31.3-16.2c-13.1-5.8-26.5-10.8-40.3-15.1c-14.6-4.5-29.3-8.4-44.2-11.5
		c-17.8-3.7-35.8-6.6-53.9-8.2c-10.4-0.9-20.9-1.9-31.3-2.5C346.3,238.8,337.1,238.8,326.9,238.6z M322.4,333.4
		c-12.8-0.2-25,0.3-37.1,1.6c-7.1,0.7-14.3,1.4-21.4,2.4c-17.3,2.5-34.4,6.3-51.2,11.2c-10.5,3.1-17,13-15.5,23.6
		c1.2,8.5,7.7,15.6,16,17.6c4.4,1,8.5,0.2,12.7-0.8c10-2.5,20-5.1,30.1-7.2c10.5-2.2,21.2-3.6,31.9-4.4c7.4-0.5,14.8-1.3,22.2-1.5
		c12.6-0.3,25.3-0.3,37.9,0.9c6.8,0.6,13.6,1,20.3,1.8c18.2,2.3,36.1,5.7,53.8,10.6c26.6,7.4,52.1,17.6,75.8,32.1
		c4.3,2.6,9,3.7,14.2,3c8.2-1.1,15.4-7.1,17.5-15.1c2.3-8.7-0.7-18.8-10.1-24.5c-19-11.4-38.9-20.7-59.7-28.2
		c-15.7-5.6-31.7-10.3-48.1-13.7c-11.1-2.2-22.2-4.1-33.4-5.8c-6.6-1-13.3-1.6-20-2.2c-7.8-0.7-15.7-1.1-23.6-1.5
		C330.4,333.3,326,333.4,322.4,333.4z M326.4,422.6c-6.1,0.2-11.4,0.4-16.8,0.6c-4.6,0.2-9.1,0.2-13.7,0.7
		c-9.5,0.9-19.1,1.9-28.6,3.1c-15.3,1.9-30.4,4.9-45.5,8.3c-8.4,1.9-13.6,8.9-13.4,17.1c0.2,10.5,10.3,18.1,19.8,16.1
		c10.9-2.2,21.8-4.4,32.7-6.3c6.9-1.2,13.8-2.1,20.8-2.9c6.9-0.8,13.9-1.3,20.9-1.7c6.3-0.4,12.5-0.9,18.8-0.9
		c9,0.1,17.9,0.4,26.8,1c7.2,0.4,14.5,1.2,21.6,2.1c16,2.1,31.6,5.7,46.9,10.6c18.9,6.1,36.8,14.3,53.7,24.6
		c7.6,4.6,17.4,2.8,23-5.3c2-2.9,2.9-6.2,2.7-9.7c-0.4-6.2-3.3-11-8.7-14.3c-16.6-10.1-34.1-18.3-52.4-24.9
		c-26.3-9.3-53.4-14.7-81.1-16.8C344.5,423.2,335.1,423,326.4,422.6z"/>
</g>
</svg>
