<?xml version="1.0" encoding="utf-8"?>
<!-- Generator: Adobe Illustrator 27.7.0, SVG Export Plug-In . SVG Version: 6.00 Build 0)  -->
<svg version="1.1" id="Layer_1" xmlns="http://www.w3.org/2000/svg" xmlns:xlink="http://www.w3.org/1999/xlink" x="0px" y="0px"
	 viewBox="0 0 25.1 19" style="enable-background:new 0 0 25.1 19;" xml:space="preserve">
<style type="text/css">
	.st0{fill:#FB5B26;}
</style>
<g>
	<path class="st0" d="M12.5,16.4c-1.6,0-3.1,0-4.7-0.1c-1,0-2-0.1-3-0.3c-1.1-0.2-1.8-0.8-2-1.9c-0.2-0.8-0.3-1.6-0.3-2.5
		c-0.1-1.7-0.1-3.3,0-5c0.1-0.7,0.1-1.3,0.3-2c0.2-1,0.9-1.7,2-1.9c1-0.2,2-0.3,3-0.3c1.8-0.1,3.7-0.1,5.5-0.1
		c1.7,0,3.4,0.1,5.1,0.2c0.5,0,1.1,0.1,1.6,0.2c1.1,0.2,1.8,0.9,2,1.9c0.2,0.8,0.3,1.6,0.3,2.5c0.1,1.7,0.1,3.3,0,5
		c-0.1,0.7-0.1,1.3-0.3,2c-0.2,1-0.9,1.7-2,1.9c-1,0.2-1.9,0.2-2.9,0.3C15.6,16.3,14,16.4,12.5,16.4z M10.5,12.3
		c1.7-1,3.4-1.9,5.1-2.9c-1.7-1-3.4-2-5.1-2.9C10.5,8.4,10.5,10.3,10.5,12.3z"/>
</g>
</svg>
