<?xml version="1.0" encoding="utf-8"?>
<!-- Generator: Adobe Illustrator 27.7.0, SVG Export Plug-In . SVG Version: 6.00 Build 0)  -->
<svg version="1.1" id="Layer_1" xmlns="http://www.w3.org/2000/svg" xmlns:xlink="http://www.w3.org/1999/xlink" x="0px" y="0px"
	 viewBox="0 0 15.5 15" style="enable-background:new 0 0 15.5 15;" xml:space="preserve">
<style type="text/css">
	.st0{fill:#FB5B26;}
</style>
<g>
	<path class="st0" d="M12.8,7.7c0,0.6,0,1.3,0,1.9c0,0.5-0.1,1.1-0.3,1.6c-0.3,0.6-0.7,1-1.4,1.3c-0.4,0.2-0.8,0.2-1.2,0.2
		c-1.2,0-2.4,0-3.6,0c-0.4,0-0.8,0-1.3-0.1c-0.8-0.2-1.4-0.6-1.8-1.2c-0.2-0.3-0.3-0.7-0.4-1.1C2.8,9.5,2.8,8.7,2.8,8
		c0-0.6,0-1.2,0-1.8c0-0.5,0-1,0.2-1.5c0.2-0.9,0.8-1.5,1.6-1.8c0.4-0.1,0.7-0.2,1.1-0.2c1.2-0.1,2.4,0,3.6,0c0.5,0,1,0,1.5,0.1
		c1,0.3,1.7,1,1.9,2c0.1,0.3,0.1,0.6,0.1,0.9C12.8,6.4,12.8,7,12.8,7.7z M3.7,7.7C3.7,7.7,3.7,7.7,3.7,7.7c0,0.8,0,1.6,0.1,2.4
		c0,0.3,0.1,0.5,0.2,0.8c0.3,0.5,0.7,0.7,1.2,0.8c0.4,0.1,0.7,0.1,1.1,0.1c1.1,0,2.3,0,3.4,0c0.3,0,0.5,0,0.8-0.1
		c0.7-0.2,1.1-0.6,1.2-1.2c0.1-0.4,0.1-0.8,0.1-1.2c0-1.2,0-2.3,0-3.5c0-0.3,0-0.5-0.1-0.8c-0.2-0.6-0.5-1-1.1-1.2
		c-0.4-0.1-0.8-0.1-1.2-0.2c-1.2,0-2.3,0-3.5,0c-0.3,0-0.6,0-0.9,0.1c-0.6,0.2-1,0.5-1.2,1.1C3.8,5.2,3.7,5.6,3.7,6
		C3.7,6.6,3.7,7.1,3.7,7.7z"/>
	<path class="st0" d="M7.8,10.2c-1.4,0-2.6-1.1-2.6-2.6c0-1.4,1.1-2.5,2.6-2.5c1.4,0,2.6,1.1,2.5,2.6C10.4,9.1,9.3,10.2,7.8,10.2z
		 M9.5,7.6C9.5,6.7,8.7,6,7.8,6C6.9,6,6.2,6.7,6.2,7.6c0,0.9,0.7,1.7,1.7,1.7C8.7,9.3,9.5,8.6,9.5,7.6z"/>
	<path class="st0" d="M11.1,5c0,0.3-0.3,0.6-0.6,0.6c-0.3,0-0.6-0.3-0.6-0.6c0-0.3,0.3-0.6,0.6-0.6C10.8,4.4,11.1,4.6,11.1,5z"/>
</g>
</svg>
