<?xml version="1.0" encoding="utf-8"?>
<!-- Generator: Adobe Illustrator 27.7.0, SVG Export Plug-In . SVG Version: 6.00 Build 0)  -->
<svg version="1.1" id="Layer_1" xmlns="http://www.w3.org/2000/svg" xmlns:xlink="http://www.w3.org/1999/xlink" x="0px" y="0px"
	 viewBox="0 0 14.3 11.1" style="enable-background:new 0 0 14.3 11.1;" xml:space="preserve">
<style type="text/css">
	.st0{fill:#FB5B26;}
</style>
<g>
	<path class="st0" d="M7.1,8.9c-0.8,0-1.6,0-2.3-0.1c-0.5,0-1-0.1-1.5-0.1c-0.5-0.1-0.9-0.4-1-0.9C2.2,7.4,2.1,6.9,2.1,6.5
		C2,5.7,2,4.9,2.1,4c0-0.3,0.1-0.7,0.1-1c0.1-0.5,0.5-0.9,1-0.9C3.7,2,4.2,2,4.7,2c0.9,0,1.8-0.1,2.8,0c0.9,0,1.7,0,2.6,0.1
		c0.3,0,0.5,0,0.8,0.1c0.5,0.1,0.9,0.4,1,1C11.9,3.5,12,3.9,12,4.3c0.1,0.8,0.1,1.7,0,2.5c0,0.3-0.1,0.7-0.1,1
		c-0.1,0.5-0.5,0.9-1,0.9c-0.5,0.1-1,0.1-1.5,0.1C8.6,8.9,7.8,8.9,7.1,8.9z M6.1,6.9c0.9-0.5,1.7-1,2.5-1.5c-0.9-0.5-1.7-1-2.5-1.5
		C6.1,4.9,6.1,5.9,6.1,6.9z"/>
</g>
</svg>
