<?xml version="1.0" encoding="utf-8"?>
<!-- Generator: Adobe Illustrator 27.7.0, SVG Export Plug-In . SVG Version: 6.00 Build 0)  -->
<svg version="1.1" id="Layer_1" xmlns="http://www.w3.org/2000/svg" xmlns:xlink="http://www.w3.org/1999/xlink" x="0px" y="0px"
	 viewBox="0 0 14.1 10.9" style="enable-background:new 0 0 14.1 10.9;" xml:space="preserve">
<style type="text/css">
	.st0{fill:#F15D2B;}
</style>
<g>
	<path class="st0" d="M2.1,2.6c0.1-0.2,0.2-0.4,0.3-0.5C2.5,2,2.6,2,2.8,2c0.2,0,0.3,0,0.5,0c2.6,0,5.2,0,7.9,0
		c0.3,0,0.5,0.1,0.7,0.2C11.9,2.3,12,2.5,12,2.7c0,1.8,0,3.5,0,5.3c0,0.2-0.1,0.5-0.2,0.7C11.7,8.8,11.5,9,11.2,9C8.4,9,5.6,9,2.9,9
		C2.7,9,2.5,8.9,2.4,8.8C2.2,8.6,2.1,8.4,2.1,8.2C2.1,6.4,2.1,4.5,2.1,2.6z M11,2.5c-2.7,0-5.3,0-8,0c0,0,0,0,0.1,0.1
		C4.3,3.8,5.6,5,6.8,6.2c0.2,0.2,0.4,0.2,0.6,0C8.2,5.3,9.1,4.4,10,3.5C10.4,3.2,10.7,2.9,11,2.5z M5.6,5.9C4.8,6.7,3.9,7.6,3.1,8.4
		c2.6,0,5.3,0,7.9,0c0,0,0,0,0,0c-0.5-0.5-1.1-1.1-1.6-1.6C9.1,6.5,8.9,6.2,8.6,5.9c-0.1-0.1-0.1-0.1-0.1,0C8.2,6.2,8,6.4,7.7,6.7
		C7.5,6.9,7.3,7,7,7C6.8,7,6.6,6.9,6.4,6.7C6.1,6.4,5.9,6.2,5.6,5.9z M11.5,3C10.6,3.8,9.8,4.6,9,5.4c0.8,0.8,1.7,1.7,2.5,2.5
		C11.5,6.3,11.5,4.6,11.5,3z M2.7,2.9c0,1.7,0,3.4,0,5c0.8-0.8,1.7-1.7,2.5-2.5C4.3,4.6,3.5,3.8,2.7,2.9z"/>
</g>
</svg>
