<?xml version="1.0" encoding="utf-8"?>
<!-- Generator: Adobe Illustrator 27.7.0, SVG Export Plug-In . SVG Version: 6.00 Build 0)  -->
<svg version="1.1" id="Layer_1" xmlns="http://www.w3.org/2000/svg" xmlns:xlink="http://www.w3.org/1999/xlink" x="0px" y="0px"
	 viewBox="0 0 15.2 14.3" style="enable-background:new 0 0 15.2 14.3;" xml:space="preserve">
<style type="text/css">
	.st0{fill:#FB5B26;}
</style>
<g>
	<path class="st0" d="M12.6,7.2c0,2.8-2.2,5-5,5c-1.4,0-2.6-0.5-3.5-1.5c-1-1-1.4-2.2-1.5-3.5c0-1.4,0.5-2.6,1.5-3.5
		c1-1,2.2-1.4,3.5-1.5c1.4,0,2.6,0.5,3.5,1.5C12,4.6,12.6,5.8,12.6,7.2z M6.8,4.8c-0.1,0-0.2,0-0.3,0c-0.2,0-0.4,0-0.5,0
		c-0.1,0-0.3,0-0.4,0C5.3,4.9,5.1,5,4.9,5c-0.2,0-0.3,0.1-0.5,0.1c-0.1,0-0.1,0.1-0.2,0.1C4.1,5.4,4.1,5.6,4.1,5.7
		C4.2,5.9,4.4,6.1,4.6,6C4.7,6,4.8,6,4.9,6C5.2,5.9,5.6,5.8,6,5.8c0.2,0,0.3,0,0.5,0c0.3,0,0.6,0,0.9,0c0.2,0,0.3,0,0.5,0
		c0.2,0,0.4,0.1,0.6,0.1c0.3,0,0.5,0.1,0.8,0.2c0.4,0.1,0.8,0.3,1.2,0.5c0.1,0.1,0.2,0.1,0.3,0.1c0.2,0,0.4-0.2,0.4-0.4
		c0-0.2-0.1-0.3-0.2-0.4c-0.2-0.1-0.4-0.2-0.6-0.3c-0.2-0.1-0.5-0.2-0.7-0.3C9.4,5.2,9.1,5.1,8.9,5C8.6,5,8.2,4.9,7.9,4.9
		c-0.2,0-0.4,0-0.6,0C7.2,4.8,7,4.8,6.8,4.8z M6.7,6.5c-0.2,0-0.5,0-0.7,0c-0.1,0-0.3,0-0.4,0C5.3,6.7,5,6.7,4.7,6.8
		C4.5,6.9,4.4,7.1,4.4,7.2c0,0.2,0.1,0.3,0.3,0.3c0.1,0,0.2,0,0.2,0c0.2,0,0.4-0.1,0.5-0.1c0.2,0,0.4-0.1,0.6-0.1c0.1,0,0.3,0,0.4,0
		c0.2,0,0.5,0,0.7,0c0.1,0,0.2,0,0.4,0c0.3,0,0.7,0.1,1,0.2C9,7.7,9.5,7.9,9.9,8.1c0.1,0,0.2,0.1,0.3,0.1c0.1,0,0.3-0.1,0.3-0.3
		c0-0.2,0-0.3-0.2-0.4C10,7.3,9.6,7.1,9.2,7C8.9,6.9,8.6,6.8,8.3,6.7c-0.2,0-0.4-0.1-0.6-0.1c-0.1,0-0.2,0-0.4,0c-0.1,0-0.3,0-0.4,0
		C6.9,6.5,6.8,6.5,6.7,6.5z M6.8,8.2c-0.1,0-0.2,0-0.3,0c-0.1,0-0.2,0-0.2,0c-0.2,0-0.3,0-0.5,0.1c-0.3,0-0.6,0.1-0.8,0.2
		c-0.2,0-0.2,0.2-0.2,0.3C4.7,8.9,4.8,9,5,9c0.2,0,0.4-0.1,0.6-0.1c0.1,0,0.3,0,0.4-0.1c0.1,0,0.3,0,0.4,0c0.1,0,0.2,0,0.3,0
		c0.2,0,0.3,0,0.5,0c0.1,0,0.3,0,0.4,0c0.3,0,0.6,0.1,0.9,0.2c0.3,0.1,0.7,0.3,1,0.4c0.1,0.1,0.3,0.1,0.4-0.1c0-0.1,0.1-0.1,0-0.2
		c0-0.1-0.1-0.2-0.2-0.3c-0.3-0.2-0.6-0.3-1-0.5c-0.5-0.2-1-0.3-1.5-0.3C7.1,8.2,7,8.2,6.8,8.2z"/>
</g>
</svg>
