<?xml version="1.0" encoding="utf-8"?>
<!-- Generator: Adobe Illustrator 27.7.0, SVG Export Plug-In . SVG Version: 6.00 Build 0)  -->
<svg version="1.1" id="Layer_1" xmlns="http://www.w3.org/2000/svg" xmlns:xlink="http://www.w3.org/1999/xlink" x="0px" y="0px"
	 viewBox="0 0 15.7 15" style="enable-background:new 0 0 15.7 15;" xml:space="preserve">
<style type="text/css">
	.st0{fill:#FB5B26;}
</style>
<path class="st0" d="M12.7,4.1C12.7,4.1,12.7,4.1,12.7,4.1L12.7,4.1c0-0.1,0-0.2-0.1-0.3c-0.1-0.4-0.3-0.7-0.6-0.9
	c-0.3-0.2-0.6-0.3-1-0.4c-0.1,0-0.1,0-0.2,0c-0.4,0-0.9,0-1.3,0H9.3c-0.6,0-1.2,0-1.8,0c-1,0-1.8,0-2.5,0c-0.7,0-1.3,0.2-1.8,0.7
	C2.8,3.6,2.7,4,2.7,4.4c0,0.3,0,0.7,0,1c0,1.6,0,3.2,0,4.8C2.7,11,3,11.5,3.6,12c0.3,0.2,0.6,0.4,1.1,0.5l0,0h3.6l0-0.3
	c0,0,0,0,0-0.1c0,0,0-0.1,0-0.1c0-0.7,0-1.5,0-2.2c0,0,0-1.1,0-1.6c0-0.1,0-0.3-0.1-0.4C8,7.8,7.9,7.8,7.8,7.8c0,0-0.1,0-0.1,0
	c-0.1,0-0.1,0-0.2,0c0,0,0,0,0,0c0-0.1,0-0.2,0-0.3c0,0,0.1,0,0.1,0h0c0,0,0.1,0,0.1,0c0.1,0,0.1,0,0.2,0c0,0,0,0,0,0
	c0.2,0,0.4-0.2,0.4-0.4c0-0.1,0-0.1,0-0.2c0-0.2,0-0.4,0-0.7C8.4,5.7,8.6,5.3,9,5.1c0.2-0.1,0.5-0.2,0.8-0.2c0,0,0,0,0.1,0
	c0.2,0,0.3,0,0.5,0c0,0,0.1,0,0.1,0c0,0.1,0,0.3-0.1,0.4v0c0,0-0.1,0-0.1,0C9.5,5.3,9,5.8,9,6.6c0,0.1,0,0.2,0,0.3v0C9,7,9,7,9,7.1
	c0,0.1,0,0.2,0.1,0.3c0.1,0.1,0.2,0.1,0.3,0.1h0c0.1,0,0.1,0,0.2,0c0.1,0,0.1,0,0.2,0h0c0.1,0,0.1,0,0.2,0c0,0,0.1,0,0.1,0
	c0,0.1,0,0.2,0,0.3c0,0,0,0,0,0c-0.1,0-0.1,0-0.2,0c-0.1,0-0.2,0-0.3,0H9.5c0,0,0,0,0,0c0,0,0,0,0,0h0c0,0,0,0,0,0
	c-0.1,0-0.2,0-0.3,0.1C9,8,9,8.1,9,8.3v0c0,0.9,0,1.7,0,2.6v0.7c0,0.1,0,0.3,0,0.4v0.5h2l0,0c0.5-0.1,0.9-0.4,1.2-0.8
	c0.2-0.3,0.3-0.6,0.4-0.9c0,0,0-0.1,0-0.1l0-0.1L12.7,4.1L12.7,4.1z M10.4,11.8c-0.1,0-0.1,0-0.2,0h0c-0.1,0-0.1,0-0.2,0
	c-0.1,0-0.2,0-0.2,0c0-1.2,0-2.2,0-3.2c0,0,0.1,0,0.1,0c0,0,0.1,0,0.1,0h0c0,0,0.1,0,0.1,0c0.1,0,0.1,0,0.2,0c0,0,0,0,0,0
	c0,0,0.2,0,0.3-0.1c0.1-0.1,0.1-0.2,0.1-0.3c0-0.4,0-0.7,0-1.1c0,0,0-0.2-0.1-0.3c-0.1-0.1-0.2-0.1-0.3-0.1c0,0,0,0,0,0
	c-0.1,0-0.1,0-0.2,0c-0.1,0-0.1,0-0.2,0h0c-0.1,0-0.1,0-0.2,0c0,0,0,0-0.1,0c0-0.2,0-0.3,0.1-0.4c0.1-0.2,0.2-0.2,0.2-0.2
	c0.1,0,0.3,0,0.4,0c0,0,0.1,0,0.1,0c0,0,0,0,0,0c0,0,0,0,0.1,0L11,6.3l0.1-0.4c0-0.1,0-0.2,0-0.3c0-0.1,0-0.2,0-0.3l0,0
	c0-0.2,0.1-0.4,0.1-0.7c0-0.2-0.1-0.4-0.2-0.4C10.7,4.1,10.3,4,10,4C9.6,4,9.1,4.1,8.8,4.3C8.1,4.6,7.7,5.2,7.5,6.1
	c0,0.2,0,0.4-0.1,0.6c0,0,0,0-0.1,0c0,0-0.1,0-0.1,0c0,0-0.1,0-0.1,0c0,0-0.1,0-0.1,0h0c-0.1,0-0.2,0-0.3,0.1C6.7,6.9,6.7,7,6.7,7.1
	c0,0.3,0,0.7,0,1.2c0,0.1,0,0.2,0.1,0.3C6.8,8.6,6.9,8.6,7,8.6h0c0,0,0.1,0,0.1,0c0,0,0.1,0,0.1,0c0,0,0.1,0,0.1,0c0,0,0,0,0.1,0
	c0,1.2,0,2.3,0,3.2c0,0-0.1,0-0.1,0c-0.2,0-0.5,0-0.7,0c-0.2,0-0.5,0-0.7,0c-0.4,0-0.8,0-1.1,0c-0.5,0-0.9-0.3-1.3-0.8
	c-0.1-0.2-0.2-0.4-0.2-0.7c0-0.3,0-1.1,0-1.1c0-1.5,0-3.1,0-4.7c0-0.5,0.3-0.9,0.9-1.1C4.5,3.4,4.8,3.4,5,3.4c1.1,0,2.2,0,3.1,0
	c0.3,0,0.6,0,1,0h0.1c0.3,0,0.7,0,1,0c0.2,0,0.4,0,0.6,0c0.2,0,0.5,0,0.7,0.1c0.3,0.2,0.5,0.5,0.5,0.9c0,0,0,0,0,0.1v1.6
	c0,1.3,0,2.7,0,4.1c0,0.4-0.1,0.8-0.3,1.1c-0.2,0.3-0.5,0.5-0.8,0.5C10.7,11.8,10.6,11.8,10.4,11.8z"/>
</svg>
