<?xml version="1.0" encoding="utf-8"?>
<!-- Generator: Adobe Illustrator 27.7.0, SVG Export Plug-In . SVG Version: 6.00 Build 0)  -->
<svg version="1.1" id="Layer_1" xmlns="http://www.w3.org/2000/svg" xmlns:xlink="http://www.w3.org/1999/xlink" x="0px" y="0px"
	 viewBox="0 0 20 16.7" style="enable-background:new 0 0 20 16.7;" xml:space="preserve">
<style type="text/css">
	.st0{fill:#F15D2B;}
</style>
<g>
	<path class="st0" d="M10.1,0c0.2,0.1,0.3,0.2,0.2,0.3c0,0,0,0.1-0.1,0.1c0,0.1,0.1,0.1,0.2,0.1s0.2,0,0.3,0h0
		c0-0.1,0.1-0.2,0.2-0.2c0.1,0,0.1,0,0.2,0c0.1-0.1,0.2-0.1,0.3-0.1c0.1,0,0.2,0,0.4,0c0.1,0,0.1,0,0.2,0c0,0.1,0,0.1-0.1,0.1
		c-0.2,0-0.4,0-0.6,0c-0.1,0-0.1,0.1-0.2,0.1c0,0,0.1,0.1,0.1,0.1c0.1,0,0.2,0,0.3,0c0.1,0,0.3,0,0.4,0c0.1,0,0.1,0,0.2,0.1
		c0,0,0,0,0,0c0.1,0,0.1,0.1,0.1,0.1c0,0.1,0,0.3,0,0.5c0,0,0,0.1,0,0.1v0c0,0.1,0,0.2,0,0.4c0,0.1,0,0.2,0,0.3c0,0,0,0,0,0
		c0,0,0,0,0-0.1c0-0.1,0.1-0.2,0.2-0.3c0.1,0,0.2,0,0.3,0.1c0,0,0,0,0.1,0c0,0,0.1,0,0.1,0c0.1,0.1,0.2,0.1,0.3,0.2
		c0,0.1,0,0.1,0.1,0.2c0,0.1,0.1,0.1,0.2,0.1c0,0,0.1-0.1,0.1-0.1c0.1,0.1,0.2,0.1,0.2,0.2c0,0.1,0.1,0.1,0.1,0.2
		c0,0,0.1,0.1,0.1,0.2c0,0,0,0,0,0.1c0,0.1,0,0.1,0,0.2c0,0,0.1,0.1,0.1,0.1c0,0,0,0.1,0,0.2c0,0,0.1-0.1,0.1-0.1
		c0.1,0.1,0.1,0.2,0.1,0.3c0.1,0,0.2,0.2,0.2,0.3c0,0.1,0,0.2,0,0.3c0,0,0,0,0.1,0.1c0,0,0.1,0.1,0.1,0.1c0,0-0.1,0.1-0.1,0.1
		c-0.1,0-0.2,0-0.3,0c-0.1-0.1-0.1-0.2-0.1-0.3c0,0,0,0,0-0.1c0,0,0-0.1,0-0.2c0,0,0-0.1,0-0.1c-0.1-0.1-0.2-0.1-0.3-0.1
		c0,0.1,0,0.1,0.1,0.1c0,0,0.1,0.1,0.1,0.2s0,0.1,0,0.1c0,0.1,0,0.2-0.1,0.2c0,0,0,0-0.1,0.1c0,0,0,0-0.1,0c-0.1,0-0.1,0-0.2,0
		c-0.1,0-0.3,0-0.4,0c-0.1,0-0.1,0-0.2,0c0,0,0.1,0,0.1,0c0.2,0,0.4,0,0.5,0c0.2,0,0.4,0,0.5,0c0.1,0,0.2,0,0.3,0c0,0,0,0,0.1,0
		c0.1,0,0.3,0,0.4,0c0,0,0.1,0,0.1,0c0.1,0,0.2,0,0.4,0c0,0,0,0,0.1,0.1c0,0,0.1,0,0.2,0C15.9,4.8,16,4.9,16,5c0,0-0.1,0.1-0.1,0.1
		c0,0-0.1,0.1,0,0.1c0,0,0.1,0,0.1,0l0,0c0.1,0,0.1-0.1,0.2-0.2c0.1,0,0.2,0,0.3,0.1c0.1,0,0.2,0,0.4,0c0.2,0,0.3,0,0.5,0.1
		s0.3,0.1,0.4,0.1C18,5.1,18.1,5,18.4,4.9c0.1,0,0.3-0.1,0.4-0.1c0,0,0.1,0,0.1,0C19,4.9,19.2,5,19.4,5.2c0.1,0,0.1,0,0.2,0
		c0.2,0,0.3,0.1,0.5,0.2c-0.2,0.1-0.2,0.1-0.4,0.1s-0.3,0-0.5,0c0,0-0.1,0-0.1,0c0,0-0.1,0-0.2,0c-0.2,0-0.4,0.1-0.5,0.3
		c0,0.1-0.1,0.2-0.2,0.2c0,0-0.1,0-0.1,0c0,0-0.1,0-0.1,0.1c-0.1,0-0.2,0-0.3,0c0,0,0,0,0,0.1c0.1,0,0.1,0,0.2,0c0,0,0.1,0,0.2,0
		c0,0.1,0,0.1-0.1,0.1c-0.1,0-0.2,0-0.3,0c0,0-0.1,0-0.2,0s-0.1,0-0.1,0c0,0-0.1,0-0.1,0c-0.1,0-0.2,0-0.2,0c-0.1,0-0.2,0.1-0.3,0.2
		c-0.1,0-0.1,0-0.2,0c0,0,0,0-0.1,0c0-0.1-0.1-0.2-0.1-0.3c0,0,0-0.1,0.1-0.2c0-0.1-0.1-0.1-0.1-0.2c0.2,0,0.1,0,0,0c0,0,0,0,0-0.1
		s0,0,0-0.1c0.1,0,0.3,0,0.4-0.1c0.1,0,0.1,0.2,0.2,0.3c0,0-0.1,0-0.2,0.1c0,0,0,0,0,0.1c0.1,0,0.1,0.1,0.2,0.1c0.2-0.1,0.4,0,0.5,0
		c0.1,0,0.1,0,0.2-0.1c-0.1-0.1-0.2,0-0.3,0s-0.2,0-0.3,0c0,0,0-0.1-0.1-0.1c0,0-0.1,0-0.1-0.1c0,0,0-0.1,0.1-0.1c0.1,0,0.2,0,0.3,0
		c0.1,0,0.2,0,0.3-0.1v0c-0.1,0-0.3,0-0.4,0c0,0,0-0.1-0.1-0.1c-0.1,0-0.3,0-0.5,0c-0.1,0-0.3,0-0.4,0c0-0.1-0.1-0.1-0.3-0.1
		c0,0,0,0,0,0.1c0.1,0,0.1,0,0.2,0.1c0,0.2-0.1,0.2-0.2,0.3c0,0,0,0.1,0.1,0.1C16,6,16,6.1,16,6.2c0,0,0.1,0.1,0.1,0.1
		c0,0,0,0.1-0.1,0.1c0.1,0.1,0,0.2,0,0.4c0,0.1-0.1,0.1-0.2,0.1c-0.1,0-0.2,0-0.3,0c-0.1,0-0.2,0-0.2,0c0,0-0.1,0-0.1,0
		c-0.1,0-0.2,0-0.4,0c0,0,0,0-0.1-0.1c-0.1,0-0.3,0-0.4,0c0,0-0.1,0-0.2,0s0,0-0.1,0c-0.1,0-0.3,0-0.5-0.1c0,0,0,0-0.1,0
		c-0.1,0-0.3,0-0.4,0c0,0-0.1,0-0.1,0c-0.1,0-0.1,0-0.2-0.1c0-0.2,0.1-0.4,0-0.5c0,0,0-0.1,0-0.2s0-0.2,0-0.3c0-0.1,0-0.3,0-0.5
		c0,0,0,0-0.1,0s-0.1,0-0.2,0c0,0,0,0.1,0,0.1c0,0.1,0,0.3,0,0.5c0,0,0,0,0,0.1s0,0.1,0,0.1c0,0.2,0,0.5,0,0.6c0,0.1,0,0.1,0.1,0.2
		c0,0.1-0.1,0.2-0.1,0.3c0.1,0,0.2,0,0.2,0c0.1,0,0.2,0,0.2,0c0.2,0,0.3,0,0.4,0.2c0.1,0,0.3,0,0.4,0c0,0,0.1,0,0.1,0
		c0.1,0,0.2,0,0.3,0c0,0,0,0,0.1,0.1c0,0,0,0.1,0.1,0.2c-0.1,0.2,0,0.2,0,0.2c0,0,0.1,0.1,0.2,0.2c0,0,0,0,0,0c0,0,0,0.1,0,0.1
		c0,0,0,0,0,0.1c0,0-0.1,0-0.1,0c0,0,0-0.1-0.1-0.2c0,0,0,0-0.1,0c0,0-0.1,0-0.2,0C14.1,7.9,14,7.9,14,8c-0.1,0-0.1,0-0.2,0
		c0,0,0-0.1,0-0.1c0,0,0,0-0.1,0c-0.1,0.1-0.2,0-0.3,0c0,0,0,0-0.1,0c-0.1,0.1-0.3,0.2-0.5,0.2c-0.1,0-0.3,0-0.4,0.1
		c0,0-0.1,0-0.1,0c0,0-0.1,0-0.2,0c-0.1,0.2-0.2,0.5-0.4,0.6c0,0-0.1,0-0.2-0.1c0,0-0.1,0-0.2,0c0,0,0,0,0,0.1c0,0,0.1,0.1,0.2,0.1
		c0.1,0,0.1,0.1,0.2,0.2c0,0.1-0.1,0.2,0,0.3c0,0.1,0,0.1,0.1,0.1c0.1,0,0.1,0,0.2,0.1c0,0,0.1,0.1,0.2,0.1c0.1,0,0.1,0,0.2-0.1
		c0-0.1,0-0.1,0.1-0.1c0.1,0,0.2,0,0.3-0.1c0,0,0.1,0,0.2,0c0,0,0,0,0.1,0c0.1-0.1,0.2,0,0.3,0c0,0,0,0,0,0c0.1,0,0.2,0,0.3,0
		c0.1,0,0.2,0,0.3,0c0,0,0.1,0,0.1,0.1c0,0,0,0,0,0.1l0,0c0,0,0,0,0.1,0c0.1,0,0.3,0,0.5,0.1s0.2,0.1,0.3,0.2c0.1,0,0.1,0,0.2,0
		c0,0,0.1-0.1,0.2-0.2c0-0.1,0-0.2,0-0.3c0.1,0,0.1,0,0.1,0.1s0,0.2,0,0.3c0,0.1,0,0.3,0,0.4c0,0.1,0,0.1-0.1,0.2
		c0-0.1,0-0.2-0.1-0.2c-0.1,0-0.2,0-0.3,0c-0.1,0-0.1-0.1-0.2-0.2c-0.1,0.1-0.2,0.1-0.3,0.1c0,0-0.1,0-0.1,0.1c0,0,0.1,0,0.2,0.1
		c0,0.1,0.1,0.2,0.1,0.3c0,0,0,0.1,0.1,0.1c0,0,0.1,0.1,0.1,0.1c0,0.1-0.1,0.1-0.2,0.1c-0.1,0-0.2,0-0.3,0.1c0,0,0,0,0,0
		c-0.1,0-0.1,0-0.2,0c0,0.1,0.1,0,0.1,0.1c0,0,0,0.1,0,0.2c0,0-0.1,0.1-0.1,0.1c0,0.1,0.1,0,0.2,0c0,0,0,0,0.1,0.1c0,0,0,0,0,0
		c-0.1,0-0.2,0.1-0.1,0.3c0,0,0,0.1,0,0.1c0.1,0.1,0.1,0.2,0.1,0.3c0,0.1,0,0.1,0.1,0.2c0.1,0.1,0.1,0.1,0.1,0.3c0,0,0,0.1,0.1,0.1
		c0,0.1,0,0.2,0,0.3c0,0.1,0.1,0.1,0.1,0.2c0,0,0,0.1,0,0.1c0,0,0,0.1,0,0.2s0,0.2,0,0.2c0,0.1-0.1,0.2-0.1,0.3
		c0,0.1-0.1,0.2-0.1,0.3c0,0-0.1,0.1-0.1,0.1c-0.1,0-0.1,0.1-0.2,0.2c0,0.1-0.1,0.2-0.2,0.3c-0.1,0.1-0.2,0-0.2-0.1c0,0,0-0.1,0-0.1
		c0,0-0.1,0-0.2,0c0,0,0,0-0.1,0.1h0c0,0-0.1,0-0.1-0.1c0-0.1-0.1-0.1-0.2-0.1c-0.1,0.1-0.2,0.2-0.3,0.4c-0.1,0-0.1-0.1-0.1-0.1
		c0,0,0.1-0.1,0.1-0.1c0,0,0.1-0.1,0.1-0.1c0.1-0.1,0.1-0.1,0-0.3c-0.1,0-0.1,0-0.2,0.1c-0.1,0-0.1,0-0.2,0c0,0,0,0-0.1-0.1
		c0,0,0,0,0,0.1c0,0.1,0,0.1,0,0.2s0,0.1,0,0.2c0,0,0,0.1,0,0.1c0,0.1,0,0.1-0.1,0.2c0,0-0.1,0.1-0.1,0.1c0,0.1-0.1,0.3-0.1,0.4
		c0,0,0,0,0,0.1c0,0,0,0.1-0.1,0.1c0,0-0.1,0.1,0,0.2c0,0,0,0,0.1,0c0.1,0,0.1,0,0.1,0.1c0,0,0,0.1-0.1,0.1s-0.1,0-0.1,0l0,0l0,0
		c-0.1,0-0.2,0-0.2-0.1c-0.1,0-0.2,0-0.3-0.1c0,0-0.1,0-0.1,0c0,0-0.1-0.1-0.1,0c0,0-0.1,0-0.1,0c-0.1,0-0.2,0-0.4,0
		c0,0-0.1,0-0.1,0c0,0.1,0,0.2-0.1,0.2c0,0,0-0.1,0-0.1c0,0,0.1-0.1,0.1-0.2v0c0,0,0-0.1,0.1-0.2c0.1,0,0.1,0,0.3,0
		c0.1,0,0.2-0.1,0.1-0.2c-0.1,0-0.3,0-0.5,0c0,0-0.1,0.1-0.2,0.1c-0.1,0.1-0.2,0.1-0.4,0c-0.1,0-0.2-0.1-0.3-0.1
		c-0.1,0-0.2-0.1-0.3-0.1c0-0.1-0.1-0.2-0.2-0.3c0,0-0.1-0.1-0.1-0.2c0,0-0.1,0-0.2,0c0-0.1-0.1-0.1-0.1-0.3c0,0,0,0,0-0.1
		c-0.1-0.1-0.2-0.2-0.3-0.3c0,0-0.1,0-0.1-0.1c-0.1-0.1,0-0.3,0-0.4c-0.1,0-0.1-0.1-0.2-0.2c0-0.1,0-0.3,0-0.4c0,0,0-0.1,0-0.1
		c0,0,0-0.1,0-0.2c0.1,0,0.1-0.2,0.2-0.3c0,0-0.1,0-0.1-0.1c-0.1,0-0.2,0.1-0.3,0c0,0,0-0.1,0.1-0.1c0.1,0,0.2,0,0.4,0h0
		c0.1-0.1,0-0.3,0.1-0.3c0,0,0.1,0,0.1,0c0,0,0.1,0,0.1,0c0,0,0-0.1,0-0.1c0,0,0-0.1,0-0.2c-0.1,0-0.1,0-0.2,0c0,0-0.1-0.1-0.2,0
		c0,0,0,0,0,0c0,0,0,0,0,0.1c0,0,0,0-0.1,0c-0.1,0-0.1-0.1-0.2-0.1c0,0,0,0.1,0,0.1c0,0,0,0-0.1,0.1c0,0-0.1,0-0.1-0.1
		c0,0,0-0.1,0.1-0.1c-0.1-0.1-0.2-0.1-0.2,0c0,0.1-0.1,0.1-0.2,0.1h0c0,0,0-0.1,0-0.1c0,0-0.1,0-0.1,0.1c-0.1,0-0.2,0-0.3,0
		c-0.1-0.1-0.2-0.3-0.2-0.4c0-0.1,0-0.2,0-0.2c0,0-0.1-0.1-0.1-0.1c0,0,0,0,0,0c0-0.1-0.1-0.2-0.1-0.3c0,0,0,0,0.1,0
		c0,0,0.1,0,0.1-0.1c0-0.1,0.1-0.2,0.1-0.3c0,0-0.1,0-0.2,0c-0.1-0.1-0.2-0.1-0.3-0.2c0,0,0,0,0-0.1s0,0,0.1,0c0.1,0,0.2,0,0.2,0
		c0.1,0,0.1,0,0.2-0.1c0,0,0.1,0.1,0.1,0.1c0.1,0,0.1,0,0.2-0.1c0.1,0,0.2,0,0.4,0c0,0,0.1,0.1,0.1,0.2c0,0,0,0-0.1,0.1
		c0.1,0,0.2,0,0.2,0c0.1,0,0.1,0,0.2,0c0,0-0.1,0-0.1,0c0,0-0.1,0-0.1,0c0-0.1,0-0.1,0-0.1c0.1,0,0.2-0.1,0.3-0.1c0.1,0,0.2,0,0.3,0
		c0,0,0.1,0,0.1,0c0,0,0,0,0,0c0-0.2,0-0.2,0.2-0.2c0,0,0.1,0,0.1,0c0.1,0,0.1,0,0.2-0.1c0,0,0.1,0,0.2-0.1c0.1,0.1,0.1,0.1,0.1,0.2
		c0,0.1-0.2,0.1-0.2,0.2c0,0,0.1,0,0.1,0s0.1,0,0.2,0c0.1,0,0.1-0.1,0.1-0.2c0.1,0,0.1-0.1,0.2-0.1c0,0,0,0,0.1,0.1c0,0,0.1,0,0.1,0
		s0-0.1,0-0.1c0,0,0-0.1-0.1-0.1c0-0.1,0-0.2,0-0.4c0,0,0.1-0.1,0.1-0.2c0,0-0.1,0-0.1,0c0,0-0.1,0.1-0.1,0.1c0,0-0.1,0-0.1,0
		c0-0.1,0-0.2-0.2-0.3c0,0,0,0-0.1,0c0,0-0.1-0.1-0.2-0.1c0,0,0,0-0.1,0c-0.1,0-0.2,0-0.3,0c-0.1,0-0.2,0-0.3,0c-0.1,0-0.3,0-0.5,0
		c-0.1,0-0.2,0.2-0.3,0.3C8,8.9,8,8.8,8,8.7c0,0-0.1,0-0.1,0C7.8,8.9,7.7,8.9,7.5,9h0C7.4,8.9,7.2,8.9,7.1,8.8c0,0,0,0-0.1,0
		c0,0,0-0.1,0-0.1c0.1,0,0.1-0.1,0.1-0.1C7.4,8.3,7.5,8.1,7.8,8C7.9,8,8,7.9,8,7.9c0,0,0.1,0,0.1-0.1c0-0.1,0.1-0.1,0.2-0.2
		c0,0,0.1,0,0.2-0.1c0,0,0,0,0,0c-0.1,0-0.2,0-0.2,0c0,0,0,0-0.1,0c-0.2,0-0.4,0-0.5,0c-0.1,0-0.3,0-0.4,0c-0.1,0-0.2,0-0.3,0
		c-0.1,0-0.2,0-0.3,0c0-0.1-0.1-0.1,0-0.2c0,0,0-0.1-0.1-0.2c0,0.1,0,0.1,0,0.2c0,0-0.1,0-0.2,0c0,0,0-0.1,0-0.1
		c0.1-0.1,0.1-0.2,0-0.4c0-0.1,0-0.3-0.1-0.4c0-0.1-0.1-0.2-0.1-0.4l0,0c0,0,0-0.1,0-0.1c0-0.1,0-0.3,0-0.5c0,0,0,0,0.1,0
		c0,0,0,0,0-0.1c0.1,0,0.3-0.1,0.5-0.1c0.1,0,0.3,0,0.5,0c0,0,0-0.1,0-0.1l0,0c-0.1,0-0.1,0-0.2,0c-0.1,0.1-0.3,0-0.5,0
		c-0.1,0-0.1,0-0.2,0c0,0,0,0-0.1,0c0,0-0.1,0-0.1,0c0,0,0-0.1,0-0.1c0.1-0.1,0-0.2,0.1-0.3c0,0,0-0.1,0-0.1c0-0.1,0-0.1,0-0.2
		c0,0,0.1-0.1,0.1-0.2c0-0.1,0.1-0.2,0.2-0.4c0-0.1,0.1-0.2,0.2-0.2c0,0,0.1-0.1,0.1-0.1C7,3.5,7.1,3.4,7.1,3.3c0,0,0.1-0.1,0.1-0.1
		c0,0,0.1-0.1,0.2-0.1c0,0,0,0,0.1-0.1c0-0.1,0.1-0.1,0.2-0.2c0.1,0,0.1-0.1,0.2-0.1C8,2.5,8.1,2.4,8.3,2.4c0.1,0,0.2-0.1,0.3,0
		c0-0.2,0-0.4,0-0.6c0-0.1,0-0.2,0.1-0.3c0,0,0.1,0,0.2-0.1c0,0,0-0.1,0-0.2c0.1,0,0.3,0,0.5,0c0.1,0,0.3-0.1,0.4-0.2
		C9.7,0.9,9.5,0.8,9.3,0.9S9.1,0.9,9,0.8c0-0.1,0-0.1,0.2-0.1c0,0,0.1,0,0.2,0c0,0,0.1,0,0.1,0C9.3,0.5,9.5,0.5,9.7,0.4
		C9.6,0,9.8-0.1,10.1,0z M11.4,4.3c0,0-0.1,0-0.1,0c-0.1,0-0.1,0-0.2,0c-0.1,0-0.3,0.1-0.5,0c-0.1,0-0.2,0-0.3,0
		c0,0.1,0,0.2-0.1,0.3c0,0,0.1,0,0.1,0.1s-0.1,0.1-0.1,0.1c0,0,0,0.1-0.1,0.2c-0.1,0,0-0.1-0.1-0.2c0,0-0.1,0-0.1-0.1
		c0,0,0.1,0,0.2-0.1C10,4.6,10,4.6,10,4.5c0-0.1,0-0.1,0-0.2c0,0-0.1,0-0.1,0c-0.2,0-0.3,0-0.5,0c0,0-0.1,0-0.1,0
		c0,0.1-0.1,0.2,0,0.3c0.1-0.1,0.3-0.1,0.4,0c0,0,0,0.1,0,0.2c0,0.1,0,0.2,0,0.2c0,0.1,0.1,0.2,0.1,0.3c0,0,0,0.1,0.1,0.1
		c0.1,0.1,0.1,0.2,0.3,0.2c0.1,0,0.1,0,0.2,0c0.1-0.1,0.2-0.2,0.3-0.3c0,0,0,0,0,0c0-0.1,0.1-0.2,0.1-0.3c0,0,0-0.1,0-0.2
		c0,0,0-0.1-0.1-0.1c0-0.2,0-0.3,0.3-0.3c0.1,0,0.1,0,0.2,0c0.1,0,0.1,0,0.2-0.1C11.5,4.4,11.4,4.4,11.4,4.3z M8,7.1
		c0.1,0.1,0.1,0.1,0.3,0c0-0.2,0-0.4-0.1-0.6c0,0,0-0.1,0-0.2c0-0.1,0-0.2,0-0.4c0,0,0,0,0-0.1c0-0.2,0-0.3,0-0.5v0
		C8,5.2,8,5.2,7.9,5.2c0,0-0.1,0-0.1,0.1c0,0.1,0,0.1,0,0.2c0,0,0.1,0,0.1,0.1c0,0.1-0.1,0.1-0.1,0.2c0,0,0.1,0.1,0.1,0.2
		c0,0.2-0.1,0.4,0,0.5C8,6.6,8,6.8,8,6.9C8,6.9,8,7,8,7.1z M14.1,12.3c0-0.1-0.1-0.1-0.2-0.2c-0.1,0-0.2,0-0.3,0c0-0.1,0-0.1,0-0.2
		c0,0-0.1-0.1-0.1-0.1c0-0.1-0.1-0.1-0.2-0.2l0,0c0,0.1,0,0.3,0.1,0.4c0,0,0,0,0,0.1c0,0.1,0,0.2,0,0.2c0,0,0.1,0.1,0.2,0.2
		c0,0,0.1,0,0.1,0c0,0,0,0,0.1,0C14,12.5,14,12.5,14.1,12.3z M12.3,10.7c0.1,0,0.2,0.1,0.2,0.2s0,0.1,0.1,0.2c0,0,0.1,0,0.2,0
		c0,0,0.1,0.1,0.1,0.1c0,0,0.1,0.1,0.1,0.1c0,0.1,0.1,0.2,0.2,0.2c-0.1,0.2-0.1,0.3,0,0.4c0-0.1,0-0.3,0.1-0.4c0,0,0,0,0-0.1
		c0-0.2,0-0.2-0.1-0.2c0,0,0-0.1-0.1-0.1c-0.1,0-0.2-0.1-0.2-0.2c-0.1,0-0.2,0-0.2-0.2c0-0.1-0.1-0.1-0.2-0.2c0,0-0.1,0-0.2-0.1
		c0,0,0,0-0.1,0c0.1,0,0.1,0,0.2,0.1C12.3,10.6,12.3,10.7,12.3,10.7z M8.7,12.6c0-0.1,0.1-0.2,0.2-0.3c0.1,0,0.1-0.1,0.2-0.2
		c0,0,0.1-0.1,0.1-0.1s0.1-0.1,0.1-0.1c0,0,0,0,0.1-0.1c0,0,0.1-0.2,0.2-0.3c0-0.1,0-0.1,0-0.2c-0.1,0.1-0.3,0.2-0.4,0.4
		c0,0,0,0,0.1,0.1c0,0,0,0.1,0,0.1c0,0-0.1,0-0.2,0c0,0.1-0.1,0.3-0.3,0.4c0,0.1,0,0.1-0.1,0.2c0,0,0,0.1,0,0.1
		C8.7,12.5,8.7,12.5,8.7,12.6C8.6,12.6,8.7,12.6,8.7,12.6z M11,1.7c0-0.1-0.1-0.1-0.2-0.2c-0.1,0-0.2,0-0.3,0c0,0,0,0.1,0,0.1
		c-0.1,0.1-0.1,0.2,0.1,0.3c0.1,0.1,0.1,0.1,0,0.2c0,0,0,0,0.1,0c0,0,0.1-0.1,0-0.2c0,0,0-0.1,0-0.1C10.9,1.8,10.9,1.8,11,1.7z
		 M9.6,0.4c0.1,0,0.2,0.1,0.3,0.1c0,0,0,0,0,0.1c0,0,0,0.1,0.1,0.1c0,0,0,0,0,0c0-0.1,0-0.2,0-0.3v0c0-0.1-0.1-0.2-0.2-0.3
		c-0.1,0-0.2,0-0.3,0C9.7,0.2,9.6,0.3,9.6,0.4z M9.9,1.5c-0.1,0-0.3,0.1-0.3,0.3c0,0,0.1,0,0.1,0.1c0,0.1-0.1,0.2,0,0.3
		S9.9,2.4,10,2.3c0,0-0.1-0.1-0.1-0.1c0-0.1,0-0.2,0-0.2C10,1.9,10,1.9,10,1.8C10,1.7,10,1.6,9.9,1.5z M10.1,0.9c0,0.1,0,0.2,0,0.3
		c0,0.1,0,0.1,0,0.2c0,0,0,0,0,0.1c0.1,0,0.1,0,0.2,0.1c0,0,0.1,0,0.2-0.1c-0.1-0.1-0.1-0.2-0.2-0.3c0,0,0-0.1,0-0.1
		C10.2,1,10.2,0.9,10.1,0.9z M11.8,1.6C11.9,1.6,11.9,1.6,11.8,1.6C12,1.5,12,1.4,11.9,1.3c-0.1,0-0.2,0-0.4,0
		C11.7,1.4,11.6,1.5,11.8,1.6C11.8,1.6,11.8,1.6,11.8,1.6z M8.7,1.5c0,0.1,0,0.2,0,0.3c0,0,0,0.1,0,0.1c0,0,0.1,0,0.1,0
		c0,0,0-0.1,0-0.2c0-0.1,0-0.1,0-0.2C8.9,1.5,8.8,1.4,8.7,1.5z M10.4,13c0.1,0,0.1-0.1,0.1-0.2c0-0.1-0.1-0.3-0.1-0.4c0,0,0,0,0-0.1
		c-0.1,0-0.1,0.1-0.1,0.2c0,0,0,0.1,0.1,0.1c0,0.1,0,0.2,0,0.3C10.3,12.9,10.3,13,10.4,13z M13,7.7c-0.1,0-0.3,0.1-0.4,0
		c-0.1,0-0.1,0.1-0.1,0.2c0.1,0,0.2,0,0.2,0c0,0,0.1,0,0.2-0.1C12.9,7.8,13,7.8,13,7.7z M17.6,5.7c0,0.1-0.1,0.1-0.1,0.2
		c0,0,0.1,0,0.2,0c0.1,0,0.2,0,0.2-0.1C17.9,5.7,17.9,5.6,17.6,5.7z M11.6,7.6c-0.1,0-0.1,0-0.2,0c-0.1,0-0.1,0.1,0,0.1
		c0,0,0.1,0.1,0.2,0.1C11.6,7.8,11.6,7.7,11.6,7.6z M14.1,12.5c0,0.1,0,0.2,0,0.2s0.1,0.1,0.2,0.1C14.2,12.8,14.4,12.6,14.1,12.5
		C14.2,12.5,14.2,12.5,14.1,12.5z M8.5,12.7c0,0.1-0.1,0.1-0.1,0.2c0,0,0,0.1,0,0.2c0,0,0,0,0,0h0c0.1,0,0.1-0.1,0.1-0.2
		C8.6,12.8,8.5,12.8,8.5,12.7z M12.8,9.6c0,0,0.1,0.1,0.1,0c0.1,0,0.2-0.1,0.3-0.1c0,0,0,0,0,0c0,0,0,0,0-0.1c0,0-0.1,0-0.1,0
		C13,9.5,13,9.6,12.8,9.6C12.9,9.5,12.9,9.6,12.8,9.6z M10.2,15.6C10.2,15.6,10.2,15.5,10.2,15.6c-0.1-0.1-0.3-0.2-0.4-0.2
		c0,0,0,0,0,0C10,15.6,10,15.6,10.2,15.6z M9.5,7.8c0,0.1,0.1,0.1,0.1,0.1c0.1,0,0.1,0,0.2,0c0,0,0-0.1,0-0.1
		C9.7,7.8,9.6,7.8,9.5,7.8z M9.7,11.2C9.8,11.2,9.8,11.2,9.7,11.2c0.1-0.1,0.2-0.2,0.2-0.2c0,0,0-0.1,0-0.1c0,0-0.1,0-0.1,0
		c0,0,0,0.1-0.1,0.2C9.7,11,9.7,11.1,9.7,11.2z M10.3,3.3C10.3,3.2,10.2,3.2,10.3,3.3c-0.1-0.1-0.2-0.1-0.2-0.1c0,0.1,0,0.1,0,0.2
		C10.1,3.4,10.2,3.3,10.3,3.3z M10.3,13.2c0.1,0.1,0,0.2,0.1,0.3c0.1-0.1,0-0.2,0-0.3C10.4,13.2,10.4,13.1,10.3,13.2z M9.4,10.1
		L9.4,10.1c-0.1,0-0.2,0-0.4,0c0,0,0,0,0,0C9.1,10.2,9.2,10.2,9.4,10.1C9.3,10.2,9.3,10.2,9.4,10.1z M11.1,1.3c0.2,0,0.3,0,0.4,0
		C11.4,1.2,11.3,1.2,11.1,1.3z M10.7,12.1c-0.1,0-0.1,0-0.2,0c0,0-0.1,0,0,0.1C10.6,12.3,10.6,12.2,10.7,12.1z M12.4,6.3
		c0,0,0-0.1,0-0.2c0,0,0-0.1,0-0.2C12.4,6,12.4,6.2,12.4,6.3z M10.5,1.2C10.5,1.3,10.5,1.3,10.5,1.2c0.1,0.1,0.2,0,0.2,0h0
		C10.5,1.1,10.5,1.2,10.5,1.2z M13.5,14.4c0.2-0.1,0.2-0.1,0.1-0.2C13.6,14.3,13.5,14.4,13.5,14.4z M14.1,7.6
		C14,7.6,14,7.6,14.1,7.6c-0.1,0-0.2,0-0.2,0.1C14,7.7,14,7.7,14.1,7.6z M10.5,15.3c-0.2,0.1-0.2,0.1-0.2,0.2
		C10.4,15.5,10.4,15.4,10.5,15.3z M9.7,6.9c0,0.1,0,0.1,0,0.2C9.8,7.1,9.8,7,9.7,6.9C9.7,6.9,9.7,6.9,9.7,6.9z M12.3,6.5
		c0,0-0.1,0.1,0,0.2C12.4,6.7,12.4,6.6,12.3,6.5z M11.4,1.5c0,0.1,0,0.1,0.1,0.1C11.5,1.6,11.5,1.6,11.4,1.5
		C11.4,1.5,11.4,1.5,11.4,1.5z M11,7.3c-0.1-0.1-0.1-0.1-0.2,0C11,7.4,11,7.4,11,7.3z M11.9,6.1c-0.1-0.1-0.1-0.1-0.1,0
		C11.8,6.2,11.9,6.2,11.9,6.1z M9.9,7.3c0,0-0.1,0.1,0,0.2C10,7.4,10,7.4,9.9,7.3z M7.3,10.9c-0.1,0-0.1,0-0.1,0.1
		C7.3,11,7.3,11,7.3,10.9z M7.1,10.3c0.1,0,0.1,0,0.1-0.1C7.1,10.2,7,10.2,7.1,10.3z M11.8,15.4c0,0,0.1,0,0.1,0c0,0,0-0.1,0-0.1
		C11.9,15.3,11.9,15.4,11.8,15.4z M13,6.6c0,0,0,0.1,0,0.1c0,0,0,0,0.1,0C13.1,6.7,13.1,6.7,13,6.6C13.1,6.6,13.1,6.6,13,6.6L13,6.6
		z M10,8.9c0.1,0,0.1,0,0.1-0.1c0,0-0.1,0-0.1,0C10,8.9,10,8.9,10,8.9z M10.8,3.8c0,0,0,0.1,0,0.1C10.8,3.9,10.9,3.9,10.8,3.8
		C10.9,3.8,10.8,3.8,10.8,3.8z M17.9,6C18,6.1,18,6,18.1,6C18,5.9,18,5.9,17.9,6z M7.5,10.4c0.1,0,0.1,0,0.1-0.1
		C7.6,10.4,7.5,10.4,7.5,10.4z M10.7,4C10.6,3.9,10.6,3.9,10.7,4C10.6,4,10.6,4,10.7,4C10.6,4,10.6,4,10.7,4z M17.2,5.9
		c-0.1,0-0.1,0-0.2,0C17,5.9,17.1,5.9,17.2,5.9z M12,4.4C12,4.5,12,4.5,12,4.4C12,4.4,12,4.4,12,4.4z M13.4,14.6
		c-0.1,0-0.1,0-0.1,0.1C13.4,14.6,13.4,14.6,13.4,14.6z M9.2,6.9C9.2,7,9.3,6.9,9.2,6.9C9.2,6.9,9.2,6.9,9.2,6.9z M8.3,13.4
		c0,0,0.1-0.1,0-0.1C8.3,13.3,8.2,13.3,8.3,13.4z M11.5,13.4c0,0,0-0.1-0.1,0C11.4,13.4,11.4,13.4,11.5,13.4z M7.5,10.8
		C7.5,10.9,7.5,10.9,7.5,10.8L7.5,10.8C7.5,10.8,7.5,10.8,7.5,10.8z M10.2,3.5C10.1,3.5,10.1,3.5,10.2,3.5
		C10.1,3.6,10.1,3.6,10.2,3.5z M9.1,8.4c0,0,0.1,0,0.1,0C9.3,8.3,9.2,8.4,9.1,8.4z M9.5,1.6c0,0-0.1,0-0.1,0
		C9.4,1.7,9.4,1.7,9.5,1.6C9.5,1.7,9.5,1.7,9.5,1.6z M12.3,7.7c0,0-0.1,0-0.1,0c0,0,0,0,0,0.1C12.2,7.8,12.3,7.8,12.3,7.7z
		 M18.2,5.6c0.1,0,0.1,0,0.1-0.1C18.3,5.5,18.3,5.5,18.2,5.6z M10.8,10.2L10.8,10.2c0,0,0,0,0.1,0C10.9,10.2,10.8,10.2,10.8,10.2z
		 M11.9,15.6C11.9,15.6,11.8,15.6,11.9,15.6C11.8,15.6,11.8,15.7,11.9,15.6C11.8,15.7,11.8,15.7,11.9,15.6
		C11.8,15.7,11.8,15.7,11.9,15.6z M10.5,2.3c0,0-0.1,0-0.1,0C10.4,2.4,10.5,2.4,10.5,2.3z M9.9,1.4C9.9,1.4,9.9,1.3,9.9,1.4
		C9.9,1.3,9.9,1.4,9.9,1.4z M10.4,3.4L10.4,3.4C10.4,3.4,10.4,3.3,10.4,3.4C10.3,3.4,10.3,3.4,10.4,3.4z M9.7,3.3
		C9.7,3.3,9.7,3.3,9.7,3.3C9.6,3.3,9.7,3.3,9.7,3.3z"/>
	<path class="st0" d="M1.9,5.7c0.2-0.1,0.5-0.1,0.7-0.1l0,0c0,0,0.1,0,0.1,0c0.1,0,0.2,0,0.3,0c0,0,0.1,0,0.2,0c0,0,0,0,0.1,0
		c0.1,0,0.2,0,0.4,0c0,0,0.1,0,0.1,0c0.1,0,0.2,0,0.2,0.1c0.1,0,0.2,0.1,0.3,0.1c0,0,0,0.1,0.1,0.1C4.6,6,4.6,6,4.7,6
		c0,0,0.1,0.1,0.2,0.2c0,0.1,0.1,0.2,0,0.3v0c0,0.1,0,0.3,0,0.5c0,0,0,0.1,0,0.2c0,0,0,0.1,0,0.2C4.8,7.5,4.8,7.5,4.8,7.6
		c-0.1,0-0.2,0.1-0.3,0.2c0,0,0.1,0.1,0.1,0.2c0,0,0,0.1,0,0.1c0,0-0.1,0.1-0.1,0.2c0,0-0.1,0-0.2,0c0,0,0,0,0.1-0.1
		c0-0.1,0-0.1-0.1-0.1C4.2,8,4.2,7.9,4,7.9c0,0.1-0.2,0.2-0.3,0.4c0-0.1,0-0.1,0-0.2c-0.1,0-0.2,0-0.4,0.1c0,0-0.1-0.1-0.2-0.1
		S3,8,3,8.1C2.9,8.2,2.8,8.2,2.6,8.2c-0.1,0-0.2,0-0.2,0.1c0,0-0.1,0.1-0.1,0.1C2.2,8.4,2.2,8.4,2.2,8.2c0,0,0-0.1,0-0.1
		c0,0.1,0,0.1-0.1,0.1C2,8.2,2,8.3,1.8,8.2c0,0-0.1,0-0.1,0c-0.1,0-0.2,0-0.3,0.1c-0.2,0-0.4,0.1-0.5,0c0-0.1-0.1-0.2-0.2-0.2
		c0,0,0-0.1,0-0.1c0.1,0,0.2,0,0.2-0.1c0,0,0,0,0.1,0S1,8,1,8c0.1,0,0.2,0,0.4,0c0,0,0,0-0.1,0c0,0,0-0.1,0.1-0.1
		c0.1,0,0.1,0,0.2-0.1c0,0,0.1,0,0.1-0.1c0-0.1,0-0.1,0-0.2s0-0.1-0.1-0.1c0,0-0.1-0.1-0.2-0.1c0,0-0.1-0.1-0.2-0.1
		C1.1,7.1,1,7,1,6.9c0-0.1,0-0.2,0-0.2c0,0,0.1,0,0.2,0c0.1,0,0.3,0,0.4,0h0c0.1-0.1,0.3,0,0.5,0c0,0,0.1,0,0.2,0c0.1,0,0.2,0,0.3,0
		c0,0,0.1,0,0.1-0.1c-0.1,0-0.2-0.1-0.3,0c0,0-0.1,0-0.1,0c-0.1,0-0.2,0-0.3,0c0,0-0.1,0-0.2,0c0,0-0.1,0.1-0.1,0.1
		c-0.1,0-0.1,0-0.2,0c-0.1,0-0.3,0-0.5,0c-0.1,0-0.2,0-0.2,0s-0.1,0-0.2,0C0.5,6.4,0.4,6.4,0.4,6.2c0.1-0.1,0.1-0.1,0.3,0
		c0.1,0,0.2,0.1,0.3,0.1c0,0,0-0.1,0.1-0.1c0,0,0.1,0,0.1-0.1c0.1,0.1,0.3,0.1,0.5,0c0.1,0,0.1,0,0.2,0c0.1,0,0.2,0,0.2-0.1
		c0.1,0,0.3,0,0.4,0c0,0,0.1,0,0.1,0l0,0c-0.1,0-0.2-0.1-0.3-0.1c0,0-0.1,0-0.1,0C2,5.9,2,5.9,1.9,5.7z M3.6,7.4
		C3.5,7.3,3.5,7.3,3.4,7.2c0,0-0.1,0-0.1,0c-0.1,0-0.1,0-0.2,0C3,7.2,2.9,7.3,2.8,7.3c-0.1,0-0.1,0.1,0,0.2c0,0,0.1,0,0.2,0
		c0,0,0.1,0.1,0.1,0.1C3.3,7.6,3.5,7.5,3.6,7.4z M4.2,6.4c0-0.1,0-0.1-0.1-0.1C4,6.2,3.9,6.1,3.8,6.1h0C3.7,6,3.6,6,3.5,5.9
		c-0.1,0-0.2,0-0.4-0.1c0,0,0,0-0.1,0c0.1,0,0.2,0.1,0.3,0.2c0,0,0,0,0.1,0s0,0,0.1,0c0,0,0,0,0,0c0,0.1,0,0.1,0.1,0.1h0
		c0.1,0,0.2,0,0.3,0C4,6.4,4,6.4,4.2,6.4z M3.8,7.8c0.1,0,0.2,0,0.3,0c0.1-0.1,0.2-0.1,0.4-0.2c0.1-0.1,0.1-0.1,0.1-0.3
		c0,0-0.1,0-0.2,0c-0.1,0-0.2,0-0.2,0.1c0,0.1-0.2,0.1-0.2,0.1c0,0,0,0,0,0C3.9,7.6,3.8,7.7,3.8,7.8z M3.3,6.9c0.1,0,0.2,0,0.3,0.1
		c0,0,0,0,0.1,0C3.8,7,3.9,7,4,7C4,7,4,7,4.1,6.9c0,0,0.1,0,0.2-0.1c-0.1-0.1-0.2,0-0.3,0c-0.1,0-0.2-0.1-0.4,0c0,0,0,0-0.1,0
		C3.5,6.8,3.4,6.8,3.3,6.9C3.3,6.8,3.3,6.9,3.3,6.9z M2.5,6.9c0,0-0.1,0-0.1,0c0,0-0.1,0-0.2,0C2.1,6.9,2,6.9,1.8,6.9
		c0,0-0.1,0-0.2,0c0,0,0.1,0.1,0.2,0.1c0.1,0,0.2,0,0.3,0h0C2.2,7,2.4,7,2.5,6.9C2.6,6.9,2.6,6.9,2.5,6.9z M2.9,6.4
		c0.1,0,0.2,0,0.4,0C3.2,6.4,3.1,6.3,3,6.3C3,6.3,2.9,6.3,2.9,6.4z M2.6,7.8C2.5,7.7,2.4,7.7,2.3,7.7c0,0,0,0,0,0
		C2.4,7.8,2.4,7.8,2.6,7.8C2.5,7.9,2.5,7.9,2.6,7.8z M1.9,6.7c-0.1,0-0.1,0-0.1,0C1.8,6.7,1.8,6.7,1.9,6.7C1.9,6.7,1.9,6.7,1.9,6.7z
		 M2.6,8.1C2.6,8.1,2.6,8.1,2.6,8.1C2.5,8.1,2.5,8,2.6,8.1C2.5,8.1,2.6,8.1,2.6,8.1z"/>
	<path class="st0" d="M5,6C5,5.9,5,5.8,5.2,5.8c0,0.1,0.1,0.2,0.1,0.3c0,0.2,0,0.4,0,0.6c0,0.2,0,0.4,0,0.6c0,0,0,0.1,0,0.1
		c0,0.1,0,0.2-0.2,0.2c0,0,0,0-0.1,0c0,0-0.1-0.1,0-0.2v0c0-0.2,0-0.5,0-0.7C5.1,6.4,5.1,6.2,5,6C5,6,5,6,5,6z"/>
	<path class="st0" d="M9.2,9.4c0,0-0.1,0.1-0.1,0.2c0,0-0.1,0-0.1,0c-0.1,0-0.3,0-0.4,0h0c-0.1,0-0.3,0-0.4,0.1c0,0-0.1,0-0.1-0.1
		c0.1-0.2,0.3-0.4,0.5-0.4c0,0,0,0,0.1,0c0.1,0,0.2,0,0.3,0c0,0,0.1,0,0.1,0C9,9.2,9.1,9.3,9.2,9.4z"/>
	<path class="st0" d="M16.5,10.9c0,0,0-0.1,0-0.1c0.1,0,0.1-0.1,0.1-0.2c0-0.2,0-0.3,0.1-0.5c0,0,0.1,0,0.1,0c0,0,0.1,0.1,0.1,0.1
		c0,0.2,0,0.4,0,0.6c0,0.1-0.1,0.2-0.2,0.3c0,0-0.1,0-0.2,0C16.3,11.1,16.3,11.1,16.5,10.9C16.4,11,16.5,11,16.5,10.9z"/>
	<path class="st0" d="M6.1,11.4c-0.1-0.1-0.2-0.2-0.3-0.3c0,0,0,0,0-0.1s0-0.1,0-0.2c0.1,0,0.3,0,0.3,0.1c0,0.1,0.1,0.2,0.1,0.3
		C6.2,11.3,6.2,11.3,6.1,11.4c0.2,0,0.3,0,0.4,0.2c0,0,0,0.1,0,0.1c0,0.1,0,0.1,0,0.2c-0.2,0-0.2-0.2-0.3-0.3
		C6,11.6,6,11.5,6.1,11.4z"/>
	<path class="st0" d="M15.9,7.9c0-0.1,0-0.1,0-0.2c0,0,0,0,0-0.1c0-0.1,0-0.2,0.1-0.3c0.1-0.1,0.2-0.1,0.3-0.1c0,0,0,0,0.1,0.1
		c0,0.1,0,0.3-0.1,0.4c0,0-0.1,0.1-0.2,0.2C16.1,7.9,16,7.9,15.9,7.9z"/>
	<path class="st0" d="M7.3,9.1c0,0-0.1,0.1-0.1,0.1c0.2,0.2,0.2,0.2,0.1,0.4c-0.1,0-0.1,0-0.2,0c0,0-0.1-0.1-0.2-0.2
		c-0.1,0-0.1-0.1-0.1-0.2c0,0,0-0.1,0.1-0.1c0,0,0.1,0,0.1,0C7,9,7,9,7,8.9c0,0,0.1,0,0.1-0.1c0,0,0.1,0,0.1,0C7.3,9,7.3,9,7.3,9.1z
		"/>
	<path class="st0" d="M5.9,8.5c0.1,0,0,0.1,0,0.2c0,0.1,0,0.2,0,0.4c0,0.1,0,0.2,0,0.4c-0.1,0-0.1-0.1-0.1-0.2
		c-0.1,0-0.2-0.2-0.2-0.3c0,0,0-0.1,0-0.1c0-0.1,0-0.2,0-0.3C5.7,8.5,5.7,8.5,5.9,8.5C5.8,8.5,5.8,8.5,5.9,8.5z"/>
	<path class="st0" d="M13,8.7C13.1,8.7,13.1,8.7,13,8.7c0.1,0,0.2,0,0.2,0c0.1,0,0.2,0,0.3,0c0,0,0,0.1,0,0.1
		c-0.1,0-0.2,0.1-0.3,0.1c-0.1,0-0.1,0-0.2,0c-0.1,0-0.2,0-0.2-0.1C12.9,8.8,13,8.8,13,8.7z"/>
	<path class="st0" d="M0.9,6.6c0,0.1,0,0.2-0.1,0.3c0,0-0.1,0-0.1,0c0,0-0.1,0-0.1,0c0,0-0.1,0-0.1-0.1c0,0,0-0.1,0-0.2
		c0.1,0,0.2,0,0.4,0C0.8,6.6,0.9,6.6,0.9,6.6z"/>
	<path class="st0" d="M17.3,9.4c0.1,0.1,0.1,0.2,0,0.3c0,0.1,0,0.2-0.1,0.3c0,0,0,0.1-0.1,0.1s0,0-0.1-0.1c0-0.1,0-0.2,0-0.4
		c0,0,0-0.1,0-0.1C17.3,9.5,17.3,9.4,17.3,9.4z"/>
	<path class="st0" d="M6.5,12.6c0,0-0.1,0-0.2,0c-0.1-0.2-0.1-0.3,0-0.5C6.4,12.2,6.5,12.4,6.5,12.6z"/>
	<path class="st0" d="M16.5,9.3C16.6,9.4,16.6,9.4,16.5,9.3l0.1,0.1c0,0,0.1,0.1,0.1,0.2c0,0.1-0.1,0.2-0.2,0.2
		c-0.1-0.1-0.1-0.1,0-0.2c0,0,0-0.1,0-0.2S16.5,9.4,16.5,9.3z"/>
	<path class="st0" d="M0.2,7.9C0.3,7.9,0.3,7.9,0.2,7.9c0.2,0,0.2,0,0.3,0.1s0,0.1-0.1,0.2C0.4,8.1,0.3,8,0.2,7.9z"/>
	<path class="st0" d="M16.4,10.5c0,0-0.1,0.1-0.1,0.1c-0.1,0-0.1-0.1-0.1-0.2c0.1,0,0.1-0.1,0.2-0.2C16.4,10.4,16.4,10.4,16.4,10.5z
		"/>
	<path class="st0" d="M12.9,16.1c0,0,0-0.1,0-0.1c0-0.1,0.1-0.2,0.2-0.2c0,0.1,0,0.1,0,0.2C13,16,13,16,12.9,16.1z"/>
	<path class="st0" d="M11.2,16.4c0,0,0,0.1-0.1,0.1c0,0-0.1,0-0.1-0.1c0,0,0,0,0-0.1l0,0C11.1,16.4,11.1,16.4,11.2,16.4z"/>
	<path class="st0" d="M10,9.3c0,0.1-0.1,0.1-0.2,0.1c0,0,0,0,0-0.1c0,0,0-0.1,0.1-0.1C9.9,9.1,9.9,9.2,10,9.3z"/>
	<path class="st0" d="M11.2,16.7c0.1,0,0.1,0,0.2-0.1c0,0,0,0,0.1,0.1C11.5,16.8,11.4,16.7,11.2,16.7C11.2,16.7,11.2,16.7,11.2,16.7
		z"/>
	<path class="st0" d="M13,15.2C12.9,15.2,12.9,15.2,13,15.2C13,15,13,15,13,15C13.1,15.1,13,15.2,13,15.2z"/>
	<path class="st0" d="M0.1,6.1c0.1,0,0.1,0,0.2,0c0,0-0.1,0.1-0.2,0.2C0,6.3,0,6.3,0.1,6.1C0,6.2,0.1,6.2,0.1,6.1z"/>
	<path class="st0" d="M7.7,9.8c0,0-0.1,0-0.1,0c0,0,0-0.1,0-0.1c0,0,0,0,0.1,0C7.8,9.6,7.8,9.7,7.7,9.8z"/>
	<path class="st0" d="M14.4,11.9c0,0-0.1-0.1,0-0.1s0.1,0,0.1,0C14.5,11.9,14.5,11.9,14.4,11.9z"/>
	<path class="st0" d="M9.6,15.9C9.6,15.9,9.5,15.9,9.6,15.9c-0.1,0.1-0.2,0-0.2,0C9.5,15.9,9.5,15.8,9.6,15.9
		C9.5,15.9,9.5,15.9,9.6,15.9z"/>
	<path class="st0" d="M6.8,10.4c0,0,0,0.1,0,0.2c0,0-0.1,0-0.1-0.1C6.6,10.4,6.7,10.4,6.8,10.4z"/>
	<path class="st0" d="M9.5,16.1c0-0.1,0.1-0.1,0.2,0C9.7,16.2,9.7,16.2,9.5,16.1C9.6,16.2,9.6,16.2,9.5,16.1z"/>
	<path class="st0" d="M14.9,9.1C14.8,9,14.8,9,14.9,9.1c-0.1-0.1,0-0.2,0-0.2C15,8.9,15,9,14.9,9.1z"/>
	<path class="st0" d="M13.2,15.6c0.1-0.1,0.1-0.1,0.2,0C13.3,15.6,13.3,15.6,13.2,15.6z"/>
	<path class="st0" d="M15.4,9.1C15.3,9,15.3,9,15.4,9.1C15.3,9,15.3,8.9,15.4,9.1C15.5,9,15.5,9,15.4,9.1z"/>
	<path class="st0" d="M0,6.7C0,6.6,0,6.6,0,6.7c0-0.1,0-0.1,0-0.1C0.1,6.5,0.1,6.5,0,6.7C0.1,6.6,0.1,6.6,0,6.7z"/>
	<path class="st0" d="M15,9.5c0,0,0,0.1-0.1,0.1c0,0,0,0,0,0v0C15,9.5,15,9.5,15,9.5z"/>
	<path class="st0" d="M14.5,11L14.5,11C14.5,11.1,14.5,11.1,14.5,11L14.5,11C14.5,11,14.5,11,14.5,11z"/>
	<path class="st0" d="M10.6,16.2C10.6,16.3,10.6,16.3,10.6,16.2C10.6,16.3,10.6,16.3,10.6,16.2L10.6,16.2
		C10.6,16.2,10.6,16.2,10.6,16.2L10.6,16.2z"/>
	<path class="st0" d="M10.3,5.7c0-0.1,0-0.1,0-0.2c0.1,0,0.1,0,0.2,0C10.5,5.7,10.5,5.7,10.3,5.7z"/>
	<path class="st0" d="M10.4,4.8c0.1-0.1,0.1-0.1,0.2,0C10.5,4.8,10.5,4.8,10.4,4.8z"/>
</g>
</svg>
