<?xml version="1.0" encoding="utf-8"?>
<!-- Generator: Adobe Illustrator 27.7.0, SVG Export Plug-In . SVG Version: 6.00 Build 0)  -->
<svg version="1.1" id="Layer_1" xmlns="http://www.w3.org/2000/svg" xmlns:xlink="http://www.w3.org/1999/xlink" x="0px" y="0px"
	 viewBox="0 0 8.5 7.1" style="enable-background:new 0 0 8.5 7.1;" xml:space="preserve">
<style type="text/css">
	.st0{fill:#F15D2B;}
</style>
<g>
	<path class="st0" d="M4.3,0c0.1,0,0.1,0.1,0.1,0.1c0,0,0,0,0,0c0,0,0,0,0.1,0s0.1,0,0.1,0l0,0c0,0,0-0.1,0.1-0.1c0,0,0,0,0.1,0
		c0,0,0.1,0,0.1,0s0.1,0,0.2,0c0,0,0,0,0.1,0c0,0,0,0,0,0c-0.1,0-0.2,0-0.3,0c0,0,0,0-0.1,0l0,0c0,0,0.1,0,0.1,0s0.1,0,0.2,0
		c0,0,0,0,0.1,0l0,0c0,0,0,0,0,0c0,0,0,0.1,0,0.2v0l0,0c0,0,0,0.1,0,0.2c0,0,0,0.1,0,0.1l0,0c0,0,0,0,0,0s0-0.1,0.1-0.1
		c0,0,0.1,0,0.1,0c0,0,0,0,0,0h0c0,0,0.1,0,0.1,0.1c0,0,0,0,0,0.1c0,0,0,0,0.1,0l0,0c0,0,0.1,0,0.1,0.1c0,0,0,0,0,0.1c0,0,0,0,0,0.1
		c0,0,0,0,0,0c0,0,0,0,0,0.1l0,0c0,0,0,0,0,0.1l0,0c0,0,0,0.1,0,0.1c0,0,0.1,0.1,0.1,0.1s0,0.1,0,0.1c0,0,0,0,0,0l0,0l0,0
		c0,0-0.1,0-0.1,0c0,0,0-0.1,0-0.1c0,0,0,0,0,0c0,0,0,0,0-0.1v0c0,0-0.1,0-0.1,0c0,0,0,0,0,0c0,0,0,0,0,0.1s0,0,0,0c0,0,0,0.1,0,0.1
		c0,0,0,0,0,0c0,0,0,0,0,0s0,0-0.1,0c0,0-0.1,0-0.2,0c0,0,0,0-0.1,0h0c0.1,0,0.2,0,0.2,0c0.1,0,0.2,0,0.2,0s0.1,0,0.1,0c0,0,0,0,0,0
		s0.1,0,0.2,0h0c0,0,0.1,0,0.2,0c0,0,0,0,0,0c0,0,0,0,0.1,0C6.7,2,6.8,2.1,6.8,2.1l0,0c0,0,0,0,0,0h0l0,0c0,0,0,0,0.1-0.1
		c0,0,0.1,0,0.1,0c0,0,0.1,0,0.2,0c0.1,0,0.1,0,0.2,0c0.1,0,0.1,0,0.2,0c0.1-0.1,0.1-0.1,0.3-0.2c0,0,0.1,0,0.2,0h0
		c0,0,0.1,0.1,0.2,0.2c0,0,0,0,0.1,0c0.1,0,0.1,0,0.2,0.1c-0.1,0-0.1,0-0.2,0s-0.1,0-0.2,0h0c0,0,0,0-0.1,0c-0.1,0-0.2,0-0.2,0.1
		c0,0,0,0.1-0.1,0.1h0c0,0,0,0,0,0c0,0-0.1,0-0.1,0c0,0,0,0,0,0c0,0,0,0,0.1,0c0,0,0,0,0.1,0c0,0,0,0,0,0s-0.1,0-0.1,0
		c0,0,0,0-0.1,0s0,0,0,0h0c0,0-0.1,0-0.1,0c0,0-0.1,0-0.1,0.1c0,0,0,0-0.1,0c0,0,0,0,0,0c0,0,0-0.1,0-0.1c0,0,0,0,0-0.1
		c0,0,0,0,0-0.1c0.1,0,0,0,0,0c0,0,0,0,0,0s0,0,0,0c0,0,0.1,0,0.2,0c0,0,0,0.1,0.1,0.1c0,0,0,0-0.1,0c0,0,0,0,0,0c0,0,0,0,0.1,0
		c0.1,0,0.2,0,0.2,0s0,0,0.1,0c0,0-0.1,0-0.1,0c0,0-0.1,0-0.1,0c0,0,0,0,0,0c0,0,0,0,0,0c0,0,0,0,0,0s0.1,0,0.1,0c0,0,0.1,0,0.1,0
		l0,0c0,0-0.1,0-0.2,0c0,0,0,0,0,0s-0.1,0-0.2,0c0,0-0.1,0-0.2,0c0,0,0,0-0.1,0c0,0,0,0,0,0c0,0,0,0,0.1,0c0,0.1,0,0.1-0.1,0.1
		c0,0,0,0,0,0c0,0,0,0,0,0.1l0,0c0,0,0,0,0,0c0,0,0,0.1,0,0.2c0,0,0,0-0.1,0c0,0-0.1,0-0.1,0s-0.1,0-0.1,0h0c0,0-0.1,0-0.2,0
		c0,0,0,0,0,0c0,0-0.1,0-0.2,0c0,0,0,0-0.1,0s0,0,0,0s-0.1,0-0.2,0c0,0,0,0,0,0s-0.1,0-0.2,0h0c0,0,0,0-0.1,0c0-0.1,0-0.2,0-0.2
		c0,0,0,0,0-0.1s0-0.1,0-0.1c0,0,0-0.1,0-0.2c0,0,0,0,0,0s0,0-0.1,0v0c0,0,0,0.1,0,0.2c0,0,0,0,0,0s0,0,0,0c0,0.1,0,0.2,0,0.3
		s0,0,0,0.1c0,0,0,0.1,0,0.1c0,0,0.1,0,0.1,0c0,0,0.1,0,0.1,0c0.1,0,0.1,0,0.2,0.1c0,0,0.1,0,0.2,0h0c0,0,0.1,0,0.1,0c0,0,0,0,0,0
		c0,0,0,0,0,0.1c0,0.1,0,0.1,0,0.1s0,0,0.1,0.1l0,0v0c0,0,0,0,0,0h0c0,0,0,0,0-0.1c0,0,0,0,0,0c0,0,0,0-0.1,0c0.1,0,0,0,0,0
		c0,0,0,0-0.1,0v0c0,0,0,0,0,0c0,0-0.1,0-0.1,0c0,0,0,0,0,0c0,0-0.1,0.1-0.2,0.1c0,0-0.1,0-0.2,0h0c0,0,0,0-0.1,0
		C5.1,3.6,5,3.7,5,3.7c0,0,0,0-0.1,0c0,0,0,0-0.1,0c0,0,0,0,0,0c0,0,0,0,0.1,0c0,0,0,0,0.1,0.1c0,0,0,0.1,0,0.1c0,0,0,0,0,0
		s0,0,0.1,0c0,0,0,0,0.1,0c0,0,0,0,0.1,0c0,0,0,0,0,0s0.1,0,0.1,0c0,0,0,0,0.1,0c0,0,0,0,0,0c0,0,0.1,0,0.1,0l0,0c0,0,0.1,0,0.1,0
		s0.1,0,0.1,0c0,0,0,0,0,0c0,0,0,0,0,0l0,0c0,0,0,0,0,0s0.1,0,0.2,0s0.1,0,0.1,0.1c0,0,0,0,0.1,0c0,0,0,0,0.1-0.1c0,0,0-0.1,0-0.1
		c0,0,0,0,0,0s0,0.1,0,0.1s0,0.1,0,0.2c0,0,0,0,0,0.1c0,0,0-0.1,0-0.1s-0.1,0-0.1,0s0,0-0.1-0.1c0,0-0.1,0-0.1,0c0,0,0,0,0,0
		c0,0,0,0,0.1,0c0,0,0,0.1,0,0.1c0,0,0,0,0,0l0,0c0,0,0,0-0.1,0c0,0-0.1,0-0.1,0l0,0c0,0,0,0-0.1,0c0,0,0,0,0,0c0,0,0,0,0,0.1l0,0
		c0,0,0,0,0.1,0c0,0,0,0,0,0l0,0c0,0-0.1,0,0,0.1v0c0,0,0,0.1,0,0.1s0,0,0,0.1c0,0,0,0,0,0.1c0,0,0,0,0,0c0,0,0,0.1,0,0.1s0,0,0,0.1
		v0c0,0,0,0,0,0.1s0,0.1,0,0.1c0,0,0,0.1,0,0.1s0,0.1,0,0.1l0,0c0,0,0,0-0.1,0.1c0,0,0,0.1-0.1,0.1c0,0-0.1,0-0.1,0v0c0,0,0,0-0.1,0
		c0,0,0,0,0,0l0,0c0,0,0,0,0,0s0,0-0.1,0c0,0-0.1,0.1-0.1,0.2c0,0,0,0,0,0l0,0l0,0c0,0,0,0,0-0.1c0,0,0,0-0.1,0c0,0,0,0-0.1,0
		c0,0,0,0,0,0c0,0,0,0,0,0s0,0,0,0.1s0,0,0,0.1v0c0,0,0,0,0,0.1l0,0c0,0,0,0.1,0,0.2c0,0,0,0,0,0c0,0,0,0,0,0c0,0,0,0,0,0.1
		c0,0,0,0,0,0s0,0,0,0c0,0,0,0,0,0s0,0,0,0l0,0l0,0c0,0-0.1,0-0.1,0c0,0-0.1,0-0.1,0h0c0,0,0,0,0,0h0c0,0-0.1,0-0.2,0h0
		c0,0,0,0.1,0,0.1v0c0,0,0,0,0-0.1l0,0c0,0,0,0,0-0.1c0,0,0,0,0.1,0c0,0,0.1,0,0-0.1c0,0-0.1,0-0.2,0c0,0,0,0-0.1,0c0,0-0.1,0-0.2,0
		c0,0-0.1,0-0.1,0s-0.1,0-0.1,0c0,0,0-0.1-0.1-0.1c0,0,0,0,0-0.1c0,0,0,0-0.1,0c0,0,0,0,0-0.1c0,0,0,0,0,0c0,0-0.1-0.1-0.1-0.1
		c0,0,0,0,0,0c0,0,0-0.1,0-0.2c0,0,0,0-0.1-0.1c0,0,0-0.1,0-0.2v0c0,0,0,0,0-0.1c0,0,0-0.1,0.1-0.1c0,0,0,0,0,0c0,0-0.1,0-0.1,0
		c0,0,0,0,0,0s0.1,0,0.2,0l0,0c0,0,0-0.1,0-0.1h0h0v0c0,0,0,0,0-0.1c0,0,0,0-0.1,0c0,0,0,0-0.1,0l0,0c0,0,0,0,0,0c0,0,0,0,0,0
		s0,0-0.1,0v0c0,0,0,0,0,0c0,0,0,0,0,0c0,0,0,0,0,0c0,0-0.1,0-0.1,0s0,0-0.1,0l0,0v0c0,0,0,0,0,0c0,0-0.1,0-0.1,0
		c0,0-0.1-0.1-0.1-0.2c0,0,0-0.1,0-0.1l0,0l0,0c0,0,0-0.1,0-0.1c0,0,0,0,0,0c0,0,0,0,0,0s0-0.1,0-0.1c0,0,0,0-0.1,0
		c0,0-0.1,0-0.1-0.1c0,0,0,0,0,0s0,0,0,0s0.1,0,0.1,0c0,0,0,0,0.1,0l0,0c0,0,0,0,0.1,0c0,0,0.1,0,0.2,0c0,0,0,0,0,0.1c0,0,0,0,0,0
		c0,0,0.1,0,0.1,0c0,0,0,0,0.1,0h0h0c0,0,0,0,0,0c0,0,0.1,0,0.1,0s0.1,0,0.1,0h0l0,0c0-0.1,0-0.1,0.1-0.1h0c0,0,0,0,0.1,0
		c0,0,0,0,0.1,0c0,0,0,0,0,0.1c0,0-0.1,0-0.1,0.1h0c0,0,0,0,0.1,0c0,0,0,0,0-0.1c0,0,0,0,0.1,0c0,0,0,0,0,0h0v0c0,0,0,0,0,0
		c0,0,0-0.1,0-0.2c0,0,0,0,0-0.1h0l0,0h0c0,0,0-0.1-0.1-0.1c0,0,0,0,0,0c0,0,0,0-0.1,0c0,0,0,0,0,0s-0.1,0-0.1,0s-0.1,0-0.1,0
		s-0.1,0-0.2,0c0,0-0.1,0.1-0.1,0.1C3.4,3.8,3.4,3.7,3.4,3.7h0c0,0.1-0.1,0.1-0.2,0.1l0,0c0,0-0.1,0-0.2-0.1c0,0,0,0,0,0v0
		c0,0,0,0,0,0c0.1-0.1,0.2-0.2,0.3-0.3c0,0,0.1,0,0.1,0s0,0,0,0s0,0,0.1-0.1c0,0,0,0,0.1,0l0,0c0,0-0.1,0-0.1,0s0,0,0,0
		c-0.1,0-0.2,0-0.2,0s-0.1,0-0.2,0S3,3.2,3,3.2c0,0-0.1,0-0.1,0c0,0,0,0,0-0.1c0,0,0,0,0-0.1c0,0,0,0,0,0.1c0,0,0,0-0.1,0v0
		c0,0,0-0.1,0-0.2c0,0,0-0.1,0-0.2c0,0,0-0.1,0-0.2l0,0v0c0,0,0-0.1,0-0.2c0,0,0,0,0,0c0,0,0,0,0,0c0,0,0.1,0,0.2,0c0,0,0.1,0,0.2,0
		v0l0,0c0,0,0,0-0.1,0c0,0-0.1,0-0.2,0c0,0,0,0-0.1,0c0,0,0,0,0,0h0v0c0,0,0-0.1,0-0.1v0c0,0,0,0,0-0.1c0,0,0,0,0-0.1s0-0.1,0.1-0.2
		c0,0,0-0.1,0.1-0.1l0,0c0,0,0.1,0,0.1-0.1l0,0c0,0,0,0,0.1,0c0,0,0,0,0,0c0,0,0,0,0.1-0.1c0,0,0,0,0.1,0C3.4,1.1,3.4,1,3.5,1
		c0,0,0.1,0,0.1,0c0-0.1,0-0.2,0-0.3c0,0,0-0.1,0-0.1c0,0,0,0,0.1,0c0,0,0,0,0-0.1c0,0,0.1,0,0.2,0c0,0,0.1,0,0.2-0.1
		c0,0-0.1-0.1-0.2,0c-0.1,0-0.1,0-0.1,0c0,0,0,0,0.1,0c0,0,0,0,0.1,0h0C3.9,0.2,4,0.2,4.1,0.2C4.1,0,4.1,0,4.3,0z M4.8,1.8L4.8,1.8
		c-0.1,0-0.1,0-0.1,0c0,0-0.1,0-0.2,0c0,0-0.1,0-0.1,0c0,0,0,0.1,0,0.1c0,0,0,0,0,0c0,0,0,0,0,0s0,0,0,0.1c0,0,0,0,0-0.1
		c0,0,0,0,0,0c0,0,0,0,0.1,0c0,0,0,0,0,0s0,0,0-0.1h0c-0.1,0-0.1,0-0.2,0h0c0,0,0,0.1,0,0.1c0,0,0.1,0,0.2,0c0,0,0,0,0,0.1
		c0,0,0,0.1,0,0.1c0,0,0,0.1,0,0.1c0,0,0,0,0,0c0,0,0,0.1,0.1,0.1c0,0,0,0,0.1,0c0,0,0.1-0.1,0.1-0.1l0,0c0,0,0-0.1,0-0.1
		c0,0,0,0,0-0.1c0,0,0,0,0,0c0-0.1,0-0.1,0.1-0.1C4.7,1.9,4.7,1.9,4.8,1.8C4.8,1.9,4.8,1.9,4.8,1.8C4.9,1.9,4.8,1.9,4.8,1.8z M3.4,3
		c0,0,0,0,0.1,0c0-0.1,0-0.2,0-0.3c0,0,0,0,0-0.1s0-0.1,0-0.2c0,0,0,0,0,0c0-0.1,0-0.1,0-0.2l0,0c-0.1,0-0.1,0-0.1,0c0,0,0,0,0,0
		s0,0,0,0.1c0,0,0,0,0,0s0,0,0,0.1c0,0,0,0,0,0.1c0,0.1,0,0.2,0,0.2C3.4,2.8,3.4,2.9,3.4,3C3.4,2.9,3.4,3,3.4,3z M6,5.2
		C6,5.2,5.9,5.2,6,5.2C5.8,5.1,5.8,5.1,5.8,5.1c0,0,0,0,0-0.1l0,0c0,0,0,0-0.1-0.1l0,0c0,0,0,0.1,0,0.2c0,0,0,0,0,0s0,0.1,0,0.1
		s0,0,0.1,0.1h0c0,0,0,0,0,0C5.9,5.3,5.9,5.3,6,5.2z M5.2,4.5C5.2,4.5,5.3,4.6,5.2,4.5c0.1,0.1,0.1,0.1,0.1,0.2c0,0,0,0,0.1,0l0,0
		l0,0c0,0,0,0.1,0.1,0.1c0,0.1,0,0.1,0,0.2c0,0,0-0.1,0-0.2c0,0,0,0,0,0c0-0.1,0-0.1,0-0.1c0,0,0,0,0,0s-0.1,0-0.1-0.1
		c0,0-0.1,0-0.1-0.1C5.4,4.5,5.3,4.5,5.2,4.5c0.1-0.1,0-0.1,0-0.1c0,0,0,0,0,0C5.2,4.4,5.2,4.4,5.2,4.5C5.2,4.5,5.2,4.5,5.2,4.5z
		 M3.7,5.3c0,0,0-0.1,0.1-0.1c0,0,0,0,0.1-0.1l0,0l0,0c0,0,0,0,0,0c0,0,0-0.1,0.1-0.1c0,0,0,0,0-0.1c0,0-0.1,0.1-0.2,0.2
		c0,0,0,0,0,0v0c0,0,0,0-0.1,0c0,0,0,0.1-0.1,0.2C3.7,5.3,3.7,5.3,3.7,5.3L3.7,5.3C3.7,5.3,3.7,5.3,3.7,5.3C3.6,5.3,3.7,5.3,3.7,5.3
		z M4.7,0.7C4.7,0.7,4.6,0.7,4.7,0.7C4.5,0.6,4.5,0.6,4.4,0.6v0c0,0,0,0.1,0,0.1c0,0,0,0,0,0.1c0,0,0,0,0,0c0,0,0,0,0-0.1v0
		C4.6,0.8,4.6,0.8,4.7,0.7z M4.1,0.2c0,0,0.1,0,0.1,0c0,0,0,0,0,0c0,0,0,0,0,0l0,0c0,0,0-0.1,0-0.1l0,0c0,0,0-0.1-0.1-0.1
		c0,0-0.1,0-0.1,0C4.1,0.1,4.1,0.1,4.1,0.2z M4.2,0.6c0,0-0.1,0-0.1,0.1c0,0,0,0,0,0s0,0.1,0,0.1c0,0,0.1,0.1,0.1,0l0,0
		c0,0,0-0.1,0-0.1c0,0,0,0,0-0.1C4.2,0.7,4.2,0.7,4.2,0.6z M4.3,0.4c0,0,0,0.1,0,0.1s0,0,0,0.1c0,0,0,0,0,0c0,0,0,0,0.1,0
		c0,0,0,0,0.1,0c0,0,0-0.1-0.1-0.1L4.3,0.4C4.3,0.4,4.3,0.4,4.3,0.4z M5,0.7C5,0.7,5,0.7,5,0.7c0.1,0,0.1-0.1,0-0.1c0,0-0.1,0-0.2,0
		C5,0.6,4.9,0.6,5,0.7L5,0.7z M3.7,0.6c0,0,0,0.1,0,0.1v0h0C3.7,0.8,3.7,0.8,3.7,0.6C3.7,0.7,3.7,0.7,3.7,0.6
		C3.8,0.6,3.7,0.6,3.7,0.6z M4.4,5.5C4.4,5.5,4.4,5.5,4.4,5.5c0-0.1,0-0.2,0-0.3c0,0,0,0,0,0c0,0,0,0,0,0.1c0,0,0,0,0,0
		C4.4,5.4,4.4,5.4,4.4,5.5C4.4,5.5,4.4,5.5,4.4,5.5z M5.5,3.3c0,0-0.1,0-0.2,0c0,0,0,0,0,0.1c0,0,0.1,0,0.1,0S5.4,3.4,5.5,3.3
		C5.5,3.3,5.5,3.3,5.5,3.3z M7.4,2.4C7.4,2.5,7.4,2.5,7.4,2.4C7.4,2.5,7.4,2.5,7.4,2.4c0.1,0.1,0.1,0.1,0.1,0
		C7.6,2.4,7.6,2.4,7.4,2.4z M4.9,3.2C4.9,3.2,4.9,3.2,4.9,3.2C4.8,3.2,4.8,3.3,4.9,3.2C4.8,3.3,4.9,3.3,4.9,3.2
		C4.9,3.3,4.9,3.3,4.9,3.2z M6,5.3C6,5.3,6,5.4,6,5.3c0,0.1,0,0.1,0.1,0.1C6,5.4,6.1,5.3,6,5.3C6,5.3,6,5.3,6,5.3z M3.6,5.4
		C3.6,5.4,3.6,5.4,3.6,5.4c0,0.1,0,0.1,0,0.2l0,0l0,0C3.6,5.6,3.6,5.5,3.6,5.4C3.6,5.4,3.6,5.4,3.6,5.4z M5.4,4.1
		C5.4,4.1,5.5,4.1,5.4,4.1c0.1,0,0.1,0,0.2,0l0,0c0,0,0,0,0,0h0C5.5,4,5.5,4.1,5.4,4.1C5.5,4,5.5,4.1,5.4,4.1z M4.3,6.6
		C4.3,6.6,4.3,6.6,4.3,6.6c0,0-0.1-0.1-0.2-0.1l0,0C4.2,6.6,4.2,6.6,4.3,6.6z M4,3.3C4,3.4,4.1,3.4,4,3.3c0.1,0,0.1,0,0.1,0v0
		C4.1,3.3,4.1,3.3,4,3.3z M4.1,4.8C4.1,4.8,4.1,4.8,4.1,4.8C4.1,4.7,4.2,4.7,4.1,4.8l0.1-0.1h0C4.1,4.6,4.1,4.7,4.1,4.8
		C4.1,4.7,4.1,4.7,4.1,4.8z M4.4,1.4C4.4,1.4,4.3,1.4,4.4,1.4C4.3,1.4,4.3,1.4,4.4,1.4C4.3,1.4,4.3,1.4,4.4,1.4
		C4.3,1.5,4.3,1.4,4.4,1.4z M4.4,5.6c0,0,0,0.1,0,0.1C4.4,5.7,4.4,5.6,4.4,5.6C4.4,5.6,4.4,5.6,4.4,5.6z M4,4.3L4,4.3
		c0,0-0.1,0-0.2,0l0,0C3.9,4.3,3.9,4.3,4,4.3C3.9,4.3,3.9,4.3,4,4.3z M4.7,0.6c0.1,0,0.1,0,0.2,0C4.8,0.5,4.8,0.5,4.7,0.6z M4.5,5.1
		C4.5,5.1,4.5,5.1,4.5,5.1C4.4,5.1,4.4,5.1,4.5,5.1C4.5,5.2,4.5,5.2,4.5,5.1z M5.2,2.7C5.2,2.7,5.2,2.6,5.2,2.7c0-0.1,0-0.1,0-0.2
		C5.2,2.6,5.2,2.6,5.2,2.7z M4.4,0.5C4.4,0.6,4.4,0.6,4.4,0.5C4.5,0.6,4.5,0.5,4.4,0.5L4.4,0.5C4.4,0.5,4.4,0.5,4.4,0.5z M5.7,6.1
		C5.8,6.1,5.8,6.1,5.7,6.1C5.8,6.1,5.7,6.1,5.7,6.1z M6,3.2C5.9,3.2,5.9,3.2,6,3.2C5.9,3.2,5.9,3.2,6,3.2C5.9,3.3,5.9,3.3,6,3.2z
		 M4.4,6.5C4.4,6.5,4.4,6.5,4.4,6.5C4.4,6.6,4.4,6.5,4.4,6.5z M4.1,2.9C4.1,3,4.1,3,4.1,2.9C4.1,3,4.1,3,4.1,2.9L4.1,2.9z M5.2,2.8
		C5.2,2.8,5.2,2.8,5.2,2.8C5.2,2.8,5.2,2.8,5.2,2.8z M4.8,0.6C4.8,0.7,4.8,0.7,4.8,0.6C4.9,0.7,4.9,0.7,4.8,0.6L4.8,0.6z M4.7,3.1
		C4.6,3.1,4.6,3.1,4.7,3.1C4.7,3.1,4.7,3.1,4.7,3.1z M5,2.6C5,2.6,5,2.6,5,2.6C5,2.6,5,2.6,5,2.6z M4.2,3.1C4.2,3.1,4.1,3.1,4.2,3.1
		C4.2,3.1,4.2,3.1,4.2,3.1z M3.1,4.6C3,4.6,3,4.6,3.1,4.6C3.1,4.7,3.1,4.7,3.1,4.6z M3,4.4C3,4.4,3,4.4,3,4.4C3,4.3,3,4.3,3,4.4z
		 M5,6.5L5,6.5L5,6.5C5,6.5,5,6.5,5,6.5z M5.5,2.8L5.5,2.8C5.5,2.8,5.5,2.8,5.5,2.8C5.5,2.8,5.5,2.8,5.5,2.8
		C5.5,2.8,5.5,2.8,5.5,2.8L5.5,2.8z M4.2,3.8C4.3,3.8,4.3,3.8,4.2,3.8L4.2,3.8C4.2,3.8,4.2,3.8,4.2,3.8z M4.6,1.6L4.6,1.6
		C4.6,1.7,4.6,1.7,4.6,1.6C4.6,1.6,4.6,1.6,4.6,1.6z M7.6,2.6C7.6,2.6,7.6,2.6,7.6,2.6C7.6,2.5,7.6,2.5,7.6,2.6z M3.2,4.4
		C3.2,4.4,3.2,4.4,3.2,4.4C3.2,4.4,3.2,4.4,3.2,4.4z M4.5,1.7C4.5,1.7,4.5,1.7,4.5,1.7C4.5,1.7,4.5,1.7,4.5,1.7
		C4.5,1.7,4.5,1.7,4.5,1.7z M7.3,2.5C7.2,2.5,7.2,2.5,7.3,2.5C7.2,2.5,7.2,2.5,7.3,2.5z M5.1,1.9C5.1,1.9,5.1,1.9,5.1,1.9L5.1,1.9z
		 M5.7,6.2C5.6,6.2,5.6,6.2,5.7,6.2C5.7,6.2,5.7,6.2,5.7,6.2z M3.9,2.9C3.9,3,3.9,2.9,3.9,2.9L3.9,2.9z M3.5,5.7
		C3.5,5.7,3.6,5.6,3.5,5.7C3.5,5.6,3.5,5.6,3.5,5.7z M4.9,5.7C4.9,5.7,4.9,5.6,4.9,5.7C4.8,5.7,4.8,5.7,4.9,5.7z M3.2,4.6
		C3.2,4.6,3.2,4.6,3.2,4.6L3.2,4.6L3.2,4.6z M4.3,1.5C4.3,1.5,4.3,1.5,4.3,1.5C4.3,1.5,4.3,1.5,4.3,1.5z M3.9,3.6L3.9,3.6
		C3.9,3.5,3.9,3.6,3.9,3.6z M4,0.7L4,0.7C4,0.7,4,0.7,4,0.7C4,0.7,4,0.7,4,0.7z M5.2,3.3L5.2,3.3C5.2,3.3,5.2,3.3,5.2,3.3
		C5.2,3.3,5.2,3.3,5.2,3.3z M7.7,2.4C7.7,2.4,7.7,2.4,7.7,2.4C7.7,2.3,7.7,2.3,7.7,2.4z M4.6,4.3L4.6,4.3C4.6,4.3,4.6,4.3,4.6,4.3
		C4.6,4.3,4.6,4.3,4.6,4.3z M5,6.6C5,6.6,5,6.6,5,6.6C5,6.6,5,6.7,5,6.6C5,6.7,5,6.7,5,6.6C5,6.7,5,6.7,5,6.6z M4.4,1L4.4,1
		C4.4,1,4.4,1,4.4,1z M4.2,0.6C4.2,0.6,4.2,0.6,4.2,0.6C4.2,0.6,4.2,0.6,4.2,0.6z M4.4,1.5L4.4,1.5C4.4,1.5,4.4,1.4,4.4,1.5
		C4.4,1.5,4.4,1.5,4.4,1.5z M4.1,1.4L4.1,1.4C4.1,1.4,4.1,1.4,4.1,1.4z"/>
	<path class="st0" d="M0.8,2.4c0.1,0,0.2,0,0.3,0l0,0h0c0,0,0.1,0,0.1,0c0,0,0,0,0.1,0c0,0,0,0,0,0s0.1,0,0.2,0h0c0,0,0.1,0,0.1,0
		c0,0,0.1,0,0.1,0c0,0,0,0,0,0c0.1,0,0.1,0,0.1,0c0,0,0,0,0.1,0.1c0,0,0,0.1,0,0.1l0,0c0,0,0,0.1,0,0.2c0,0,0,0,0,0.1c0,0,0,0,0,0.1
		c0,0,0,0,0,0.1c0,0-0.1,0-0.1,0.1c0,0,0,0,0,0.1v0c0,0,0,0,0,0.1c0,0,0,0-0.1,0c0,0,0,0,0,0c0,0,0,0,0,0c0,0,0-0.1-0.1-0.1
		c0,0-0.1,0.1-0.1,0.2c0,0,0,0,0-0.1c0,0-0.1,0-0.2,0c0,0,0,0-0.1,0s0,0,0,0c0,0-0.1,0-0.2,0c0,0-0.1,0-0.1,0l0,0c0,0,0,0,0-0.1v0
		c0,0,0,0,0,0c0,0,0,0-0.1,0h0c0,0-0.1,0-0.1,0c-0.1,0-0.2,0-0.2,0c0,0,0-0.1-0.1-0.1v0c0,0,0.1,0,0.1,0c0,0,0,0,0,0s0,0,0,0
		c0,0,0.1,0,0.2,0c0,0,0,0,0,0c0,0,0,0,0,0s0,0,0.1,0c0,0,0,0,0,0s0,0,0-0.1s0,0,0,0c0,0,0,0-0.1,0c0,0,0,0-0.1,0
		c0,0-0.1-0.1-0.1-0.1s0-0.1,0-0.1s0,0,0.1,0s0.1,0,0.2,0l0,0c0,0,0.1,0,0.2,0c0,0,0,0,0.1,0s0.1,0,0.1,0c0,0,0,0,0,0
		c0,0-0.1,0-0.1,0h0c0,0-0.1,0-0.1,0c0,0,0,0-0.1,0l0,0c0,0,0,0-0.1,0s-0.1,0-0.2,0c0,0-0.1,0-0.1,0s0,0-0.1,0
		c0-0.1-0.1-0.1-0.1-0.2c0,0,0,0,0.1,0c0,0,0.1,0,0.1,0c0,0,0,0,0,0c0,0,0,0,0,0c0,0,0.1,0,0.2,0c0,0,0,0,0.1,0c0,0,0.1,0,0.1,0
		c0,0,0.1,0,0.2,0h0l0,0c0,0-0.1,0-0.1,0h0C0.8,2.5,0.8,2.5,0.8,2.4z M1.5,3.1C1.5,3.1,1.5,3.1,1.5,3.1L1.4,3.1c0,0,0,0-0.1,0
		s-0.1,0-0.1,0c0,0,0,0,0,0.1c0,0,0,0,0.1,0l0,0C1.4,3.2,1.5,3.2,1.5,3.1z M1.8,2.7C1.8,2.7,1.8,2.7,1.8,2.7
		C1.7,2.6,1.7,2.6,1.6,2.6l0,0c0,0-0.1,0-0.1-0.1c0,0-0.1,0-0.2,0c0,0,0,0,0,0c0,0,0.1,0,0.1,0.1c0,0,0,0,0,0s0,0,0,0l0,0
		c0,0,0,0,0,0l0,0c0,0,0.1,0,0.1,0C1.7,2.7,1.7,2.7,1.8,2.7z M1.6,3.3c0,0,0.1,0,0.1,0c0,0,0.1,0,0.2-0.1c0,0,0,0,0-0.1
		c0,0,0,0-0.1,0s-0.1,0-0.1,0s-0.1,0-0.1,0l0,0C1.7,3.2,1.6,3.3,1.6,3.3z M1.4,2.9c0,0,0.1,0,0.1,0c0,0,0,0,0,0c0,0,0.1,0,0.1,0
		c0,0,0,0,0,0c0,0,0,0,0.1,0c0,0-0.1,0-0.1,0c0,0-0.1,0-0.2,0C1.5,2.9,1.5,2.9,1.4,2.9C1.5,2.9,1.4,2.9,1.4,2.9
		C1.4,2.9,1.4,2.9,1.4,2.9z M1.1,2.9L1.1,2.9c0,0-0.1,0-0.1,0s-0.1,0-0.2,0c0,0,0,0-0.1,0c0,0,0,0,0.1,0s0.1,0,0.1,0l0,0
		C0.9,3,1,3,1.1,2.9C1.1,2.9,1.1,2.9,1.1,2.9z M1.2,2.7c0,0,0.1,0,0.2,0C1.4,2.7,1.3,2.7,1.2,2.7C1.3,2.7,1.2,2.7,1.2,2.7z M1.1,3.3
		c0,0-0.1,0-0.1,0l0,0C1,3.3,1,3.3,1.1,3.3C1.1,3.4,1.1,3.4,1.1,3.3z M0.8,2.8C0.8,2.8,0.8,2.8,0.8,2.8C0.8,2.8,0.8,2.8,0.8,2.8
		L0.8,2.8z M1.1,3.4L1.1,3.4C1.1,3.4,1.1,3.4,1.1,3.4C1.1,3.4,1.1,3.4,1.1,3.4z"/>
	<path class="st0" d="M2.1,2.6C2.1,2.5,2.1,2.5,2.1,2.6c0.1,0,0.1,0,0.1,0c0,0.1,0,0.2,0,0.3s0,0.2,0,0.3v0c0,0,0,0.1-0.1,0.1
		c0,0,0,0,0,0c0,0,0,0,0-0.1l0,0c0-0.1,0-0.2,0-0.3C2.2,2.7,2.2,2.6,2.1,2.6L2.1,2.6z"/>
	<path class="st0" d="M3.9,4C3.9,4,3.9,4,3.9,4L3.9,4C3.8,4.1,3.7,4.1,3.6,4.1l0,0c0,0-0.1,0-0.2,0c0,0,0,0,0,0
		c0-0.1,0.1-0.2,0.2-0.2c0,0,0,0,0,0C3.7,3.9,3.8,3.9,3.9,4L3.9,4C3.8,3.9,3.9,3.9,3.9,4z"/>
	<path class="st0" d="M7,4.6L7,4.6c0,0,0-0.1,0-0.1c0-0.1,0-0.1,0-0.2h0l0,0c0,0.1,0,0.2,0,0.3C7.2,4.6,7.1,4.7,7,4.6
		C7.1,4.7,7,4.7,7,4.6C6.9,4.7,6.9,4.7,7,4.6C6.9,4.7,7,4.7,7,4.6z"/>
	<path class="st0" d="M2.6,4.8c0,0-0.1-0.1-0.1-0.1c0,0,0,0,0,0s0,0,0-0.1c0,0,0.1,0,0.1,0S2.6,4.7,2.6,4.8C2.6,4.8,2.6,4.8,2.6,4.8
		c0.1,0,0.1,0,0.2,0.1v0c0,0,0,0,0,0.1C2.7,5,2.7,5,2.6,4.8C2.5,4.9,2.5,4.9,2.6,4.8z"/>
	<path class="st0" d="M6.7,3.4C6.7,3.3,6.7,3.3,6.7,3.4c0-0.1,0-0.1,0-0.1s0-0.1,0-0.1c0,0,0.1,0,0.1,0c0,0,0,0,0,0c0,0,0,0.1,0,0.2
		C6.9,3.3,6.9,3.3,6.7,3.4C6.8,3.4,6.8,3.4,6.7,3.4z"/>
	<path class="st0" d="M3.1,3.9L3.1,3.9c0,0.1,0,0.1,0,0.2c0,0,0,0-0.1,0c0,0,0,0-0.1-0.1c0,0,0,0,0-0.1c0,0,0,0,0,0h0c0,0,0,0,0-0.1
		c0,0,0,0,0,0h0C3.1,3.8,3.1,3.8,3.1,3.9z"/>
	<path class="st0" d="M2.5,3.6C2.5,3.6,2.5,3.7,2.5,3.6c0,0.1,0,0.2,0,0.3c0,0,0,0.1,0,0.2c0,0,0,0,0-0.1c0,0-0.1-0.1-0.1-0.1v0
		c0,0,0-0.1,0-0.1C2.4,3.6,2.4,3.6,2.5,3.6C2.5,3.6,2.5,3.6,2.5,3.6z"/>
	<path class="st0" d="M5.5,3.7C5.5,3.7,5.5,3.7,5.5,3.7C5.5,3.7,5.6,3.7,5.5,3.7c0.1,0,0.2,0,0.2,0v0C5.7,3.7,5.6,3.8,5.5,3.7
		C5.5,3.8,5.5,3.8,5.5,3.7C5.5,3.8,5.4,3.8,5.5,3.7C5.5,3.7,5.5,3.7,5.5,3.7z"/>
	<path class="st0" d="M0.4,2.8c0,0,0,0.1,0,0.1h0h0c0,0,0,0,0,0c0,0,0,0,0-0.1C0.3,2.8,0.3,2.8,0.4,2.8C0.3,2.8,0.4,2.8,0.4,2.8z"/>
	<path class="st0" d="M7.3,4c0,0,0,0.1,0,0.1c0,0,0,0.1,0,0.1c0,0,0,0,0,0s0,0,0,0c0,0,0-0.1,0-0.2v0C7.3,4,7.3,4,7.3,4z"/>
	<path class="st0" d="M2.8,5.3C2.8,5.3,2.7,5.3,2.8,5.3C2.6,5.3,2.6,5.2,2.7,5.1C2.7,5.2,2.8,5.3,2.8,5.3z"/>
	<path class="st0" d="M7,3.9C7,4,7,4,7,3.9L7,3.9C7,4,7.1,4,7.1,4.1S7,4.2,7,4.2c0,0,0,0,0-0.1C7,4.1,7,4,7,3.9C7,3.9,7,4,7,3.9z"/>
	<path class="st0" d="M0.1,3.4C0.1,3.4,0.1,3.4,0.1,3.4c0.1,0,0.1,0,0.1,0c0,0,0,0,0,0.1C0.2,3.4,0.1,3.4,0.1,3.4z"/>
	<path class="st0" d="M6.9,4.5L6.9,4.5C6.9,4.5,6.9,4.5,6.9,4.5c0,0,0-0.1,0-0.1C6.9,4.4,6.9,4.4,6.9,4.5z"/>
	<path class="st0" d="M5.5,6.8L5.5,6.8c0-0.1,0-0.1,0.1-0.1C5.5,6.7,5.5,6.7,5.5,6.8C5.5,6.8,5.5,6.8,5.5,6.8z"/>
	<path class="st0" d="M4.7,7C4.7,7,4.7,7,4.7,7C4.7,7,4.7,7,4.7,7C4.7,7,4.7,7,4.7,7L4.7,7C4.7,7,4.7,7,4.7,7z"/>
	<path class="st0" d="M4.2,3.9C4.2,4,4.2,4,4.2,3.9C4.1,4,4.1,4,4.2,3.9C4.1,3.9,4.1,3.9,4.2,3.9C4.2,3.9,4.2,3.9,4.2,3.9z"/>
	<path class="st0" d="M4.7,7.1C4.8,7.1,4.8,7.1,4.7,7.1c0.1,0,0.1,0,0.1,0C4.9,7.1,4.8,7.1,4.7,7.1L4.7,7.1z"/>
	<path class="st0" d="M5.5,6.4C5.5,6.4,5.5,6.4,5.5,6.4C5.5,6.4,5.5,6.4,5.5,6.4C5.5,6.4,5.5,6.4,5.5,6.4z"/>
	<path class="st0" d="M0,2.6C0.1,2.6,0.1,2.6,0,2.6C0.1,2.6,0.1,2.6,0,2.6C0,2.7,0,2.7,0,2.6C0,2.6,0,2.6,0,2.6z"/>
	<path class="st0" d="M3.3,4.2L3.3,4.2L3.3,4.2C3.2,4.1,3.2,4.1,3.3,4.2C3.3,4.1,3.3,4.1,3.3,4.2z"/>
	<path class="st0" d="M6.1,5C6.1,5,6.1,5,6.1,5C6.1,5,6.1,5,6.1,5C6.1,5,6.1,5,6.1,5z"/>
	<path class="st0" d="M4.1,6.7C4.1,6.7,4,6.7,4.1,6.7C4,6.8,4,6.7,4.1,6.7C4,6.7,4,6.7,4.1,6.7C4,6.7,4,6.7,4.1,6.7z"/>
	<path class="st0" d="M2.9,4.4C2.9,4.4,2.9,4.5,2.9,4.4C2.9,4.5,2.8,4.5,2.9,4.4C2.8,4.4,2.8,4.4,2.9,4.4z"/>
	<path class="st0" d="M4,6.8C4,6.8,4.1,6.8,4,6.8C4.1,6.9,4.1,6.9,4,6.8C4.1,6.9,4.1,6.9,4,6.8z"/>
	<path class="st0" d="M6.3,3.9C6.3,3.8,6.3,3.8,6.3,3.9C6.3,3.8,6.3,3.8,6.3,3.9C6.3,3.8,6.3,3.8,6.3,3.9z"/>
	<path class="st0" d="M5.6,6.6C5.6,6.6,5.6,6.6,5.6,6.6C5.6,6.6,5.6,6.6,5.6,6.6z"/>
	<path class="st0" d="M6.5,3.9C6.5,3.8,6.5,3.8,6.5,3.9C6.5,3.8,6.5,3.8,6.5,3.9C6.6,3.8,6.6,3.8,6.5,3.9z"/>
	<path class="st0" d="M0,2.8C0,2.8,0,2.8,0,2.8C0,2.8,0,2.8,0,2.8C0,2.8,0,2.8,0,2.8C0,2.8,0,2.8,0,2.8z"/>
	<path class="st0" d="M6.3,4C6.3,4,6.3,4.1,6.3,4L6.3,4L6.3,4C6.3,4,6.3,4,6.3,4z"/>
	<path class="st0" d="M6.1,4.7L6.1,4.7C6.1,4.7,6.1,4.7,6.1,4.7L6.1,4.7L6.1,4.7z"/>
	<path class="st0" d="M4.5,6.9C4.5,6.9,4.5,6.9,4.5,6.9C4.5,6.9,4.5,6.9,4.5,6.9L4.5,6.9L4.5,6.9L4.5,6.9z"/>
	<path class="st0" d="M4.4,2.4C4.4,2.4,4.4,2.4,4.4,2.4C4.4,2.3,4.4,2.3,4.4,2.4C4.4,2.4,4.4,2.4,4.4,2.4z"/>
	<path class="st0" d="M4.4,2C4.4,2,4.4,2,4.4,2C4.4,2,4.4,2,4.4,2z"/>
</g>
</svg>
