<?xml version="1.0" encoding="utf-8"?>
<!-- Generator: Adobe Illustrator 27.7.0, SVG Export Plug-In . SVG Version: 6.00 Build 0)  -->
<svg version="1.1" id="Layer_1" xmlns="http://www.w3.org/2000/svg" xmlns:xlink="http://www.w3.org/1999/xlink" x="0px" y="0px"
	 viewBox="0 0 43.7 29.5" style="enable-background:new 0 0 43.7 29.5;" xml:space="preserve">
<style type="text/css">
	.st0{fill:#373030;}
</style>
<path class="st0" d="M14.7,6.3C14.7,6.3,14.8,6.2,14.7,6.3c0,0-0.1,0.1-0.2,0.2C14.6,6.4,14.6,6.3,14.7,6.3z M40.1,20.4
	c-0.2,0.2-0.4,0.5-0.6,0.7v0.1c-0.2,0.3-0.4,0.6-0.7,0.7c-0.6,0.3-0.9-0.1-1.4,0c-0.1,0-0.3,0.1-0.4,0.1c-0.2,0.1-0.3,0.1-0.5,0.1
	c-0.1,0,0,0-0.1-0.1c-0.1,0-0.1,0-0.2,0c-0.2,0-0.4-0.1-0.5-0.2c-0.3-0.1-0.5-0.4-0.9-0.4c-0.2,0-0.5,0.2-0.7,0.2
	c-0.1,0-0.1,0-0.1,0h-0.1l-0.1-0.1c-0.1,0-0.3,0-0.4,0c-0.1,0-0.2-0.1-0.4-0.1c-0.4-0.1-0.8,0.2-1,0.3c0,0.3-0.1,0.3-0.2,0.3
	s0,0.1-0.1,0.1c-0.5,0.3-1.1,0.3-1.4,0h-0.1c0,0-0.1-0.1-0.2-0.1c-0.1-0.1-0.3-0.1-0.4-0.1s-0.2,0-0.3,0c-0.3,0-0.7,0.2-0.8,0.3
	c-0.1,0,0,0-0.1,0.1c-0.2,0.1-0.2,0.2-0.3,0.4c0.3,0.4,1.1,0.4,1.1,1c0,0.1,0,0.4-0.3,0.5c-0.2,0-0.3-0.1-0.4-0.1
	c0-0.1-0.8-0.6-0.8-0.6c-0.1,0-0.2-0.1-0.2-0.1c-0.1,0-0.2-0.1-0.2-0.2c-0.2-0.1-0.4-0.1-0.6-0.2c-0.4-0.1-0.9,0.1-1.4,0v-0.1h-0.1
	c-0.2,0-0.3,0-0.5,0s-0.5,0-0.7,0c0,0-0.1-0.1-0.2-0.1h-0.1l-0.1-0.1c-0.1,0-0.2,0-0.2,0c-0.4-0.1-0.7-0.3-1.1-0.3
	c-0.1,0.2-0.3,0.3-0.3,0.4s0,0.1,0,0.1V23l-0.1,0.1c-0.1,0.1-0.1,0.3-0.2,0.3h-0.1c0,0,0,0.1-0.1,0.1s0,0.1-0.1,0.1
	c-0.3,0.1-0.6,0.2-1.1,0.2c-0.3,0-0.6,0.1-0.9,0.1v-0.1c0,0-0.2,0.1-0.3,0c0,0-0.1-0.1-0.2-0.1s-0.2,0-0.3,0c0,0-0.1-0.1-0.2-0.1
	h-0.1c-0.1,0,0,0-0.1-0.1c-0.3-0.1-0.6-0.2-0.9-0.2c-0.4,0.2-0.4,0.6-0.8,0.7c0-0.1-0.2-0.1-0.2-0.1c-0.3-0.2-0.3-0.5-0.5-0.7
	c-0.1-0.1-0.3-0.2-0.5-0.2c-0.3-0.1-0.7-0.2-1-0.1c-0.1,0-0.3,0.1-0.4,0.3c-0.1,0.1-0.2,0.1-0.3,0.2v0.1c-0.1,0.1-0.2,0-0.3,0.1
	c0,0,0,0.1-0.1,0.1c-0.1,0.1-0.2,0-0.3,0.1v0.1c-0.1,0.1-0.2,0-0.3,0.1s-0.1,0.2-0.2,0.2c-0.1,0,0,0-0.1,0.1
	c-0.2,0.2-0.3,0.3-0.5,0.5c-0.2,0.3-0.6,0.7-0.8,0.7c-0.1,0-0.3-0.1-0.3-0.2c-0.1-0.2-0.1-0.6,0-0.8c0-0.1,0.1-0.1,0.1-0.1v-0.1
	l0.1-0.1c0.1-0.1,0.2-0.2,0.2-0.3c0.1-0.1,0.1-0.2,0.2-0.3c0-0.1,0.1-0.1,0.1-0.1c0.1-0.1,0.1-0.2,0.2-0.3c0.1-0.2,0-0.6-0.1-0.7
	c0,0-0.1-0.1-0.2-0.1l-0.1-0.1c0-0.1,0,0-0.1-0.1c0,0,0-0.1-0.1-0.2l-0.2-0.1c-0.1-0.1-0.3-0.2-0.4-0.2c-0.2,0-0.6,0.2-0.7,0.1H9.6
	C10,22,10,22,9.9,21.9H9.8c0,0-0.2-0.1-0.2-0.2s0,0-0.1-0.1s-0.2-0.2-0.3-0.3C9.1,21.2,9,21,9,20.8c-0.1-0.3-0.2-0.5-0.2-0.5
	c-0.1-0.1-0.2-0.2-0.3-0.3c-0.1-0.1-0.3-0.2-0.3-0.3c0-0.1-0.1,0-0.1-0.1c-0.3-0.3-0.5-0.7,0-0.9c0-0.1,0.2,0,0.3,0
	c0.1,0.1,0.2,0.2,0.3,0.3c0.2,0.1,0.4,0.3,0.6,0.4c0.4-0.2,0.8-0.1,1,0.1s0.1,0.6,0.3,0.9c0.1,0.1,0.2,0.2,0.3,0.3h0.2
	c0.2,0.1,0.2,0.1,0.3,0.1h0.1c0.1,0,0.1,0.1,0.2,0.2c0.1,0,0.2,0.1,0.2,0.1c0.1,0.1,0.3,0.2,0.4,0.3h0.1l0.1,0.1
	c0.1,0,0.1,0.1,0.2,0.1c0.2,0.1,0.3,0.1,0.4,0.2c0.3,0.1,0.7,0.1,0.8,0.2H14c0,0,0.1,0.1,0.2,0.1c0.1,0,0.1,0,0.2,0
	c0,0,0.1,0.1,0.2,0.1c0.5,0.2,1,0.3,1.4,0.4c0.3-0.2,0.6-0.4,0.9-0.5c0,0.1,0.1,0,0.1,0c0.1,0,0.2,0.1,0.3,0.1c0.1,0,0,0,0.1,0.1
	c0.2,0.1,0.4,0.1,0.6,0.2s0.6,0.1,0.7,0.1h0.2c0.1,0,0.1,0,0.1,0c0.1,0,0.2,0.1,0.2,0.2c0.2,0.1,0.4,0.1,0.6,0.1
	c0.3-0.1,0.5-0.3,0.7-0.5c0.1-0.1,0.2-0.2,0.3-0.2c0.1-0.1,0.1-0.3,0.1-0.4c-0.2-0.1-0.2-0.2-0.4-0.3c-0.2-0.1-0.4,0-0.6,0
	c-0.4,0-0.8-0.1-1.1-0.1c-0.1-0.1-0.2-0.3-0.3-0.4v-0.1h-0.1c-0.1-0.1-0.2-0.1-0.2-0.2c-0.3,0.2-0.6,0.2-0.9,0.1
	c-0.1-0.1-0.3-0.1-0.3-0.2s-0.1-0.1-0.2-0.2c0-0.1-0.1,0-0.1-0.1c-0.1-0.1-0.1-0.2-0.1-0.2L16.5,20c0-0.1-0.1,0-0.1-0.1
	c-0.1-0.1,0-0.2-0.1-0.2l-0.2-0.1c-0.1,0-0.2-0.1-0.2-0.1c-0.3,0-0.5,0.1-0.8,0l-0.3-0.2c0-0.1-0.2-0.1-0.2-0.2
	c-0.1-0.1-0.1-0.3-0.2-0.4c-0.2-0.2-0.3-0.4-0.5-0.6c-0.4,0-0.8-0.1-1.1-0.1c-0.2,0-0.4,0-0.6,0c0,0-0.1,0-0.1-0.1
	c-0.5-0.2-0.8,0.1-1.2,0.2c-0.1,0-0.1,0-0.2,0c-0.4,0-0.8,0-1.1,0c-0.2-0.1-0.4-0.2-0.7-0.2S8.4,18.1,8,18.1
	c-0.1-0.1-0.3-0.2-0.3-0.3v-0.1c-0.2-0.8-0.3-1.8-0.4-2.6c0-0.2-0.1-0.4-0.1-0.6l0.1-0.1c0-0.1,0.1-0.1,0.1-0.2
	c0.4-0.3,1.4-0.1,1.3-0.6c-0.1-0.1-0.2-0.1-0.3-0.1c-0.2-0.1-0.4,0-0.5,0.1c-0.3,0.1-0.5,0-0.7,0C7,13.5,7,13.3,6.9,13
	C7,12.8,7,12.4,7,12.2c0,0,0.1,0,0.1-0.1V12c0-0.1,0.1-0.3,0.2-0.3c0-0.1,0.1-0.1,0.1-0.2c0.2-0.1,0.5-0.2,0.7-0.2
	c0.1-0.1,0.2-0.2,0.3-0.3c0,0,0-0.1,0-0.2c0.1-0.1,0.2-0.1,0.3-0.1c0.2,0,0.3,0.2,0.5,0.2c-0.1,0,0.1,0.1,0.1,0.1c0.1,0,0.1,0,0.2,0
	c0.2,0,0.3-0.1,0.3-0.1h0.1c0.1,0,0.1,0,0.2-0.1h0.1c0.2-0.1,0.2-0.2,0.4-0.3c0.1-0.3,0.1-0.7,0.3-0.9c0.3-0.1,0.6,0.2,1,0
	c0.2-0.1,0.3-0.3,0.4-0.4c0.2,0,0.3-0.2,0.4-0.2l0.1-0.1c0.1-0.1,0.3-0.1,0.5-0.1c0,0,0-0.1,0.1-0.1c0.2-0.1,0.3-0.1,0.4-0.1
	l0.1-0.1c0.1,0,0.1-0.1,0.2-0.1c0.1-0.1,0.2-0.1,0.2-0.2C14.3,8,14.4,8,14.5,8C14.7,7.9,15,7.8,15,7.7h0.1c0.1-0.1,0.3-0.1,0.4-0.2
	l0.1-0.1l0,0l0,0c0.2-0.1,0.4,0,0.6-0.1c0,0,0-0.1,0.1-0.1s0.1,0,0.2-0.1C16.6,7,16.7,6.9,17,6.9c0.1,0,0-0.1,0.1-0.1
	c0.4-0.1,0.9-0.1,1.3-0.2c0.2-0.1,0.4-0.2,0.6-0.2c0.4-0.1,0.8,0,1.2-0.1c0.2,0,0.5-0.1,0.7-0.2c0.3-0.1,0.6,0,0.9-0.1
	c0.2,0,0.4-0.1,0.5-0.1c0.4-0.1,0.8-0.1,0.9-0.2h0.1c0.2-0.1,0.4-0.4,0.6-0.6C24.1,5,24.1,5,24.2,4.9s0.3-0.1,0.4-0.2h0.2
	c0.1,0,0-0.1,0.1-0.1c0.4-0.2,0.6-0.3,1-0.3c0.1,0,0,0,0.1,0.1c0.1,0,0.3,0,0.4,0.1s0.4,0.1,0.3,0.3C26.5,5,26.3,4.9,26.1,5
	c-0.3,0.1-0.6,0.2-0.8,0.3c-0.1,0-0.2,0.1-0.2,0.1c-0.1,0,0,0.1-0.1,0.1c-0.2,0.1-0.3,0.2-0.5,0.3c-0.3,0.2-0.7,0.5-0.9,0.7
	c-0.1,0.1-0.2,0.2-0.3,0.3c-0.1,0-0.3,0.2-0.2,0.4c0.1,0.1,0.1,0.2,0.2,0.2c0.2,0.1,0.3,0,0.5,0c0,0,0,0,0.1,0.1H24
	c0.4,0,0.8,0,1.3-0.1c0.4-0.1,0.8-0.1,1.1-0.2c0.3,0,0.8-0.2,0.9-0.1h0.1c0.1,0,0.2,0.1,0.4,0.1c0.2,0.1,0.3,0.2,0.5,0.3
	c0.1,0,0.1,0,0.2,0s0.1,0.1,0.2,0.1c0.2,0,0.3,0,0.3-0.1c0.1,0,0.2-0.1,0.3-0.1c0,0,0,0,0.1,0s0-0.1,0.1-0.1C29.8,7.2,30,7.1,30.3,7
	c0.1,0,0.2,0,0.3,0c0.3,0,0.6-0.1,0.7,0h0.1c0.2,0,0.4,0.2,0.5,0.2c0.1,0.1,0.3,0.1,0.4,0.1c0,0,0.1,0.1,0.2,0.1c0.1,0,0.2,0,0.2,0
	c1.1,0.2,1.7-0.9,2.8-1c0.2,0.2,0.4,0.3,0.4,0.6c0.1,0.1,0.5,0.3,0.4,0.6c0,0.2-0.3,0.3-0.5,0.3c-0.5,0.2-1.2,0.4-1.9,0.4
	c-0.3,0-0.6-0.2-0.8-0.1c-0.1,0-0.1,0.1-0.2,0.1c-0.1,0.1-0.3,0.1-0.3,0.2C32.3,8.8,32.1,8.9,32,9V8.9h-0.1c-0.1,0-0.1,0-0.2,0h-0.1
	c-0.1,0-0.1-0.1-0.2-0.1s-0.2-0.1-0.3-0.1c-0.1,0-0.1-0.1-0.2-0.1s-0.1,0-0.1,0h-0.1V8.5h-0.1c-0.1,0-0.2,0-0.3,0
	c-0.3,0-0.6-0.1-0.9,0c-0.2,0-0.4,0.2-0.4,0.3c-0.1,0-0.1,0.1-0.2,0.1C28.5,9,28.2,8.8,28,8.8c-0.2-0.1-0.5-0.1-0.7-0.1
	s-0.5,0.2-0.5,0.2h-0.1C26.4,9,26.4,9,26.3,9s0,0-0.1-0.1c-0.1,0-0.1,0-0.2,0c-0.4-0.1-0.7-0.2-1-0.2c-0.1,0,0,0.1-0.1,0.1
	s-0.2,0-0.3,0c0,0,0,0.1-0.1,0.1s-0.1,0-0.2,0.1S24,9.1,23.9,9.2c-0.2,0.1-0.4,0.3-0.6,0.4c-0.2,0.3-0.1,0.6-0.1,1
	c0.2,0,0.2,0.2,0.2,0.2h0.1c0.1,0,0.1,0.1,0.2,0.1s0.2,0,0.3,0c0.3,0.1,0.7,0.1,1,0.1c0.4,0,0.8-0.2,1.2-0.3c0.1,0,0,0,0.1,0.1
	c0.1,0,0.1,0,0.2,0s0.4,0.1,0.5,0.1c0.4,0,0.5-0.1,0.8-0.1c0.7-0.2,1.3,0,1.8-0.2c0.2-0.2,0.4-0.4,0.8-0.5c0.3,0,0.7,0.2,1.1,0.3
	c0.1,0,0.2,0,0.3,0c0.1,0,0.3,0,0.3,0c0.5,0,1-0.3,1.5-0.3c0.1,0,0,0,0.1,0.1c0.1,0,0.1,0,0.2,0c0.3,0,0.6,0.2,1,0.2
	c0.2,0,0.3,0,0.5,0c0,0,0,0,0.1,0.1c0.2,0,0.4,0,0.5,0.1h0.1c0,0,0.1,0.1,0.2,0.1c0.1,0.1,0.3,0.1,0.3,0.3c0,0.1-0.1,0.2-0.2,0.3
	c0,0.1-0.1,0.1-0.2,0.2c-0.1,0.1-0.1,0.1-0.2,0.2c0,0-0.1,0-0.1,0.1c-0.3,0.2-0.5,0.6-0.8,0.6c-0.2,0-0.5-0.1-0.6-0.2c0,0,0,0-0.1,0
	s-0.1,0-0.1-0.1c-0.2,0-0.4,0-0.6,0c-0.2,0.1-0.5,0.1-0.8,0.2c-0.4,0.1-0.7,0.3-1,0.3s-0.5,0-0.8,0c-0.4,0-0.8,0.1-1,0.1
	c-0.3,0-0.5,0-0.8,0c-0.2,0-0.2,0-0.4,0c-0.1,0-0.1-0.1-0.1-0.1c-0.2,0-0.3,0-0.3,0s0,0-0.1,0s-0.1,0-0.1-0.1c-0.3,0-0.6,0-1,0
	s-0.7-0.1-1,0c-0.2,0-0.4,0.1-0.7,0.2c-0.2,0-0.5,0-0.7,0c0,0.1-0.1,0-0.1,0.1l-0.1,0.1c-0.3,0.2-0.3,0.5-0.3,0.8s0.1,0.6,0.1,0.7
	c0.1,0.2,0.2,0.2,0.3,0.3c0.3,0.2,0.7-0.1,0.9,0h0.1c0.2,0,0.5,0.1,0.6,0.2h0.2c0.1,0,0.1,0,0.2,0h0.1c0,0,0.1,0.1,0.2,0.1
	s0.1,0,0.2,0c0,0,0.1,0.1,0.2,0.1s0.1,0,0.2,0s0.1,0.1,0.2,0.1s0,0,0.1,0.1c0.2,0.1,0.6,0.1,0.8,0.1c0.1,0,0.2-0.1,0.4-0.1
	c0,0,0-0.1,0.1-0.1c0.3-0.1,0.5-0.1,0.7-0.1c0.5,0,1.3-0.2,1.6-0.3c0.2-0.1,0.5-0.2,0.6-0.3c0,0,0,0,0.1,0s0-0.1,0.1-0.1
	c0.2-0.1,0.4-0.2,0.5-0.3s0.2-0.2,0.2-0.2c0.1,0,0.2-0.1,0.2-0.2c0.1-0.1,0.2-0.1,0.3-0.2v-0.1h0.1v-0.1c0.1,0,0.1-0.1,0.2-0.1
	c0,0,0.1-0.1,0.2-0.2c0.2-0.1,0.3,0,0.5,0.1c0.1,0.2,0,0.3-0.2,0.3c-0.1,0.2-0.3,0.2-0.4,0.3c-0.2,0-0.3,0.4-0.4,0.5
	c-0.1,0.2,0,0.4,0,0.5c0,0.2-0.1,0.3-0.2,0.4c-0.3,0.1-0.5,0-0.8,0.1c0,0.1-0.1,0.1-0.2,0.2c-0.2,0.2-0.2,0.5-0.3,0.7
	c0,0.1-0.1,0.2-0.2,0.2c0,0.1-0.1,0.2-0.2,0.2c-0.1,0.1-0.2,0.1-0.2,0.2c-0.1,0.1-0.1,0.2-0.1,0.3c0.2,0.3,0.6,0.3,0.7,0.7
	c0.1,0.3-0.1,0.5,0,0.9c0.1,0.2,0.3,0.2,0.5,0.3c0.2,0.1,0.5,0,0.5,0.4c-0.1,0.2-0.3,0.1-0.4,0.2c-0.2,0.1-0.3,0.1-0.4,0.2v0.1h-0.1
	c0,0.1,0,0.1,0,0.2s-0.1,0.1-0.1,0.1c-0.1,0.4,0.1,1,0.6,1.1c0.2-0.1,0.3-0.3,0.3-0.4s0-0.3,0.2-0.3c0.4,0,0.4,0.5,0.8,0.5
	c0.2,0,0.4-0.2,0.7-0.2c0.3,0.1,0.5,0.3,0.9,0.3c0.4-0.1,0.2-0.6,0.7-0.6c0.2,0.2,0.1,0.7,0.5,0.7c0.6-0.1,1.1-0.4,1.6-0.6v-0.1h0.1
	l0.1-0.1h0.1c0.1,0,0.2-0.1,0.2-0.2c0.2-0.1,0.6-0.3,0.8,0.1C40.2,20.1,40.1,20.3,40.1,20.4z M41.4,9.5c0.1,0,0.1-0.1,0.3-0.1
	c0.1,0.1,0.2,0.1,0.2,0.2c0,0,0.1,0,0.1,0.1s0,0.2,0,0.3c-0.1,0.2-0.2,0.5-0.5,0.5C41.1,10.3,41.3,9.8,41.4,9.5 M40.8,6.6
	C41,6.7,41.1,6.7,41.2,7c0,0.2-0.1,0.2-0.2,0.3v0.1c0,0.1-0.2,0.1-0.2,0.2c-0.1,0.1-0.1,0.2-0.2,0.2C40.4,7.9,40.1,8.1,40,8
	c0-0.1-0.1,0-0.1,0c-0.1,0,0-0.1-0.1-0.2h-0.1C39.4,7.3,40.3,6.7,40.8,6.6 M40.1,10.1c0.1,0,0.1,0,0.2,0c0,0.1,0.1,0.1,0.1,0.2
	c-0.2,0.3-0.2,0.8-0.7,0.9c0-0.1-0.1-0.1-0.2-0.1C39.5,10.6,39.9,10.4,40.1,10.1 M37.3,12.6c-0.1,0.3-0.7,0.4-0.7,0.1
	C36.6,12.3,37.3,12,37.3,12.6 M13.1,19.6h0.1c0.1,0,0.1,0,0.2,0c0.1,0,0.2,0.1,0.4,0.1c0.1,0.1,0.2,0.3,0.3,0.5
	c0.1,0.1,0.2,0.2,0.4,0.3h-0.1c-0.1,0-0.2,0-0.2,0s-0.1,0-0.2-0.1c-0.2-0.2-0.4-0.3-0.6-0.3c0,0-0.1,0-0.1-0.1c0,0-0.1,0-0.1-0.1
	c-0.1-0.1-0.2-0.2-0.4-0.3c0,0,0,0-0.1,0C12.8,19.6,13,19.6,13.1,19.6 M6.9,21.2c0,0.1,0,0.1,0,0.2l-0.1,0.1
	c-0.1,0.1-0.2,0.3-0.4,0.3c-0.2,0-0.2,0-0.3,0c-0.1,0,0,0-0.1-0.1c-0.3-0.1-0.4-0.2-0.5-0.5c-0.1-0.4,0-0.7,0-1c0-0.1,0-0.1,0-0.2
	c0-0.3,0-0.6-0.1-0.8h0.1c0,0-0.1-0.3-0.1-0.4c-0.1-0.4,0-0.7,0-0.9c0.1-0.5-0.2-1.5-0.1-2c0-0.1,0-0.1,0-0.2c0-0.5-0.1-1.2-0.1-1.7
	c0-0.3-0.1-0.7-0.1-0.8v-0.1c0-0.2,0-0.2,0-0.3c0-0.5-0.2-0.9-0.3-1.2c0-0.2,0-0.3,0-0.4c0-0.1,0.1-0.1,0.1-0.1
	c0-0.6-0.2-1.2,0.2-1.6h0.1c0,0,0-0.1,0.1-0.1c0.1,0.1,0.2,0,0.3,0.1c0.1,0,0.2,0.2,0.2,0.2c0,0.1,0,0,0.1,0.1C5.9,9.9,6,10,6,10.1
	l0.1,0.1c0,0.1,0,0.3,0,0.4c0,0.1,0,0.2,0,0.3L6,11c0,0.1,0,0.2,0,0.4c0,0.1-0.1,0.3-0.1,0.4C5.9,12,6,12.2,6,12.4
	c0,0-0.1,0-0.1,0.1s0,0.1,0,0.2c0,0.1,0,0.1,0,0.3c0,0.4,0.2,0.7,0.2,1.1C6.1,14.4,6,14.7,6,15c0,0.5,0.1,0.9,0.2,1.4
	c0,0.5,0.1,1,0.2,1.4s0.3,0.6,0.4,1c0,0.3-0.1,0.7,0,1.2c0,0.2,0.1,0.4,0.2,0.5C7,20.6,6.9,20.9,6.9,21.2C7,21.2,6.9,21.2,6.9,21.2
	 M43.2,19.8c-0.3-0.3,0.1-0.7,0.5-0.5C43.8,19.6,43.5,19.8,43.2,19.8 M23.7,16.2c-0.1,0-0.4-0.3-0.5-0.3s-0.1-0.1-0.2-0.1h-0.1
	c-0.1-0.1-0.5-0.1-0.8-0.1c-0.7,0.1-1.4,0.6-2.5,0.7c-0.1,0.1-0.2,0.2-0.3,0.3c-0.1,0.1-0.1,0.2-0.2,0.3c-0.1,0.1-0.1,0.2-0.2,0.3
	c-0.1,0.1-0.2,0.1-0.3,0.2c-0.3,0.1-0.4,0-0.7,0.1c-0.1,0-0.1,0.1-0.2,0.1s0,0-0.1,0.1l-0.2,0.1c-0.1,0.1,0,0.1,0,0.2
	s-0.1,0.1-0.1,0.1v0.1c0,0-0.1,0.1,0,0.2c0,0.1,0.1,0.1,0.2,0.1c0,0,0.1,0.1,0.1,0.2c0.1,0,0.2,0,0.2,0c0.1,0,0.1,0.1,0.2,0.2
	c0.1,0,0.1,0,0.2,0c0.1,0.1,0.2,0.2,0.3,0.2c0.3,0.2,0.6,0.7,0.9,0.8c0.4,0.1,0.6-0.2,0.9-0.1c0.2,0,0.4,0.2,0.7,0.3
	c0,0,0,0.1,0.1,0.1h0.1c0,0,0.1,0.1,0.2,0.1h0.1c0.1,0.1,0.4,0.1,0.7,0.1c0.2,0,1.2,0,1.5-0.3c0,0,0.2-0.3,0.2-0.4s0.1-0.2,0.1-0.2
	c0-0.1,0.1-0.3,0.2-0.4s0.2-0.1,0.3-0.1c0,0,0-0.1,0.1-0.1h0.1c0.1-0.1,0.4-0.1,0.6-0.3c0,0,0-0.1,0.1-0.1s0.2-0.1,0.2-0.2
	c0.1-0.1,0.3-0.3,0.5-0.3s0.3,0,0.5,0c0.1,0,0.3,0.1,0.4,0.1c0.6,0,1.1-0.2,1.1-0.6c0-0.1-0.1-0.3-0.3-0.3h-0.1v-0.1
	c-0.2,0-0.5,0.1-0.7,0.1c-0.4-0.1-0.8-0.4-1.2-0.6c0,0,0-0.1-0.1-0.1h-0.1c-0.1,0-0.2-0.1-0.2-0.2h-0.1c-0.1,0-0.1,0-0.2,0
	s-0.1,0-0.2,0C24.4,16.3,24,16.3,23.7,16.2C23.8,16.2,23.8,16.2,23.7,16.2 M23.6,17.9c-0.1,0.1-0.3,0.2-0.4,0.3
	c-0.2,0.2-0.4,0.4-0.5,0.8c0,0,0,0,0,0.1c-0.1,0-0.2,0-0.3,0l0,0c-0.1,0-0.2,0-0.3,0l0,0c-0.1,0-0.1,0-0.2-0.1l0,0
	c-0.1,0-0.1,0-0.2-0.1h-0.1c-0.2-0.1-0.5-0.2-0.8-0.3c-0.1,0-0.3,0-0.4,0s-0.3,0-0.4,0l0,0l0.1-0.1c0.1-0.1,0.2-0.3,0.3-0.3l0,0
	c0-0.1,0.1-0.1,0.1-0.2c0.6-0.1,1-0.3,1.4-0.4c0.2-0.1,0.4-0.2,0.5-0.2l0,0h0.1h0.1h0.1c0.1,0.1,0.2,0.2,0.4,0.2
	c0.1,0,0.2,0.1,0.3,0.1c0.1,0,0.3,0.1,0.4,0.1C23.7,17.8,23.6,17.8,23.6,17.9 M20.7,13.4c-0.3,0.1-0.6,0.2-0.8,0.3
	c-0.4,0-0.9-0.2-1.2-0.1c-0.3,0-0.6,0.2-1,0.3c-0.7,0.2-1.5,0.1-2,0.3c-0.2,0.1-0.3,0.2-0.4,0.3c-0.1,0.1-0.2,0.2-0.4,0.3
	c-0.3,0.1-0.6,0-1,0c-0.3,0-0.6,0.2-0.8,0.3H13c-0.1,0-0.4,0.1-0.6,0.2c-0.1,0.1-0.3,0.2-0.4,0.2c-0.4,0.1-0.8,0.1-1.2,0.3
	c-0.1,0-0.2,0.1-0.3,0.1C10.3,16,10,16,9.9,16.3c0,0.2,0.1,0.2,0.3,0.3c0.1,0,0.1,0,0.2,0c0,0,0.1,0.1,0.2,0.1
	c0.3,0,0.7-0.1,0.9-0.1h0.1h0.1c0.1,0,0.2,0,0.4,0.1c0,0,0,0.1,0.1,0.1s0.2,0.1,0.4,0.1h0.1c0.1,0.1,0.5-0.1,0.7-0.1
	s0.4,0.1,0.5,0.3c0.1,0.1,0.2,0.3,0.5,0.4c0,0,0.1,0.1,0.2,0.1h0.1l0.1,0.1c0.3,0,0.6-0.2,0.9-0.2s0.7,0,0.9,0
	c0.4-0.1,0.5-0.4,0.9-0.7h0.1c0.1-0.1,0.3-0.1,0.6-0.1c0.1,0,0.1,0,0.2,0s0.2-0.1,0.3-0.1v-0.1h0.1c0-0.1,0-0.2,0.2-0.2
	c0.1,0,0.1-0.1,0.1-0.1h0.1c0.1-0.1,0.4-0.2,0.6-0.3c0,0,0-0.1,0.1-0.1c0.1-0.1,0.2-0.1,0.4-0.2c0.1-0.1,0.2-0.1,0.4-0.2
	c0.1,0,0.2-0.1,0.3-0.1v-0.1h0.1v-0.1c0.1-0.1,0.2,0,0.3-0.1c0,0,0-0.1,0.1-0.1l0.1-0.1c0.7-0.2,1.3,0,2.1-0.2
	c0.1-0.2,0.3-0.3,0.4-0.5c0-0.1,0-0.2,0.1-0.3v-0.1c0-0.2-0.2-0.4-0.4-0.5c-0.1,0-0.1-0.1-0.2-0.1c-0.5-0.1-1.5,0.6-2.4,0.6
	C21,13.4,20.9,13.3,20.7,13.4 M16.1,15.7C16,15.7,16,15.7,16.1,15.7L16.1,15.7l0.1-0.1l0.1-0.1l0,0C16.2,15.6,16.1,15.7,16.1,15.7
	 M21.5,9.4c0,0-0.1,0.1-0.2,0.1v0.1c-0.1,0.1-0.1,0.1-0.2,0.1c0,0,0,0.1-0.1,0.1s-0.1,0.1-0.1,0.1h-0.1c-0.1,0.1-0.2,0.1-0.4,0.3
	l-0.1,0.1c-0.1,0.1-0.3,0.1-0.4,0.2v0.1c-0.1,0.1-0.1,0.1-0.2,0.2c-0.1,0.1-0.2,0.4-0.4,0.4l-0.1,0.1l-0.1,0.1
	c-0.1,0.1-0.3,0.2-0.4,0.2c-0.2,0.1-0.6,0-0.8,0.1c-0.3,0-0.5,0.1-0.8,0.3c-0.1,0.1-0.5,0.1-0.8,0.2c0,0,0,0.1-0.1,0.1
	s-0.3,0.2-0.4,0.3c-0.2,0.1-0.4,0.2-0.4,0.4c-0.1,0-0.2,0.3,0,0.3c0.1,0.3,0.5,0.1,0.6,0c0.2,0,0.3-0.1,0.5-0.1h0.1
	c0.1-0.1,0.5-0.2,0.8-0.3c0.2-0.1,0.4-0.2,0.6-0.2s0.4,0,0.6,0s0.5-0.2,0.8-0.2s0.7,0,1,0c0.2,0,0.4-0.1,0.6-0.2c0,0,0-0.1,0.1-0.1
	c0.3-0.1,0.6-0.2,1-0.3c0.3-0.1,0.6-0.1,0.8-0.3c0-0.1,0.1-0.1,0.1-0.2l0.1-0.1c0-0.1,0-0.2,0-0.3s0-0.3-0.2-0.5v-0.1
	c-0.1-0.1-0.2-0.5-0.3-0.6c0,0-0.1,0-0.1-0.1s-0.3-0.2-0.4-0.3C21.9,9.1,21.7,9.3,21.5,9.4 M16.1,7.5L16.1,7.5L16.1,7.5L16.1,7.5
	L16.1,7.5z M30,17.2c0-0.3-0.5-0.5-0.7-0.3c-0.2,0-0.1,0.2-0.2,0.2C29.2,17.6,29.9,17.7,30,17.2 M27.5,19.3c-0.1,0-0.1,0.1-0.2,0.1
	s-0.3,0.2-0.4,0.3c-0.2,0.1-0.5,0-0.7,0.1c0,0,0,0.1-0.1,0.1S26,19.9,26,20c-0.2,0.1-0.4,0.3-0.5,0.5c-0.1,0.1-0.4,0.2-0.3,0.6
	c0.4,0.3,0.9,0.1,1.4,0.2h0.3c0.1,0.1,0.1,0.1,0.2,0.1h0.2v0.1h0.1c0.1,0.1,0.4,0.1,0.6,0s0.5-0.4,0.7-0.5h0.1
	c0.1,0,0.1-0.1,0.1-0.1c0.2,0,0.3,0,0.4,0s0.1,0,0.2,0s0.7,0,0.9-0.2c0.2,0,0.1-0.2,0.2-0.3c0-0.2-0.1-0.3-0.2-0.4h-0.1
	c-0.1-0.1-0.1-0.1-0.2-0.2c-0.2-0.2-0.5-0.3-0.7-0.4c0-0.1-0.1,0-0.2-0.1c-0.4,0.1-0.9,0.3-1.3,0.3C27.8,19.3,27.7,19.2,27.5,19.3
	 M15.7,8.7C15.7,8.7,15.6,8.7,15.7,8.7c-0.1,0.1-0.2,0.2-0.2,0.2c-0.1,0.1-0.4,0.2-0.6,0.3c-0.1,0.1-0.2,0.1-0.3,0.1
	c0,0,0,0.1-0.1,0.1s-0.1,0.1-0.2,0.1c-0.1,0-0.2,0.1-0.3,0.1l-0.1,0.1c-0.1,0.1-0.1,0-0.2,0.1l-0.1,0.1h-0.1
	c-0.1,0.1-0.4,0.2-0.6,0.3c0,0,0,0.1-0.1,0.1s-0.2,0.2-0.3,0.2c-0.2,0.1-0.3,0.4-0.5,0.6c-0.1,0.1-0.1,0.2-0.2,0.2h-0.1v0.1h-0.1
	c-0.1,0.1-0.5,0.3-0.8,0.4c0,0,0,0.1-0.1,0.1h-0.2c0,0.1-0.1,0.1-0.2,0.2c-0.2,0.1-0.3,0.3-0.3,0.4c0,0.1,0.1,0.4,0.2,0.5l0.2,0.1
	c-0.1,0,0.5,0.1,0.6,0V13h0.1c0-0.1,0.1-0.1,0.3-0.2c0.1,0,0.2-0.1,0.3-0.1c0.5-0.1,0.8,0.2,1,0.1l0.2-0.1c0.1-0.1,0.2-0.3,0.4-0.3
	c0.1,0,0.1-0.1,0.3-0.1c0.1-0.1,0.3-0.2,0.4-0.2c0.1,0,0.2-0.2,0.3-0.3c0,0,0.1,0,0.1-0.1c0.1-0.1,0.1-0.1,0.2-0.2
	c0.1,0,0.1-0.1,0.2-0.1l0.2-0.1c0.1-0.2,0.7-0.2,1-0.4c0.1,0,0.3-0.2,0.4-0.2c0.4-0.1,1,0,1.6-0.1c0,0,0-0.1,0.1-0.1
	c0.1-0.1,0.4-0.1,0.5-0.2c0,0,0-0.1,0.1-0.1s0.1-0.2,0.2-0.4c0-0.1,0-0.2,0.1-0.3c0,0,0.1,0,0.1-0.1c0-0.2,0.6-0.5,1-0.9
	c0,0,0-0.1,0.1-0.1s0.1-0.1,0.2-0.2l0.1-0.1L20.6,8c0.1-0.1,0.3-0.1,0.4-0.2c0,0.4,0.4,0.3,0.6,0.2h0.1c0-0.1,0-0.1,0.1-0.1
	c0.1-0.1,0.3-0.2,0.3-0.4C22.2,7.2,22,7,21.8,7c-0.2-0.1-0.6,0-1,0c-0.1,0-0.1,0-0.2,0c-0.3,0-0.5,0.1-0.7,0.2c-0.1,0-0.2,0-0.5,0
	c0,0,0-0.1-0.1-0.1c-0.2,0-0.5,0.1-0.7,0.2c0,0,0,0.1-0.1,0.1s-0.3,0-0.5,0.1c0,0,0,0.1-0.1,0.1c-0.3,0.1-0.7,0.4-1,0.6h-0.1
	c-0.1,0.1-0.4,0.1-0.6,0.2C16,8.4,15.9,8.5,15.7,8.7C15.7,8.6,15.7,8.7,15.7,8.7 M17.6,9.4L17.6,9.4C17.6,9.4,17.6,9.5,17.6,9.4
	l-0.1,0.1h-0.1C17.5,9.5,17.5,9.5,17.6,9.4 M22.3,4.4c0.2-0.1,0.2,0.1,0.3,0.1c0.1,0.3-0.2,0.4-0.3,0.6c-0.1,0.1-0.2,0.3-0.3,0.6
	h-0.4C21.6,5.2,22,4.7,22.3,4.4 M20.1,0c0.4,0.5,0.4,0.8,0,1.3c-0.6,0.1-0.7-0.2-0.9-0.5C19.2,0.2,19.5,0,20.1,0 M17.9,3.6
	c0.1-0.2,0.5-0.1,0.5-0.4C18.6,3.4,19,3.4,19,3.6c0.2,0,0.1,0.4,0.4,0.4c-0.2,0.4-0.3,0.8-0.7,0.9c-0.5,0-0.6-0.3-0.9-0.5
	C17.7,4,18,3.9,17.9,3.6 M16.8,14c0.1,0,0.3-0.1,0.4-0.3c0-0.1,0-0.1,0.1-0.2l0.1-0.1c0-0.4,0-0.9,0.1-1.2c0,0,0.1,0,0.1-0.1
	s0.2-0.4,0.3-0.5l0.1-0.1v-0.1c0.1-0.1,0.2-0.2,0.3-0.3c0-0.1,0.1-0.1,0.1-0.3c0-0.3-0.5-0.6-0.6-0.9c0-0.2,0-0.3,0.1-0.5
	c0,0,0-0.2,0.1-0.3L18.1,9c-0.1,0-0.1-0.2,0-0.3l0.1-0.1c0.1-0.1,0.1-0.3,0.2-0.4h0.3c0.2,0.3,0.1,0.7,0.3,1.1c0,0,0.1,0,0.1,0.1
	c0.1,0.3,0.1,1,0,1.5c0,0.1,0,0.1-0.1,0.3c0,0.1-0.1,0.1-0.1,0.1c0,0.4,0,0.7-0.1,0.9s-0.2,0.5-0.3,0.8c0,0.1,0,0.2-0.1,0.3
	c0,0-0.1,0-0.1,0.1s0,0.1-0.1,0.3l-0.1,0.1L18,13.9c-0.1,0.3-0.1,0.7-0.3,0.9c-0.2,0-0.4,0-0.6-0.1c-0.2,0-0.4,0-0.4-0.2
	C16.5,14.1,16.7,14.1,16.8,14 M16.4,10.8L16.4,10.8c0,0.1,0,0.1,0,0.1c0,0.1-0.1,0.1-0.2,0.2C16.3,11,16.4,10.9,16.4,10.8 M0.3,17.4
	c-0.2-0.1-0.4-0.3-0.3-0.7c0,0,0.1,0,0.1-0.1c0-0.2,0.4-0.3,0.4-0.5c0.2-0.1,0.2,0.1,0.3,0.1c0.1,0.1,0.2,0.3,0.3,0.4
	c0,0.1,0.1,0.2,0.1,0.4c0,0,0,0.1,0.1,0.1c0,0.2-0.2,0.2-0.3,0.4C0.8,17.4,0.5,17.5,0.3,17.4 M1.3,21.6c-0.1,0.1-0.2,0-0.2,0.1
	c-0.3,0-0.6-0.6-0.2-0.8C1.1,20.9,1,21,1.2,21C1.3,21.1,1.4,21.5,1.3,21.6 M16,11.8c-0.1,0.3-0.1,0.6-0.1,0.9
	C15.7,12.5,15.7,12.2,16,11.8 M4.6,27.1L4.6,27.1c-0.2,0.4-0.2,0.5-0.4,0.8C4,28,3.7,28.3,3.5,28.6c-0.1,0.2-0.2,0.4-0.4,0.6
	C3,29.3,3,29.4,2.8,29.5H2.7c0,0.1,0,0-0.1,0H2.5v-0.1H2.4C2.3,29.3,2,29.1,2,28.9s0.1-0.3,0.1-0.4s0.2-0.3,0.3-0.5
	c0-0.1,0-0.3-0.1-0.4l-0.1-0.1c0-0.1,0-0.3,0.1-0.4L2.4,27c0.1-0.1,0.1-0.2,0.2-0.3c0-0.4,0.3-0.6,0.4-0.7c0.2,0.1,0.2-0.1,0.4-0.1
	c0.1,0,0.8,0.1,0.9,0.2c0,0,0.3,0.3,0.3,0.4v0.1C4.6,26.7,4.7,26.8,4.6,27.1 M6.2,21.2c0,0.1,0,0.1,0,0.2l-0.1,0.1
	c-0.1,0.1-0.2,0.3-0.4,0.3c-0.2,0-0.2,0-0.3,0c-0.1,0,0,0-0.1-0.1c-0.3-0.1-0.4-0.2-0.5-0.5c-0.1-0.4,0-0.7,0-1c0-0.1,0-0.1,0-0.2
	c0-0.3,0-0.6-0.1-0.8h0.1c0,0-0.1-0.3-0.1-0.4c-0.1-0.4,0-0.7,0-0.9c0.1-0.5-0.2-1.5-0.1-2c0-0.1,0-0.1,0-0.2c0-0.5-0.1-1.2-0.1-1.7
	c0-0.3-0.1-0.7-0.1-0.8v-0.1c0-0.2,0-0.2,0-0.3c0-0.5-0.2-0.9-0.3-1.2c0-0.2,0-0.3,0-0.4c0-0.1,0.1-0.1,0.1-0.1
	c0-0.6-0.2-1.2,0.2-1.6h0.1c0,0,0-0.1,0.1-0.1c0.1,0.1,0.2,0,0.3,0.1c0,0,0.1,0.2,0.1,0.2c0,0.1,0,0,0.1,0.1s0.2,0.2,0.2,0.4
	l0.1,0.1c0,0.1,0,0.3,0,0.4c0,0.1,0,0.2,0,0.3l-0.1,0.1c0,0.1,0,0.2,0,0.4c0,0.1-0.1,0.3-0.1,0.4c0,0.2,0.1,0.4,0.1,0.6
	c0,0-0.1,0-0.1,0.1s0,0.1,0,0.2c0,0.1,0,0.1,0,0.3c0,0.4,0.2,0.7,0.2,1.1c0,0.3-0.1,0.6-0.1,0.9c0,0.5,0.1,0.9,0.2,1.4
	c0,0.5,0.1,1,0.2,1.4s0.3,0.6,0.4,1c0,0.3-0.1,0.7,0,1.2c0,0.2,0.1,0.4,0.2,0.5C6.2,20.6,6.2,20.9,6.2,21.2
	C6.3,21.2,6.2,21.2,6.2,21.2"/>
</svg>
