<?xml version="1.0" encoding="utf-8"?>
<!-- Generator: Adobe Illustrator 27.7.0, SVG Export Plug-In . SVG Version: 6.00 Build 0)  -->
<svg version="1.1" id="Layer_1" xmlns="http://www.w3.org/2000/svg" xmlns:xlink="http://www.w3.org/1999/xlink" x="0px" y="0px"
	 viewBox="0 0 43.7 29.5" style="enable-background:new 0 0 43.7 29.5;" xml:space="preserve">
<style type="text/css">
	.st0{fill:#373030;}
</style>
<path class="st0" d="M29,23.2C29,23.2,28.9,23.3,29,23.2c0,0,0.1-0.1,0.2-0.2C29.1,23.1,29.1,23.2,29,23.2z M3.6,9.1
	C3.8,8.9,4,8.6,4.2,8.4V8.3C4.4,8,4.6,7.7,4.9,7.6c0.6-0.3,0.9,0.1,1.4,0c0.1,0,0.3-0.1,0.4-0.1C6.9,7.4,7,7.4,7.2,7.4
	c0.1,0,0,0,0.1,0.1c0.1,0,0.1,0,0.2,0c0.2,0,0.4,0.1,0.5,0.2c0.3,0.1,0.5,0.4,0.9,0.4c0.2,0,0.5-0.2,0.7-0.2c0.1,0,0.1,0,0.1,0h0.1
	L9.9,8c0.1,0,0.3,0,0.4,0c0.1,0,0.2,0.1,0.4,0.1c0.4,0.1,0.8-0.2,1-0.3c0-0.3,0.1-0.3,0.2-0.3s0-0.1,0.1-0.1c0.5-0.3,1.1-0.3,1.4,0
	h0.1c0,0,0.1,0.1,0.2,0.1c0.1,0.1,0.3,0.1,0.4,0.1s0.2,0,0.3,0c0.3,0,0.7-0.2,0.8-0.3c0.1,0,0,0,0.1-0.1c0.2-0.1,0.2-0.2,0.3-0.4
	c-0.3-0.4-1.1-0.4-1.1-1c0-0.1,0-0.4,0.3-0.5c0.2,0,0.3,0.1,0.4,0.1C15.2,5.5,16,6,16,6c0.1,0,0.2,0.1,0.2,0.1
	c0.1,0,0.2,0.1,0.2,0.2c0.2,0.1,0.4,0.1,0.6,0.2c0.4,0.1,0.9-0.1,1.4,0v0.1h0.1c0.2,0,0.3,0,0.5,0s0.5,0,0.7,0c0,0,0.1,0.1,0.2,0.1
	H20l0.1,0.1c0.1,0,0.2,0,0.2,0c0.4,0.1,0.7,0.3,1.1,0.3c0.1-0.2,0.3-0.3,0.3-0.4s0-0.1,0-0.1V6.5l0.1-0.1c0.1-0.1,0.1-0.3,0.2-0.3
	h0.1c0,0,0-0.1,0.1-0.1s0-0.1,0.1-0.1c0.3-0.1,0.6-0.2,1.1-0.2c0.3,0,0.6-0.1,0.9-0.1v0.1c0,0,0.2-0.1,0.3,0c0,0,0.1,0.1,0.2,0.1
	s0.2,0,0.3,0c0,0,0.1,0.1,0.2,0.1h0.1c0.1,0,0,0,0.1,0.1c0.3,0.1,0.6,0.2,0.9,0.2c0.4-0.2,0.4-0.6,0.8-0.7c0,0.1,0.2,0.1,0.2,0.1
	c0.3,0.2,0.3,0.5,0.5,0.7c0.1,0.1,0.3,0.2,0.5,0.2c0.3,0.1,0.7,0.2,1,0.1c0.1,0,0.3-0.1,0.4-0.3c0.1-0.1,0.2-0.1,0.3-0.2V6
	c0.1-0.1,0.2,0,0.3-0.1c0,0,0-0.1,0.1-0.1c0.1-0.1,0.2,0,0.3-0.1V5.6c0.1-0.1,0.2,0,0.3-0.1s0.1-0.2,0.2-0.2s0,0,0.1-0.1
	c0.2-0.2,0.3-0.3,0.5-0.5C32.1,4.4,32.5,4,32.7,4C32.8,4,33,4.1,33,4.2c0.1,0.2,0.1,0.6,0,0.8c0,0.1-0.1,0.1-0.1,0.1v0.1l-0.1,0.1
	c-0.1,0.1-0.2,0.2-0.2,0.3c-0.1,0.1-0.1,0.2-0.2,0.3C32.4,6,32.3,6,32.3,6c-0.1,0.1-0.1,0.2-0.2,0.3c-0.1,0.2,0,0.6,0.1,0.7
	c0,0,0.1,0.1,0.2,0.1l0.1,0.1c0,0.1,0,0,0.1,0.1c0,0,0,0.1,0.1,0.2l0.2,0.1c0.1,0.1,0.3,0.2,0.4,0.2c0.2,0,0.6-0.2,0.7-0.1h0.1
	c-0.4-0.2-0.4-0.2-0.3-0.1h0.1c0,0,0.2,0.1,0.2,0.2s0,0,0.1,0.1c0.1,0.1,0.2,0.2,0.3,0.3c0.1,0.1,0.2,0.3,0.2,0.5
	c0.1,0.3,0.2,0.5,0.2,0.5c0.1,0.1,0.2,0.2,0.3,0.3c0.1,0.1,0.3,0.2,0.3,0.3c0,0.1,0.1,0,0.1,0.1c0.3,0.3,0.5,0.7,0,0.9
	c0,0.1-0.2,0-0.3,0c-0.1-0.1-0.2-0.2-0.3-0.3c-0.2-0.1-0.4-0.3-0.6-0.4c-0.4,0.2-0.8,0.1-1-0.1s-0.1-0.6-0.3-0.9
	C33,9,32.9,8.9,32.8,8.8h-0.2c-0.2-0.1-0.2-0.1-0.3-0.1h-0.1c-0.1,0-0.1-0.1-0.2-0.2c-0.1,0-0.2-0.1-0.2-0.1
	c-0.1-0.1-0.3-0.2-0.4-0.3h-0.1L31.2,8c-0.1,0-0.1-0.1-0.2-0.1c-0.2-0.1-0.3-0.1-0.4-0.2c-0.3-0.1-0.7-0.1-0.8-0.2h-0.1
	c0,0-0.1-0.1-0.2-0.1c-0.1,0-0.1,0-0.2,0c0,0-0.1-0.1-0.2-0.1c-0.5-0.2-1-0.3-1.4-0.4c-0.3,0.2-0.6,0.4-0.9,0.5c0-0.1-0.1,0-0.1,0
	c-0.1,0-0.2-0.1-0.3-0.1c-0.1,0,0,0-0.1-0.1c-0.2-0.1-0.4-0.1-0.6-0.2S25.1,6.9,25,6.9h-0.2c-0.1,0-0.1,0-0.1,0
	c-0.1,0-0.2-0.1-0.2-0.2c-0.2-0.1-0.4-0.1-0.6-0.1c-0.3,0.1-0.5,0.3-0.7,0.5c-0.1,0.1-0.2,0.2-0.3,0.2c-0.1,0.1-0.1,0.3-0.1,0.4
	C23,7.8,23,7.9,23.2,8c0.2,0.1,0.4,0,0.6,0c0.4,0,0.8,0.1,1.1,0.1c0.1,0.1,0.2,0.3,0.3,0.4v0.1h0.1c0.1,0.1,0.2,0.1,0.2,0.2
	c0.3-0.2,0.6-0.2,0.9-0.1c0.1,0.1,0.3,0.1,0.3,0.2s0.1,0.1,0.2,0.2c0,0.1,0.1,0,0.1,0.1c0.1,0.1,0.1,0.2,0.1,0.2l0.1,0.1
	c0,0.1,0.1,0,0.1,0.1c0.1,0.1,0,0.2,0.1,0.2l0.2,0.1c0.1,0,0.2,0.1,0.2,0.1c0.3,0,0.5-0.1,0.8,0l0.3,0.2c0,0.1,0.2,0.1,0.2,0.2
	c0.1,0.1,0.1,0.3,0.2,0.4c0.2,0.2,0.3,0.4,0.5,0.6c0.4,0,0.8,0.1,1.1,0.1c0.2,0,0.4,0,0.6,0c0,0,0.1,0,0.1,0.1
	c0.5,0.2,0.8-0.1,1.2-0.2c0.1,0,0.1,0,0.2,0c0.4,0,0.8,0,1.1,0c0.2,0.1,0.4,0.2,0.7,0.2s0.5-0.2,0.9-0.2c0.1,0.1,0.3,0.2,0.3,0.3
	v0.1c0.2,0.8,0.3,1.8,0.4,2.6c0,0.2,0.1,0.4,0.1,0.6l-0.1,0.1c0,0.1-0.1,0.1-0.1,0.2c-0.4,0.3-1.4,0.1-1.3,0.6
	c0.1,0.1,0.2,0.1,0.3,0.1c0.2,0.1,0.4,0,0.5-0.1c0.3-0.1,0.5,0,0.7,0c0.2,0.1,0.2,0.3,0.3,0.6c-0.1,0.2-0.1,0.6-0.1,0.8
	c0,0-0.1,0-0.1,0.1v0.1c0,0.1-0.1,0.3-0.2,0.3c0,0.1-0.1,0.1-0.1,0.2c-0.2,0.1-0.5,0.2-0.7,0.2c-0.1,0.1-0.2,0.2-0.3,0.3
	c0,0,0,0.1,0,0.2c-0.1,0.1-0.2,0.1-0.3,0.1c-0.2,0-0.3-0.2-0.5-0.2c0.1,0-0.1-0.1-0.1-0.1c-0.1,0-0.1,0-0.2,0
	c-0.2,0-0.3,0.1-0.3,0.1h-0.1c-0.1,0-0.1,0-0.2,0.1h-0.1c-0.2,0.1-0.2,0.2-0.4,0.3c-0.1,0.3-0.1,0.7-0.3,0.9c-0.3,0.1-0.6-0.2-1,0
	c-0.2,0.1-0.3,0.3-0.4,0.4c-0.2,0-0.3,0.2-0.4,0.2l-0.1,0.1c-0.1,0.1-0.3,0.1-0.5,0.1c0,0,0,0.1-0.1,0.1c-0.2,0.1-0.3,0.1-0.4,0.1
	L29.8,21c-0.1,0-0.1,0.1-0.2,0.1c-0.1,0.1-0.2,0.1-0.2,0.2c0,0.2-0.1,0.2-0.2,0.2c-0.2,0.1-0.5,0.2-0.5,0.3h-0.1
	c-0.1,0.1-0.3,0.1-0.4,0.2l-0.1,0.1l0,0l0,0c-0.2,0.1-0.4,0-0.6,0.1c0,0,0,0.1-0.1,0.1s-0.1,0-0.2,0.1c-0.1,0.1-0.2,0.2-0.5,0.2
	c-0.1,0,0,0.1-0.1,0.1c-0.4,0.1-0.9,0.1-1.3,0.2c-0.2,0.1-0.4,0.2-0.6,0.2c-0.4,0.1-0.8,0-1.2,0.1c-0.2,0-0.5,0.1-0.7,0.2
	c-0.3,0.1-0.6,0-0.9,0.1c-0.2,0-0.4,0.1-0.5,0.1c-0.4,0.1-0.8,0.1-0.9,0.2h-0.1c-0.2,0.1-0.4,0.4-0.6,0.6c-0.2,0.1-0.2,0.1-0.3,0.2
	c-0.1,0.1-0.3,0.1-0.4,0.2h-0.2c-0.1,0,0,0.1-0.1,0.1c-0.4,0.2-0.6,0.3-1,0.3c-0.1,0,0,0-0.1-0.1c-0.1,0-0.3,0-0.4-0.1
	s-0.4-0.1-0.3-0.3c0.2-0.2,0.4-0.1,0.6-0.2c0.3-0.1,0.6-0.2,0.8-0.3c0.1,0,0.2-0.1,0.2-0.1c0.1,0,0-0.1,0.1-0.1
	c0.2-0.1,0.3-0.2,0.5-0.3c0.3-0.2,0.7-0.5,0.9-0.7c0.1-0.1,0.2-0.2,0.3-0.3c0.1,0,0.3-0.2,0.2-0.4c-0.1-0.1-0.1-0.2-0.2-0.2
	c-0.2-0.1-0.3,0-0.5,0c0,0,0,0-0.1-0.1h-0.1c-0.4,0-0.8,0-1.3,0.1c-0.4,0.1-0.8,0.1-1.1,0.2c-0.3,0-0.8,0.2-0.9,0.1h-0.1
	c-0.1,0-0.2-0.1-0.4-0.1c-0.2-0.1-0.3-0.2-0.5-0.3c-0.1,0-0.1,0-0.2,0s-0.1-0.1-0.2-0.1c-0.2,0-0.3,0-0.3,0.1
	c-0.1,0-0.2,0.1-0.3,0.1c0,0,0,0-0.1,0s0,0.1-0.1,0.1c-0.3,0.1-0.5,0.2-0.8,0.3c-0.1,0-0.2,0-0.3,0c-0.3,0-0.6,0.1-0.7,0h-0.1
	c-0.2,0-0.4-0.2-0.5-0.2c-0.1-0.1-0.3-0.1-0.4-0.1c0,0-0.1-0.1-0.2-0.1c-0.1,0-0.2,0-0.2,0c-1.1-0.2-1.7,0.9-2.8,1
	c-0.2-0.2-0.4-0.3-0.4-0.6c-0.1-0.1-0.5-0.3-0.4-0.6c0-0.2,0.3-0.3,0.5-0.3c0.5-0.2,1.2-0.4,1.9-0.4c0.3,0,0.6,0.2,0.8,0.1
	c0.1,0,0.1-0.1,0.2-0.1c0.1-0.1,0.3-0.1,0.3-0.2c0.3-0.3,0.5-0.4,0.6-0.5v0.1h0.1c0.1,0,0.1,0,0.2,0h0.1c0.1,0,0.1,0.1,0.2,0.1
	s0.2,0.1,0.3,0.1c0.1,0,0.1,0.1,0.2,0.1s0.1,0,0.1,0H13V21h0.1c0.1,0,0.2,0,0.3,0c0.3,0,0.6,0.1,0.9,0c0.2,0,0.4-0.2,0.4-0.3
	c0.1,0,0.1-0.1,0.2-0.1c0.3-0.1,0.6,0.1,0.8,0.1c0.2,0.1,0.5,0.1,0.7,0.1s0.5-0.2,0.5-0.2H17c0.3-0.1,0.3-0.1,0.4-0.1s0,0,0.1,0.1
	c0.1,0,0.1,0,0.2,0c0.4,0.1,0.7,0.2,1,0.2c0.1,0,0-0.1,0.1-0.1s0.2,0,0.3,0c0,0,0-0.1,0.1-0.1s0.1,0,0.2-0.1s0.3-0.1,0.4-0.2
	c0.2-0.1,0.4-0.3,0.6-0.4c0.2-0.3,0.1-0.6,0.1-1c-0.2,0-0.2-0.2-0.2-0.2h-0.1c-0.1,0-0.1-0.1-0.2-0.1s-0.2,0-0.3,0
	c-0.3-0.1-0.7-0.1-1-0.1c-0.4,0-0.8,0.2-1.2,0.3c-0.1,0,0,0-0.1-0.1c-0.1,0-0.1,0-0.2,0s-0.4-0.1-0.5-0.1c-0.4,0-0.5,0.1-0.8,0.1
	c-0.7,0.2-1.3,0-1.8,0.2c-0.2,0.2-0.4,0.4-0.8,0.5c-0.3,0-0.7-0.2-1.1-0.3c-0.1,0-0.2,0-0.3,0c-0.1,0-0.3,0-0.3,0
	c-0.5,0-1,0.3-1.5,0.3c-0.1,0,0,0-0.1-0.1c-0.1,0-0.1,0-0.2,0c-0.3,0-0.6-0.2-1-0.2c-0.2,0-0.3,0-0.5,0c0,0,0,0-0.1-0.1
	c-0.2,0-0.4,0-0.5-0.1H7.6c0,0-0.1-0.1-0.2-0.1c-0.1-0.1-0.3-0.1-0.3-0.3c0-0.1,0.1-0.2,0.2-0.3c0-0.1,0.1-0.1,0.2-0.2
	c0.1-0.1,0.1-0.1,0.2-0.2c0,0,0.1,0,0.1-0.1c0.3-0.2,0.5-0.6,0.8-0.6c0.2,0,0.5,0.1,0.6,0.2c0,0,0,0,0.1,0s0.1,0,0.1,0.1
	c0.2,0,0.4,0,0.6,0c0.2-0.1,0.5-0.1,0.8-0.2c0.4-0.1,0.7-0.3,1-0.3s0.5,0,0.8,0c0.4,0,0.8-0.1,1-0.1c0.3,0,0.5,0,0.8,0
	c0.2,0,0.2,0,0.4,0c0.1,0,0.1,0.1,0.1,0.1c0.2,0,0.3,0,0.3,0s0,0,0.1,0s0.1,0,0.1,0.1c0.3,0,0.6,0,1,0c0.4,0,0.7,0.1,1,0
	c0.2,0,0.4-0.1,0.7-0.2c0.2,0,0.5,0,0.7,0c0-0.1,0.1,0,0.1-0.1l0.1-0.1c0.3-0.2,0.3-0.5,0.3-0.8c0-0.3-0.1-0.6-0.1-0.7
	c-0.1-0.2-0.2-0.2-0.3-0.3c-0.3-0.2-0.7,0.1-0.9,0h-0.1c-0.2,0-0.5-0.1-0.6-0.2h-0.2c-0.1,0-0.1,0-0.2,0h-0.1c0,0-0.1-0.1-0.2-0.1
	s-0.1,0-0.2,0c0,0-0.1-0.1-0.2-0.1s-0.1,0-0.2,0c-0.1,0-0.1-0.1-0.2-0.1s0,0-0.1-0.1c-0.2-0.1-0.6-0.1-0.8-0.1
	c-0.1,0-0.2,0.1-0.4,0.1c0,0,0,0.1-0.1,0.1c-0.3,0.1-0.5,0.1-0.7,0.1c-0.5,0-1.3,0.2-1.6,0.3c-0.2,0.1-0.5,0.2-0.6,0.3
	c0,0,0,0-0.1,0s0,0.1-0.1,0.1c-0.2,0.1-0.4,0.2-0.5,0.3s-0.2,0.2-0.2,0.2c-0.1,0-0.2,0.1-0.2,0.2c-0.1,0.1-0.2,0.1-0.3,0.2v0.1H10
	v0.1c-0.1,0-0.1,0.1-0.2,0.1c0,0-0.1,0.1-0.2,0.2c-0.2,0.1-0.3,0-0.5-0.1c-0.1-0.2,0-0.3,0.2-0.3c0.1-0.2,0.3-0.2,0.4-0.3
	c0.2,0,0.3-0.4,0.4-0.5c0.1-0.2,0-0.4,0-0.5c0-0.2,0.1-0.3,0.2-0.4c0.3-0.1,0.5,0,0.8-0.1c0-0.1,0.1-0.1,0.2-0.2
	c0.2-0.2,0.2-0.5,0.3-0.7c0-0.1,0.1-0.2,0.2-0.2c0-0.1,0.1-0.2,0.2-0.2c0.1-0.1,0.2-0.1,0.2-0.2c0.1-0.1,0.1-0.2,0.1-0.3
	c-0.2-0.3-0.6-0.3-0.7-0.7c-0.1-0.3,0.1-0.5,0-0.9c-0.1-0.2-0.3-0.2-0.5-0.3c-0.2-0.1-0.5,0-0.5-0.4c0.1-0.2,0.3-0.1,0.4-0.2
	c0.2-0.1,0.3-0.1,0.4-0.2V9.7h0.1c0-0.1,0-0.1,0-0.2s0.1-0.1,0.1-0.1c0.1-0.4-0.1-1-0.6-1.1c-0.2,0.1-0.3,0.3-0.3,0.4s0,0.3-0.2,0.3
	c-0.4,0-0.4-0.5-0.8-0.5C9.5,8.5,9.3,8.7,9,8.7C8.7,8.6,8.5,8.4,8.1,8.4C7.7,8.5,7.9,9,7.4,9C7.2,8.8,7.3,8.3,6.9,8.3
	C6.3,8.4,5.8,8.7,5.3,8.9V9H5.2L5.1,9.1H5c-0.1,0-0.2,0.1-0.2,0.2C4.6,9.4,4.2,9.6,4,9.2C3.5,9.4,3.6,9.2,3.6,9.1z M2.3,20
	c-0.1,0-0.1,0.1-0.3,0.1C1.9,20,1.8,20,1.8,19.9c0,0-0.1,0-0.1-0.1s0-0.2,0-0.3C1.8,19.3,1.9,19,2.2,19C2.6,19.2,2.4,19.7,2.3,20
	 M2.9,22.9c-0.2-0.1-0.3-0.1-0.4-0.4c0-0.2,0.1-0.2,0.2-0.3v-0.1c0-0.1,0.2-0.1,0.2-0.2C3,21.8,3,21.7,3.1,21.7
	c0.2-0.1,0.5-0.3,0.6-0.2c0,0.1,0.1,0,0.1,0c0.1,0,0,0.1,0.1,0.2H4C4.3,22.2,3.4,22.8,2.9,22.9 M3.6,19.4c-0.1,0-0.1,0-0.2,0
	c0-0.1-0.1-0.1-0.1-0.2c0.2-0.3,0.2-0.8,0.7-0.9c0,0.1,0.1,0.1,0.2,0.1C4.2,18.9,3.8,19.1,3.6,19.4 M6.4,16.9
	c0.1-0.3,0.7-0.4,0.7-0.1C7.1,17.2,6.4,17.5,6.4,16.9 M30.6,9.9h-0.1c-0.1,0-0.1,0-0.2,0c-0.1,0-0.2-0.1-0.4-0.1
	c-0.1-0.1-0.2-0.3-0.3-0.5c-0.1-0.1-0.2-0.2-0.4-0.3h0.1c0.1,0,0.2,0,0.2,0s0.1,0,0.2,0.1c0.2,0.2,0.4,0.3,0.6,0.3
	c0,0,0.1,0,0.1,0.1c0,0,0.1,0,0.1,0.1c0.1,0.1,0.2,0.2,0.4,0.3c0,0,0,0,0.1,0C30.9,9.9,30.7,9.9,30.6,9.9 M36.8,8.3
	c0-0.1,0-0.1,0-0.2L36.9,8c0.1-0.1,0.2-0.3,0.4-0.3c0.2,0,0.2,0,0.3,0c0.1,0,0,0,0.1,0.1C38,7.9,38.1,8,38.2,8.3c0.1,0.4,0,0.7,0,1
	c0,0.1,0,0.1,0,0.2c0,0.3,0,0.6,0.1,0.8h-0.1c0,0,0.1,0.3,0.1,0.4c0.1,0.4,0,0.7,0,0.9c-0.1,0.5,0.2,1.5,0.1,2c0,0.1,0,0.1,0,0.2
	c0,0.5,0.1,1.2,0.1,1.7c0,0.3,0.1,0.7,0.1,0.8v0.1c0,0.2,0,0.2,0,0.3c0,0.5,0.2,0.9,0.3,1.2c0,0.2,0,0.3,0,0.4
	c0,0.1-0.1,0.1-0.1,0.1c0,0.6,0.2,1.2-0.2,1.6h-0.1c0,0,0,0.1-0.1,0.1c-0.1-0.1-0.2,0-0.3-0.1c-0.1,0-0.2-0.2-0.2-0.2
	c0-0.1,0,0-0.1-0.1c0-0.1-0.1-0.2-0.1-0.3l-0.1-0.1c0-0.1,0-0.3,0-0.4c0-0.1,0-0.2,0-0.3l0.1-0.1c0-0.1,0-0.2,0-0.4
	c0-0.1,0.1-0.3,0.1-0.4c0-0.2-0.1-0.4-0.1-0.6c0,0,0.1,0,0.1-0.1s0-0.1,0-0.2s0-0.1,0-0.3c0-0.4-0.2-0.7-0.2-1.1
	c0-0.3,0.1-0.6,0.1-0.9c0-0.5-0.1-0.9-0.2-1.4c0-0.5-0.1-1-0.2-1.4c-0.1-0.4-0.3-0.6-0.4-1c0-0.3,0.1-0.7,0-1.2
	c0-0.2-0.1-0.4-0.2-0.5C36.7,8.9,36.8,8.6,36.8,8.3C36.7,8.3,36.8,8.3,36.8,8.3 M0.5,9.7C0.8,10,0.4,10.4,0,10.2
	C-0.1,9.9,0.2,9.7,0.5,9.7 M20,13.3c0.1,0,0.4,0.3,0.5,0.3s0.1,0.1,0.2,0.1h0.1c0.1,0.1,0.5,0.1,0.8,0.1c0.7-0.1,1.4-0.6,2.5-0.7
	c0.1-0.1,0.2-0.2,0.3-0.3c0.1-0.1,0.1-0.2,0.2-0.3c0.1-0.1,0.1-0.2,0.2-0.3c0.1-0.1,0.2-0.1,0.3-0.2c0.3-0.1,0.4,0,0.7-0.1
	c0.1,0,0.1-0.1,0.2-0.1s0,0,0.1-0.1l0.2-0.1c0.1-0.1,0-0.1,0-0.2s0.1-0.1,0.1-0.1v-0.1c0,0,0.1-0.1,0-0.2c0-0.1-0.1-0.1-0.2-0.1
	c0,0-0.1-0.1-0.1-0.2c-0.1,0-0.2,0-0.2,0c-0.1,0-0.1-0.1-0.2-0.2c-0.1,0-0.1,0-0.2,0c-0.1-0.1-0.2-0.2-0.3-0.2
	c-0.3-0.2-0.6-0.7-0.9-0.8c-0.4-0.1-0.6,0.2-0.9,0.1c-0.2,0-0.4-0.2-0.7-0.3c0,0,0-0.1-0.1-0.1h-0.1c0,0-0.1-0.1-0.2-0.1h-0.1
	C22.1,9,21.8,9,21.5,9c-0.2,0-1.2,0-1.5,0.3c0,0-0.2,0.3-0.2,0.4s-0.1,0.2-0.1,0.2c0,0.1-0.1,0.3-0.2,0.4s-0.2,0.1-0.3,0.1
	c0,0,0,0.1-0.1,0.1H19c-0.1,0.1-0.4,0.1-0.6,0.3c0,0,0,0.1-0.1,0.1s-0.2,0.1-0.2,0.2c-0.1,0.1-0.3,0.3-0.5,0.3s-0.3,0-0.5,0
	c-0.1,0-0.3-0.1-0.4-0.1c-0.6,0-1.1,0.2-1.1,0.6c0,0.1,0.1,0.3,0.3,0.3H16v0.1c0.2,0,0.5-0.1,0.7-0.1c0.4,0.1,0.8,0.4,1.2,0.6
	c0,0,0,0.1,0.1,0.1h0.1c0.1,0,0.2,0.1,0.2,0.2h0.1c0.1,0,0.1,0,0.2,0s0.1,0,0.2,0C19.3,13.2,19.7,13.2,20,13.3
	C19.9,13.3,19.9,13.3,20,13.3 M20.1,11.6c0.1-0.1,0.3-0.2,0.4-0.3c0.2-0.2,0.4-0.4,0.5-0.8c0,0,0,0,0-0.1c0.1,0,0.2,0,0.3,0l0,0
	c0.1,0,0.2,0,0.3,0l0,0c0.1,0,0.1,0,0.2,0.1l0,0c0.1,0,0.1,0,0.2,0.1h0.1c0.2,0.1,0.5,0.2,0.8,0.3c0.1,0,0.3,0,0.4,0s0.3,0,0.4,0
	l0,0L23.6,11c-0.1,0.1-0.2,0.3-0.3,0.3l0,0c0,0.1-0.1,0.1-0.1,0.2c-0.6,0.1-1,0.3-1.4,0.4c-0.2,0.1-0.4,0.2-0.5,0.2l0,0h-0.1h-0.1
	H21c-0.1-0.1-0.2-0.2-0.4-0.2c-0.1,0-0.2-0.1-0.3-0.1c-0.1,0-0.3-0.1-0.4-0.1C20,11.7,20.1,11.7,20.1,11.6 M23,16.1
	c0.3-0.1,0.6-0.2,0.8-0.3c0.4,0,0.9,0.2,1.2,0.1c0.3,0,0.6-0.2,1-0.3c0.7-0.2,1.5-0.1,2-0.3c0.2-0.1,0.3-0.2,0.4-0.3
	c0.1-0.1,0.2-0.2,0.4-0.3c0.3-0.1,0.6,0,1,0c0.3,0,0.6-0.2,0.8-0.3h0.1c0.1,0,0.4-0.1,0.6-0.2c0.1-0.1,0.3-0.2,0.4-0.2
	c0.4-0.1,0.8-0.1,1.2-0.3c0.1,0,0.2-0.1,0.3-0.1c0.2-0.1,0.5-0.1,0.6-0.4c0-0.2-0.1-0.2-0.3-0.3c-0.1,0-0.1,0-0.2,0
	c0,0-0.1-0.1-0.2-0.1c-0.3,0-0.7,0.1-0.9,0.1h-0.1H32c-0.1,0-0.2,0-0.4-0.1c0,0,0-0.1-0.1-0.1s-0.2-0.1-0.4-0.1H31
	c-0.1-0.1-0.5,0.1-0.7,0.1c-0.2,0-0.4-0.1-0.5-0.3c-0.1-0.1-0.2-0.3-0.5-0.4c0,0-0.1-0.1-0.2-0.1H29l-0.1-0.1
	c-0.3,0-0.6,0.2-0.9,0.2s-0.7,0-0.9,0c-0.4,0.1-0.5,0.4-0.9,0.7h-0.1c-0.1,0.1-0.3,0.1-0.6,0.1c-0.1,0-0.1,0-0.2,0s-0.2,0.1-0.3,0.1
	V13h-0.1c0,0.1,0,0.2-0.2,0.2c-0.1,0-0.1,0.1-0.1,0.1h-0.1c-0.1,0.1-0.4,0.2-0.6,0.3c0,0,0,0.1-0.1,0.1c-0.1,0.1-0.2,0.1-0.4,0.2
	C23.3,14,23.2,14,23,14.1c-0.1,0-0.2,0.1-0.3,0.1v0.1h-0.1v0.1c-0.1,0.1-0.2,0-0.3,0.1c0,0,0,0.1-0.1,0.1l-0.1,0.1
	c-0.7,0.2-1.3,0-2.1,0.2c-0.1,0.2-0.3,0.3-0.4,0.5c0,0.1,0,0.2-0.1,0.3v0.1c0,0.2,0.2,0.4,0.4,0.5c0.1,0,0.1,0.1,0.2,0.1
	c0.5,0.1,1.5-0.6,2.4-0.6C22.7,16.1,22.8,16.2,23,16.1 M27.6,13.8C27.7,13.8,27.7,13.8,27.6,13.8L27.6,13.8l-0.1,0.1L27.4,14l0,0
	C27.5,13.9,27.6,13.8,27.6,13.8 M22.2,20.1c0,0,0.1-0.1,0.2-0.1v-0.1c0.1-0.1,0.1-0.1,0.2-0.1c0,0,0-0.1,0.1-0.1s0.1-0.1,0.1-0.1
	h0.1c0.1-0.1,0.2-0.1,0.4-0.3l0.1-0.1c0.1-0.1,0.3-0.1,0.4-0.2v-0.1c0.1-0.1,0.1-0.1,0.2-0.2s0.2-0.4,0.4-0.4l0.1-0.1l0.1-0.1
	c0.1-0.1,0.3-0.2,0.4-0.2c0.2-0.1,0.6,0,0.8-0.1c0.3,0,0.5-0.1,0.8-0.3c0.1-0.1,0.5-0.1,0.8-0.2c0,0,0-0.1,0.1-0.1s0.3-0.2,0.4-0.3
	c0.2-0.1,0.4-0.2,0.4-0.4c0.1,0,0.2-0.3,0-0.3c-0.1-0.3-0.5-0.1-0.6,0c-0.2,0-0.3,0.1-0.5,0.1h-0.1c-0.1,0.1-0.5,0.2-0.8,0.3
	c-0.2,0.1-0.4,0.2-0.6,0.2s-0.4,0-0.6,0S24.6,17,24.3,17s-0.7,0-1,0c-0.2,0-0.4,0.1-0.6,0.2c0,0,0,0.1-0.1,0.1
	c-0.3,0.1-0.6,0.2-1,0.3c-0.3,0.1-0.6,0.1-0.8,0.3c0,0.1-0.1,0.1-0.1,0.2l-0.1,0.1c0,0.1,0,0.2,0,0.3s0,0.3,0.2,0.5v0.1
	c0.1,0.1,0.2,0.5,0.3,0.6c0,0,0.1,0,0.1,0.1s0.3,0.2,0.4,0.3C21.8,20.4,22,20.2,22.2,20.1 M27.6,22L27.6,22L27.6,22L27.6,22L27.6,22
	z M13.7,12.3c0,0.3,0.5,0.5,0.7,0.3c0.2,0,0.1-0.2,0.2-0.2C14.5,11.9,13.8,11.8,13.7,12.3 M16.2,10.2c0.1,0,0.1-0.1,0.2-0.1
	s0.3-0.2,0.4-0.3c0.2-0.1,0.5,0,0.7-0.1c0,0,0-0.1,0.1-0.1s0.1,0,0.1-0.1c0.2-0.1,0.4-0.3,0.5-0.5c0.1-0.1,0.4-0.2,0.3-0.6
	c-0.4-0.3-0.9-0.1-1.4-0.2h-0.3c-0.1-0.1-0.1-0.1-0.2-0.1h-0.2V8h-0.1c-0.1-0.1-0.4-0.1-0.6,0c-0.2,0.1-0.5,0.4-0.7,0.5h-0.1
	c-0.1,0-0.1,0.1-0.1,0.1c-0.2,0-0.3,0-0.4,0s-0.1,0-0.2,0s-0.7,0-0.9,0.2c-0.2,0-0.1,0.2-0.2,0.3c0,0.2,0.1,0.3,0.2,0.4h0.1
	c0.1,0.1,0.1,0.1,0.2,0.2c0.2,0.2,0.5,0.3,0.7,0.4c0,0.1,0.1,0,0.2,0.1c0.4-0.1,0.9-0.3,1.3-0.3C15.9,10.2,16,10.3,16.2,10.2
	 M28,20.8C28,20.8,28.1,20.8,28,20.8c0.1-0.1,0.2-0.2,0.2-0.2c0.1-0.1,0.4-0.2,0.6-0.3c0.1-0.1,0.2-0.1,0.3-0.1c0,0,0-0.1,0.1-0.1
	s0.1-0.1,0.2-0.1c0.1,0,0.2-0.1,0.3-0.1l0.1-0.1c0.1-0.1,0.1,0,0.2-0.1l0.1-0.1h0.1c0.1-0.1,0.4-0.2,0.6-0.3c0,0,0-0.1,0.1-0.1
	s0.2-0.2,0.3-0.2c0.2-0.1,0.3-0.4,0.5-0.6c0.1-0.1,0.1-0.2,0.2-0.2H32v-0.1h0.1c0.1-0.1,0.5-0.3,0.8-0.4c0,0,0-0.1,0.1-0.1h0.2
	c0-0.1,0.1-0.1,0.2-0.2c0.2-0.1,0.3-0.3,0.3-0.4s-0.1-0.4-0.2-0.5l-0.2-0.1c0.1,0-0.5-0.1-0.6,0v0.1h-0.1c0,0.1-0.1,0.1-0.3,0.2
	c-0.1,0-0.2,0.1-0.3,0.1c-0.5,0.1-0.8-0.2-1-0.1l-0.2,0.1c-0.1,0.1-0.2,0.3-0.4,0.3c-0.1,0-0.1,0.1-0.3,0.1
	c-0.1,0.1-0.3,0.2-0.4,0.2s-0.2,0.2-0.3,0.3c0,0-0.1,0-0.1,0.1c-0.1,0.1-0.1,0.1-0.2,0.2c-0.1,0-0.1,0.1-0.2,0.1l-0.2,0.1
	c-0.1,0.2-0.7,0.2-1,0.4c-0.1,0-0.3,0.2-0.4,0.2c-0.4,0.1-1,0-1.6,0.1c0,0,0,0.1-0.1,0.1c-0.1,0.1-0.4,0.1-0.5,0.2
	c0,0,0,0.1-0.1,0.1s-0.1,0.2-0.2,0.4c0,0.1,0,0.2-0.1,0.3c0,0-0.1,0-0.1,0.1c0,0.2-0.6,0.5-1,0.9c0,0,0,0.1-0.1,0.1
	s-0.1,0.1-0.2,0.2l-0.1,0.1l-0.1,0.1c-0.1,0.1-0.3,0.1-0.4,0.2c0-0.4-0.4-0.3-0.6-0.2H22c0,0.1,0,0.1-0.1,0.1
	c-0.1,0.1-0.3,0.2-0.3,0.4c-0.1,0.3,0.1,0.5,0.3,0.5c0.2,0.1,0.6,0,1,0c0.1,0,0.1,0,0.2,0c0.3,0,0.5-0.1,0.7-0.2c0.1,0,0.2,0,0.5,0
	c0,0,0,0.1,0.1,0.1c0.2,0,0.5-0.1,0.7-0.2c0,0,0-0.1,0.1-0.1s0.3,0,0.5-0.1c0,0,0-0.1,0.1-0.1c0.3-0.1,0.7-0.4,1-0.6h0.1
	c0.1-0.1,0.4-0.1,0.6-0.2C27.7,21.1,27.8,21,28,20.8C28,20.9,28,20.8,28,20.8 M26.1,20.1L26.1,20.1C26.1,20.1,26.1,20,26.1,20.1
	l0.1-0.1h0.1C26.2,20,26.2,20,26.1,20.1 M21.4,25.1c-0.2,0.1-0.2-0.1-0.3-0.1c-0.1-0.3,0.2-0.4,0.3-0.6c0.1-0.1,0.2-0.3,0.3-0.6h0.4
	C22.1,24.3,21.7,24.8,21.4,25.1 M23.6,29.5c-0.4-0.5-0.4-0.8,0-1.3c0.6-0.1,0.7,0.2,0.9,0.5C24.5,29.3,24.2,29.5,23.6,29.5
	 M25.8,25.9c-0.1,0.2-0.5,0.1-0.5,0.4c-0.2-0.2-0.6-0.2-0.6-0.4c-0.2,0-0.1-0.4-0.4-0.4c0.2-0.4,0.3-0.8,0.7-0.9
	c0.5,0,0.6,0.3,0.9,0.5C26,25.5,25.7,25.6,25.8,25.9 M26.9,15.5c-0.1,0-0.3,0.1-0.4,0.3c0,0.1,0,0.1-0.1,0.2l-0.1,0.1
	c0,0.4,0,0.9-0.1,1.2c0,0-0.1,0-0.1,0.1s-0.2,0.4-0.3,0.5L25.7,18v0.1c-0.1,0.1-0.2,0.2-0.3,0.3c0,0.1-0.1,0.1-0.1,0.3
	c0,0.3,0.5,0.6,0.6,0.9c0,0.2,0,0.3-0.1,0.5c0,0,0,0.2-0.1,0.3l-0.1,0.1c0.1,0,0.1,0.2,0,0.3l-0.1,0.1c-0.1,0.1-0.1,0.3-0.2,0.4H25
	c-0.2-0.3-0.1-0.7-0.3-1.1c0,0-0.1,0-0.1-0.1c-0.1-0.3-0.1-1,0-1.5c0-0.1,0-0.1,0.1-0.3c0-0.1,0.1-0.1,0.1-0.1c0-0.4,0-0.7,0.1-0.9
	c0.1-0.2,0.2-0.5,0.3-0.8c0-0.1,0-0.2,0.1-0.3c0,0,0.1,0,0.1-0.1s0-0.1,0.1-0.3l0.1-0.1l0.1-0.1c0.1-0.3,0.1-0.7,0.3-0.9
	c0.2,0,0.4,0,0.6,0.1c0.2,0,0.4,0,0.4,0.2C27.2,15.4,27,15.4,26.9,15.5 M27.3,18.7L27.3,18.7c0-0.1,0-0.1,0-0.1
	c0-0.1,0.1-0.1,0.2-0.2C27.4,18.5,27.3,18.6,27.3,18.7 M43.4,12.1c0.2,0.1,0.4,0.3,0.3,0.7c0,0-0.1,0-0.1,0.1c0,0.2-0.4,0.3-0.4,0.5
	c-0.2,0.1-0.2-0.1-0.3-0.1c-0.1-0.1-0.2-0.3-0.3-0.4c0-0.1-0.1-0.2-0.1-0.4c0,0,0-0.1-0.1-0.1c0-0.2,0.2-0.2,0.3-0.4
	C42.9,12.1,43.2,12,43.4,12.1 M42.4,7.9c0.1-0.1,0.2,0,0.2-0.1c0.3,0,0.6,0.6,0.2,0.8c-0.2,0-0.1-0.1-0.3-0.1
	C42.4,8.4,42.3,8,42.4,7.9 M27.7,17.7c0.1-0.3,0.1-0.6,0.1-0.9C28,17,28,17.3,27.7,17.7 M39.1,2.4L39.1,2.4c0.2-0.4,0.2-0.5,0.4-0.8
	c0.2-0.1,0.5-0.4,0.7-0.7c0.1-0.2,0.2-0.4,0.4-0.6c0.1-0.1,0.1-0.2,0.3-0.3H41c0-0.1,0,0,0.1,0h0.1v0.1h0.1c0.1,0.1,0.4,0.3,0.4,0.5
	S41.6,0.9,41.6,1s-0.2,0.3-0.3,0.5c0,0.1,0,0.3,0.1,0.4L41.5,2c0,0.1,0,0.3-0.1,0.4l-0.1,0.1c-0.1,0.1-0.1,0.2-0.2,0.3
	c0,0.4-0.3,0.6-0.4,0.7c-0.2-0.1-0.2,0.1-0.4,0.1c-0.1,0-0.8-0.1-0.9-0.2c0,0-0.3-0.3-0.3-0.4V2.9C39.1,2.8,39,2.7,39.1,2.4
	 M37.5,8.3c0-0.1,0-0.1,0-0.2L37.6,8c0.1-0.1,0.2-0.3,0.4-0.3c0.2,0,0.2,0,0.3,0c0.1,0,0,0,0.1,0.1c0.3,0.1,0.4,0.2,0.5,0.5
	c0.1,0.4,0,0.7,0,1c0,0.1,0,0.1,0,0.2c0,0.3,0,0.6,0.1,0.8h-0.1c0,0,0.1,0.3,0.1,0.4c0.1,0.4,0,0.7,0,0.9c-0.1,0.5,0.2,1.5,0.1,2
	c0,0.1,0,0.1,0,0.2c0,0.5,0.1,1.2,0.1,1.7c0,0.3,0.1,0.7,0.1,0.8v0.1c0,0.2,0,0.2,0,0.3c0,0.5,0.2,0.9,0.3,1.2c0,0.2,0,0.3,0,0.4
	c0,0.1-0.1,0.1-0.1,0.1c0,0.6,0.2,1.2-0.2,1.6h-0.1c0,0,0,0.1-0.1,0.1c-0.1-0.1-0.2,0-0.3-0.1l-0.1-0.2c0-0.1,0,0-0.1-0.1
	s-0.2-0.2-0.2-0.4l-0.1-0.1c0-0.1,0-0.3,0-0.4c0-0.1,0-0.2,0-0.3l0.1-0.1c0-0.1,0-0.2,0-0.4c0-0.1,0.1-0.3,0.1-0.4
	c0-0.2-0.1-0.4-0.1-0.6c0,0,0.1,0,0.1-0.1s0-0.1,0-0.2c0-0.1,0-0.1,0-0.3c0-0.4-0.2-0.7-0.2-1.1c0-0.3,0.1-0.6,0.1-0.9
	c0-0.5-0.1-0.9-0.2-1.4c0-0.5-0.1-1-0.2-1.4c-0.1-0.4-0.3-0.6-0.4-1c0-0.3,0.1-0.7,0-1.2c0-0.2-0.1-0.4-0.2-0.5
	C37.5,8.9,37.5,8.6,37.5,8.3C37.4,8.3,37.5,8.3,37.5,8.3"/>
</svg>
