<?xml version="1.0" encoding="utf-8"?>
<!-- Generator: Adobe Illustrator 27.7.0, SVG Export Plug-In . SVG Version: 6.00 Build 0)  -->
<svg version="1.1" id="Layer_1" xmlns="http://www.w3.org/2000/svg" xmlns:xlink="http://www.w3.org/1999/xlink" x="0px" y="0px"
	 viewBox="0 0 52.8 24.2" style="enable-background:new 0 0 52.8 24.2;" xml:space="preserve">
<style type="text/css">
	.st0{fill:#FB5B26;}
</style>
<path class="st0" d="M31.3,3.7c-0.3,0-0.3,0.8-0.6,0.8c-0.3,0-0.3-0.8-0.6-0.8c-0.3,0-0.3,0.4-0.6,0.4c-0.3,0-0.3-0.4-0.6-0.4
	C28.5,3.6,28.5,3,28.2,3s-0.3,0.3-0.6,0.3c-0.3,0-0.3,0.6-0.6,0.6c-0.3,0-0.3,0.4-0.6,0.4c-0.3,0-0.3-1.2-0.6-1.2
	c-0.3,0-0.3,0.7-0.6,0.7c-0.3,0-0.3,0.1-0.6,0.1c-0.3,0-0.3-0.8-0.6-0.8c-0.3,0-0.3,0.8-0.6,0.8c-0.3,0-0.3-0.9-0.6-0.9
	c-0.5,0-0.5,0-0.8,0s-0.3,0.8-0.6,0.8c-0.3,0-0.3,0.3-0.6,0.3c-0.3-0.1-0.3-1-0.6-1s-0.3,0-0.6,0c-0.3,0-0.3,0.3-0.6,0.3
	c-0.3,0-0.3,0.3-0.6,0.3c-0.3,0-0.3,0-0.6,0c-0.3,0-0.3-0.6-0.6-0.6c-0.2,0-0.2,0.3-0.4,0.3c-0.1-0.1-0.4-0.2-0.4-0.3
	c0-0.3,0.7-0.3,0.7-0.7c0-0.3-0.7-0.3-0.7-0.7C16.4,1.4,16,1.4,16,1s0.8-0.3,0.8-0.7c0-0.2-0.8,0.3-1.1,0.2c-0.2-0.1,0-0.6-0.2-0.5
	c-0.3,0.1-0.2,0.3-0.5,0.4S14.9,0.9,14.6,1c-0.3,0.1-0.4-0.1-0.7,0.1c-0.3,0.1-0.3,0.2-0.5,0.3c-0.3,0.1-0.8-0.8-1-0.6
	c-0.3,0.1-0.1,0.4-0.4,0.5c-0.3,0.1-0.1,0.5-0.4,0.6c-0.2,0.4-0.3,0.2-0.6,0.4c-0.3,0.1-0.1,0.5-0.4,0.6C10.4,3.1,10.3,3,10,3.1
	C9.8,3.2,9.4,2.6,9.1,2.7c-0.3,0.1,0.1,0.8-0.2,1C8.7,3.8,8.7,3.8,8.4,4C8.1,4.1,7.9,3.8,7.7,4C7.4,4.1,7.9,5,7.6,5.1
	s-0.4-0.2-0.7,0C6.6,5.2,6.5,5,6.2,5.2c-0.3,0.1-0.3,0-0.6,0.2C5.3,5.5,5.1,5.1,4.8,5.2c-0.3,0.1,0.1,0.9-0.1,1
	C4.4,6.4,4.2,6,3.9,6.1C3.6,6.3,3.7,6.5,3.5,6.6C3.2,6.8,3.1,6.7,2.9,6.9C2.6,7,2.3,6.5,2.1,6.7C1.8,6.8,1.5,7.3,1.5,7.5
	s0.3,0.9,0.5,1C2.3,8.6,2.7,7.9,3,8c0.3,0.1-0.2,1.1,0.1,1.2c0.3,0.1,0.7-0.8,1-0.7c0.2,0.2,0.4-0.2,0.7,0c0.3,0.1-0.1,0.9,0.2,1
	C5.2,9.6,5.5,9,5.8,9.1S6,9.5,6.2,9.6c0.3,0.1,0.3,0.2,0.6,0.3C7.1,10,7.2,9.8,7.4,10c0.3,0.1,0.1,0.5,0.4,0.6s0,0.6,0.3,0.7
	c0.3,0.1,0.7-0.8,1-0.7s0.2,0.3,0.5,0.5c0.3,0.1,0.3,0.1,0.5,0.3c0.3,0.1,0.1,0.5,0.4,0.6s0.1,0.5,0.4,0.7c0.3,0.1,0.7-0.7,1-0.6
	c0.3,0.1,0.1,0.5,0.4,0.6c0.3,0.1,0.2,0.4,0.4,0.5c0.3,0.1,0.5-0.4,0.8-0.3c0.3,0.1-0.1,1,0.1,1.1c0.3,0.1,0.2,0.2,0.5,0.4
	c0.3,0.1,0.6-0.5,0.9-0.4c0.3,0.1,0.3,0,0.6,0.1c0.2,0.1,0.3,0.3,0.5,0.2c0.2-0.1,1.2-0.2,1.2-0.4c0-0.3-1.2-0.3-1.2-0.7
	c0-0.3,0.7-0.3,0.7-0.7c0-0.3-0.4-0.3-0.4-0.7c0-0.2,0.4,0,0.5-0.1s0.1-0.1,0.2-0.1c0.3,0,0.3-1,0.6-1s0.3,0,0.6,0
	c0.3,0,0.3,0.4,0.6,0.4c0.3,0,0.3,0,0.6,0c0.3,0,0.3,0.2,0.6,0.2c0.3,0,0.3,0.5,0.6,0.5c0.3,0,0.3,0.2,0.6,0.2c0.3,0,0.3,0,0.6,0
	c0.3,0,0.3-1.1,0.6-1.1c0.3,0,0.3,0.5,0.6,0.5c0.3,0,0.3-0.4,0.6-0.4c0.3,0,0.3-0.4,0.6-0.4c0.3,0,0.3,0.5,0.6,0.5
	c0.3,0,0.3-0.5,0.6-0.5c0.3,0,0.3,0.2,0.6,0.2c0.3,0,0.3,0.4,0.6,0.4c0.3,0,0.3-0.5,0.6-0.5c0.3,0,0.3,0.4,0.6,0.4
	c0.3,0,0.3,0.1,0.6,0.1c0.3,0,0.3-0.2,0.6-0.2c0.3,0,0.3-0.1,0.6-0.1c0.3,0,0.3-0.4,0.6-0.4c0.3,0,0.3,1.1,0.6,1.1
	c0.2,0,0.5-0.4,0.6-0.5s0.2-0.4,0.2-0.6c0-0.3,0.4-0.3,0.4-0.6s-0.4-0.3-0.4-0.6S32,8.9,32,8.6S31.8,8.3,31.8,8s-0.9-0.3-0.9-0.6
	c0-0.3,0.7-0.3,0.7-0.6c0-0.3-0.2-0.3-0.2-0.6c0.3,0.1,0.1,0.1,0.1-0.2s1.1-0.3,1.1-0.6c0-0.3-0.6-0.3-0.6-0.6s-0.3-0.3-0.3-0.6
	c0-0.2-0.3,0.2-0.4,0.1C31.2,4.2,31.4,3.7,31.3,3.7z"/>
<path class="st0" d="M45.5,13.2c-1.2,0.4-2.3,0.7-3.6,0.3c0,0-0.1-0.1-0.3-0.2c-0.2-0.1-0.4-0.2-0.6-0.2c-0.5,0.1-1,0-1.5,0
	c-0.3,0-0.7,0.1-1,0c-0.1,0-0.3,0-0.4,0c-0.6,0.1-1.2,0-1.8-0.3c-0.2-0.1-0.5-0.2-0.8-0.2c-0.5,0-0.8-0.1-1.2-0.3
	c-0.5-0.3-1.1-0.4-1.7-0.4c-0.1-0.2-0.3-0.4-0.4-0.6c-0.8,0.4-0.8,0.4-1.3,0.4c-0.3-0.2-0.6-0.5-0.9-0.7c0-0.4-0.4-0.9-0.1-1.5
	c0-0.1,0-0.1,0-0.2c-0.3-0.7-0.1-1.4-0.1-2.1c0-0.3-0.1-0.6-0.1-0.9c-0.1-0.3,0-0.6,0.2-0.8c0.5-0.6,0.5-0.6,0.6-1.2
	C31,4,31.6,3.9,32,3.4c-0.2-0.3-0.5-0.5-0.7-0.8C31.1,2.4,31,2.2,31.2,2c0.2-0.3,0.5-0.6,0.8-0.8c0.3-0.3,0.6-0.2,1,0.1
	c-0.1,0.1-0.3,0.3-0.4,0.5c0,0.3,0.3,0.5,0.6,0.7C33.6,2.7,34,3,34.5,2.9c0.3-0.7,0.9-1.1,1.5-1.6c0,0.5,0,0.5,0.2,0.8
	c0.5-0.1,1.1-0.3,1.7-0.4c0.3,0.2,0.7,0.4,1,0.6c0.2,0.2,0.5,0.3,0.7,0.1C40.1,2,40.8,2,41.4,1.9c0.5-0.1,0.9-0.3,1.2-0.6
	C42.8,1.1,43,1,43.1,0.8c1,0.2,1,0.2,0.6,0.8c-0.1,0.1-0.1,0.3-0.1,0.6C43.8,2.1,43.9,2.1,44,2c0.5-0.3,1-0.3,1.5-0.1
	C45.8,2,46.2,2,46.4,2c0.4-0.1,0.9-0.1,1.3-0.4c0.9-0.1,1.8-0.5,2.8-0.3c0.1,0.5,0.6,0.7,1.1,0.8c0,0.2,0,0.4,0,0.6
	c-0.4,0.1-0.8,0.3-1.3,0.4C50.2,3,50,2.9,49.9,2.9c-0.1-0.1-0.3-0.2-0.4-0.2c-0.6,0-1.2,0-1.9,0C48,3,48,3,48.6,3.1
	c0,0.3-0.2,0.4-0.5,0.4c-0.4,0-0.6,0.2-0.9,0.4C47,4,46.8,4.1,46.6,4.2c-0.1,0.4-0.1,0.6-0.2,0.9c0,0.3,0.2,0.5,0.6,0.7
	c0.3,0.2,0.6,0.3,0.9,0.6c0.3,0.2,0.6,0.3,0.9,0.4c0.7,0.1,1,0.4,1.1,0.9c0.1,0.4,0.2,0.7-0.1,1.1C49.6,9,49.2,9,48.9,9.1
	c-0.7,0.2-1.3,0.3-2,0.2c-0.1,0-0.2,0-0.3,0c-0.8,0.3-1.6,0.2-2.3,0.2c-0.3,0-0.6,0-0.8,0c-0.5,0.1-0.9,0.3-1.4,0.1
	c-0.3-0.1-0.6,0.1-0.8,0.4c0.4,0.3,0.9,0.4,1.4,0.3c0.2,0,0.4-0.1,0.6-0.1c0.5,0,0.9,0,1.3-0.3c0.3,0.1,0.6,0.2,0.9,0.3
	c0.3-0.1,0.7-0.3,1.1-0.5c0.4,0,0.7,0.1,0.9,0.1c0.8-0.1,1.6,0,2.3,0.1c0.4,0,0.8-0.1,1.2-0.2c0.3-0.1,0.7-0.2,1-0.3
	c0.4,0.3,1,0.6,0.8,1.2c-0.6,0.4-0.7,0.5-1.4,0.1c-0.5-0.3-0.9-0.5-1.6-0.3c-0.1,0.2-0.2,0.4-0.4,0.6c-0.2,0.2-0.4,0.3-0.6,0.4
	c-0.6-0.4-1.3-0.4-2.1,0c-0.4,0.2-0.7,0.3-1.2,0.2c-0.4-0.1-0.8,0-1.1,0.3c-0.7,0.2-1.4,0.1-2,0.1c-0.2,0-0.5,0-0.7,0.3
	c0.1,0.1,0.1,0.2,0.2,0.2c0.5,0.2,1.1,0.5,1.7,0.5c0.3,0,0.5-0.1,0.8-0.1C45.1,12.5,45.1,12.5,45.5,13.2z M36.5,5.7
	C36.9,6,37.4,6,37.6,6.3c0.1,0.1,0.4,0.1,0.7,0.2c0.4,0,0.8,0.1,1.2,0.1c0.4-0.2,0.8-0.3,1.2-0.5c0.5-0.2,0.5-0.3,0.3-0.9
	c-0.3-0.1-0.6-0.1-0.8-0.3c-0.3-0.2-0.4-0.4-0.7-0.6C38.4,4.6,37.4,4.9,36.5,5.7z M33.5,10.1c0,0.4,0.1,0.6,0.4,0.7
	c0.5,0.2,1.1,0.4,1.6,0.6c0.1,0,0.2,0,0.3,0.1c0.4,0.4,1,0.5,1.5,0.6c0.7,0.1,1.3,0.2,2,0.3c0.1,0,0.2-0.1,0.4-0.1
	c-0.6-0.3-1.1-0.4-1.5-0.8c-0.1-0.1-0.3-0.1-0.5-0.1c-0.1,0-0.3,0-0.5,0.1c0.1-0.1,0.1-0.2,0.2-0.2c0.2-0.4,0.1-0.5-0.4-0.6
	c-0.1,0-0.2,0-0.3,0c-0.5,0.2-1,0.1-1.5,0.1C34.6,10.3,34.6,10.3,33.5,10.1z M35.9,3.9c-0.5-0.3-0.9-0.3-1.4,0
	c-0.6,0.3-1.2,0.6-1.7,1s-0.7,0.7-0.7,1.3c0.3,0.1,0.6,0.1,0.9,0c0.4-0.2,0.9-0.3,1.1-0.6c0.2-0.5,0.9-0.3,1.1-0.7
	c0-0.1,0.1-0.1,0.2-0.1C35.5,4.4,35.7,4.2,35.9,3.9z M38.4,7.9c-0.6-0.1-1.2-0.2-1.7-0.5c-0.1-0.1-0.3,0-0.4-0.1
	c-0.5-0.1-0.9-0.1-1.5-0.2c-0.2,0.1-0.5,0.2-0.7,0.3c-0.3,0.2-0.7,0-0.9,0.4c0.5,0.5,0.9,0.1,1.5,0c0.6,0.4,1.3,0.5,2,0.4
	c0.1,0,0.3,0,0.4,0.1c0.4,0.1,0.8,0,1.2-0.1C38.3,8.2,38.4,8,38.4,7.9z M42,8.1C42.3,8,42.5,8,42.7,8c0.3,0.1,0.6,0,0.8,0
	c0.7-0.2,1.4-0.5,2.2-0.4c0.3,0,0.6,0,0.8-0.2c-0.3-0.3-0.6-0.4-1-0.4c-0.5,0-0.9,0.2-1.4,0C44,7,44,7,43.9,7
	c-0.7,0.2-1.4,0.4-2.1,0.6C41.9,7.7,41.9,7.9,42,8.1z M40.2,9.9c-0.7,0-1.3-0.1-2-0.1c0.6,0.4,1,0.7,1.4,1
	C40.1,10.6,40.2,10.3,40.2,9.9z M41.9,3.6c0.4,0.5,1,0.4,1.5,0.4c0.2,0,0.3-0.1,0.3-0.3c-0.4-0.1-0.7-0.2-1.1-0.3
	C42.3,3.3,42,3.3,41.9,3.6z M45.5,8.7c0.6,0.1,0.6,0.1,0.7-0.3c-0.2,0-0.4,0-0.7,0C45.5,8.5,45.5,8.6,45.5,8.7z M41.8,2.3
	c0,0.1,0,0.1,0,0.2c0.2,0,0.4,0.1,0.5-0.2C42.1,2.3,41.9,2.3,41.8,2.3z"/>
<path class="st0" d="M27.4,11.9c-0.3,0.5-0.5,0.9-1.3,1c-0.3-0.5-0.4-1-0.4-1.5c-0.1-0.9-0.1-1.8-0.2-2.6c0-0.9-0.2-1.9-0.2-2.8
	c0-0.2-0.1-0.3-0.1-0.5c-0.1-0.6,0.2-0.8,0.8-0.8c0.1,0,0.3,0,0.4,0c0.3,0.3,0.5,0.6,0.3,1c0,0.1-0.1,0.1,0,0.2
	C27,6.9,26.8,8,26.8,9c0,0.9,0.1,1.7,0.5,2.6C27.3,11.7,27.3,11.8,27.4,11.9z"/>
<path class="st0" d="M8.5,9.6c0.1,0.7,0,0.7-0.6,1.3c-0.2-0.1-0.4-0.1-0.7-0.2c-0.2-0.1-0.4-0.2-0.6-0.2c-0.3,0-0.6-0.1-0.7-0.3
	C5.8,9.9,5.7,9.6,6.1,9.3c0.6,0.1,1.1,0.2,1.7,0.1C8,9.4,8.3,9.5,8.5,9.6z"/>
<path class="st0" d="M29.9,14.3c-0.1-0.7,0-0.7,0.6-1.3c0.2,0.1,0.4,0.1,0.7,0.2c0.2,0.1,0.4,0.2,0.6,0.2c0.3,0,0.6,0.1,0.7,0.3
	c0.1,0.3,0.2,0.6-0.2,0.9c-0.6-0.1-1.1-0.2-1.7-0.1C30.3,14.5,30.1,14.4,29.9,14.3z"/>
<path class="st0" d="M0.3,11.7c0.2,0,0.3,0,0.5,0C1,11.4,1,11.2,1,10.9c0-0.4-0.2-0.4-0.7-0.3C0.4,11,0.4,11.3,0.3,11.7z"/>
<path class="st0" d="M50.7,6.7c-0.4-0.7-0.4-0.7-0.3-1c0.3,0.2,0.7,0.4,1.1,0.6c-0.1,0.2-0.2,0.3-0.2,0.5
	C51.1,6.8,50.9,6.7,50.7,6.7z"/>
<path class="st0" d="M0.9,8.6C1,8.4,1.1,8.3,1.2,8.2c0.1,0.1,0.3,0.1,0.3,0.1c0.2,0.2,0.1,0.3-0.1,0.5C1.2,8.8,1.1,8.8,0.9,8.6z"/>
<path class="st0" d="M20.3,13.8c0,0.8,0,0.8-0.2,1c-0.2-0.3-0.3-0.6-0.5-1c0.1-0.1,0.3-0.2,0.4-0.3C20.1,13.5,20.2,13.6,20.3,13.8z"
	/>
<path class="st0" d="M0,5.4c0-0.8,0-0.8,0.2-1c0.2,0.3,0.3,0.6,0.5,1C0.6,5.5,0.4,5.6,0.3,5.7C0.2,5.6,0.1,5.5,0,5.4z"/>
<path class="st0" d="M18,13c0.2-0.1,0.3-0.1,0.4-0.2c0.1,0.1,0.2,0.2,0.2,0.2c0.1,0.3-0.1,0.3-0.3,0.4C18.2,13.3,18.2,13.2,18,13z"
	/>
<path class="st0" d="M34.4,12.7c0.1,0.7,0,0.7-0.6,1.3c-0.2-0.1-0.4-0.1-0.7-0.2c-0.2-0.1-0.4-0.2-0.6-0.2c-0.3,0-0.6-0.1-0.7-0.3
	c-0.1-0.3-0.2-0.6,0.2-0.9c0.6,0.1,1.1,0.2,1.7,0.1C34,12.5,34.2,12.6,34.4,12.7z"/>
<path class="st0" d="M28.5,12.1c0.8-0.1,0.8-0.1,1,0c-0.3,0.2-0.5,0.5-0.8,0.8c-0.1-0.1-0.3-0.2-0.4-0.3
	C28.3,12.4,28.4,12.2,28.5,12.1z"/>
<path class="st0" d="M25.6,14.2c-0.1-0.1-0.2-0.2-0.3-0.3c0.1-0.1,0.1-0.2,0.2-0.2c0.2-0.1,0.3,0,0.4,0.2
	C25.8,13.9,25.8,14,25.6,14.2z"/>
<g>
	<path class="st0" d="M6.8,22.6l1.4-3.3H8c-0.2,0-0.4,0-0.5-0.1S7.4,19,7.4,18.8c0-0.1,0-0.3,0.1-0.3c0.1-0.1,0.3-0.1,0.5-0.1h1.3
		c0.2,0,0.4,0,0.5,0.1s0.1,0.2,0.1,0.3c0,0.2-0.1,0.3-0.2,0.4c-0.1,0-0.2,0.1-0.4,0.1l-2,4.7H6.4l-2-4.7c-0.2,0-0.4,0-0.4-0.1
		c-0.2-0.1-0.2-0.2-0.2-0.4c0-0.1,0-0.3,0.1-0.3c0.1-0.1,0.3-0.1,0.5-0.1h1.3c0.2,0,0.4,0,0.5,0.1s0.1,0.2,0.1,0.3
		c0,0.1,0,0.3-0.1,0.4s-0.3,0.1-0.5,0.1H5.5L6.8,22.6z"/>
	<path class="st0" d="M17.6,21.2c0,0.9-0.3,1.6-0.8,2.1s-1.2,0.9-1.9,0.9c-0.6,0-1.2-0.2-1.7-0.7c-0.6-0.6-1-1.3-1-2.3
		s0.3-1.7,1-2.3c0.5-0.5,1.1-0.7,1.7-0.7c0.7,0,1.3,0.3,1.9,0.9C17.4,19.6,17.6,20.3,17.6,21.2z M16.7,21.2c0-0.6-0.2-1.1-0.5-1.5
		c-0.4-0.4-0.8-0.6-1.2-0.6s-0.8,0.2-1.2,0.6s-0.5,0.9-0.5,1.5s0.2,1.1,0.5,1.4s0.8,0.6,1.2,0.6c0.5,0,0.9-0.2,1.2-0.6
		C16.5,22.3,16.7,21.8,16.7,21.2z"/>
	<path class="st0" d="M22.6,19.3v3.8h2.1v-0.9c0-0.2,0-0.4,0.1-0.5s0.2-0.1,0.4-0.1c0.1,0,0.3,0,0.3,0.1c0.1,0.1,0.1,0.3,0.1,0.5
		v1.9H21c-0.2,0-0.4,0-0.5-0.1s-0.1-0.2-0.1-0.3c0-0.1,0-0.3,0.1-0.3s0.3-0.1,0.5-0.1h0.6v-3.8H21c-0.2,0-0.4,0-0.5-0.1
		s-0.1-0.2-0.1-0.4c0-0.1,0-0.3,0.1-0.3c0.1-0.1,0.3-0.1,0.5-0.1h2.1c0.2,0,0.4,0,0.5,0.1s0.1,0.2,0.1,0.3c0,0.1,0,0.3-0.1,0.4
		s-0.3,0.1-0.5,0.1h-0.5V19.3z"/>
	<path class="st0" d="M31.6,19.3v3.8h0.6c0.2,0,0.4,0,0.5,0.1s0.1,0.2,0.1,0.3c0,0.1,0,0.3-0.1,0.3c-0.1,0.1-0.3,0.1-0.5,0.1H30
		c-0.2,0-0.4,0-0.5-0.1s-0.1-0.2-0.1-0.3c0-0.1,0-0.3,0.1-0.3s0.3-0.1,0.5-0.1h0.6v-3.8h-1v0.9c0,0.2,0,0.4-0.1,0.5
		s-0.2,0.1-0.4,0.1c-0.1,0-0.3,0-0.3-0.1c-0.1-0.1-0.1-0.3-0.1-0.5v-1.9h5v1.9c0,0.2,0,0.4-0.1,0.5s-0.2,0.1-0.3,0.1s-0.3,0-0.3-0.1
		c-0.1-0.1-0.1-0.3-0.1-0.5v-0.9H31.6z"/>
	<path class="st0" d="M40.4,22.5H38l-0.2,0.6H38c0.2,0,0.4,0,0.5,0.1s0.1,0.2,0.1,0.3c0,0.1,0,0.3-0.1,0.3c-0.1,0.1-0.3,0.1-0.5,0.1
		h-1.3c-0.2,0-0.4,0-0.5-0.1s-0.1-0.2-0.1-0.3c0-0.1,0.1-0.3,0.2-0.4c0.1-0.1,0.3-0.1,0.5-0.1l1.5-3.8h-0.6c-0.2,0-0.4,0-0.5-0.1
		C37,19.1,37,19,37,18.8c0-0.1,0-0.3,0.1-0.3c0.1-0.1,0.3-0.1,0.5-0.1h2.1l1.9,4.7c0.2,0,0.4,0,0.4,0.1c0.1,0.1,0.2,0.2,0.2,0.4
		c0,0.1,0,0.3-0.1,0.3C42,24,41.8,24,41.6,24h-1.3c-0.2,0-0.4,0-0.5-0.1s-0.1-0.2-0.1-0.3c0-0.1,0-0.3,0.1-0.3s0.3-0.1,0.5-0.1h0.2
		L40.4,22.5z M40,21.5l-0.8-1.9l-0.8,1.9H40z"/>
	<path class="st0" d="M46.3,21.9v1.2h0.3c0.2,0,0.4,0,0.5,0.1s0.1,0.2,0.1,0.3c0,0.1,0,0.3-0.1,0.3c-0.1,0.1-0.3,0.1-0.5,0.1h-1.5
		c-0.2,0-0.4,0-0.5-0.1s-0.1-0.2-0.1-0.3c0-0.1,0-0.3,0.1-0.3c0.1-0.1,0.3-0.1,0.5-0.1h0.1v-3.8h-0.1c-0.2,0-0.4,0-0.5-0.1
		s-0.1-0.2-0.1-0.4c0-0.1,0-0.3,0.1-0.3c0.1-0.1,0.3-0.1,0.5-0.1h2.2c0.7,0,1.2,0.2,1.6,0.5c0.4,0.3,0.6,0.7,0.6,1.2
		c0,0.3-0.1,0.6-0.3,0.8c-0.2,0.2-0.4,0.5-0.8,0.7c0.2,0.2,0.4,0.4,0.7,0.7c0.1,0.2,0.3,0.5,0.6,0.8c0.2,0,0.4,0,0.5,0.1
		s0.2,0.2,0.2,0.4c0,0.1,0,0.3-0.1,0.3C50.2,24,50,24,49.8,24h-0.5c-0.8-1.2-1.4-1.9-1.9-2.2L46.3,21.9L46.3,21.9z M46.3,20.9H47
		c0.3,0,0.5,0,0.7-0.1c0.3-0.1,0.5-0.2,0.6-0.4s0.2-0.2,0.2-0.4c0-0.2-0.1-0.3-0.3-0.5s-0.5-0.2-0.9-0.2h-1.1L46.3,20.9L46.3,20.9z"
		/>
</g>
</svg>
