<?xml version="1.0" encoding="utf-8"?>
<!-- Generator: Adobe Illustrator 27.7.0, SVG Export Plug-In . SVG Version: 6.00 Build 0)  -->
<svg version="1.1" id="Layer_1" xmlns="http://www.w3.org/2000/svg" xmlns:xlink="http://www.w3.org/1999/xlink" x="0px" y="0px"
	 viewBox="0 0 800 11.6" style="enable-background:new 0 0 800 11.6;" xml:space="preserve">
<style type="text/css">
	.st0{fill:#F15D2B;}
</style>
<g>
	<path class="st0" d="M218.6,11.5l-0.1-4.6L217,7.9l-0.1-1.7l-1.3,1l-0.2-1.1l-0.5,1.2l-1-1.6l-0.7,1.5L212.1,6l-0.7,2.4l-0.9-2.5
		L209.2,7l-0.5-0.9l-0.2,1.3l-1.6-1.2l-1.7,4.2l0.5-4.1l-1,0.7l-0.3-0.7L204,7.4l-1.1-1.5l-0.8,1.9l-0.9-1.9l-1.1,1.6l-0.5-1.6
		L199,7.4l-1.1-1.9l-1.3,1.2L196,5.6l-0.7,1.9l-0.6-1.2L194.6,7l-1.4-0.9l-0.3,2.5l-1.3-2.2l-1.4,1.7L189.9,6l-1.1,1l-0.7-1.2
		l-0.7,1.8l-1-1.8l-0.7,1.4l-1.3-1.2l-0.7,2.1l-0.9-1.6l-0.6,1.2l-1-1.2l-0.8,2.6l-0.5-2.5l-0.5,0.8l-1.1-1l-0.6,2.1l-1.2-1.9
		l-1.2,1.5l-0.9-1.7l-1.6,2.2l0.1-2.1l-0.8,0.9l-0.5-1.4l-0.8,1.6L170.1,6l-0.7,1.4l-1.1-1.6l-1.1,1.5l-0.5-0.8l0,2.6L165.4,6
		l-1.2,1.3l-0.5-1.2l-0.6,1.7l-1-2L161,7.7l-0.4-2.1l-1.1,1l0,0.4l-1.7-1.4l-1.3,1.8l-0.6-1.7l-0.8,1.1l-0.7-0.9l-0.2,1.5L153,6.2
		l-0.1,1.8l-1.6-1.6l-1.4,1.9L149.5,6l-1.8,0.9l0-1.8l-1.1,0.7l-0.6-1l-0.6,1.6l-1-1.4L144,6.6L143,5.6l0.1,1.6l-1.7-1.4l-1.1,2.2
		L139.9,6L139,7.1L138.3,6l-0.4,1.7l-1.4-1.6l-0.8,1.7l-1-1.4l-0.5,2l-1-1.8l-0.7,1.6l-0.9-1.6l-1.3,2.5l-0.2-3.1l-1.7,0.4l0-0.1
		L128.1,7l-1.2-1.6l-0.9,0.6l-0.1,0.5l-0.3-0.3l-0.3,0.2l0-0.5l-0.7-0.7L124.1,7l-0.8-0.8l0.2,1.2l-1.9-0.9L121.4,9l-1.2-2.2
		l-1.4,1.3l-0.5-1.7l-1.6,1.7l0-2.2l-0.9,0.5L115,5.6L114.4,8l-1.1-2.6l-2.3,0.5l0.2-0.5l-0.8-0.7l-0.1,1.7l-1.6-1l-0.3,1.9L107,6.1
		l-0.4,2.1l-1.2-1.7l-0.7,1.7l-1.1-1.6l-1.3,1.6l-0.2-1.6l-0.7,1l-0.6-1.2l-0.6,2.3l-0.7-2.5l-0.9,1.3l-0.3-0.7L98,8.2l-1.2-1.9
		l-2,0.7l-0.3-1.7l-1,1.1L92,5.2l-1.2,2.4l-0.5-1.5L90,7l-0.8-0.9L89.3,8l-1.5-1.8l-1,1.9l-0.2-0.9l-1.3-0.8l-0.5,2.7l-1.1-2.6
		l-1,1.3l-1-1.2L81,8.6l-1.1-1.9l-1.2,1.5l-0.9-1.8l-1.7,1.5l-0.1-2l-1,0.7l-0.6-0.8l-0.5,1.7l-0.9-1.1l0,1.3l-1.6-1.1l-1.6,2.3
		l0.3-2.6l-1.7,1.1l0.4-1.6l-0.5,0.4l-0.5-0.9l-0.6,1.6l-1-1.7l-0.8,1.4l-0.9-1.1l-0.3,1.7l-1.4-1.7l-1,1.7L61,5.7l-0.6,1.5L59.3,6
		l-0.4,2.2L57.7,6l-1.4,1.5l-0.2-1.3l-0.6,1.2l-1.2-1.8L52.7,7l-0.6-1.8l-1,1.1l-0.8-0.9l-0.8,3l-0.4-2.3l-0.2,0.6l-1.1-1.4l-1,1.4
		l0,0.6l-1.2-1.7l-0.3,1l-1.6-0.8l-0.8,2.4L41.7,6l-1.8,1.1l-0.3-1.1l-0.4,1.2l-0.9-1.3l-0.3,1.5l-1.2-1.1l-0.4,4.3l-0.9-4.6
		l-1.5,0.9l-0.5-1.5l-1,1.4l-0.9-1.6l-1.2,1.6L30.1,6l-0.2,0.6l-0.6-1.1l-0.1,1.1l-1.7-1.6l-0.9,1.7l-1.4-1L25,7.6l-2-1L20.3,8l0,0
		l-0.1,0l0.1-0.1l-0.7-2l-0.3,0.7L17.8,6l-0.6,2.4l-1.1-2l-1,1.6l-0.8-1.6l-1,1.6l-0.8-1.8l-1.6,1.8l0-1.9L10.2,7L9.5,5.5L8.7,6.9
		L8.1,6.2l0.2,1.6L6.5,6.1L5.7,7.7l-1.1-1L4.3,9.2L3,6.7L1,8.4l0.5-2L0.4,6.9l-0.5-1.8l1-0.3L1,5.4l2-1.1L2.6,5.8l0.7-0.5l0.3,0.6
		l0.1-1.3L5.4,6l0.8-1.7L7,5.2L6.8,2.7l1.8,2.4l1-1.7l0.9,1.8L12,3.4l0,1.9l0.9-1l0.6,1.5l0.9-1.5l0.8,1.6l0.9-1.5l0.7,1.3l0.3-1.1
		l1.7,0.8l0.8-2.5l0.6,1.8l0.4-1.4l1.3,2L24.4,4l0,0l0.5-0.2l-0.3,0.4l1.6,1.2l0.9-1.8l1.2,1.1l0.3-2.3l1,1.9l1-2.5l0.3,2.5l0.7-0.9
		l0.8,1.6l1.2-1.7l0.8,2.1l1.5-0.9l0-0.3l1.4,1.3l0.4-2L38.8,5l0.8-2.4l0.8,3l1.6-0.9l0.6,1.2l0.4-1.3l1.5,0.8l0.6-1.8l0.7,1
		l0.2-3.1l1,3.3l0.7-0.9l0.8,1l1-2.5l0.2,1.4l0.1-0.3l1.3,1.4l1.4-1.5l0.7,1.9L54.4,4l1,1.4l1.3-2.4L57,5.3l1-1l0.5,0.9l0.2-1.3
		L60,5.3l0.8-1.9l1.1,1.8l0.9-1.5l1,1.2L64,3.2l1.3,1.6L66.3,3l0.8,1.4l0.6-1.8l1,2l1.8-1.2l-0.5,1.7l1.3-0.8l-0.1,0.9l0,0l0.9,0.7
		l0.1-2.2l1.4,1.7l0.5-1.7l1.2,1.6L77,4l0.1,1.7l1.1-1l0.8,1.5L80,4.9l0.7,1.3l0.6-1.6l1.3,1.7l1.3-1.6l0.4,1l0.1-0.8l1.4,0.9
		l0.4-3.4l0.8,3l0.5-0.9l0.6,0.7l-0.1-1.6l1.5,1.7L90.4,3l0.6,2l0.7-1.4L93.4,5l1.8-1.8l0.4,2.4L97.1,5l0.2,0.3l0.2-2.1l1.1,2.5
		l1.1-1.5l0.3,1.1l0.4-1.4l1,2l1.3-1.9l0.2,1.9l0.7-0.8l0.8,1.2l0.7-1.7l0.9,1.3l0.3-1.5l1.3,1.1l0.3-1.6l1.5,0.9l0.2-2.1l1.7,1.5
		l3.1-4.1l-1.8,4.5l1.2-0.3l0.3,0.7l0.3-1.2l1.4,1.4l1.7-1l0,1.5l1-1.1l0.5,1.8l1.2-1l0.4,0.7l0.1-1l1.3,0.7l-0.4-2.4l1.8,1.8
		l0.4-1.7l1.2,1.2l0.2-0.9l1,0.1l-0.1,0.8l0.8-0.5l0.7,0.9l1.1-2.9l0.4,3.2l1.8-0.4l0,0.7l0.4-0.9l0.9,1.5l0.7-1.6l0.8,1.4l0.4-1.6
		l1.3,1.7l0.8-1.6l1.1,1.2l0.5-2l1.3,1.8l1.3-1.7l0.3,1.4l0.3-0.7l0.9,0.7l-0.2-2l1.7,1.7l0.6-1.9l1.1,1.6l0.7-1.8l1.1,1.8l1.7-1.2
		l0,2l1.6-0.8l0.2,1.4l0.7-0.9l0.8,0.9l0.1-1.7l1.3,1.3l0.3-2l1.3,1.8l1.2-1.7l0.6,1.8l0.8-1.1l0.9,0.7l0-4.1l1.4,4.2l1.4-1.3
		l0.3,1.4l0.8-1.2l0.7,1.5l0.7-1.9l0.9,2.1l1.2-1.3l0.1,0.1l0-1.5l1.6,2.7l1-1.4l0.9,1.4l0.9-1.9l0.7,1.8l0.9-1.7l0.7,1.9l1.6-1.8
		L174,5.3l0.5-0.7l0.9,1.7l1.1-1.4l0.8,1.3l0.4-1.5l1.4,1.3l1.2-1.7l0.2,1l0.2-0.7l1.2,1.4l0.8-1.5l0.8,1.3l0.5-1.4l1.4,1.3l0.9-1.9
		l1,1.6l0.7-1.8l1.1,2l1.6-1.4l0.3,1.6l0.9-1.1l0.5,0.8l0.1-1l1.5,0.9l0.4-2.6l1,2.2l0.7-1.8l1,2l1.3-1.1l0.8,1.3l1-2.1l0.6,2.1
		l0.9-1.3l0.6,1.4l0.6-1.4l1,1.3l0.6-2.2l0.9,2.5l1.7-1.2l-0.1,0.6l1,0.8l0.4-2.3l1.3,2.1l1.4-1.3l0.4,1.1l0.4-1.3l1.3,1.5l0.8-1.8
		l1,1.5l1-2.4l0.6,2.6l1.6-1.2l0.1,1.9l1.6-0.9l0,0.3l1,0.8l0.3-2.2l1.1,1.7l0.4-1.3l1.5,1.1l0.8-2.2l1,2l1-1.4l1.1,1.4l1.2-1.5
		l0.1,0.4l0-0.3l1.5,1.1l0.4-2.3l1.1,1.9l0.9-2l0.5,2.1l1.4-1.8L234.6,5l0.9-0.8l0.8,1l0.4-1.7l1.6,1.4l1.1-1.4l0.4,0.7l0.4-2.4
		l0.9,2.7l1.2-1.4l0.4,1.9l1.4-1.1l0.5,1.8l1.2-1.1l1,1.1l0.7-2.6l0.8,2l0.4-1l0.6,0.4l-0.7-1.7l2.2,1.4l0.8-2.2l0.9,2.1l1.8-2.1
		l-0.4,2.4l0.8-0.5l0.9,1.5l1.5-1.5l0.6,1.8l1.2-1.3l0.9,1.3l0.5-1.7l0.9,1.4l0.6-1.9l0.8,1.8l0.7-1.6l0.7,1.8l1-1.7l0.4,1.9
		l0.9-1.2l0.5,1.3l0.5-1.4l1.2,1.6l0.9-1.6l1,1.2l0.5-2l1.3,2l1.2-1.6l0.8,1.7l1.1-1.4l0.3,0.4l-0.3-1.4l1.7,1.8l0.7-2.3l0.6,1.7
		l0.5-1.4l1,2.2l1.6-1.4l0.1,0.9l0.2-0.5l1.4,1.1l1.3-2l0.1,1.5l0.4-0.8l0.8,1.4l0.9-1.3l0.8,1.1l0.2-1.4l1.8,0.9l0.9-2.1l1,1.5
		l0.4-2l1.1,1.9l1-1.6l0.6,1.6l1.3-2.2l0.1,2.6l1.5-1.1L297.3,5l1-0.9l0.2,1.3l0.7-1.2l1,1.7l1.2-1.6l0.5,1.5l0.4-0.9l1.5,0.9l1-2.4
		l0.8,2.4l1.4-1.1l0.3,0.6l0-0.6l1.6,0.6L308.7,3l1.9,1.6l1.6-2.8l0,3l1.3-0.9l0.4,1.4l0.8-1.2l1.1,1.4l1.4-3.5l-0.2,3.6l1.2-1.1
		l0.1,1.3l0.6-0.8l1,1.5l1.1-1.6l1,1.7l1-1.4l1,1.1l0-0.6l1,0l0,0.5l1.5-1.6l-0.2,1.2l0.9,1l0.1-1.2l1.5-0.1l-1.4-2.2L330,4l1.6-1.9
		l0.2,2.2l1.5-1l0.1,1.5l0.9-1.1l0.8,1.7l1.4-1.5l0.5,2l1.4-1.1l0.4,1.3l0.5-1.1l1.3,1.1l0.8-2.1l1,1.9l0.8-1.2l0.2,0.2l-0.3-1.2
		l1.6,1l-0.8-4.8l1.9,4.6l1.7-1.1l0.4,1.6l1.2-1.3l0.5,1.7l0.8-1l0.9,0.9l0.3-1.8l1.5,1.4l0.9-1.9l1,1.5l0.6-2l1,2l1.2-1.3l0.6,1.2
		l0.4-1.2l1.1,1.2l1.9-4l-0.7,4.3l1.6-0.8l-0.1,0.3l1.2,0.9l0.6-2.2l1.2,2l1.4-1.4l0.6,1.6l1.1-1.4l0.8,1.5l1-1.6l0.9,1.8l0.5-0.4
		l-0.6-1.7l2,1.7l0.2-2.8l1.2,2.6l0.9-1.5l0.8,1.6l1.3-2.1l0.2,2L379,4l1.2,1.7l1.4-1.5l0.6,1.7l1-1.5l0.8,1.1l0.1-1.5l1.7,1.2
		l0.6-2.1l1.2,1.8l1.8-2.2L389,4.6l0.9-0.8l0,0.1l0.1-0.4l1.1,1.7l0.7-1.7l1,1.7l1.6-2.5l-0.3,3l1.5-0.8l0.7,1.4l0.7-1.3l1.7,0.9
		l2.3-5.6l-0.5,3.1l1.8,1.4l1.1-1.8l0.9,2l1.7-1.4l0.1,2.1l1.4-0.8l0.2,0.8l0.6-1.4l0.6,1.5l0.5-1.6l0.9,1.8l1-1.3l0.8,1.4l0.8-1.6
		l1.1,1.8l1.1-1.3l0.3,0.4l0-0.8l1.4,0.7l-0.4-2.5l1.9,2l1.7-1.2l0.3,1.8l1.3-1.1l0.9,1.5l1.1-1.6l-0.1-0.4l1.6,1.1l0-2.4l1.5,2.2
		l1.3-1.5l0.6,1.5l0.6-1.3l1.4,1.2l1.1-2.9l0.4,2.7l1.5-1.3l0,1.1l0.5-0.8l0.7,1.7l1.4-1.4l0.1,1.9l1-0.9l0.7,1.3l0.8-1.6l0.8,1.2
		l0.2-1.3l1.6,1.1l0.8-2.2l0.7,1.4l0.3-1.9l1.2,2.4L447,4l-1.1,1.7l0.4-0.1l0.8,1.1l0.7-1.5l1.6,1l0.7-2l1.5,1.4l1.3-1.2l0.4,0.8
		l0.2-1.1l1.2,1.1l0.2-4.2l1.1,4.3l1.9-0.9l-0.3,1.3l0.5-0.4L458,4.4l1.6,1.4l0.6-2.2l0.8,1.8l0.6-1.5l1,1.7l0.9-1.8l0.8,1.9
		l1.2-1.5l0.3,1.2l0.3-1l1.6,1.2l1.3-2.4l0.5,2.5l0.8-0.6l1,0.4l0.2-2.5l1.6,2l1.2-1.7l0.9,1.8l1.4-1.2l0.2,0.7l0.3-1l1,1.6l0.5-1.1
		l1,0.8l0.4-2l1.2,1.5l0.5-1.9l1.1,1.8l1.6-0.8l0,1.4l1.2-1.1l0.3,1.8l0.9-0.9l0.3,0.4l0,0l-0.1-1l1.8,1l0.6-2.4l1.1,2.2l1.8-1.4
		l-0.3,2.1l1.8-0.7l-0.3,1.3l0.4-0.3l1,1l0.4-1.7l1.7,1l0.8-2.2l1,1.4l0.1-1.1l1.4,0.7l-0.3-3.8l1.6,3.6l1.7-2.1l-0.4,2.9l1.5-0.5
		l0.2,1l0.6-1l1,1l0-1.7l1.2,1.1l0-2l1.5,1.8l0.8-2.1l0.7,2.1l1.1-1.5l0.5,1.6l0.8-1.2l0.9,1.2l0.6-1.8l1.1,1.7l0.7-1.5l0.8,0.7
		l-0.7-5l2.1,5.5l1.8-0.9l0.3,1.5l1-1.1l1.1,1.3l1.2-1.9l0.4,1.9l1.1-1.3l0.4,1.6l0.7-1l0.9,0.9l0-1.6l1.8,1l0.6-2.2l1.3,1.6
		l0.8-1.7l0.6,1.1l0.2-1.5l1.2,1.7l0.7-1.9l1,2.1l1.6-1.8l-0.1,2.3l1.4-0.8l0.1,0.4l0.1-0.5l1.5,1.1l0.6-1.9l1.5,1.4l2.2-3.9
		L544,4.7l1.3-0.7l0.2,1.3l0.8-1.1l0.1,0.2l-0.2-1.3l1.6,1.9l0.6-2.4l0.6,1.8l0.4-1.1l1.3,1.9l1.4-1.6l0.8,2l1.7-1.1l0.1,0.6
		l0.1-0.3l0.7,0.4l-0.9-2l2.2,1.8l1.2-1.6l0.6,1.4l0.8-1.5l0.5,1l0.1-1l1.6,1.1l1.7-1.2l0.3,1.8l1-1l1.2,1.3l1.3-2.3l0.3,1.3
		l0.2-0.5l0.9,0.6l-0.5-2.2l1.9,2l1.5-1.2l0.5,1.4l0.7-1.3l1.3,1.5l1.6-2.3l0.2,2.4l1.3-1l0.6,1.5l1-1.4l0.6,1.2l0.3-1.4l1.2,1.3
		l0.2-1.4l1.4,0.8l0-1.1l1,0l0.2,1.4l1.6-0.9l0.3,1.7l1.4-1l0.1,0.2l0-0.4l1.7,1l0.5-2.1l1.3,1.5l1.3-2.9l0.2,3l1.2-0.9l0.2,0.6
		l0.3-1.2l1.1,2l1.7-0.9l0.2,1.4l0.9-1.1l0.9,1.4l0.5-1.2l1.2,0.8l0.4-2.1l1.3,1.6l0.8-2.1l0.9,2.1l1.7-0.7l0,0.2l0.9,0.9l0.4-2.6
		l0.8,1.8l0.1-0.9l1.4,0.9l-0.1-2.3l1.7,1.9l2-1.4l-0.4,2.4l1.7-0.2l0,0.8l0.5-0.7l1,0.9l0.1-1.5l1.8,0.8l0.6-3.2l0.8,2.7l0.6-1.3
		l1.4,1.2L621,3l1.4,1.4l1-2.3l0.8,2.2l1.6-1.1l0.2-0.5l0.7,2.1l1.8-1.2l-0.2,1.9l1.2-0.7l0.3,0.9l0.2-0.5l1.5,0.4l0-2.8l1.8,2.3
		l1.6-1.4l0.6,1.6l1.3-2.4l0.2,2.7l1.6-1.1l-0.1,1.6l0.7-0.6l0-0.2l1.4,0.2L639,3.3l2.5,1.2L643,3l0.7,1.7l0.9-1.3l1.3,1.2l1-2.1
		l0.8,2.1l1.5-1.1l0.4,1.2l0.5-1.1l1.3,0.9l0.2-3.3l1.1,3l1-1.5l0.5,1.8l2-2.6l-0.7,2.9l0.8-0.6l0.2,0.7l0.3-1.2l1.1,1.6l1-1.7
		l0.6,1.6l0.8-1.5l0.8,1.6l1-1.7l0.6,1.8l1.2-1.6l0.4,2.1l1.6-1.2l0,1.2l0.4-0.7l0.9,1l0.1-1.3l1.8,0.6l0.3-1.9l1.3,1.2l0.7-2.3
		l1.1,2.3l1.8-1.2l0.1,1.2l0.6-1.1l0.7,1.3l0.3-1.1l1.5,0.8l0.5-4l1,4.2l1.4-1l0.9,1.6l1.4-1.5l0.5,1.3l0.3-1.1l1.2,1.1l0.5-2.7
		l0.7,2.3l0.3-0.7l1.3,0.8l0.4-2.2l1.4,1.6l0.7-1.7l1.3,1.5l0.6-0.7l0.1-0.3l0.1,0.1l1.1-1.1l0-0.3l1.5,2.5l1.4-1.5l0.7,1.8l1.3-1.4
		l0.8,1.4l0.9-1.8l0.4,1.4l0.5-1.3l0.5,1l0.1-0.9l1.7,1.5l1.1-2l1,1.9l1.2-1.3l1.2,1.3l1.4-3.9l-0.2,3.8l1.1-1.1l0.1,1.2l0.3-0.6
		l1,0.8l0.2-2.1l1.5,2l1.7-1.5l0,1.8l1-1l0.5,0.8l0.1-1.1l1.8,0.8l0.6-4l0.8,3.8l1.7-1.3l-0.2,1.6l0.9-0.8l0.4,1.3l0.8-1.4l1.1,1.6
		l1-1.6l1,1.4l0.5-1.5l1.2,1.2l1.3-3.5l-0.1,3.7l1.7-0.9l-0.2,0.9l0.4-0.4l0.8,0.9l0-1.2l1.8,0.2l-0.2-1.4l1-0.2l0.5,1.4l1.8-1
		l0.1,1.5l0.9-1l0.8,1.7l1.1-0.5l0.1-0.8l1.3,1.3l0.4-1.8l1.4,1.6l1-1.8l0.9,1.7l0.9-1.6l1,1.7l1.4-1.3l0.4,1.7l1.2-1.3l0.5,1.8l1-1
		l0.3,0.3l-0.2-1.1l2.1,0.6l1-2.7l0.6,2.1l0.6-1.5l1,1.6l0.7-1.5l1.2,1.2l1.4-4.1l-0.1,4l1.1-0.8l0.4,1.1l0.5-1.4l1.2,1.7l1.9-2
		l-0.5,2.4l1.2-0.7l0.2,1.2l0.7-1l0.6,1.1l0.3-1.2l1.1,0.8l-0.3-2.6l1.7,2.4l1-1.5l1.1,1.1l0.4-2l1.5,1.7l1.1-1.5l0.8,1.4l1.8-1.9
		l-0.3,2.3l1.4-0.9l-0.1,1.4l0.8-0.8l0.1,0.1l1.4,0.4l-1.1-3.7l2.4,3.2l1.2-1.9l0.5,2l1.1-1.1l0.6,1.4l1-1.4l1.1,1.7L789,4l0.8,1.9
		l1.2-1.1l0.3,0.4L791,2l1.6,3.5l1.5-1.4l0.1,0.8l0.4-1l1,1.9l1.3-1.7l0.3,2.4l0.2,0.1l-0.8,3.4l-0.5-3.3l-0.8,1.1l-0.7-1.3l-1,2.6
		l-0.4-2.8L792.5,7l0.1,1l-1.7-1.8l-1.5,1.4l-0.8-1.7l-1.2,1.4l-1.1-1.6l-1.2,1.7l-0.7-1.7l-1.3,1.3l-0.3-1.4l-0.7,1.1l0.1,0.2
		l-1.9-0.5l0.1,3.6L779,6.6l-1.7,1.8l0.2-2.2l-1.6,1l0.2-1.2l-0.5,0.5l-0.7-1.3l-0.9,1.3l-1-1.1l-0.4,1.9L771,5.6l-1.1,1.6l-0.3-0.4
		l0.1,1L768,6.6l-0.5,2.3l-1.1-1.9l-1.3,1.9l-0.3-2.3l-1.9,1.1l0.2-1.1l-0.3,0.3L762,5.5l-0.7,2l-0.9-2.2l-1.7,1.3l0-0.2l-1.3-1.3
		L756.6,7l-1-1.5l-1,2.4l-0.6-2l-0.2,0.7l-1.4-0.4l0.6,2.6l-2-1.9l-1.6,1.5l-0.4-1.7l-1.3,1.4l-0.4-1.9l-1.1,1l-0.7-1.3l-1,1.6
		l-0.9-1.6l-0.8,1.4l-1-1.2l-0.4,1.7l-1.1-1.2l-0.5,4L739,6.4l-1.2,0.6l-0.6-1.2l-1.6,1.7l-0.1-2.3l-1,0.6l0,0.2l-0.4,0l-0.1,0.1
		l0-0.1l-1.4-0.1l0,2.5l-1.8-1.9l-2.2,2.6l0.5-2.7l-1.4,0.7l0-0.2l-1-1l-0.6,1.8L725,5.9l-1,1.6L723,6l-1.1,2l-0.7-2.1l-1.7,1.5
		l0.2-1.9l-1.1,0.8l0,0l0,0l0,0L717,5.6l-0.1,2.8L715.3,6l-1.7,1.8l0-2l-0.9,0.8L712,5.8l-0.1,1.5l-1.6-1.4l-1.3,2.2l-0.2-2.2
		l-1.4,1.3l0-0.7L706.1,5l-1.4,1.6L703.8,5L703,6.4l-1.2-1l-0.3,2.5l-1-2l-0.7,1.9l-0.5-1.8l-0.6,1.2l-1-2l-1.4,1.5l-0.7-1.8
		l-1.2,1.3l-0.5-0.9l-0.1,1.1l-1.5-1.3l-0.2,0.7l-0.8-0.2L691,5.9l-1-1.1l-0.7,1.7l-1.1-1.3L688,6.8l-1.6-1l-0.9,2l-0.3-1.1L685,7.5
		l-1.3-1.3l-0.7,2.4L682,6l-1.3,1.3l-1-1.8L678,6.8l-0.1-0.3l-1.6-0.9L675.7,8l-1-1.9l-1.3,2.3l-0.3-2.8l-1.3,0.9l-0.5-1l-0.4,1.3
		l-1-1l-0.2,1.3l-1.7-0.6l-0.1,2.4L666.3,7l-1.6,2.5l0-2.6l-1.2,1l-0.3-1.4l-0.9,1.3l-0.5-1.5L661,7.7l-0.8-1.6l-0.9,1.7L658.7,6
		l-0.7,1.2l-0.8-1.1l-0.5,2.3l-0.9-2.6l-1.9,1.4l0.2-0.8l-0.3,0.4l-0.5-1.6l-0.9,1.4l-0.1-0.3l0,0.1l-1.8-1.3l-1.1,2.2l-0.7-2.2
		l-1.4,1.1l-0.5-1.2l-0.6,1.2l-1.5-1.4l-1.3,1.8l-0.8-2l-0.9,0.9l0.6,0.9l-2.1-0.2l0.6,3.2l-1.9-2.7l-1.7,1.5l0.2-2l-1.3,0.9
		l-0.1-0.9l-0.6,1.1l-0.9-2.3L633,6.5l-0.6-0.8l0,1.1l-1.8-0.5l-0.9,2.5l-0.7-2.5l-1.8,1l0.2-1.7l-1.1,0.7l-0.3-0.9l-1.2,2.9
		l0.1-3.2l-1.1,0.8l-0.4-1.1l-0.5,1.3l-1.3-1.3l-0.6,1.8l-1.5-1.3l-1.2,2.4l-0.4-1.3l-0.1,0.4l-1.6-0.7L616,8.3l-1.7-1.5L612.7,9
		l0-2.8l-1.9,0.3l0.2-1.3l-0.8,0.6l-0.4-0.5l0,1.3l-1.7-1l-0.4,2.7l-0.9-1.8l-0.2,1.2l-1.5-1.4l-1.6,3.5l0.3-3.7l-1.1,0.5l-0.3-0.7
		L602,7.2l-1-1.2l-0.3,1.5l-1.4-0.9l-0.8,1.9l-1.2-1.8l-1.5,1.9l-0.3-2.4l-1.3,0.7L594,6.1l-0.6,2.2l-0.8-2.7L591,6.8L591,6.1
		l-0.3,0.6l-1.1-1.2l-0.3,1.5L588,6.1l0,3.5l-1.5-3.5l-1.6,1.2l-0.4-2L583.3,6l0,0.2l-0.2-0.1l-0.4,0.2l-0.1-0.5l-1-0.6l-0.3,2
		l-1.3-1.4l-0.5,2.3l-1.1-2.3l-1.1,1.6l-0.7-1.9l-1.6,1.3l-0.1-1.5l-0.7,1L572.9,5l-1.1,2l-0.7-2.2l-1.1,0.8l0.3,1.2l-1.9-1.3
		l-0.8,2.7l-0.6-2.4l-0.8,1.3l-1.4-1.5L563,7.3l-0.3-2.1l-0.9,0.7L561,5.4l-0.2,2.5l-1.2-2.2l-0.9,1.7l-0.8-1.7l-0.7,0.9l0.6,1.4
		l-2.3-1.4l-0.8,3.2L554,6.3l-1.6,0.9l-0.6-1.6L550.7,7l-0.9-1.3l-0.7,2.1l-0.4-1.4l-0.2,0.9l-0.5-0.6l0.4,2.4l-2-3L545,7.8
		l-0.4-2.2l-1.9,1l0.1-0.4l-1.2-1.1L541,6.8l-1.5-1.1l-1,3.4L538,5.7l-1.8,0.9l0.1-1.3l-0.8,0.9l-0.6-1.2l-0.5,1.4l-0.8-1.2l-0.3,2
		l-1.1-1.9l-0.6,1.4l-1.1-1.3l-0.4,1.5l-1.5-0.8l-0.1,2.3l-1.7-1.6l-1.2,1.9l-0.5-1.9L524,8l-0.3-1.6l-0.6,1l-1.2-1.5l-1.5,1.8
		l-0.5-2.3L518.5,6l0.1,0.9l-1.9-1.7L515.9,7l-0.9-1.4l-0.5,1.7l-1.2-1.6l-1.2,1.8l-0.5-1.8l-1.1,1.4L510,5.8l-0.4,1.1l-0.7-0.9
		l0,1.5l-1.3-1.2l0,1.8l-1.7-1.6l-1.2,2.3l-0.6-2.6l-2,0.7l0.1-1l-0.4,0.5l0,0.1l-0.1,0l-0.1,0.1l-0.1-0.2l-1.5-0.7L499.9,8l-1.4-2
		L498,7.5l-1.6-1l-0.5,2.1l-1.6-1.5l-2,1.7l0.5-2.3l-1.6,0.7l0.2-1.4l-0.8,0.7l-0.4-0.8l-0.3,1l-1.2-0.7l0.3,2.6l-1.8-2.3l-1.5,1.5
		l-0.4-1.8l-1.5,1.4l-0.1-2.1l-1.1,0.5l-0.4-0.6L482,6.7l-1.1-1.4l-0.3,1.6l-1.3-1.1l-0.8,1.5l-0.8-1.3l-0.8,2.5l-0.6-2.7l-1.1,0.9
		l-0.7-1.4l-1,1.4l-0.8-1.1L472.4,7l-1.8-0.8L469,7.3L468.7,6l-0.5,1L466.7,6l-1,2.9l-0.7-2.6l-1,1.3l-0.6-1.4l-0.7,1.4l-0.9-1.4
		l-0.7,1.8l-0.7-1.4l-0.3,1.2l-1-0.9l0.3,3.8l-1.6-4l-1.9,1.6l0.5-2.1l-0.8,0.4l0,0.6l-1.5-1.3l-0.5,2.5L452.5,6l-0.9,0.9l-1.1-1
		l-0.6,1.8l-1.7-1.1l-1,2.1l-1.3-1.9l-2.4,0.8l0.9-1.3l-0.5,0.2l-0.3-0.5l-0.3,1.9l-1.1-2.1l-0.4,1.2l-1.3-0.9l-0.3,2.3l-1.3-1.9
		L438,8.1l-1-1.9l-1.6,1.4l-0.1-1.7l-1,1l-0.5-1.3l-1.3,2.1l0-2.4l-1.1,1l-0.2-0.9L431,6.2L429.5,5l-1,2.1l-0.9-2l-1.1,1.3l-0.3-0.5
		l0,1L425,6l0.5,3.2L423.7,6l-1.1,1.6l-1.1-1.8l-1.7,1.4l-0.4-2l-1.2,0.8l-0.2-0.2l0.2,1.1l-1.7-0.9l0,2.8l-1.4-2.4L414,7.9
		l-0.8-1.3l-0.8,1.7l-1-1.8l-1.1,1.4l-0.5-1.1l-0.6,1.7l-0.7-1.7l-0.8,1.8L407,6.3l-1.7,1l0-1.7l-1.1,0.9l-0.7-1.4l-0.7,1.2
		l-0.5-0.4l0.4,1.7l-2-1.7l-1.9,3.3l0.3-2.1l-1.5-0.7l-1.1,2.2l-1.1-2.2l-2.3,1.2l0.1-0.9l-0.3,0.5L392,5.8l-0.7,1.6L390.4,6l-0.8,3
		l-0.4-3.2l-1.6,1.4l0.2-1.2l-0.2,0.2l-0.8-1.2l-0.4,1.5l-1.4-0.9l-0.1,2.4L383.2,6l-1.3,2l-0.7-2L380,7.2l-1-1.4l-1.5,2.4l-0.2-2
		l-0.6,1l-0.8-1.6L375,7.2l-0.4-0.8l-0.1,0.8l-0.8-0.6L373,6.9l-0.3-0.6l-1.2,1L370.9,6l-1,1.6L369,5.8l-1.2,1.5l-0.7-1.8L366,6.7
		l-0.7-1.2L364.8,7l-1.6-1.2l-2.2,3.9l0.7-3.9l-1.5,0.7l0.1-0.6l-0.7-0.8l-0.7,2l-1-2.1l-1.2,1.3l-0.6-1.1l-0.5,1.7l-1.2-1.8
		l-0.7,1.5l-1.2-1.1l-0.3,1.9L350.7,6l-1.3,1.6l-0.5-1.8l-1.3,1.4l-0.5-2l-1,0.6l0.2,1L344.8,6l0.6,2.2l-1.9-1.8L342.4,8l-0.7-1.4
		l-0.5,1.3l-1.4-1.2l-1,2.2L338,6.5l-1.5,1.2L336.1,6l-1.2,1.2l-0.7-1.7l-1.4,1.6l-0.2-2.1l-1.5,1l-0.2-1.5l-0.5,0.6L329.8,5
		l0.8,1.2l-2.2,0.2L328.1,9l-1.6-1.7l-1.8,2.6l0.2-1.1l-0.4-0.4l-0.2,0.3l0-0.6l-1.1-1.2l-1.2,1.7l-0.9-1.6l-1,1.5l-1-1.6l-1.4,1.9
		l-0.1-2.1L316,7.7l0-0.5l-1.2-1.5l-1.2,1.9l-0.6-2.1l-1.7,1.1l0-1.1l-0.3,0.6L310,5.3l0.1,1.4L308.3,6L308,9.3l-1.3-3.1l-1.5,1.2
		l-0.4-1.2l-0.4,1l-1.5-0.9l-1,2.1l-0.7-2l-1,1.3l-0.9-1.5L298,8.3l-0.4-2.2l-1.5,1.5l0.2-1.9L295,6.6l0-1l-0.6,1l-0.6-1.7l-0.8,1.4
		l-0.6-1.1l-0.4,1.8l-1.3-2L290,6.2l-1.6-0.8L288,7.9L286.6,6l-1,1.5l-0.7-1.3l-1.2,2.1l-0.2-2l-0.3,0.5L282,5.9l-1.1,3l-0.4-3
		l-1.1,1.1l-0.6-1.2l-0.6,1.9l-0.5-1.5L277.4,7l-0.6-0.6l0.4,2.2l-2.1-2.8l-1.2,1.6l-0.9-1.7L272,7.2l-0.9-1.3l-0.5,1.8l-1.3-1.6
		l-0.8,1.6l-1-1.3l-0.8,2.2l-0.8-2L264.8,8l-0.3-1.6l-0.7,1.3l-0.6-1.4l-0.6,1.6l-0.6-1.4l-0.4,1.4l-0.9-1.4l-0.5,1.6l-1.3-2
		l-1.5,1.6l-0.6-2L255.3,7l-1-1.7l-1.8,1.2l0.2-1.1L252.2,6l-0.5-1.2l-0.3,1l-0.6-0.4l0.6,1.5l-2.2-1.3l-0.9,2.1l-0.6-1.5l-0.4,1.5
		l-1.5-1.7l-1.6,1.5l-0.5-1.9l-1.5,1.2l-0.3-1.5l-1.1,1.2L240.6,6l-0.2,1.1l-1-1.7l-0.9,1.1l-1.1-1l-0.4,2l-1.5-1.8l-1.9,1.8
		l0.1-1.4l-0.7,0.9l-0.3-1.3L232,6.8l-0.6-1.1l-0.2,1.2l-1.4-1l-0.4,3.3l-0.9-3l-0.8,1l-1.1-1.3l-1.2,1.6L224.7,6l-0.5,1.3l-1.4-1
		l-0.6,2l-0.8-1.3l-0.2,1.3L219.8,7L218.6,11.5z M324.9,7.8l0,0.9l0.2-1L324.9,7.8z M21,5.6l-0.6,2.2l1.2-1.4L21,5.6z M23.3,5.7
		l0.8,0.4l0.2-1.7L23.3,5.7z M400.5,4.5l0.5,0.4l-0.3-1.4L400.5,4.5z M692.5,4.1l0.3,0.3l0.1-1.9L692.5,4.1z"/>
</g>
</svg>
